<?xml version="1.0" encoding="UTF-8" standalone="no"?>
<!-- Created with Inkscape (http://www.inkscape.org/) -->

<svg
   xmlns:dc="http://purl.org/dc/elements/1.1/"
   xmlns:cc="http://creativecommons.org/ns#"
   xmlns:rdf="http://www.w3.org/1999/02/22-rdf-syntax-ns#"
   xmlns:svg="http://www.w3.org/2000/svg"
   xmlns="http://www.w3.org/2000/svg"
   xmlns:sodipodi="http://sodipodi.sourceforge.net/DTD/sodipodi-0.dtd"
   xmlns:inkscape="http://www.inkscape.org/namespaces/inkscape"
   id="svg2"
   version="1.1"
   inkscape:version="0.48.1 r9760"
   width="118.1461"
   height="95.011391"
   xml:space="preserve"
   sodipodi:docname="barcode.pdf"><metadata
     id="metadata8"><rdf:RDF><cc:Work
         rdf:about=""><dc:format>image/svg+xml</dc:format><dc:type
           rdf:resource="http://purl.org/dc/dcmitype/StillImage" /><dc:title></dc:title></cc:Work></rdf:RDF></metadata><defs
     id="defs6"><clipPath
       clipPathUnits="userSpaceOnUse"
       id="clipPath16"><path
         d="M 0,0 576,0 576,792 0,792 0,0 z"
         id="path18"
         inkscape:connector-curvature="0" /></clipPath><clipPath
       clipPathUnits="userSpaceOnUse"
       id="clipPath40"><path
         d="m 0,0 99.156,0 0,77.641 L 0,77.641 0,0 z"
         id="path42"
         inkscape:connector-curvature="0" /></clipPath><clipPath
       clipPathUnits="userSpaceOnUse"
       id="clipPath50"><path
         d="m 0,0 0,77.641 99.156,0 L 99.156,0 0,0 z"
         id="path52"
         inkscape:connector-curvature="0" /></clipPath><clipPath
       clipPathUnits="userSpaceOnUse"
       id="clipPath60"><path
         d="m 0,0 99.156,0 0,77.641 L 0,77.641 0,0 z"
         id="path62"
         inkscape:connector-curvature="0" /></clipPath><clipPath
       clipPathUnits="userSpaceOnUse"
       id="clipPath174"><path
         d="M 0,0 0,792 576,792 576,0 0,0 z M 0,0 576,0 576,792 0,792 0,0 z"
         id="path176"
         inkscape:connector-curvature="0" /></clipPath></defs><sodipodi:namedview
     pagecolor="#ffffff"
     bordercolor="#666666"
     borderopacity="1"
     objecttolerance="10"
     gridtolerance="10"
     guidetolerance="10"
     inkscape:pageopacity="0"
     inkscape:pageshadow="2"
     inkscape:window-width="938"
     inkscape:window-height="744"
     id="namedview4"
     showgrid="false"
     fit-margin-top="0"
     fit-margin-left="0"
     fit-margin-right="0"
     fit-margin-bottom="0"
     inkscape:zoom="0.92852406"
     inkscape:cx="315.23341"
     inkscape:cy="-94.265442"
     inkscape:window-x="0"
     inkscape:window-y="20"
     inkscape:window-maximized="0"
     inkscape:current-layer="g10" /><g
     id="g10"
     inkscape:groupmode="layer"
     inkscape:label="barcode"
     transform="matrix(1.25,0,0,-1.25,-50.858893,942.75156)"><g
       id="g30"
       transform="translate(36,676.559)"><g
         id="g32"><g
           id="g34"
           transform="scale(99.156,77.641)"><g
             id="g36"
             transform="scale(0.01009,0.01288)"><g
               id="g38"
               clip-path="url(#clipPath40)"><g
                 id="g44"
                 transform="matrix(1,0,0,-1,0,77.641)"><g
                   id="g46"><g
                     id="g48"
                     clip-path="url(#clipPath50)"><g
                       id="g54"
                       transform="scale(99.156,77.641)"><g
                         id="g56"
                         transform="scale(0.01009,0.01288)"><g
                           id="g58"
                           clip-path="url(#clipPath60)"><path
                             d="m 10.29,0 0,70.625 0.935,0 0,-70.625 -0.935,0 z"
                             style="fill:#000000;fill-opacity:1;fill-rule:nonzero;stroke:none"
                             id="path64"
                             inkscape:connector-curvature="0" /><path
                             d="m 12.161,0 0,70.625 0.935,0 0,-70.625 -0.935,0 z"
                             style="fill:#000000;fill-opacity:1;fill-rule:nonzero;stroke:none"
                             id="path66"
                             inkscape:connector-curvature="0" /><path
                             d="m 14.031,0 0,65.48 0.936,0 0,-65.48 -0.936,0 z"
                             style="fill:#000000;fill-opacity:1;fill-rule:nonzero;stroke:none"
                             id="path68"
                             inkscape:connector-curvature="0" /><path
                             d="m 15.902,0 0,65.48 3.742,0 0,-65.48 -3.742,0 z"
                             style="fill:#000000;fill-opacity:1;fill-rule:nonzero;stroke:none"
                             id="path70"
                             inkscape:connector-curvature="0" /><path
                             d="m 21.515,0 0,65.48 1.871,0 0,-65.48 -1.871,0 z"
                             style="fill:#000000;fill-opacity:1;fill-rule:nonzero;stroke:none"
                             id="path72"
                             inkscape:connector-curvature="0" /><path
                             d="m 25.257,0 0,65.48 0.935,0 0,-65.48 -0.935,0 z"
                             style="fill:#000000;fill-opacity:1;fill-rule:nonzero;stroke:none"
                             id="path74"
                             inkscape:connector-curvature="0" /><path
                             d="m 28.998,0 0,65.48 0.936,0 0,-65.48 -0.936,0 z"
                             style="fill:#000000;fill-opacity:1;fill-rule:nonzero;stroke:none"
                             id="path76"
                             inkscape:connector-curvature="0" /><path
                             d="m 31.805,0 0,65.48 0.935,0 0,-65.48 -0.935,0 z"
                             style="fill:#000000;fill-opacity:1;fill-rule:nonzero;stroke:none"
                             id="path78"
                             inkscape:connector-curvature="0" /><path
                             d="m 35.546,0 0,65.48 1.871,0 0,-65.48 -1.871,0 z"
                             style="fill:#000000;fill-opacity:1;fill-rule:nonzero;stroke:none"
                             id="path80"
                             inkscape:connector-curvature="0" /><path
                             d="m 38.353,0 0,65.48 0.935,0 0,-65.48 -0.935,0 z"
                             style="fill:#000000;fill-opacity:1;fill-rule:nonzero;stroke:none"
                             id="path82"
                             inkscape:connector-curvature="0" /><path
                             d="m 40.224,0 0,65.48 0.935,0 0,-65.48 -0.935,0 z"
                             style="fill:#000000;fill-opacity:1;fill-rule:nonzero;stroke:none"
                             id="path84"
                             inkscape:connector-curvature="0" /><path
                             d="m 44.901,0 0,65.48 0.935,0 0,-65.48 -0.935,0 z"
                             style="fill:#000000;fill-opacity:1;fill-rule:nonzero;stroke:none"
                             id="path86"
                             inkscape:connector-curvature="0" /><path
                             d="m 46.772,0 0,65.48 0.935,0 0,-65.48 -0.935,0 z"
                             style="fill:#000000;fill-opacity:1;fill-rule:nonzero;stroke:none"
                             id="path88"
                             inkscape:connector-curvature="0" /><path
                             d="m 51.449,0 0,65.48 0.935,0 0,-65.48 -0.935,0 z"
                             style="fill:#000000;fill-opacity:1;fill-rule:nonzero;stroke:none"
                             id="path90"
                             inkscape:connector-curvature="0" /><path
                             d="m 53.32,0 0,70.625 0.935,0 0,-70.625 -0.935,0 z"
                             style="fill:#000000;fill-opacity:1;fill-rule:nonzero;stroke:none"
                             id="path92"
                             inkscape:connector-curvature="0" /><path
                             d="m 55.191,0 0,70.625 0.935,0 0,-70.625 -0.935,0 z"
                             style="fill:#000000;fill-opacity:1;fill-rule:nonzero;stroke:none"
                             id="path94"
                             inkscape:connector-curvature="0" /><path
                             d="m 57.061,0 0,65.48 2.807,0 0,-65.48 -2.807,0 z"
                             style="fill:#000000;fill-opacity:1;fill-rule:nonzero;stroke:none"
                             id="path96"
                             inkscape:connector-curvature="0" /><path
                             d="m 60.803,0 0,65.48 0.936,0 0,-65.48 -0.936,0 z"
                             style="fill:#000000;fill-opacity:1;fill-rule:nonzero;stroke:none"
                             id="path98"
                             inkscape:connector-curvature="0" /><path
                             d="m 63.609,0 0,65.48 0.936,0 0,-65.48 -0.936,0 z"
                             style="fill:#000000;fill-opacity:1;fill-rule:nonzero;stroke:none"
                             id="path100"
                             inkscape:connector-curvature="0" /><path
                             d="m 66.416,0 0,65.48 0.935,0 0,-65.48 -0.935,0 z"
                             style="fill:#000000;fill-opacity:1;fill-rule:nonzero;stroke:none"
                             id="path102"
                             inkscape:connector-curvature="0" /><path
                             d="m 70.157,0 0,65.48 0.936,0 0,-65.48 -0.936,0 z"
                             style="fill:#000000;fill-opacity:1;fill-rule:nonzero;stroke:none"
                             id="path104"
                             inkscape:connector-curvature="0" /><path
                             d="m 72.964,0 0,65.48 0.935,0 0,-65.48 -0.935,0 z"
                             style="fill:#000000;fill-opacity:1;fill-rule:nonzero;stroke:none"
                             id="path106"
                             inkscape:connector-curvature="0" /><path
                             d="m 76.706,0 0,65.48 0.935,0 0,-65.48 -0.935,0 z"
                             style="fill:#000000;fill-opacity:1;fill-rule:nonzero;stroke:none"
                             id="path108"
                             inkscape:connector-curvature="0" /><path
                             d="m 80.447,0 0,65.48 0.936,0 0,-65.48 -0.936,0 z"
                             style="fill:#000000;fill-opacity:1;fill-rule:nonzero;stroke:none"
                             id="path110"
                             inkscape:connector-curvature="0" /><path
                             d="m 83.254,0 0,65.48 0.935,0 0,-65.48 -0.935,0 z"
                             style="fill:#000000;fill-opacity:1;fill-rule:nonzero;stroke:none"
                             id="path112"
                             inkscape:connector-curvature="0" /><path
                             d="m 85.124,0 0,65.48 2.807,0 0,-65.48 -2.807,0 z"
                             style="fill:#000000;fill-opacity:1;fill-rule:nonzero;stroke:none"
                             id="path114"
                             inkscape:connector-curvature="0" /><path
                             d="m 89.802,0 0,65.48 0.935,0 0,-65.48 -0.935,0 z"
                             style="fill:#000000;fill-opacity:1;fill-rule:nonzero;stroke:none"
                             id="path116"
                             inkscape:connector-curvature="0" /><path
                             d="m 91.672,0 0,65.48 0.936,0 0,-65.48 -0.936,0 z"
                             style="fill:#000000;fill-opacity:1;fill-rule:nonzero;stroke:none"
                             id="path118"
                             inkscape:connector-curvature="0" /><path
                             d="m 96.35,0 0,70.625 0.935,0 0,-70.625 -0.935,0 z"
                             style="fill:#000000;fill-opacity:1;fill-rule:nonzero;stroke:none"
                             id="path120"
                             inkscape:connector-curvature="0" /><path
                             d="m 98.22,0 0,70.625 0.936,0 0,-70.625 -0.936,0 z"
                             style="fill:#000000;fill-opacity:1;fill-rule:nonzero;stroke:none"
                             id="path122"
                             inkscape:connector-curvature="0" /><g
                             id="g124"
                             transform="matrix(1,0,0,-1,-5.721,0)"><text
                               transform="matrix(1,0,0,-1,9.354,-75.77)"
                               id="text126"><tspan
                                 style="font-size:10.28999996px;font-variant:normal;font-weight:normal;writing-mode:lr-tb;fill:#000000;fill-opacity:1;fill-rule:nonzero;stroke:none;font-family:Helvetica;-inkscape-font-specification:Helvetica"
                                 x="0"
                                 y="0"
                                 id="tspan128">1</tspan></text>
</g><g
                             id="g130"
                             transform="matrix(1,0,0,-1,-17.163,0)"><text
                               transform="matrix(1,0,0,-1,33.208,-75.77)"
                               id="text132"><tspan
                                 style="font-size:10.28999996px;font-variant:normal;font-weight:normal;writing-mode:lr-tb;fill:#000000;fill-opacity:1;fill-rule:nonzero;stroke:none;font-family:Helvetica;-inkscape-font-specification:Helvetica"
                                 x="0 5.72124 11.44248 17.163719 22.88496 28.606199"
                                 y="0"
                                 sodipodi:role="line"
                                 id="tspan134">618033</tspan></text>
</g><g
                             id="g136"
                             transform="matrix(1,0,0,-1,-17.163,0)"><text
                               transform="matrix(1,0,0,-1,76.238,-75.77)"
                               id="text138"><tspan
                                 style="font-size:10.28999996px;font-variant:normal;font-weight:normal;writing-mode:lr-tb;fill:#000000;fill-opacity:1;fill-rule:nonzero;stroke:none;font-family:Helvetica;-inkscape-font-specification:Helvetica"
                                 x="0 5.72124 11.44248 17.163719 22.88496 28.606199"
                                 y="0"
                                 sodipodi:role="line"
                                 id="tspan140">988746</tspan></text>
</g></g></g></g></g></g></g></g></g></g></g></g><g
       id="g170"><g
         id="g172"
         clip-path="url(#clipPath174)" /></g></g></svg>