<?xml version="1.0" encoding="UTF-8" standalone="no"?>
<!-- Created with Inkscape (http://www.inkscape.org/) -->

<svg
   xmlns:dc="http://purl.org/dc/elements/1.1/"
   xmlns:cc="http://creativecommons.org/ns#"
   xmlns:rdf="http://www.w3.org/1999/02/22-rdf-syntax-ns#"
   xmlns:svg="http://www.w3.org/2000/svg"
   xmlns="http://www.w3.org/2000/svg"
   xmlns:sodipodi="http://sodipodi.sourceforge.net/DTD/sodipodi-0.dtd"
   xmlns:inkscape="http://www.inkscape.org/namespaces/inkscape"
   id="svg2"
   version="1.1"
   inkscape:version="0.91 r13725"
   width="118.20612"
   height="763.71185"
   xml:space="preserve"
   sodipodi:docname="barcode-v-i-r.svg"><sodipodi:namedview
     pagecolor="#000000"
     bordercolor="#666666"
     borderopacity="1"
     objecttolerance="10"
     gridtolerance="10"
     guidetolerance="10"
     inkscape:pageopacity="0"
     inkscape:pageshadow="2"
     inkscape:window-width="1152"
     inkscape:window-height="1080"
     id="namedview4"
     showgrid="false"
     fit-margin-top="0"
     fit-margin-left="0"
     fit-margin-right="0"
     fit-margin-bottom="0"
     inkscape:zoom="1.3131313"
     inkscape:cx="144.39523"
     inkscape:cy="257.66357"
     inkscape:window-x="1366"
     inkscape:window-y="0"
     inkscape:window-maximized="0"
     inkscape:current-layer="g44"
     showguides="true"
     inkscape:guide-bbox="true"><sodipodi:guide
       position="112.81345,117.12136"
       orientation="0,1"
       id="guide4239" /></sodipodi:namedview><metadata
     id="metadata8"><rdf:RDF><cc:Work
         rdf:about=""><dc:format>image/svg+xml</dc:format><dc:type
           rdf:resource="http://purl.org/dc/dcmitype/StillImage" /><dc:title /></cc:Work></rdf:RDF></metadata><defs
     id="defs6"><clipPath
       id="clipPath16"
       clipPathUnits="userSpaceOnUse"><path
         inkscape:connector-curvature="0"
         id="path18"
         d="M 0,0 576,0 576,792 0,792 0,0 Z" /></clipPath><clipPath
       id="clipPath40"
       clipPathUnits="userSpaceOnUse"><path
         inkscape:connector-curvature="0"
         id="path42"
         d="m 0,0 99.156,0 0,77.641 L 0,77.641 0,0 Z" /></clipPath><clipPath
       id="clipPath50"
       clipPathUnits="userSpaceOnUse"><path
         inkscape:connector-curvature="0"
         id="path52"
         d="m 0,0 0,77.641 99.156,0 L 99.156,0 0,0 Z" /></clipPath><clipPath
       id="clipPath60"
       clipPathUnits="userSpaceOnUse"><path
         inkscape:connector-curvature="0"
         id="path62"
         d="m 0,0 99.156,0 0,77.641 L 0,77.641 0,0 Z" /></clipPath><clipPath
       id="clipPath174"
       clipPathUnits="userSpaceOnUse"><path
         inkscape:connector-curvature="0"
         id="path176"
         d="M 0,0 0,792 576,792 576,0 0,0 Z M 0,0 576,0 576,792 0,792 0,0 Z" /></clipPath></defs><g
     transform="matrix(1.25,0,0,-1.25,-65.783502,1392.0439)"
     inkscape:label="barcode"
     inkscape:groupmode="layer"
     id="g10"><g
       id="g44"
       transform="matrix(1.000484,0,0,-1.0000161,169.42281,572.56134)"><g
         transform="matrix(1.000484,0,0,-1.0000161,-127.14812,-6.0309761)"
         id="g124"><g
           id="text126"
           transform="matrix(1,0,0,-1,9.354,-75.77)" /></g><g
         transform="matrix(1.000484,0,0,-1.0000161,-138.59566,-6.0309761)"
         id="g130"><g
           id="text132"
           transform="matrix(1,0,0,-1,33.208,-75.77)" /></g><rect
         style="opacity:1;fill:#000000;fill-opacity:1;stroke:none;stroke-width:7.86399984;stroke-linecap:square;stroke-linejoin:miter;stroke-miterlimit:4;stroke-dasharray:none;stroke-dashoffset:0;stroke-opacity:1"
         id="rect3661"
         width="161.83476"
         height="630.66809"
         x="-110.76933"
         y="-552.79144" /><path
         style="font-variant:normal;font-weight:normal;font-size:10.28999996px;font-family:Helvetica;-inkscape-font-specification:Helvetica;writing-mode:lr-tb;fill:#ff0000;fill-opacity:1;fill-rule:nonzero;stroke:none"
         d="m -28.419392,67.476408 c 0,-1.358302 -0.926548,-2.274127 -2.23401,-2.274127 -0.720649,0 -1.286873,0.277834 -1.678082,0.812923 0.0103,-1.780199 0.586814,-2.768055 1.626607,-2.768055 0.638288,0 1.080973,0.401317 1.225102,1.101048 l 0.905959,0 c -0.175015,-1.193659 -0.957434,-1.90368 -2.069291,-1.90368 -1.698672,0 -2.614925,1.430333 -2.614925,3.972003 0,2.274127 0.782418,3.478076 2.450205,3.478076 1.389822,0 2.388435,-0.987855 2.388435,-2.418188 z"
         id="path4567" /><path
         style="font-variant:normal;font-weight:normal;font-size:10.28999996px;font-family:Helvetica;-inkscape-font-specification:Helvetica;writing-mode:lr-tb;fill:#000000;fill-opacity:1;fill-rule:nonzero;stroke:none"
         d="m -29.34594,67.548438 c 0,0.915824 -0.617699,1.543525 -1.451592,1.543525 -0.844189,0 -1.482477,-0.658571 -1.482477,-1.594976 0,-0.905535 0.617699,-1.492074 1.513362,-1.492074 0.875073,0 1.420707,0.565959 1.420707,1.543525 z"
         id="path4565" /><path
         style="font-variant:normal;font-weight:normal;font-size:10.28999996px;font-family:Helvetica;-inkscape-font-specification:Helvetica;writing-mode:lr-tb;fill:#ff0000;fill-opacity:1;fill-rule:nonzero;stroke:none"
         d="m -34.071335,67.990915 0,-0.812923 -1.080973,0 0,-4.733476 -0.669174,0 -3.314983,4.589413 0,0.956986 3.078199,0 0,1.749328 0.905958,0 0,-1.749328 z"
         id="path4563" /><path
         style="font-variant:normal;font-weight:normal;font-size:10.28999996px;font-family:Helvetica;-inkscape-font-specification:Helvetica;writing-mode:lr-tb;fill:#000000;fill-opacity:1;fill-rule:nonzero;stroke:none"
         d="m -36.058266,67.177992 -2.285486,0 2.285486,-3.189952 z"
         id="path4561" /><path
         style="font-variant:normal;font-weight:normal;font-size:10.28999996px;font-family:Helvetica;-inkscape-font-specification:Helvetica;writing-mode:lr-tb;fill:#ff0000;fill-opacity:1;fill-rule:nonzero;stroke:none"
         d="m -39.795345,63.36034 0,-0.761472 -4.879821,0 0,0.895244 3.942978,0 c -1.451592,1.83165 -2.48109,3.961714 -2.995839,6.246131 l 0.967728,0 c 0.401504,-2.356448 1.431002,-4.558543 2.964954,-6.379903 z"
         id="path4559" /><path
         style="font-variant:normal;font-weight:normal;font-size:10.28999996px;font-family:Helvetica;-inkscape-font-specification:Helvetica;writing-mode:lr-tb;fill:#ff0000;fill-opacity:1;fill-rule:nonzero;stroke:none"
         d="m -45.591418,67.68221 c 0,-0.812923 -0.411799,-1.378882 -1.255988,-1.780199 0.751534,-0.452767 0.998614,-0.823213 0.998614,-1.512654 0,-1.142209 -0.895664,-1.944841 -2.192831,-1.944841 -1.286873,0 -2.192831,0.802632 -2.192831,1.944841 0,0.679151 0.247079,1.049597 0.988318,1.512654 -0.833893,0.401317 -1.245693,0.967276 -1.245693,1.769909 0,1.337721 1.008909,2.222675 2.450206,2.222675 1.441297,0 2.450205,-0.884954 2.450205,-2.212385 z"
         id="path4557" /><path
         style="font-variant:normal;font-weight:normal;font-size:10.28999996px;font-family:Helvetica;-inkscape-font-specification:Helvetica;writing-mode:lr-tb;fill:#000000;fill-opacity:1;fill-rule:nonzero;stroke:none"
         d="m -46.775341,64.409937 c 0,0.679151 -0.504454,1.131918 -1.266282,1.131918 -0.761829,0 -1.266283,-0.452767 -1.266283,-1.142208 0,-0.699731 0.504454,-1.152499 1.266283,-1.152499 0.772123,0 1.266282,0.452768 1.266282,1.162789 z"
         id="path4555" /><path
         style="font-variant:normal;font-weight:normal;font-size:10.28999996px;font-family:Helvetica;-inkscape-font-specification:Helvetica;writing-mode:lr-tb;fill:#000000;fill-opacity:1;fill-rule:nonzero;stroke:none"
         d="m -46.517966,67.6925 c 0,0.864374 -0.617699,1.399463 -1.544247,1.399463 -0.885369,0 -1.503067,-0.545379 -1.503067,-1.399463 0,-0.854084 0.617698,-1.389172 1.523657,-1.389172 0.905958,0 1.523657,0.535088 1.523657,1.389172 z"
         id="path4553" /><path
         style="font-variant:normal;font-weight:normal;font-size:10.28999996px;font-family:Helvetica;-inkscape-font-specification:Helvetica;writing-mode:lr-tb;fill:#ff0000;fill-opacity:1;fill-rule:nonzero;stroke:none"
         d="m -51.315427,67.68221 c 0,-0.812923 -0.411799,-1.378882 -1.255988,-1.780199 0.751534,-0.452767 0.998613,-0.823213 0.998613,-1.512654 0,-1.142209 -0.895663,-1.944841 -2.19283,-1.944841 -1.286873,0 -2.192831,0.802632 -2.192831,1.944841 0,0.679151 0.247079,1.049597 0.988318,1.512654 -0.833893,0.401317 -1.245693,0.967276 -1.245693,1.769909 0,1.337721 1.008908,2.222675 2.450206,2.222675 1.441297,0 2.450205,-0.884954 2.450205,-2.212385 z"
         id="path4551" /><path
         style="font-variant:normal;font-weight:normal;font-size:10.28999996px;font-family:Helvetica;-inkscape-font-specification:Helvetica;writing-mode:lr-tb;fill:#000000;fill-opacity:1;fill-rule:nonzero;stroke:none"
         d="m -52.49935,64.409937 c 0,0.679151 -0.504454,1.131918 -1.266282,1.131918 -0.761829,0 -1.266283,-0.452767 -1.266283,-1.142208 0,-0.699731 0.504454,-1.152499 1.266283,-1.152499 0.772123,0 1.266282,0.452768 1.266282,1.162789 z"
         id="path4549" /><path
         style="font-variant:normal;font-weight:normal;font-size:10.28999996px;font-family:Helvetica;-inkscape-font-specification:Helvetica;writing-mode:lr-tb;fill:#000000;fill-opacity:1;fill-rule:nonzero;stroke:none"
         d="m -52.241975,67.6925 c 0,0.864374 -0.617699,1.399463 -1.544247,1.399463 -0.885369,0 -1.503067,-0.545379 -1.503067,-1.399463 0,-0.854084 0.617698,-1.389172 1.523657,-1.389172 0.905958,0 1.523657,0.535088 1.523657,1.389172 z"
         id="path4547" /><path
         style="font-variant:normal;font-weight:normal;font-size:10.28999996px;font-family:Helvetica;-inkscape-font-specification:Helvetica;writing-mode:lr-tb;fill:#ff0000;fill-opacity:1;fill-rule:nonzero;stroke:none"
         d="m -57.080616,65.922592 c 0,-2.284417 -0.792713,-3.478076 -2.4605,-3.478076 -1.389823,0 -2.388436,0.987855 -2.388436,2.418188 0,1.358302 0.926548,2.274127 2.244306,2.274127 0.689764,0 1.194218,-0.246964 1.667787,-0.812923 -0.01029,1.780199 -0.586814,2.768055 -1.626607,2.768055 -0.638289,0 -1.080973,-0.401317 -1.225103,-1.101048 l -0.905958,0 c 0.175015,1.193659 0.957433,1.90368 2.069291,1.90368 1.708967,0 2.62522,-1.450913 2.62522,-3.972003 z"
         id="path4545" /><path
         style="font-variant:normal;font-weight:normal;font-size:10.28999996px;font-family:Helvetica;-inkscape-font-specification:Helvetica;writing-mode:lr-tb;fill:#000000;fill-opacity:1;fill-rule:nonzero;stroke:none"
         d="m -58.068934,64.842124 c 0,0.895245 -0.627994,1.492074 -1.513362,1.492074 -0.875074,0 -1.420708,-0.565959 -1.420708,-1.543525 0,-0.926115 0.617699,-1.553815 1.451593,-1.553815 0.844188,0 1.482477,0.658571 1.482477,1.605266 z"
         id="path4543" /><path
         style="font-variant:normal;font-weight:normal;font-size:10.28999996px;font-family:Helvetica;-inkscape-font-specification:Helvetica;writing-mode:lr-tb;fill:#ff0000;fill-opacity:1;fill-rule:nonzero;stroke:none"
         d="m -71.542283,67.620469 c 0,-0.884954 -0.360324,-1.399463 -1.235398,-1.697877 0.679469,-0.267545 1.019203,-0.740892 1.019203,-1.471494 0,-1.2554 -0.833893,-2.006582 -2.223715,-2.006582 -1.472183,0 -2.254601,0.802632 -2.285486,2.356447 l 0.905958,0 c 0.02059,-1.080467 0.463274,-1.564105 1.389823,-1.564105 0.803008,0 1.286872,0.473348 1.286872,1.24511 0,0.782053 -0.339734,1.101048 -1.791326,1.101048 l 0,0.761472 0.494159,0 c 0.998613,0 1.513362,0.473348 1.513362,1.286271 0,0.915825 -0.566224,1.461204 -1.513362,1.461204 -0.988319,0 -1.472183,-0.493928 -1.533952,-1.553815 l -0.905959,0 c 0.113245,1.625846 0.916254,2.356447 2.409026,2.356447 1.503067,0 2.470795,-0.895244 2.470795,-2.274126 z"
         id="path4541" /><path
         style="font-variant:normal;font-weight:normal;font-size:10.28999996px;font-family:Helvetica;-inkscape-font-specification:Helvetica;writing-mode:lr-tb;fill:#ff0000;fill-opacity:1;fill-rule:nonzero;stroke:none"
         d="m -77.266291,67.620469 c 0,-0.884954 -0.360324,-1.399463 -1.235398,-1.697877 0.679469,-0.267545 1.019203,-0.740892 1.019203,-1.471494 0,-1.2554 -0.833893,-2.006582 -2.223715,-2.006582 -1.472183,0 -2.254601,0.802632 -2.285486,2.356447 l 0.905958,0 c 0.02059,-1.080467 0.463274,-1.564105 1.389822,-1.564105 0.803009,0 1.286873,0.473348 1.286873,1.24511 0,0.782053 -0.339734,1.101048 -1.791327,1.101048 l 0,0.761472 0.49416,0 c 0.998613,0 1.513362,0.473348 1.513362,1.286271 0,0.915825 -0.566224,1.461204 -1.513362,1.461204 -0.988319,0 -1.472183,-0.493928 -1.533953,-1.553815 l -0.905958,0 c 0.113245,1.625846 0.916253,2.356447 2.409026,2.356447 1.503067,0 2.470795,-0.895244 2.470795,-2.274126 z"
         id="path4539" /><path
         style="font-variant:normal;font-weight:normal;font-size:10.28999996px;font-family:Helvetica;-inkscape-font-specification:Helvetica;writing-mode:lr-tb;fill:#ff0000;fill-opacity:1;fill-rule:nonzero;stroke:none"
         d="m -82.980006,66.231297 c 0,-2.531381 -0.803009,-3.786781 -2.388436,-3.786781 -1.575132,0 -2.388435,1.27598 -2.388435,3.72504 0,2.459349 0.823598,3.725039 2.388435,3.725039 1.544247,0 2.388436,-1.26569 2.388436,-3.663298 z"
         id="path4537" /><path
         style="font-variant:normal;font-weight:normal;font-size:10.28999996px;font-family:Helvetica;-inkscape-font-specification:Helvetica;writing-mode:lr-tb;fill:#000000;fill-opacity:1;fill-rule:nonzero;stroke:none"
         d="m -83.906554,66.148977 c 0,2.068323 -0.47357,2.994438 -1.482478,2.994438 -0.957433,0 -1.441297,-0.967275 -1.441297,-2.963567 0,-1.996292 0.483864,-2.932698 1.461887,-2.932698 0.978023,0 1.461888,0.946696 1.461888,2.901827 z"
         id="path4535" /><path
         style="font-variant:normal;font-weight:normal;font-size:10.28999996px;font-family:Helvetica;-inkscape-font-specification:Helvetica;writing-mode:lr-tb;fill:#ff0000;fill-opacity:1;fill-rule:nonzero;stroke:none"
         d="m -88.642244,67.682212 c 0,-0.812923 -0.4118,-1.378882 -1.255988,-1.780199 0.751534,-0.452767 0.998613,-0.823213 0.998613,-1.512654 0,-1.142209 -0.895663,-1.944841 -2.192831,-1.944841 -1.286872,0 -2.192831,0.802632 -2.192831,1.944841 0,0.679151 0.24708,1.049597 0.988319,1.512654 -0.833894,0.401317 -1.245693,0.967276 -1.245693,1.769909 0,1.337721 1.008908,2.222675 2.450205,2.222675 1.441297,0 2.450206,-0.884954 2.450206,-2.212385 z"
         id="path4533" /><path
         style="font-variant:normal;font-weight:normal;font-size:10.28999996px;font-family:Helvetica;-inkscape-font-specification:Helvetica;writing-mode:lr-tb;fill:#000000;fill-opacity:1;fill-rule:nonzero;stroke:none"
         d="m -89.826167,64.409939 c 0,0.679151 -0.504454,1.131918 -1.266283,1.131918 -0.761828,0 -1.266282,-0.452767 -1.266282,-1.142208 0,-0.699731 0.504454,-1.152499 1.266282,-1.152499 0.772124,0 1.266283,0.452768 1.266283,1.162789 z"
         id="path4531" /><path
         style="font-variant:normal;font-weight:normal;font-size:10.28999996px;font-family:Helvetica;-inkscape-font-specification:Helvetica;writing-mode:lr-tb;fill:#000000;fill-opacity:1;fill-rule:nonzero;stroke:none"
         d="m -89.568793,67.692502 c 0,0.864374 -0.617698,1.399463 -1.544247,1.399463 -0.885368,0 -1.503067,-0.545379 -1.503067,-1.399463 0,-0.854084 0.617699,-1.389172 1.523657,-1.389172 0.905959,0 1.523657,0.535088 1.523657,1.389172 z"
         id="path4529" /><path
         style="font-variant:normal;font-weight:normal;font-size:10.28999996px;font-family:Helvetica;-inkscape-font-specification:Helvetica;writing-mode:lr-tb;fill:#ff0000;fill-opacity:1;fill-rule:nonzero;stroke:none"
         d="m -96.07522,69.740245 0,-7.295727 -0.597109,0 c -0.319145,1.121628 -0.525044,1.27598 -1.925161,1.450913 l 0,0.64828 1.616311,0 0,5.196534 z"
         id="path4527" /><path
         style="font-variant:normal;font-weight:normal;font-size:10.28999996px;font-family:Helvetica;-inkscape-font-specification:Helvetica;writing-mode:lr-tb;fill:#ff0000;fill-opacity:1;fill-rule:nonzero;stroke:none"
         d="m -100.09026,67.476409 c 0,-1.358302 -0.92655,-2.274127 -2.23401,-2.274127 -0.72065,0 -1.28688,0.277834 -1.67809,0.812923 0.0103,-1.780199 0.58682,-2.768055 1.62661,-2.768055 0.63829,0 1.08097,0.401317 1.2251,1.101048 l 0.90596,0 c -0.17501,-1.193659 -0.95743,-1.90368 -2.06929,-1.90368 -1.69867,0 -2.61492,1.430333 -2.61492,3.972003 0,2.274127 0.78242,3.478076 2.4502,3.478076 1.38982,0 2.38844,-0.987855 2.38844,-2.418188 z"
         id="path4525" /><path
         style="font-variant:normal;font-weight:normal;font-size:10.28999996px;font-family:Helvetica;-inkscape-font-specification:Helvetica;writing-mode:lr-tb;fill:#000000;fill-opacity:1;fill-rule:nonzero;stroke:none"
         d="m -101.01681,67.548439 c 0,0.915824 -0.6177,1.543525 -1.45159,1.543525 -0.84419,0 -1.48248,-0.658571 -1.48248,-1.594976 0,-0.905535 0.6177,-1.492074 1.51336,-1.492074 0.87508,0 1.42071,0.565959 1.42071,1.543525 z"
         id="path4523" /><path
         style="font-variant:normal;font-weight:normal;font-size:10.28999996px;font-family:Helvetica;-inkscape-font-specification:Helvetica;writing-mode:lr-tb;fill:#ff0000;fill-opacity:1;fill-rule:nonzero;stroke:none"
         d="m -114.21724,69.740244 0,-7.295727 -0.59711,0 c -0.31914,1.121628 -0.52504,1.27598 -1.92516,1.450913 l 0,0.64828 1.61631,0 0,5.196534 z"
         id="path4521" /><path
         style="font-variant:normal;font-weight:normal;font-size:10.28999996px;font-family:Helvetica;-inkscape-font-specification:Helvetica;writing-mode:lr-tb;fill:#ffffff;fill-opacity:1;fill-rule:nonzero;stroke:none"
         d="m -23.156815,-541.06505 0,605.660211 0.936453,0 0,-605.660211 z"
         id="path4519" /><path
         style="font-variant:normal;font-weight:normal;font-size:10.28999996px;font-family:Helvetica;-inkscape-font-specification:Helvetica;writing-mode:lr-tb;fill:#ffffff;fill-opacity:1;fill-rule:nonzero;stroke:none"
         d="m -25.02772,-541.06505 0,605.660211 0.935453,0 0,-605.660211 z"
         id="path4517" /><path
         style="font-variant:normal;font-weight:normal;font-size:10.28999996px;font-family:Helvetica;-inkscape-font-specification:Helvetica;writing-mode:lr-tb;fill:#ffffff;fill-opacity:1;fill-rule:nonzero;stroke:none"
         d="m -29.707984,-541.06505 0,600.515128 0.936453,0 0,-600.515128 z"
         id="path4515" /><path
         style="font-variant:normal;font-weight:normal;font-size:10.28999996px;font-family:Helvetica;-inkscape-font-specification:Helvetica;writing-mode:lr-tb;fill:#ffffff;fill-opacity:1;fill-rule:nonzero;stroke:none"
         d="m -31.578889,-541.06505 0,600.515128 0.935452,0 0,-600.515128 z"
         id="path4513" /><path
         style="font-variant:normal;font-weight:normal;font-size:10.28999996px;font-family:Helvetica;-inkscape-font-specification:Helvetica;writing-mode:lr-tb;fill:#ffffff;fill-opacity:1;fill-rule:nonzero;stroke:none"
         d="m -36.259153,-541.06505 0,600.515128 2.808358,0 0,-600.515128 z"
         id="path4511" /><path
         style="font-variant:normal;font-weight:normal;font-size:10.28999996px;font-family:Helvetica;-inkscape-font-specification:Helvetica;writing-mode:lr-tb;fill:#ffffff;fill-opacity:1;fill-rule:nonzero;stroke:none"
         d="m -38.130058,-541.06505 0,600.515128 0.935452,0 0,-600.515128 z"
         id="path4509" /><path
         style="font-variant:normal;font-weight:normal;font-size:10.28999996px;font-family:Helvetica;-inkscape-font-specification:Helvetica;writing-mode:lr-tb;fill:#ffffff;fill-opacity:1;fill-rule:nonzero;stroke:none"
         d="m -40.938417,-541.06505 0,600.515128 0.936453,0 0,-600.515128 z"
         id="path4507" /><path
         style="font-variant:normal;font-weight:normal;font-size:10.28999996px;font-family:Helvetica;-inkscape-font-specification:Helvetica;writing-mode:lr-tb;fill:#ffffff;fill-opacity:1;fill-rule:nonzero;stroke:none"
         d="m -44.681228,-541.06505 0,600.515128 0.935453,0 0,-600.515128 z"
         id="path4505" /><path
         style="font-variant:normal;font-weight:normal;font-size:10.28999996px;font-family:Helvetica;-inkscape-font-specification:Helvetica;writing-mode:lr-tb;fill:#ffffff;fill-opacity:1;fill-rule:nonzero;stroke:none"
         d="m -48.425039,-541.06505 0,600.515128 0.935453,0 0,-600.515128 z"
         id="path4503" /><path
         style="font-variant:normal;font-weight:normal;font-size:10.28999996px;font-family:Helvetica;-inkscape-font-specification:Helvetica;writing-mode:lr-tb;fill:#ffffff;fill-opacity:1;fill-rule:nonzero;stroke:none"
         d="m -51.233397,-541.06505 0,600.515128 0.936453,0 0,-600.515128 z"
         id="path4501" /><path
         style="font-variant:normal;font-weight:normal;font-size:10.28999996px;font-family:Helvetica;-inkscape-font-specification:Helvetica;writing-mode:lr-tb;fill:#ffffff;fill-opacity:1;fill-rule:nonzero;stroke:none"
         d="m -54.976208,-541.06505 0,600.515128 0.935453,0 0,-600.515128 z"
         id="path4499" /><path
         style="font-variant:normal;font-weight:normal;font-size:10.28999996px;font-family:Helvetica;-inkscape-font-specification:Helvetica;writing-mode:lr-tb;fill:#ffffff;fill-opacity:1;fill-rule:nonzero;stroke:none"
         d="m -57.784567,-541.06505 0,600.515128 0.936453,0 0,-600.515128 z"
         id="path4497" /><path
         style="font-variant:normal;font-weight:normal;font-size:10.28999996px;font-family:Helvetica;-inkscape-font-specification:Helvetica;writing-mode:lr-tb;fill:#ffffff;fill-opacity:1;fill-rule:nonzero;stroke:none"
         d="m -60.591925,-541.06505 0,600.515128 0.936453,0 0,-600.515128 z"
         id="path4495" /><path
         style="font-variant:normal;font-weight:normal;font-size:10.28999996px;font-family:Helvetica;-inkscape-font-specification:Helvetica;writing-mode:lr-tb;fill:#ffffff;fill-opacity:1;fill-rule:nonzero;stroke:none"
         d="m -64.335736,-541.06505 0,600.515128 2.808359,0 0,-600.515128 z"
         id="path4493" /><path
         style="font-variant:normal;font-weight:normal;font-size:10.28999996px;font-family:Helvetica;-inkscape-font-specification:Helvetica;writing-mode:lr-tb;fill:#ffffff;fill-opacity:1;fill-rule:nonzero;stroke:none"
         d="m -66.206641,-541.06505 0,605.660211 0.935453,0 0,-605.660211 z"
         id="path4491" /><path
         style="font-variant:normal;font-weight:normal;font-size:10.28999996px;font-family:Helvetica;-inkscape-font-specification:Helvetica;writing-mode:lr-tb;fill:#ffffff;fill-opacity:1;fill-rule:nonzero;stroke:none"
         d="m -68.078546,-541.06505 0,605.660211 0.935452,0 0,-605.660211 z"
         id="path4489" /><path
         style="font-variant:normal;font-weight:normal;font-size:10.28999996px;font-family:Helvetica;-inkscape-font-specification:Helvetica;writing-mode:lr-tb;fill:#ffffff;fill-opacity:1;fill-rule:nonzero;stroke:none"
         d="m -69.950452,-541.06505 0,600.515128 0.935453,0 0,-600.515128 z"
         id="path4487" /><path
         style="font-variant:normal;font-weight:normal;font-size:10.28999996px;font-family:Helvetica;-inkscape-font-specification:Helvetica;writing-mode:lr-tb;fill:#ffffff;fill-opacity:1;fill-rule:nonzero;stroke:none"
         d="m -74.629716,-541.06505 0,600.515128 0.935453,0 0,-600.515128 z"
         id="path4485" /><path
         style="font-variant:normal;font-weight:normal;font-size:10.28999996px;font-family:Helvetica;-inkscape-font-specification:Helvetica;writing-mode:lr-tb;fill:#ffffff;fill-opacity:1;fill-rule:nonzero;stroke:none"
         d="m -76.501621,-541.06505 0,600.515128 0.935452,0 0,-600.515128 z"
         id="path4483" /><path
         style="font-variant:normal;font-weight:normal;font-size:10.28999996px;font-family:Helvetica;-inkscape-font-specification:Helvetica;writing-mode:lr-tb;fill:#ffffff;fill-opacity:1;fill-rule:nonzero;stroke:none"
         d="m -81.180885,-541.06505 0,600.515128 0.935453,0 0,-600.515128 z"
         id="path4481" /><path
         style="font-variant:normal;font-weight:normal;font-size:10.28999996px;font-family:Helvetica;-inkscape-font-specification:Helvetica;writing-mode:lr-tb;fill:#ffffff;fill-opacity:1;fill-rule:nonzero;stroke:none"
         d="m -83.05279,-541.06505 0,600.515128 0.935452,0 0,-600.515128 z"
         id="path4479" /><path
         style="font-variant:normal;font-weight:normal;font-size:10.28999996px;font-family:Helvetica;-inkscape-font-specification:Helvetica;writing-mode:lr-tb;fill:#ffffff;fill-opacity:1;fill-rule:nonzero;stroke:none"
         d="m -85.861149,-541.06505 0,600.515128 1.871906,0 0,-600.515128 z"
         id="path4477" /><path
         style="font-variant:normal;font-weight:normal;font-size:10.28999996px;font-family:Helvetica;-inkscape-font-specification:Helvetica;writing-mode:lr-tb;fill:#ffffff;fill-opacity:1;fill-rule:nonzero;stroke:none"
         d="m -89.60396,-541.06505 0,600.515128 0.935453,0 0,-600.515128 z"
         id="path4475" /><path
         style="font-variant:normal;font-weight:normal;font-size:10.28999996px;font-family:Helvetica;-inkscape-font-specification:Helvetica;writing-mode:lr-tb;fill:#ffffff;fill-opacity:1;fill-rule:nonzero;stroke:none"
         d="m -92.412318,-541.06505 0,600.515128 0.936453,0 0,-600.515128 z"
         id="path4473" /><path
         style="font-variant:normal;font-weight:normal;font-size:10.28999996px;font-family:Helvetica;-inkscape-font-specification:Helvetica;writing-mode:lr-tb;fill:#ffffff;fill-opacity:1;fill-rule:nonzero;stroke:none"
         d="m -96.155129,-541.06505 0,600.515128 0.935453,0 0,-600.515128 z"
         id="path4471" /><path
         style="font-variant:normal;font-weight:normal;font-size:10.28999996px;font-family:Helvetica;-inkscape-font-specification:Helvetica;writing-mode:lr-tb;fill:#ffffff;fill-opacity:1;fill-rule:nonzero;stroke:none"
         d="m -99.89894,-541.06505 0,600.515128 1.871906,0 0,-600.515128 z"
         id="path4469" /><path
         style="font-variant:normal;font-weight:normal;font-size:10.28999996px;font-family:Helvetica;-inkscape-font-specification:Helvetica;writing-mode:lr-tb;fill:#ffffff;fill-opacity:1;fill-rule:nonzero;stroke:none"
         d="m -105.51466,-541.06505 0,600.515128 3.74381,0 0,-600.515128 z"
         id="path4467" /><path
         style="font-variant:normal;font-weight:normal;font-size:10.28999996px;font-family:Helvetica;-inkscape-font-specification:Helvetica;writing-mode:lr-tb;fill:#ffffff;fill-opacity:1;fill-rule:nonzero;stroke:none"
         d="m -107.38656,-541.06505 0,600.515128 0.93645,0 0,-600.515128 z"
         id="path4465" /><path
         style="font-variant:normal;font-weight:normal;font-size:10.28999996px;font-family:Helvetica;-inkscape-font-specification:Helvetica;writing-mode:lr-tb;fill:#ffffff;fill-opacity:1;fill-rule:nonzero;stroke:none"
         d="m -109.25747,-541.06505 0,605.660211 0.93546,0 0,-605.660211 z"
         id="path4463" /><path
         style="font-variant:normal;font-weight:normal;font-size:10.28999996px;font-family:Helvetica;-inkscape-font-specification:Helvetica;writing-mode:lr-tb;fill:#ffffff;fill-opacity:1;fill-rule:nonzero;stroke:none"
         d="m -111.12937,-541.06505 0,605.660211 0.93545,0 0,-605.660211 z"
         id="path4222" /></g><g
       id="g170"><g
         clip-path="url(#clipPath174)"
         id="g172" /></g></g></svg>