<?xml version="1.0" encoding="UTF-8" standalone="no"?>
<!-- Created with Inkscape (http://www.inkscape.org/) -->

<svg
   xmlns:dc="http://purl.org/dc/elements/1.1/"
   xmlns:cc="http://creativecommons.org/ns#"
   xmlns:rdf="http://www.w3.org/1999/02/22-rdf-syntax-ns#"
   xmlns:svg="http://www.w3.org/2000/svg"
   xmlns="http://www.w3.org/2000/svg"
   xmlns:sodipodi="http://sodipodi.sourceforge.net/DTD/sodipodi-0.dtd"
   xmlns:inkscape="http://www.inkscape.org/namespaces/inkscape"
   id="svg2"
   version="1.1"
   inkscape:version="0.91 r13725"
   width="118.20612"
   height="763.71185"
   xml:space="preserve"
   sodipodi:docname="barcode-v-i.svg"><sodipodi:namedview
     pagecolor="#ffffff"
     bordercolor="#666666"
     borderopacity="1"
     objecttolerance="10"
     gridtolerance="10"
     guidetolerance="10"
     inkscape:pageopacity="0"
     inkscape:pageshadow="2"
     inkscape:window-width="1152"
     inkscape:window-height="1080"
     id="namedview4"
     showgrid="false"
     fit-margin-top="0"
     fit-margin-left="0"
     fit-margin-right="0"
     fit-margin-bottom="0"
     inkscape:zoom="0.46426203"
     inkscape:cx="-757.94297"
     inkscape:cy="598.89333"
     inkscape:window-x="1366"
     inkscape:window-y="0"
     inkscape:window-maximized="0"
     inkscape:current-layer="g44" /><metadata
     id="metadata8"><rdf:RDF><cc:Work
         rdf:about=""><dc:format>image/svg+xml</dc:format><dc:type
           rdf:resource="http://purl.org/dc/dcmitype/StillImage" /><dc:title /></cc:Work></rdf:RDF></metadata><defs
     id="defs6"><clipPath
       id="clipPath16"
       clipPathUnits="userSpaceOnUse"><path
         inkscape:connector-curvature="0"
         id="path18"
         d="M 0,0 576,0 576,792 0,792 0,0 Z" /></clipPath><clipPath
       id="clipPath40"
       clipPathUnits="userSpaceOnUse"><path
         inkscape:connector-curvature="0"
         id="path42"
         d="m 0,0 99.156,0 0,77.641 L 0,77.641 0,0 Z" /></clipPath><clipPath
       id="clipPath50"
       clipPathUnits="userSpaceOnUse"><path
         inkscape:connector-curvature="0"
         id="path52"
         d="m 0,0 0,77.641 99.156,0 L 99.156,0 0,0 Z" /></clipPath><clipPath
       id="clipPath60"
       clipPathUnits="userSpaceOnUse"><path
         inkscape:connector-curvature="0"
         id="path62"
         d="m 0,0 99.156,0 0,77.641 L 0,77.641 0,0 Z" /></clipPath><clipPath
       id="clipPath174"
       clipPathUnits="userSpaceOnUse"><path
         inkscape:connector-curvature="0"
         id="path176"
         d="M 0,0 0,792 576,792 576,0 0,0 Z M 0,0 576,0 576,792 0,792 0,0 Z" /></clipPath></defs><g
     transform="matrix(1.25,0,0,-1.25,-65.783502,1392.0439)"
     inkscape:label="barcode"
     inkscape:groupmode="layer"
     id="g10"><g
       id="g44"
       transform="matrix(1.000484,0,0,-1.0000161,169.42281,572.56134)"><g
         transform="matrix(1.000484,0,0,-1.0000161,-127.14812,-6.0309761)"
         id="g124"><g
           id="text126"
           transform="matrix(1,0,0,-1,9.354,-75.77)" /></g><g
         transform="matrix(1.000484,0,0,-1.0000161,-138.59566,-6.0309761)"
         id="g130"><g
           id="text132"
           transform="matrix(1,0,0,-1,33.208,-75.77)" /></g><rect
         style="opacity:1;fill:#000000;fill-opacity:1;stroke:none;stroke-width:7.86399984;stroke-linecap:square;stroke-linejoin:miter;stroke-miterlimit:4;stroke-dasharray:none;stroke-dashoffset:0;stroke-opacity:1"
         id="rect3661"
         width="162.67204"
         height="630.66815"
         x="-110.62308"
         y="-551.29633" /><g
         transform="matrix(1.000484,0,0,-1.0000161,-138.59566,-6.0309761)"
         id="g136"><g
           id="text138"
           transform="matrix(1,0,0,-1,76.238,-75.77)"><path
             id="path4222"
             style="font-variant:normal;font-weight:normal;font-size:10.28999996px;font-family:Helvetica;-inkscape-font-specification:Helvetica;writing-mode:lr-tb;fill:#ffffff;fill-opacity:1;fill-rule:nonzero;stroke:none"
             d="m 33.884969,-2.2638 c 0,-1.35828 -0.9261,-2.27409 -2.23293,-2.27409 -0.7203,0 -1.28625,0.27783 -1.67727,0.81291 0.01029,-1.78017 0.58653,-2.76801 1.62582,-2.76801 0.63798,0 1.08045,0.40131 1.22451,1.10103 l 0.90552,0 c -0.17493,-1.19364 -0.95697,-1.90365 -2.06829,-1.90365 -1.69785,0 -2.61366,1.43031 -2.61366,3.97194 0,2.27409 0.78204,3.47802 2.44902,3.47802 1.38915,0 2.38728,-0.98784 2.38728,-2.41815 z m -0.9261,0.07203 c 0,0.91581 -0.6174,1.5435 -1.45089,1.5435 -0.84378,0 -1.48176,-0.65856 -1.48176,-1.59495 0,-0.90552 0.6174,-1.49205 1.51263,-1.49205 0.87465,0 1.42002,0.56595 1.42002,1.5435 z m -4.723109,0.44247 0,-0.81291 -1.08045,0 0,-4.7334 -0.66885,0 -3.31338,4.58934 0,0.95697 3.07671,0 0,1.7493 0.90552,0 0,-1.7493 z m -1.98597,-0.81291 -2.28438,0 2.28438,-3.1899 z m -3.735271,-3.81759 0,-0.76146 -4.87746,0 0,0.89523 3.94107,0 C 20.127239,-4.41441 19.098239,-2.28438 18.583739,0 l 0.96726,0 c 0.40131,-2.35641 1.43031,-4.55847 2.96352,-6.3798 z M 16.72125,-2.058 c 0,-0.81291 -0.4116,-1.37886 -1.25538,-1.78017 0.75117,-0.45276 0.99813,-0.8232 0.99813,-1.51263 0,-1.14219 -0.89523,-1.94481 -2.19177,-1.94481 -1.28625,0 -2.19177,0.80262 -2.19177,1.94481 0,0.67914 0.24696,1.04958 0.98784,1.51263 -0.83349,0.40131 -1.24509,0.96726 -1.24509,1.76988 0,1.3377 1.00842,2.22264 2.44902,2.22264 1.4406,0 2.44902,-0.88494 2.44902,-2.21235 z M 15.5379,-5.33022 c 0,0.67914 -0.50421,1.1319 -1.26567,1.1319 -0.76146,0 -1.26567,-0.45276 -1.26567,-1.14219 0,-0.69972 0.50421,-1.15248 1.26567,-1.15248 0.77175,0 1.26567,0.45276 1.26567,1.16277 z m 0.25725,3.28251 c 0,0.86436 -0.6174,1.39944 -1.5435,1.39944 -0.88494,0 -1.50234,-0.54537 -1.50234,-1.39944 0,-0.85407 0.6174,-1.38915 1.52292,-1.38915 0.90552,0 1.52292,0.53508 1.52292,1.38915 z M 11.00001,-2.058 c 0,-0.81291 -0.4116,-1.37886 -1.25538,-1.78017 0.75117,-0.45276 0.99813,-0.8232 0.99813,-1.51263 0,-1.14219 -0.89523,-1.94481 -2.19177,-1.94481 -1.28625,0 -2.19177,0.80262 -2.19177,1.94481 0,0.67914 0.24696,1.04958 0.98784,1.51263 -0.83349,0.40131 -1.24509,0.96726 -1.24509,1.76988 0,1.3377 1.00842,2.22264 2.44902,2.22264 1.4406,0 2.44902,-0.88494 2.44902,-2.21235 z M 9.81666,-5.33022 c 0,0.67914 -0.50421,1.1319 -1.26567,1.1319 -0.76146,0 -1.26567,-0.45276 -1.26567,-1.14219 0,-0.69972 0.50421,-1.15248 1.26567,-1.15248 0.77175,0 1.26567,0.45276 1.26567,1.16277 z m 0.25725,3.28251 c 0,0.86436 -0.6174,1.39944 -1.5435,1.39944 -0.88494,0 -1.50234,-0.54537 -1.50234,-1.39944 0,-0.85407 0.6174,-1.38915 1.52292,-1.38915 0.90552,0 1.52292,0.53508 1.52292,1.38915 z m -4.8363,-1.76988 c 0,-2.28438 -0.79233,-3.47802 -2.45931,-3.47802 -1.38915,0 -2.38728,0.98784 -2.38728,2.41815 0,1.35828 0.9261,2.27409 2.24322,2.27409 0.68943,0 1.19364,-0.24696 1.66698,-0.81291 -0.01029,1.78017 -0.58653,2.76801 -1.62582,2.76801 -0.63798,0 -1.08045,-0.40131 -1.22451,-1.10103 l -0.90552,0 c 0.17493,1.19364 0.95697,1.90365 2.06829,1.90365 1.70814,0 2.62395,-1.45089 2.62395,-3.97194 z M 4.24977,-4.89804 c 0,0.89523 -0.62769,1.49205 -1.51263,1.49205 -0.87465,0 -1.42002,-0.56595 -1.42002,-1.5435 0,-0.9261 0.6174,-1.55379 1.45089,-1.55379 0.84378,0 1.48176,0.65856 1.48176,1.60524 z m -13.466831,2.7783 c 0,-0.88494 -0.36015,-1.39944 -1.2348,-1.69785 0.67914,-0.26754 1.01871,-0.74088 1.01871,-1.47147 0,-1.25538 -0.83349,-2.00655 -2.22264,-2.00655 -1.47147,0 -2.25351,0.80262 -2.28438,2.35641 l 0.90552,0 c 0.02058,-1.08045 0.46305,-1.56408 1.38915,-1.56408 0.80262,0 1.28625,0.47334 1.28625,1.24509 0,0.78204 -0.33957,1.10103 -1.79046,1.10103 l 0,0.76146 0.49392,0 c 0.99813,0 1.51263,0.47334 1.51263,1.28625 0,0.91581 -0.56595,1.46118 -1.51263,1.46118 -0.98784,0 -1.47147,-0.49392 -1.53321,-1.55379 l -0.90552,0 c 0.11319,1.62582 0.91581,2.35641 2.40786,2.35641 1.50234,0 2.4696,-0.89523 2.4696,-2.27409 z m -5.721239,0 c 0,-0.88494 -0.36015,-1.39944 -1.2348,-1.69785 0.67914,-0.26754 1.01871,-0.74088 1.01871,-1.47147 0,-1.25538 -0.83349,-2.00655 -2.22264,-2.00655 -1.47147,0 -2.25351,0.80262 -2.28438,2.35641 l 0.90552,0 c 0.02058,-1.08045 0.46305,-1.56408 1.38915,-1.56408 0.80262,0 1.28625,0.47334 1.28625,1.24509 0,0.78204 -0.33957,1.10103 -1.79046,1.10103 l 0,0.76146 0.49392,0 c 0.99813,0 1.51263,0.47334 1.51263,1.28625 0,0.91581 -0.56595,1.46118 -1.51263,1.46118 -0.98784,0 -1.47147,-0.49392 -1.53321,-1.55379 l -0.90552,0 c 0.11319,1.62582 0.91581,2.35641 2.40786,2.35641 1.50234,0 2.4696,-0.89523 2.4696,-2.27409 z m -5.710951,-1.38915 c 0,-2.53134 -0.80262,-3.78672 -2.38728,-3.78672 -1.57437,0 -2.38728,1.27596 -2.38728,3.72498 0,2.45931 0.8232,3.72498 2.38728,3.72498 1.5435,0 2.38728,-1.26567 2.38728,-3.66324 z m -0.9261,-0.08232 c 0,2.06829 -0.47334,2.99439 -1.48176,2.99439 -0.95697,0 -1.4406,-0.96726 -1.4406,-2.96352 0,-1.99626 0.48363,-2.93265 1.46118,-2.93265 0.97755,0 1.46118,0.94668 1.46118,2.90178 z M -26.30875,-2.058 c 0,-0.81291 -0.4116,-1.37886 -1.25538,-1.78017 0.75117,-0.45276 0.99813,-0.8232 0.99813,-1.51263 0,-1.14219 -0.89523,-1.94481 -2.19177,-1.94481 -1.28625,0 -2.19177,0.80262 -2.19177,1.94481 0,0.67914 0.24696,1.04958 0.98784,1.51263 -0.83349,0.40131 -1.24509,0.96726 -1.24509,1.76988 0,1.3377 1.00842,2.22264 2.44902,2.22264 1.4406,0 2.44902,-0.88494 2.44902,-2.21235 z m -1.18335,-3.27222 c 0,0.67914 -0.50421,1.1319 -1.26567,1.1319 -0.76146,0 -1.26567,-0.45276 -1.26567,-1.14219 0,-0.69972 0.50421,-1.15248 1.26567,-1.15248 0.77175,0 1.26567,0.45276 1.26567,1.16277 z m 0.25725,3.28251 c 0,0.86436 -0.6174,1.39944 -1.5435,1.39944 -0.88494,0 -1.50234,-0.54537 -1.50234,-1.39944 0,-0.85407 0.6174,-1.38915 1.52292,-1.38915 0.90552,0 1.52292,0.53508 1.52292,1.38915 z M -33.73813,0 l 0,-7.29561 -0.59682,0 c -0.31899,1.12161 -0.52479,1.27596 -1.92423,1.45089 l 0,0.64827 1.61553,0 0,5.19645 z m -4.0131,-2.2638 c 0,-1.35828 -0.9261,-2.27409 -2.23293,-2.27409 -0.7203,0 -1.28625,0.27783 -1.67727,0.81291 0.01029,-1.78017 0.58653,-2.76801 1.62582,-2.76801 0.63798,0 1.08045,0.40131 1.22451,1.10103 l 0.90552,0 c -0.17493,-1.19364 -0.95697,-1.90365 -2.06829,-1.90365 -1.69785,0 -2.61366,1.43031 -2.61366,3.97194 0,2.27409 0.78204,3.47802 2.44902,3.47802 1.38915,0 2.38728,-0.98784 2.38728,-2.41815 z m -0.9261,0.07203 c 0,0.91581 -0.6174,1.5435 -1.45089,1.5435 -0.84378,0 -1.48176,-0.65856 -1.48176,-1.59495 0,-0.90552 0.6174,-1.49205 1.51263,-1.49205 0.87465,0 1.42002,0.56595 1.42002,1.5435 z M -51.87137,0 l 0,-7.29561 -0.59682,0 c -0.31899,1.12161 -0.52479,1.27596 -1.92423,1.45089 l 0,0.64827 1.61553,0 0,5.19645 z m 91.01637,-610.79546 0,605.65046 0.936,0 0,-605.65046 z m -1.87,0 0,605.65046 0.935,0 0,-605.65046 z m -4.678,0 0,600.50546 0.936,0 0,-600.50546 z m -1.87,0 0,600.50546 0.935,0 0,-600.50546 z m -4.678,0 0,600.50546 2.807,0 0,-600.50546 z m -1.87,0 0,600.50546 0.935,0 0,-600.50546 z m -2.807,0 0,600.50546 0.936,0 0,-600.50546 z m -3.741,0 0,600.50546 0.935,0 0,-600.50546 z m -3.742,0 0,600.50546 0.935,0 0,-600.50546 z m -2.807,0 0,600.50546 0.936,0 0,-600.50546 z m -3.741,0 0,600.50546 0.935,0 0,-600.50546 z m -2.807,0 0,600.50546 0.936,0 0,-600.50546 z m -2.806,0 0,600.50546 0.936,0 0,-600.50546 z m -3.742,0 0,600.50546 2.807,0 0,-600.50546 z m -1.87,0 0,605.65046 0.935,0 0,-605.65046 z m -1.871,0 0,605.65046 0.935,0 0,-605.65046 z m -1.871,0 0,600.50546 0.935,0 0,-600.50546 z m -4.677,0 0,600.50546 0.935,0 0,-600.50546 z m -1.871,0 0,600.50546 0.935,0 0,-600.50546 z m -4.677,0 0,600.50546 0.935,0 0,-600.50546 z m -1.871,0 0,600.50546 0.935,0 0,-600.50546 z m -2.807,0 0,600.50546 1.871,0 0,-600.50546 z m -3.741,0 0,600.50546 0.935,0 0,-600.50546 z m -2.807,0 0,600.50546 0.936,0 0,-600.50546 z m -3.741,0 0,600.50546 0.935,0 0,-600.50546 z m -3.742,0 0,600.50546 1.871,0 0,-600.50546 z m -5.613,0 0,600.50546 3.742,0 0,-600.50546 z m -1.871,0 0,600.50546 0.936,0 0,-600.50546 z m -1.87,0 0,605.65046 0.935,0 0,-605.65046 z m -1.871,0 0,605.65046 0.935,0 0,-605.65046 z"
             inkscape:connector-curvature="0"
             sodipodi:nodetypes="sscsccsssssssssccccccccccccccccccccccccscssscsssssssssssssscssscssssssssssssssssscsccsssssssscssccssccsssccssscssccssccsssccssssssssssssscssscsssssssssssssccccccccsscsccssssssssscccccccccccccccccccccccccccccccccccccccccccccccccccccccccccccccccccccccccccccccccccccccccccccccccccccccccccccccccccccccccccccccccccccccccccccccccccccccccccccc" /></g></g></g><g
       id="g170"><g
         clip-path="url(#clipPath174)"
         id="g172" /></g></g></svg>