<?xml version="1.0" encoding="UTF-8" standalone="no"?>
<svg
   xmlns:dc="http://purl.org/dc/elements/1.1/"
   xmlns:cc="http://creativecommons.org/ns#"
   xmlns:rdf="http://www.w3.org/1999/02/22-rdf-syntax-ns#"
   xmlns:svg="http://www.w3.org/2000/svg"
   xmlns="http://www.w3.org/2000/svg"
   version="1.1"
   id="svg2"
   height="208"
   width="150.00005">
  <defs
     id="defs4">
    <marker
       style="overflow:visible"
       id="Arrow1Mend"
       refX="0"
       refY="0"
       orient="auto">
      <path
         transform="matrix(-0.4,0,0,-0.4,-4,0)"
         style="fill-rule:evenodd;stroke:#000000;stroke-width:1pt;marker-start:none"
         d="M 0,0 5,-5 -12.5,0 5,5 0,0 Z"
         id="path4210" />
    </marker>
    <marker
       id="ArrowStart"
       viewBox="0 0 10 10"
       refX="10"
       refY="5"
       markerUnits="strokeWidth"
       markerWidth="4"
       markerHeight="3"
       orient="auto">
      <path
         d="M 10,0 0,5 10,10 Z"
         id="path3119" />
    </marker>
    <marker
       id="ArrowEnd"
       viewBox="0 0 10 10"
       refX="0"
       refY="5"
       markerUnits="strokeWidth"
       markerWidth="4"
       markerHeight="3"
       orient="auto">
      <path
         d="M 0,0 10,5 0,10 Z"
         id="path3116" />
    </marker>
  </defs>
  <metadata
     id="metadata7">
    <rdf:RDF>
      <cc:Work
         rdf:about="">
        <dc:format>image/svg+xml</dc:format>
        <dc:type
           rdf:resource="http://purl.org/dc/dcmitype/StillImage" />
        <dc:title></dc:title>
      </cc:Work>
    </rdf:RDF>
  </metadata>
  <g
     transform="translate(-117.68752,-162.50047)"
     id="layer1">
    <path
       id="rect4163"
       d="m 267.6875,162.5 -142.00586,0 c -0.076,0.52244 -0.11719,1.03653 -0.11719,1.54102 0,3.9542 3.05561,9.03574 8.71485,14.24609 5.65923,5.21034 13.58065,10.39935 21.79297,15 8.2123,4.60065 16.71765,8.63892 23.63867,11.74609 6.71248,3.01356 11.52273,4.96692 13.89453,6.08008 a 3.9325345,3.9325345 0 0 1 0.47656,0.20117 c 1.10666,0.54714 6.69916,2.89338 13.75781,6.10547 7.05865,3.2121 15.87625,7.44222 24.55274,12.33789 8.67649,4.89568 17.20665,10.42908 23.77344,16.44531 6.48187,5.93846 11.39524,12.4785 11.52148,19.97461 l 0,-103.67773 z m 0,104.28906 c -0.1261,7.5639 -4.70294,14.24494 -10.87891,20.16992 -6.26289,6.00839 -14.43078,11.4221 -22.86523,16.2129 -16.86891,9.58158 -35.18765,16.77392 -39.92774,19.00781 l -0.0195,0.01 -0.0195,0.01 c -7.87969,3.60731 -25.32051,10.77577 -40.74609,19.85742 -7.71279,4.54082 -14.87998,9.5605 -19.92578,14.60938 -4.91043,4.91341 -7.58603,9.68022 -7.72657,13.83398 l 142.10938,0 0,-103.71094 z m -7.85156,-0.31836 c 0,-3.93193 -3.16008,-9.13453 -8.98242,-14.46875 -5.82235,-5.33421 -13.94668,-10.66753 -22.32422,-15.39453 -8.37755,-4.727 -17.0112,-8.87493 -23.94727,-12.03125 -6.6998,-3.04879 -11.28911,-4.92868 -13.50781,-5.99805 a 3.9325345,3.9325345 0 0 1 -0.43164,-0.17968 c -1.50641,-0.72081 -7.10664,-3.02825 -14.15235,-6.19141 -7.0457,-3.16315 -15.74212,-7.2858 -24.26171,-12.05859 -8.51959,-4.77279 -16.85831,-10.16809 -23.2754,-16.07617 -6.41709,-5.90809 -11.2539,-12.48014 -11.2539,-20.03125 0,-0.51802 0.0255,-1.031 0.0664,-1.54102 l -0.0781,0 0,208 0.0234,0 c 0.12977,-7.22254 4.30567,-13.6635 10.03125,-19.39258 5.81673,-5.82027 13.45194,-11.08992 21.5,-15.82812 16.07765,-9.46555 33.95621,-16.79904 41.42187,-20.21485 5.78877,-2.7281 23.18395,-9.5217 39.39649,-18.73047 8.10626,-4.60438 15.82009,-9.78712 21.30468,-15.04882 5.4846,-5.26171 8.47071,-10.41986 8.47071,-14.81446 z"
       style="opacity:1;fill:#000000;fill-opacity:1;stroke:none;stroke-width:4;stroke-linecap:butt;stroke-linejoin:round;stroke-miterlimit:4;stroke-dasharray:none;stroke-dashoffset:0;stroke-opacity:1" />
    <g
       transform="matrix(0.78642826,0,0,0.78642826,-139.05585,72.932269)"
       id="g3844" />
  </g>
</svg>
