<?xml version="1.0" encoding="UTF-8" standalone="no"?>
<svg
   xmlns:dc="http://purl.org/dc/elements/1.1/"
   xmlns:cc="http://creativecommons.org/ns#"
   xmlns:rdf="http://www.w3.org/1999/02/22-rdf-syntax-ns#"
   xmlns:svg="http://www.w3.org/2000/svg"
   xmlns="http://www.w3.org/2000/svg"
   version="1.1"
   id="sinusoid-svg"
   height="150"
   width="208">
  <g id="sinusoid-layer"
     transform="translate(-88.6875,-191.5)">
    <g id="sinusoid-object"
       transform="matrix(0.78642826,0,0,0.78642826,-139.05585,72.932269)">
      <path id="sinusoid-path"
            d="m 93.18374,246.5776 c 4.03758,-8.1665 36.27364,-90.82497 65.65136,-90.82497 30.74716,0 60.00536,77.43677 66.31489,90.82497 8.92391,19.4931 36.91263,89.9107 66.40291,89.9108 29.25966,0 60.00544,-80.2957 64.60624,-89.9108 4.03758,-8.1665 36.27364,-90.82497 65.65136,-90.82497 30.74716,0 60.00536,77.43677 66.31489,90.82497 8.92391,19.4931 36.91263,89.9107 66.40291,89.9108 29.25966,0 60.00544,-80.2957 64.60624,-89.9108"/>
    </g>
  </g>
</svg>
