<?xml version="1.0" encoding="UTF-8" standalone="no"?>
<svg
   xmlns:dc="http://purl.org/dc/elements/1.1/"
   xmlns:cc="http://creativecommons.org/ns#"
   xmlns:rdf="http://www.w3.org/1999/02/22-rdf-syntax-ns#"
   xmlns:svg="http://www.w3.org/2000/svg"
   xmlns="http://www.w3.org/2000/svg"
   version="1.1"
   id="svg2"
   height="150"
   width="208">
  <defs
     id="defs4">
    <marker
       style="overflow:visible"
       id="Arrow1Mend"
       refX="0"
       refY="0"
       orient="auto">
      <path
         transform="matrix(-0.4,0,0,-0.4,-4,0)"
         style="fill-rule:evenodd;stroke:#000000;stroke-width:1pt;marker-start:none"
         d="M 0,0 5,-5 -12.5,0 5,5 0,0 Z"
         id="path4210" />
    </marker>
    <marker
       id="ArrowStart"
       viewBox="0 0 10 10"
       refX="10"
       refY="5"
       markerUnits="strokeWidth"
       markerWidth="4"
       markerHeight="3"
       orient="auto">
      <path
         d="M 10,0 0,5 10,10 Z"
         id="path3119" />
    </marker>
    <marker
       id="ArrowEnd"
       viewBox="0 0 10 10"
       refX="0"
       refY="5"
       markerUnits="strokeWidth"
       markerWidth="4"
       markerHeight="3"
       orient="auto">
      <path
         d="M 0,0 10,5 0,10 Z"
         id="path3116" />
    </marker>
  </defs>
  <metadata
     id="metadata7">
    <rdf:RDF>
      <cc:Work
         rdf:about="">
        <dc:format>image/svg+xml</dc:format>
        <dc:type
           rdf:resource="http://purl.org/dc/dcmitype/StillImage" />
        <dc:title></dc:title>
      </cc:Work>
    </rdf:RDF>
  </metadata>
  <g
     transform="translate(-88.6875,-191.5)"
     id="layer1">
    <g
       style="stroke-width:19.07357788;stroke-miterlimit:4;stroke-dasharray:none"
       transform="matrix(0.7869857,0,0,0.75553606,-139.25439,80.535474)"
       id="g3844">
      <path
         d="m 93.18374,246.5776 c 4.03758,-8.1665 36.27364,-88.28183 65.65136,-88.28183 30.74716,0 60.00536,74.89363 66.31489,88.28183 8.92391,19.4931 36.91263,87.36756 66.40291,87.36766 29.25966,0 60.00544,-77.75256 64.60004,-87.36766 4.03138,-8.1665 36.26744,-88.28183 65.64516,-88.28183 30.74716,0 60.00536,74.89363 66.31489,88.28183 8.92391,19.4931 36.91263,87.36756 66.40291,87.36766 29.25966,0 60.00544,-77.75256 64.60624,-87.36766"
         style="fill:none;stroke:#ffffff;stroke-width:19.07357788;stroke-linecap:round;stroke-miterlimit:4;stroke-dasharray:none;stroke-opacity:1"
         id="sin-5" />
    </g>
  </g>
</svg>
