<?xml version="1.0" encoding="UTF-8" standalone="no"?>
<svg
   xmlns:dc="http://purl.org/dc/elements/1.1/"
   xmlns:cc="http://creativecommons.org/ns#"
   xmlns:rdf="http://www.w3.org/1999/02/22-rdf-syntax-ns#"
   xmlns:svg="http://www.w3.org/2000/svg"
   xmlns="http://www.w3.org/2000/svg"
   version="1.1"
   id="svg2"
   height="150"
   width="208">
  <defs
     id="defs4">
    <marker
       style="overflow:visible"
       id="Arrow1Mend"
       refX="0"
       refY="0"
       orient="auto">
      <path
         transform="matrix(-0.4,0,0,-0.4,-4,0)"
         style="fill-rule:evenodd;stroke:#000000;stroke-width:1pt;marker-start:none"
         d="M 0,0 5,-5 -12.5,0 5,5 0,0 Z"
         id="path4210" />
    </marker>
    <marker
       id="ArrowStart"
       viewBox="0 0 10 10"
       refX="10"
       refY="5"
       markerUnits="strokeWidth"
       markerWidth="4"
       markerHeight="3"
       orient="auto">
      <path
         d="M 10,0 0,5 10,10 Z"
         id="path3119" />
    </marker>
    <marker
       id="ArrowEnd"
       viewBox="0 0 10 10"
       refX="0"
       refY="5"
       markerUnits="strokeWidth"
       markerWidth="4"
       markerHeight="3"
       orient="auto">
      <path
         d="M 0,0 10,5 0,10 Z"
         id="path3116" />
    </marker>
  </defs>
  <metadata
     id="metadata7">
    <rdf:RDF>
      <cc:Work
         rdf:about="">
        <dc:format>image/svg+xml</dc:format>
        <dc:type
           rdf:resource="http://purl.org/dc/dcmitype/StillImage" />
        <dc:title></dc:title>
      </cc:Work>
    </rdf:RDF>
  </metadata>
  <g
     transform="translate(-88.6875,-191.5)"
     id="layer1">
    <path
       id="rect4163"
       transform="translate(88.6875,191.5)"
       d="M 0 0 L 0 142.00586 C 0.52243617 142.08185 1.0365266 142.12305 1.5410156 142.12305 C 5.4952162 142.12305 10.576763 139.06744 15.787109 133.4082 C 20.997448 127.74897 26.186465 119.82755 30.787109 111.61523 C 35.387762 103.40293 39.426033 94.897579 42.533203 87.976562 C 45.546757 81.264083 47.500124 76.453828 48.613281 74.082031 A 3.9325345 3.9325345 0 0 1 48.814453 73.605469 C 49.361595 72.498807 51.707826 66.906306 54.919922 59.847656 C 58.132017 52.789006 62.362139 43.971412 67.257812 35.294922 C 72.153494 26.618432 77.686886 18.08827 83.703125 11.521484 C 89.641576 5.0396136 96.181624 0.12623972 103.67773 0 L 0 0 z M 104.28906 0 C 111.85296 0.12609747 118.534 4.7029373 124.45898 10.878906 C 130.46737 17.141801 135.88108 25.30969 140.67188 33.744141 C 150.25346 50.61305 157.4458 68.931789 159.67969 73.671875 L 159.68945 73.691406 L 159.69922 73.710938 C 163.30653 81.590634 170.47499 99.031453 179.55664 114.45703 C 184.09746 122.16982 189.11714 129.33701 194.16602 134.38281 C 199.07943 139.29324 203.84624 141.96884 208 142.10938 L 208 0 L 104.28906 0 z M 103.9707 7.8515625 C 100.03877 7.8515625 94.83617 11.011639 89.501953 16.833984 C 84.167736 22.65633 78.834422 30.780658 74.107422 39.158203 C 69.380422 47.535748 65.232486 56.1694 62.076172 63.105469 C 59.027378 69.805271 57.147494 74.394578 56.078125 76.613281 A 3.9325345 3.9325345 0 0 1 55.898438 77.044922 C 55.177629 78.551325 52.870187 84.15156 49.707031 91.197266 C 46.543875 98.242971 42.421231 106.93939 37.648438 115.45898 C 32.875652 123.97857 27.480355 132.31729 21.572266 138.73438 C 15.664176 145.15147 9.0921346 149.98828 1.5410156 149.98828 C 1.0230025 149.98828 0.51002096 149.9628 0 149.92188 L 0 150 L 208 150 L 208 149.97656 C 200.77746 149.84679 194.3365 145.67089 188.60742 139.94531 C 182.78715 134.12858 177.5175 126.49337 172.7793 118.44531 C 163.31375 102.36766 155.98026 84.489095 152.56445 77.023438 C 149.83635 71.234673 143.04275 53.839494 133.83398 37.626953 C 129.2296 29.520687 124.04686 21.806856 118.78516 16.322266 C 113.52345 10.837668 108.3653 7.8515625 103.9707 7.8515625 z "
       style="opacity:1;fill:#000000;fill-opacity:1;stroke:none;stroke-width:4;stroke-linecap:butt;stroke-linejoin:round;stroke-miterlimit:4;stroke-dasharray:none;stroke-dashoffset:0;stroke-opacity:1" />
    <g
       transform="matrix(0.78642826,0,0,0.78642826,-139.05585,72.932269)"
       id="g3844" />
  </g>
</svg>
