<?xml version="1.0" encoding="UTF-8" standalone="no"?>
<!-- Created with Inkscape (http://www.inkscape.org/) -->

<svg
   xmlns:dc="http://purl.org/dc/elements/1.1/"
   xmlns:cc="http://creativecommons.org/ns#"
   xmlns:rdf="http://www.w3.org/1999/02/22-rdf-syntax-ns#"
   xmlns:svg="http://www.w3.org/2000/svg"
   xmlns="http://www.w3.org/2000/svg"
   xmlns:sodipodi="http://sodipodi.sourceforge.net/DTD/sodipodi-0.dtd"
   xmlns:inkscape="http://www.inkscape.org/namespaces/inkscape"
   width="208"
   height="150"
   id="svg2"
   version="1.1"
   inkscape:version="0.91 r13725"
   sodipodi:docname="sinusoid-i.svg">
  <defs
     id="defs4">
    <marker
       inkscape:stockid="Arrow1Mend"
       orient="auto"
       refY="0"
       refX="0"
       id="Arrow1Mend"
       style="overflow:visible">
      <path
         id="path4210"
         d="M 0,0 5,-5 -12.5,0 5,5 0,0 Z"
         style="fill-rule:evenodd;stroke:#000000;stroke-width:1pt;marker-start:none"
         transform="matrix(-0.4,0,0,-0.4,-4,0)"
         inkscape:connector-curvature="0" />
    </marker>
    <inkscape:perspective
       id="perspective56"
       inkscape:persp3d-origin="164.25 : 79.999995 : 1"
       inkscape:vp_z="328.5 : 119.99999 : 1"
       inkscape:vp_y="0 : 1000 : 0"
       inkscape:vp_x="0 : 119.99999 : 1"
       sodipodi:type="inkscape:persp3d" />
    <marker
       orient="auto"
       markerHeight="3"
       markerWidth="4"
       markerUnits="strokeWidth"
       refY="5"
       refX="10"
       viewBox="0 0 10 10"
       id="ArrowStart">
      <path
         id="path3119"
         d="M 10,0 0,5 10,10 Z"
         inkscape:connector-curvature="0" />
    </marker>
    <marker
       orient="auto"
       markerHeight="3"
       markerWidth="4"
       markerUnits="strokeWidth"
       refY="5"
       refX="0"
       viewBox="0 0 10 10"
       id="ArrowEnd">
      <path
         id="path3116"
         d="M 0,0 10,5 0,10 Z"
         inkscape:connector-curvature="0" />
    </marker>
  </defs>
  <sodipodi:namedview
     id="base"
     pagecolor="#ffffff"
     bordercolor="#666666"
     borderopacity="1.0"
     inkscape:pageopacity="0"
     inkscape:pageshadow="2"
     inkscape:zoom="1.4"
     inkscape:cx="218.64191"
     inkscape:cy="-20.571168"
     inkscape:document-units="px"
     inkscape:current-layer="layer1"
     showgrid="false"
     inkscape:window-width="1366"
     inkscape:window-height="746"
     inkscape:window-x="0"
     inkscape:window-y="22"
     inkscape:window-maximized="0"
     fit-margin-top="0"
     fit-margin-left="0"
     fit-margin-right="0"
     fit-margin-bottom="0" />
  <metadata
     id="metadata7">
    <rdf:RDF>
      <cc:Work
         rdf:about="">
        <dc:format>image/svg+xml</dc:format>
        <dc:type
           rdf:resource="http://purl.org/dc/dcmitype/StillImage" />
        <dc:title></dc:title>
      </cc:Work>
    </rdf:RDF>
  </metadata>
  <g
     inkscape:label="Layer 1"
     inkscape:groupmode="layer"
     id="layer1"
     transform="translate(-88.6875,-191.5)">
    <path
       style="opacity:1;fill:#000000;fill-opacity:1;stroke:none;stroke-width:7.86399984;stroke-linecap:square;stroke-linejoin:miter;stroke-miterlimit:4;stroke-dasharray:none;stroke-dashoffset:0;stroke-opacity:1"
       d="M -55.714844 -39.285156 L -55.714844 54.65625 C -51.509973 63.504006 -48.455802 70.839765 -47.121094 73.671875 L -47.113281 73.691406 L -47.103516 73.710938 C -43.523144 81.531786 -36.344832 98.488849 -27.273438 113.4082 C -22.737744 120.86788 -17.725024 127.78206 -12.683594 132.64648 C -7.6421639 137.5109 -2.7486202 140.12498 1.5410156 140.125 C 5.5521772 140.125 10.626864 137.1499 15.830078 131.67383 C 21.033292 126.19776 26.216039 118.53244 30.8125 110.57227 C 40.00543 94.651922 46.683585 78.074831 48.796875 73.652344 L 48.808594 73.628906 L 48.820312 73.607422 C 49.404047 72.424948 51.723895 66.999224 54.9375 60.125 C 58.151105 53.250776 62.384188 44.67838 67.283203 36.25 C 72.182219 27.821612 77.723178 19.541181 83.746094 13.166016 C 89.769002 6.7908585 96.407623 1.9882812 103.9707 1.9882812 C 111.61212 1.9882812 118.4005 6.4493589 124.41602 12.519531 C 130.43153 18.589704 135.85133 26.510319 140.64648 34.697266 C 150.2368 51.071158 157.40487 68.844943 159.67969 73.671875 L 159.68945 73.691406 L 159.69922 73.710938 C 163.27959 81.531786 170.45595 98.488849 179.52734 113.4082 C 184.06304 120.86788 189.07577 127.78206 194.11719 132.64648 C 199.15862 137.5109 204.05411 140.12498 208.34375 140.125 C 212.35491 140.125 217.42756 137.14992 222.63086 131.67383 C 227.83416 126.19774 233.01845 118.53248 237.61523 110.57227 C 242.22345 102.59226 246.1985 94.450095 249.28516 87.753906 L 249.28516 -39.285156 L -55.714844 -39.285156 z M 103.9707 9.8515625 C 99.982041 9.8515625 94.790281 12.92744 89.462891 18.566406 C 84.1355 24.205372 78.805083 32.07552 74.082031 40.201172 C 69.358979 48.326824 65.215928 56.709584 62.0625 63.455078 C 58.919775 70.177663 56.897649 75.002014 55.892578 77.042969 L 55.871094 77.087891 C 54.354278 80.271132 47.159598 97.988472 37.623047 114.50391 C 32.846683 122.77563 27.444362 130.86654 21.529297 137.0918 C 15.614232 143.31705 9.0351736 147.98828 1.5410156 147.98828 C -5.7653354 147.98826 -12.316815 143.9278 -18.144531 138.30469 C -23.972248 132.68158 -29.250806 125.29531 -33.994141 117.49414 C -43.469791 101.90992 -50.793628 84.546725 -54.236328 77.023438 C -54.595975 76.2603 -55.211396 74.846825 -55.714844 73.710938 L -55.714844 209.28516 L 249.28516 209.28516 L 249.28516 105.59766 C 247.74182 108.55174 246.13862 111.5378 244.42578 114.50391 C 239.64913 122.7756 234.24717 130.86656 228.33203 137.0918 C 222.4169 143.31704 215.83791 147.98828 208.34375 147.98828 C 201.0374 147.98826 194.48397 143.9278 188.65625 138.30469 C 182.82853 132.68158 177.55193 125.29531 172.80859 117.49414 C 163.33294 101.90992 156.00715 84.546725 152.56445 77.023438 C 149.87728 71.321518 143.05941 54.38138 133.85938 38.673828 C 129.25936 30.820052 124.08465 23.358952 118.83008 18.056641 C 113.57551 12.754329 108.4195 9.8515625 103.9707 9.8515625 z "
       transform="translate(88.6875,191.5)"
       id="rect4780" />
    <g
       id="g3844"
       transform="matrix(0.78642826,0,0,0.78642826,-139.05585,72.932269)"
       style="fill:#ff0000" />
  </g>
</svg>
