<?xml version="1.0" encoding="UTF-8" standalone="no"?>
<!-- Created with Inkscape (http://www.inkscape.org/) -->

<svg
   xmlns:dc="http://purl.org/dc/elements/1.1/"
   xmlns:cc="http://creativecommons.org/ns#"
   xmlns:rdf="http://www.w3.org/1999/02/22-rdf-syntax-ns#"
   xmlns:svg="http://www.w3.org/2000/svg"
   xmlns="http://www.w3.org/2000/svg"
   xmlns:sodipodi="http://sodipodi.sourceforge.net/DTD/sodipodi-0.dtd"
   xmlns:inkscape="http://www.inkscape.org/namespaces/inkscape"
   width="150"
   height="208"
   id="svg2"
   version="1.1"
   inkscape:version="0.91 r13725"
   sodipodi:docname="sinusoid-i-v.svg">
  <defs
     id="defs4">
    <marker
       inkscape:stockid="Arrow1Mend"
       orient="auto"
       refY="0"
       refX="0"
       id="Arrow1Mend"
       style="overflow:visible">
      <path
         id="path4210"
         d="M 0,0 5,-5 -12.5,0 5,5 0,0 Z"
         style="fill-rule:evenodd;stroke:#000000;stroke-width:1pt;marker-start:none"
         transform="matrix(-0.4,0,0,-0.4,-4,0)"
         inkscape:connector-curvature="0" />
    </marker>
    <inkscape:perspective
       id="perspective56"
       inkscape:persp3d-origin="164.25 : 79.999995 : 1"
       inkscape:vp_z="328.5 : 119.99999 : 1"
       inkscape:vp_y="0 : 1000 : 0"
       inkscape:vp_x="0 : 119.99999 : 1"
       sodipodi:type="inkscape:persp3d" />
    <marker
       orient="auto"
       markerHeight="3"
       markerWidth="4"
       markerUnits="strokeWidth"
       refY="5"
       refX="10"
       viewBox="0 0 10 10"
       id="ArrowStart">
      <path
         id="path3119"
         d="M 10,0 0,5 10,10 Z"
         inkscape:connector-curvature="0" />
    </marker>
    <marker
       orient="auto"
       markerHeight="3"
       markerWidth="4"
       markerUnits="strokeWidth"
       refY="5"
       refX="0"
       viewBox="0 0 10 10"
       id="ArrowEnd">
      <path
         id="path3116"
         d="M 0,0 10,5 0,10 Z"
         inkscape:connector-curvature="0" />
    </marker>
  </defs>
  <sodipodi:namedview
     id="base"
     pagecolor="#ffffff"
     bordercolor="#666666"
     borderopacity="1.0"
     inkscape:pageopacity="0"
     inkscape:pageshadow="2"
     inkscape:zoom="2.8"
     inkscape:cx="20.501909"
     inkscape:cy="82.434576"
     inkscape:document-units="px"
     inkscape:current-layer="layer1"
     showgrid="false"
     inkscape:window-width="1366"
     inkscape:window-height="746"
     inkscape:window-x="0"
     inkscape:window-y="22"
     inkscape:window-maximized="0"
     fit-margin-top="0"
     fit-margin-left="0"
     fit-margin-right="0"
     fit-margin-bottom="0" />
  <metadata
     id="metadata7">
    <rdf:RDF>
      <cc:Work
         rdf:about="">
        <dc:format>image/svg+xml</dc:format>
        <dc:type
           rdf:resource="http://purl.org/dc/dcmitype/StillImage" />
        <dc:title></dc:title>
      </cc:Work>
    </rdf:RDF>
  </metadata>
  <g
     inkscape:label="Layer 1"
     inkscape:groupmode="layer"
     id="layer1"
     transform="translate(-88.6875,-133.5)">
    <path
       style="opacity:1;fill:#000000;fill-opacity:1;stroke:none;stroke-width:7.86399984;stroke-linecap:square;stroke-linejoin:miter;stroke-miterlimit:4;stroke-dasharray:none;stroke-dashoffset:0;stroke-opacity:1"
       d="m 49.759166,398.71453 93.941404,0 c 8.84776,-4.20487 16.18352,-7.25904 19.01563,-8.59375 l 0.0195,-0.008 0.0195,-0.01 c 7.82085,-3.58037 24.77791,-10.75869 39.69726,-19.83008 7.45968,-4.53569 14.37386,-9.54841 19.23828,-14.58984 4.86442,-5.04143 7.4785,-9.93498 7.47852,-14.22461 0,-4.01117 -2.9751,-9.08585 -8.45117,-14.28907 -5.47607,-5.20321 -13.14139,-10.38596 -21.10156,-14.98242 -15.92035,-9.19293 -32.49744,-15.87108 -36.91993,-17.98437 l -0.0234,-0.0117 -0.0215,-0.0117 c -1.18247,-0.58371 -6.60819,-2.90356 -13.48242,-6.11717 -6.87422,-3.2136 -15.44662,-7.44668 -23.875,-12.3457 -8.42839,-4.89902 -16.70882,-10.43997 -23.08398,-16.46289 -6.375161,-6.02291 -11.177741,-12.66153 -11.177741,-20.22461 0,-7.64142 4.46108,-14.4298 10.531251,-20.44532 6.07018,-6.01551 13.99079,-11.43531 22.17774,-16.23046 16.37389,-9.59032 34.14768,-16.75839 38.97461,-19.03321 l 0.0195,-0.01 0.0195,-0.01 c 7.82085,-3.58037 24.77791,-10.75673 39.69726,-19.82812 7.45968,-4.5357 14.37386,-9.54843 19.23828,-14.58985 4.86442,-5.04143 7.4785,-9.93692 7.47852,-14.22656 0,-4.01116 -2.97508,-9.08381 -8.45117,-14.28711 -5.47609,-5.2033 -13.14135,-10.38759 -21.10156,-14.98437 -7.98001,-4.60822 -16.12218,-8.58327 -22.81836,-11.669934 l -127.039067,0 0,305.000014 z M 98.895889,239.02898 c 0,3.98866 3.075871,9.18042 8.714841,14.50781 5.63896,5.32739 13.50911,10.65781 21.63476,15.38086 8.12566,4.72305 16.50842,8.86611 23.25391,12.01953 6.72259,3.14273 11.54694,5.16485 13.58789,6.16993 l 0.0449,0.0215 c 3.18324,1.51681 20.90058,8.71149 37.41602,18.24804 8.27172,4.77637 16.36263,10.17869 22.58789,16.09375 6.22525,5.91507 10.89648,12.49413 10.89648,19.98828 -2e-5,7.30635 -4.06048,13.85783 -9.68359,19.68555 -5.62311,5.82772 -13.00938,11.10628 -20.81055,15.84961 -15.58422,9.47565 -32.94741,16.79949 -40.4707,20.24219 -0.76314,0.35964 -2.17661,0.97507 -3.3125,1.47851 l 135.57422,0 0,-305.000004 -103.6875,0 c 2.95408,1.543344 5.94014,3.146544 8.90625,4.859384 8.27169,4.77665 16.36265,10.17861 22.58789,16.09375 6.22524,5.91513 10.89648,12.49412 10.89648,19.98828 -2e-5,7.30635 -4.06048,13.85978 -9.68359,19.6875 -5.62311,5.82772 -13.00938,11.10432 -20.81055,15.84766 -15.58422,9.47565 -32.94741,16.80144 -40.4707,20.24414 -5.70192,2.68717 -22.64206,9.50504 -38.34961,18.70507 -7.85378,4.60002 -15.31488,9.77473 -20.61719,15.0293 -5.30231,5.25457 -8.205071,10.41058 -8.205071,14.85938 z"
       id="rect4780"
       inkscape:connector-curvature="0" />
    <g
       id="g3844"
       transform="matrix(0.78642826,0,0,0.78642826,-139.05585,72.932269)"
       style="fill:#ff0000" />
  </g>
</svg>
