<?xml version="1.0" encoding="UTF-8" standalone="no"?>
<svg
   xmlns:dc="http://purl.org/dc/elements/1.1/"
   xmlns:cc="http://creativecommons.org/ns#"
   xmlns:rdf="http://www.w3.org/1999/02/22-rdf-syntax-ns#"
   xmlns:svg="http://www.w3.org/2000/svg"
   xmlns="http://www.w3.org/2000/svg"
   xmlns:sodipodi="http://sodipodi.sourceforge.net/DTD/sodipodi-0.dtd"
   xmlns:inkscape="http://www.inkscape.org/namespaces/inkscape"
   width="434.47977"
   height="166.20705"
   viewBox="0 0 434.47977 166.20705"
   id="svg2"
   version="1.1"
   sodipodi:docname="logismo-si.svg"
   inkscape:version="0.92.3 (2405546, 2018-03-11)">
  <sodipodi:namedview
     pagecolor="#ffffff"
     bordercolor="#666666"
     borderopacity="1"
     objecttolerance="10"
     gridtolerance="10"
     guidetolerance="10"
     inkscape:pageopacity="0"
     inkscape:pageshadow="2"
     inkscape:window-width="1374"
     inkscape:window-height="1432"
     id="namedview7"
     showgrid="false"
     inkscape:zoom="1.3357634"
     inkscape:cx="208.02792"
     inkscape:cy="-61.315288"
     inkscape:window-x="1920"
     inkscape:window-y="0"
     inkscape:window-maximized="0"
     inkscape:current-layer="svg2"
     fit-margin-top="50"
     fit-margin-left="50"
     fit-margin-right="50"
     fit-margin-bottom="50" />
  <defs
     id="defs4" />
  <metadata
     id="metadata7">
    <rdf:RDF>
      <cc:Work
         rdf:about="">
        <dc:format>image/svg+xml</dc:format>
        <dc:type
           rdf:resource="http://purl.org/dc/dcmitype/StillImage" />
        <dc:title></dc:title>
      </cc:Work>
    </rdf:RDF>
  </metadata>
  <path
     style="fill:#000000;stroke-width:0.31999999"
     d="m 122.89038,115.04795 c -0.26636,-0.6375 -0.4843,-1.47397 -0.4843,-1.85884 0,-0.38487 -0.20571,-0.97928 -0.45714,-1.32092 -0.38096,-0.51764 -0.48787,-0.54117 -0.6415,-0.14116 -0.1014,0.264 -0.14768,1.03575 -0.10286,1.71499 0.10342,1.56716 -0.70703,2.27362 -1.59249,1.38815 -0.69229,-0.69228 -0.74343,-4.46024 -0.15054,-11.09124 0.33219,-3.71528 0.29174,-9.050005 -0.0935,-12.331899 -0.062,-0.528 -0.12377,-2.082432 -0.13732,-3.454291 l -0.0246,-2.494288 -2.16,0.183459 c -1.188,0.100902 -5.01328,0.236618 -8.50063,0.30159 -3.48735,0.06497 -6.41365,0.191143 -6.50288,0.280378 -0.0892,0.08924 0.28005,0.259395 0.82063,0.378125 0.54058,0.118733 0.98288,0.323497 0.98288,0.45503 0,0.288669 -1.94877,0.04964 -2.4,-0.294374 -0.87058,-0.663731 -3.64401,-0.673447 -5.83665,-0.02045 -1.22779,0.365648 -2.83389,0.664819 -3.56911,0.664819 -1.22063,0 -1.30809,-0.05356 -1.0068,-0.616518 0.36037,-0.673373 3.10612,-1.816557 5.14687,-2.142887 1.18154,-0.188934 1.24757,-0.25023 0.80106,-0.743619 -0.37538,-0.414784 -0.39984,-0.624506 -0.107,-0.917344 0.52659,-0.526586 0.73256,-0.488077 2.13936,0.399997 1.1243,0.709737 1.50383,0.769801 4.23364,0.670009 4.11522,-0.150441 11.21426,-0.551318 11.79863,-0.666259 0.264,-0.05193 1.38,-0.10543 2.48,-0.118896 l 2,-0.02448 0.006,-3.12 c 0.004,-1.716 0.13453,-4.005338 0.29109,-5.087418 0.33686,-2.328246 0.0117,-6.188304 -0.76086,-9.032441 -0.50876,-1.872989 -0.51205,-2.081895 -0.0402,-2.553744 0.4388,-0.4388 0.61395,-0.451392 1.19876,-0.08617 0.68379,0.42703 0.68455,0.423715 0.4777,-2.086256 -0.62606,-7.596875 -0.82832,-9.604919 -1.01651,-10.091822 -0.16199,-0.419118 0.0627,-0.612987 1.01785,-0.878214 1.79153,-0.497472 2.19087,-0.431243 2.65754,0.440751 0.34122,0.637566 0.34481,1.053047 0.0192,2.216087 -0.34086,1.217427 -0.32764,1.535811 0.0884,2.129808 0.55905,0.798157 0.396,2.601543 -0.33773,3.735347 -0.25125,0.388263 -0.38695,0.820263 -0.30154,0.96 0.40386,0.660766 0.82484,17.071393 0.53988,21.045301 l -0.16,2.231228 1.28,0.26578 c 0.704,0.146179 2.95942,0.345299 5.01205,0.442489 2.88786,0.136739 4.21433,0.05576 5.86414,-0.357993 1.99213,-0.49961 2.18564,-0.49961 2.94815,3e-6 0.70579,0.462451 1.06838,0.485075 2.68303,0.167411 2.03654,-0.400662 2.17066,-0.419648 6.85263,-0.969958 5.23514,-0.615328 5.35186,-0.641351 5.15679,-1.149703 -0.19728,-0.514083 0.91779,-0.667024 1.2261,-0.168169 0.0994,0.160771 0.80132,0.592771 1.55991,0.96 1.13302,0.548483 1.98629,0.667686 4.77934,0.667686 3.45472,0 4.2645,0.271453 3.39572,1.138314 -0.31437,0.313676 -1.74652,0.47838 -5.07786,0.583974 -2.847,0.09024 -6.61849,0.475302 -9.76,0.99647 l -5.12,0.849399 -9.9728,-0.353146 c -5.48504,-0.19423 -10.16504,-0.313065 -10.4,-0.26408 -0.23496,0.04899 -0.51775,0.306439 -0.62842,0.572109 -0.24406,0.585885 -0.12847,22.038215 0.1224,22.716955 0.0976,0.264 0.2652,0.74891 0.3725,1.07758 0.17828,0.54612 0.25202,0.52519 0.85632,-0.24305 0.70703,-0.89884 1.44348,-0.84982 0.97467,0.0649 -0.41195,0.80377 -0.66946,3.96559 -0.38283,4.70058 0.35828,0.91871 0.0644,1.44 -0.81179,1.44 -0.57267,0 -0.88154,-0.28739 -1.24576,-1.15908 z m 214.78374,-5.43957 c -0.12541,-0.12541 -0.22803,-0.92402 -0.22803,-1.77469 0,-1.0611 -0.13149,-1.54666 -0.41884,-1.54666 -0.23036,0 -0.69836,-0.21568 -1.04,-0.47928 -0.60627,-0.46779 -0.60007,-0.49811 0.25884,-1.26465 1.12275,-1.00202 1.1071,-1.16549 -0.0887,-0.92634 -1.30056,0.26011 -2.37075,-0.63128 -1.87347,-1.56046 0.26852,-0.50173 0.54846,-0.59054 1.37351,-0.43576 0.86925,0.16307 1.08705,0.0777 1.35142,-0.52956 0.17332,-0.39817 1.26308,-2.667945 2.42167,-5.043945 2.29344,-4.703351 2.91869,-6.573047 4.76218,-14.240004 0.21158,-0.88 0.6358,-2.248 0.94272,-3.04 0.30694,-0.792 1.10281,-3.168 1.76864,-5.28 0.66582,-2.112 1.76854,-5.28 2.45049,-7.04 1.28288,-3.310966 1.43095,-5.28 0.39703,-5.28 -0.30922,0 -0.4698,0.349158 -0.47831,1.04 l -0.0128,1.04 -0.48621,-0.8968 c -0.74787,-1.379424 -0.47644,-2.865847 0.59149,-3.239073 0.67175,-0.234771 0.97427,-0.194611 1.28,0.16993 0.22019,0.262544 0.63437,0.652979 0.92035,0.867636 0.4416,0.33144 0.52122,0.280832 0.52816,-0.33571 0.004,-0.39929 0.16292,-1.121984 0.3521,-1.605984 0.40451,-1.035069 1.58262,-1.195197 2.35434,-0.32 0.60873,0.690358 1.8454,3.394878 1.8454,4.035777 0,0.258989 0.12461,0.51889 0.2769,0.577558 0.15229,0.05867 0.94598,1.114666 1.76374,2.346666 0.81776,1.232 2.38519,3.350637 3.48311,4.70808 2.68102,3.314678 4.89731,6.288326 6.63625,8.903981 0.792,1.191293 1.80001,2.664825 2.24001,3.274515 0.44,0.609693 1.54233,2.171632 2.44963,3.470976 0.90729,1.299347 2.46672,3.154448 3.4654,4.122448 0.99866,0.968 2.8288,2.877373 4.06701,4.24305 1.87715,2.070434 2.18547,2.562304 1.85543,2.960004 -0.61824,0.74494 -1.57824,0.56234 -2.13392,-0.40591 -0.27869,-0.48557 -0.86327,-1.15182 -1.29908,-1.48054 l -0.79235,-0.59769 0.58205,0.92055 c 0.3201,0.50629 0.89635,1.35254 1.28054,1.88054 0.38417,0.528 1.29735,2.21633 2.02928,3.751845 0.73191,1.53552 1.46695,2.87602 1.63338,2.97889 0.50682,0.31322 0.33869,1.06744 -0.31603,1.41784 -0.39136,0.20944 -6.88816,0.39727 -17.68,0.51117 -9.38375,0.099 -18.11578,0.3151 -19.40451,0.48015 -1.28874,0.16506 -3.16919,0.3001 -4.17882,0.3001 -2.25155,0 -2.85693,0.42232 -2.9817,2.08 -0.0829,1.10153 -0.20953,1.2932 -0.90828,1.37469 -0.4466,0.0521 -0.9146,-0.008 -1.04,-0.13334 z m 8.1951,-5.24177 c 2.60871,-0.16897 8.47671,-0.32559 13.04,-0.34804 4.61597,-0.0227 8.29687,-0.16742 8.29687,-0.32618 0,-0.30124 -5.77216,-0.44598 -11.68,-0.29288 -5.51904,0.14301 -9.00564,0.11348 -12.64,-0.10705 -1.848,-0.11213 -3.18,-0.12023 -2.96,-0.018 0.22,0.10224 0.4,0.46189 0.4,0.79922 0,0.33734 0.18,0.61037 0.4,0.60674 0.22,-0.004 2.5344,-0.14484 5.14313,-0.31382 z m 35.73687,-0.92535 c 0,-0.45395 -0.95914,-0.7011 -2.04295,-0.52642 -0.54838,0.0884 -1.47862,0.22487 -2.06723,0.30328 -2.04317,0.27222 -1.42141,0.50891 1.33683,0.50891 1.52535,0 2.77335,-0.1286 2.77335,-0.28577 z m -16.64,-2.10184 c 9.66928,-0.098 11.2,-0.23642 11.2,-1.01249 0,-0.351725 0.37043,-0.401955 1.76,-0.23864 1.09808,0.12906 1.76,0.0865 1.76,-0.113195 0,-0.17604 -0.44487,-0.87986 -0.98861,-1.56406 -0.54374,-0.6842 -1.61357,-2.1841 -2.37744,-3.3331 -0.76387,-1.14901 -2.2344,-3.02101 -3.26787,-4.160005 -1.03344,-1.138995 -2.22266,-2.574899 -2.64263,-3.190899 -0.42,-0.616 -1.57763,-2.056 -2.57248,-3.2 -0.99488,-1.144 -1.93984,-2.317926 -2.09993,-2.60873 -0.16007,-0.2908 -0.89939,-1.232995 -1.64295,-2.093763 -0.74355,-0.860771 -1.89555,-2.308966 -2.56,-3.218211 -1.73869,-2.379245 -5.99888,-7.502122 -6.78528,-8.159296 -0.77977,-0.651619 -0.98281,-0.69408 -0.98281,-0.205514 0,0.381232 -3.53488,8.069869 -5.28052,11.485514 -1.56601,3.064179 -3.19849,7.174662 -4.00326,10.08 -0.58794,2.122547 -1.83434,5.150464 -4.2479,10.319509 -0.18477,0.39574 -0.22839,0.82774 -0.0969,0.96 0.40224,0.40467 5.5303,0.64289 10.5886,0.49188 2.64,-0.0788 9.04801,-0.18636 14.24001,-0.239 z m -11.52,-30.892389 c 0,-0.176 0.144,-0.32 0.32,-0.32 0.176,0 0.32,0.144 0.32,0.32 0,0.176 -0.144,0.32 -0.32,0.32 -0.176,0 -0.32,-0.144 -0.32,-0.32 z m 12.99264,8.589491 c -0.28195,-0.402541 -0.51264,-0.625901 -0.51264,-0.496352 0,0.356781 0.75795,1.495575 0.90051,1.353002 0.0686,-0.06862 -0.10592,-0.454106 -0.38787,-0.85665 z m -3.15901,-4.028115 c -0.28,-0.309402 -0.66928,-0.922285 -0.86509,-1.361962 -0.66134,-1.485008 -1.20688,-2.281948 -1.88915,-2.759849 -0.37367,-0.261722 -0.67939,-0.675495 -0.67939,-0.919501 0,-0.244003 -0.76887,-1.351837 -1.70861,-2.461853 -0.93971,-1.110016 -1.8808,-2.342211 -2.09127,-2.738211 -0.53564,-1.007904 -1.00012,-0.896445 -1.00012,0.24 0,0.528 -0.144,0.96 -0.32,0.96 -0.176,0 -0.32,0.144 -0.32,0.32 0,0.176 0.31561,0.32 0.7014,0.32 0.7432,0 2.71786,1.874432 4.10996,3.901382 0.44627,0.649764 1.3208,1.731972 1.94342,2.404912 0.62263,0.672941 1.39303,1.621812 1.712,2.108602 0.31895,0.486794 0.65552,0.809466 0.74794,0.717053 0.0924,-0.09241 -0.0611,-0.421171 -0.34109,-0.730573 z m -12.5424,-4.903069 c 0.2792,-0.539933 0.45638,-1.135427 0.39376,-1.323325 -0.0626,-0.187894 -0.34778,0.253866 -0.6337,0.981693 -0.61113,1.555818 -0.48259,1.738842 0.23994,0.341632 z m 6.38877,-6.378307 c 0.10876,-0.176 0.0453,-0.32 -0.14112,-0.32 -0.18637,0 -0.33888,0.144 -0.33888,0.32 0,0.176 0.0635,0.32 0.14112,0.32 0.0776,0 0.23011,-0.144 0.33888,-0.32 z M 208.48608,97.671205 c -4.50744,-1.20933 -6.50538,-2.51095 -9.82992,-6.404004 -2.69259,-3.153037 -4.56021,-6.940141 -4.59816,-9.323997 -0.0312,-1.96144 0.86232,-5.078784 2.41814,-8.436253 0.57597,-1.242957 1.21192,-2.772403 1.41322,-3.398771 0.40622,-1.264023 3.77615,-4.188813 5.77835,-5.015091 0.62611,-0.258388 1.35437,-0.656839 1.61837,-0.885453 0.99762,-0.863891 2.93286,-1.760605 3.79964,-1.760605 0.49509,0 1.73726,-0.288 2.76036,-0.64 2.40025,-0.825808 2.49541,-0.817645 3.7977,0.325779 0.60498,0.531178 1.58199,1.131117 2.17113,1.333194 2.33553,0.801091 5.17804,3.581097 5.6785,5.553632 0.18037,0.710934 0.69351,1.636035 1.14031,2.055782 0.4468,0.419744 0.81237,0.906733 0.81237,1.082195 0,0.175463 0.21804,0.559962 0.48454,0.854442 1.16449,1.286742 2.11005,7.649558 1.45413,9.785008 -1.15882,3.772698 -3.10313,7.911914 -4.56529,9.71897 -1.64553,2.033682 -2.67821,2.685612 -7.42597,4.687962 -2.86594,1.2087 -3.88644,1.27772 -6.90742,0.46721 z m 5.93933,-2.06494 c 3.8413,-1.53753 5.12012,-2.178933 5.98068,-2.999679 0.97675,-0.931574 1.23347,-1.778633 0.2766,-0.912678 -1.01519,0.918726 -5.06851,2.715347 -7.39043,3.275767 l -2.19819,0.53057 -3.21289,-1.15401 c -3.32257,-1.193393 -4.43179,-1.133233 -2.38856,0.12955 1.09445,0.67641 4.89072,1.78321 6.37279,1.85798 0.36263,0.0183 1.51463,-0.30908 2.56,-0.7275 z m 2.24942,-3.837848 c 2.51882,-1.207111 6.40376,-4.811184 6.73362,-6.2468 0.10547,-0.459021 0.46308,-1.686368 0.7947,-2.727437 0.69182,-2.171901 0.75463,-3.698727 0.24115,-5.862557 -0.7759,-3.269674 -1.0864,-4.084685 -1.55821,-4.090048 -0.28946,-0.0033 -0.46992,-0.289104 -0.4546,-0.72 0.0189,-0.531578 -0.15573,-0.714544 -0.68203,-0.714544 -0.38909,0 -1.13986,-0.442298 -1.66838,-0.98288 -0.52852,-0.540586 -1.19358,-1.017024 -1.47791,-1.058755 -0.28433,-0.04173 -0.72841,-0.355434 -0.98685,-0.69712 -0.57217,-0.75649 -0.65757,-0.09183 -0.11778,0.916765 0.97792,1.827264 0.49129,3.288489 -1.15933,3.48119 l -1.12282,0.131085 0.6414,-0.682743 0.6414,-0.682742 -0.72655,-1.492429 c -0.43845,-0.900633 -1.10723,-1.688409 -1.68656,-1.986662 -0.528,-0.271827 -1.392,-0.773674 -1.92,-1.115219 -2.65093,-1.714788 -3.79434,-1.645348 -7.60326,0.46175 -4.55547,2.520093 -4.72665,2.973568 -4.69729,12.443357 0.0194,6.259888 0.32702,7.369315 2.58716,9.33111 2.03941,1.770195 6.43061,3.305779 9.56242,3.343939 2.11089,0.02573 2.68758,-0.104137 4.65972,-1.04926 z M 197.89301,78.367031 c -0.0322,-1.946966 -0.0416,-1.968022 -0.35319,-0.794048 -0.29037,1.09384 -0.14897,2.794048 0.23236,2.794048 0.0847,0 0.13902,-0.9 0.12083,-2 z M 53.35535,92.913425 C 52.22554,92.479479 51.84483,92.101242 51.18933,90.761434 50.71974,89.801623 50.31335,88.271876 50.19702,87.026097 L 50,84.916269 51.45483,83.461444 c 1.48157,-1.481581 3.03803,-2.083911 4.32742,-1.674672 0.34749,0.110291 1.29602,0.846077 2.10782,1.635078 1.43712,1.396752 1.47601,1.486061 1.47601,3.38985 0,3.509667 -1.97207,6.737366 -4.06411,6.651766 -0.31674,-0.01296 -1.19272,-0.260477 -1.94662,-0.550041 z m 3.77073,-3.266394 c 0,-0.176 -0.144,-0.32 -0.32,-0.32 -0.176,0 -0.32,0.144 -0.32,0.32 0,0.176 0.144,0.32 0.32,0.32 0.176,0 0.32,-0.144 0.32,-0.32 z m -1.99326,-2.820218 c 0.0779,-0.23384 -0.0684,-0.305356 -0.38,-0.185763 -0.27871,0.106951 -0.50674,0.335047 -0.50674,0.506883 0,0.420605 0.72729,0.157229 0.88674,-0.32112 z m 215.783,2.081949 c -0.19236,-0.192352 -0.34974,-0.231299 -0.34974,-0.08655 0,0.144752 -0.23941,0.06555 -0.53203,-0.176 -0.41478,-0.342387 -0.56171,-0.351024 -0.66667,-0.03918 -0.18866,0.56055 -1.0413,0.501085 -1.0413,-0.07262 0,-0.259942 0.38097,-0.72224 0.84659,-1.027325 0.84505,-0.553696 2.79944,-0.728893 13.23342,-1.186275 1.848,-0.08101 4.91087,-0.392262 6.80638,-0.691674 2.5435,-0.401769 3.84567,-0.465436 4.9705,-0.24303 0.83826,0.165747 1.95139,0.183872 2.47362,0.04028 0.52222,-0.143593 1.3145,-0.184057 1.76062,-0.08992 0.44611,0.09414 1.48759,0.184743 2.3144,0.201338 2.41015,0.04838 2.97141,1.550614 0.60448,1.61791 -0.65197,0.01853 -1.05923,0.222298 -1.17531,0.588032 -0.0977,0.307815 -0.53336,0.648948 -0.96814,0.758071 -0.43478,0.109123 -4.92962,0.284041 -9.98853,0.38871 -12.1465,0.251306 -12.4841,0.255293 -14.15803,0.167175 -0.792,-0.04169 -1.96662,-0.01357 -2.61026,0.0625 -0.64365,0.07606 -1.32765,-0.01907 -1.52,-0.211434 z M 270.71945,77.0825 c -1.05467,-0.907197 -0.93382,-1.580925 0.40808,-2.274845 0.75486,-0.390355 3.23635,-0.488362 14.22524,-0.561824 9.89866,-0.06618 13.42795,0.0082 13.76757,0.290032 0.2673,0.221843 0.40275,0.746474 0.32664,1.265094 -0.12646,0.861575 -0.1891,0.88721 -2.26547,0.927191 -1.17448,0.02262 -4.15142,0.125257 -6.61542,0.228099 -2.464,0.102842 -7.432,0.265898 -11.04001,0.362346 -3.608,0.09645 -6.86287,0.257075 -7.23304,0.356944 -0.44316,0.119558 -0.98063,-0.083 -1.57359,-0.593037 z"
     id="path4551"
     inkscape:connector-curvature="0" />
</svg>
