<?xml version="1.0" encoding="UTF-8" standalone="no"?>
<svg
   xmlns:dc="http://purl.org/dc/elements/1.1/"
   xmlns:cc="http://creativecommons.org/ns#"
   xmlns:rdf="http://www.w3.org/1999/02/22-rdf-syntax-ns#"
   xmlns:svg="http://www.w3.org/2000/svg"
   xmlns="http://www.w3.org/2000/svg"
   width="94.928703"
   height="176.67799"
   viewBox="0 0 94.928704 176.678"
   id="svg2"
   version="1.1">
  <defs
     id="defs4" />
  <metadata
     id="metadata7">
    <rdf:RDF>
      <cc:Work
         rdf:about="">
        <dc:format>image/svg+xml</dc:format>
        <dc:type
           rdf:resource="http://purl.org/dc/dcmitype/StillImage" />
        <dc:title></dc:title>
      </cc:Work>
    </rdf:RDF>
  </metadata>
  <g
     style="fill:#ffffff"
     id="layer1"
     transform="translate(-314.2329,-303.27549)">
    <path
       style="fill:#ffffff"
       d="m 372.97433,457.97949 c -0.722,-1.34906 -1.32133,-6.56794 -1.33186,-11.59752 -0.0105,-5.02957 -0.48638,-9.88142 -1.05745,-10.78189 -0.79,-1.24567 -4.89586,-1.54462 -17.16836,-1.25 -8.87153,0.21297 -16.83317,-0.0679 -17.69255,-0.62406 -2.81559,-1.82228 -1.77306,-14.8122 4.23264,-52.73872 6.01233,-37.96839 11.03538,-46.81933 30.73156,-54.15099 11.84572,-4.40943 18.4733,-4.7361 18.4733,-0.91057 0,1.70294 -3.71758,3.13978 -8.20048,3.16949 -4.78713,0.0317 -18.54956,6.26184 -22.84143,10.34008 -3.85598,3.66405 -10.16449,14.67807 -10.19646,17.80199 -0.008,0.74874 4.8747,1.25 12.17529,1.25 15.50795,0 20.45492,1.0868 25.22354,5.54135 3.23999,3.02661 3.83954,4.51047 3.83954,9.50264 0,14.31177 -5.17659,20.69759 -17.50093,21.58905 -9.14695,0.66163 -18.6065,-3.1849 -22.73266,-9.24378 -1.59027,-2.33518 -3.44989,-4.06378 -4.13247,-3.84133 -2.31748,0.75523 -7.35343,41.81665 -5.41921,44.18633 0.7779,0.95303 4.19984,1.3476 9.56089,1.10243 4.59216,-0.21002 10.98213,-0.45605 14.19994,-0.54676 4.98647,-0.14057 5.90956,-0.56586 6.25,-2.87952 0.21969,-1.49303 1.03026,-2.92205 1.80126,-3.1756 1.55791,-0.51236 3.75436,12.89653 4.69943,28.68913 0.5861,9.794 -0.5187,13.04304 -2.91353,8.56825 z m 5.35801,-70.7374 c 3.45664,-1.44427 4.79997,-2.95138 5.89835,-6.61744 3.39644,-11.3363 -1.59447,-15.52324 -19.39008,-16.26662 -14.15336,-0.59122 -18.179,0.74528 -18.179,6.03541 0,13.44547 17.51494,22.76332 31.67073,16.84865 z"
       id="path4149" />
  </g>
</svg>
