<?xml version="1.0" encoding="UTF-8" standalone="no"?>
<svg
   xmlns:dc="http://purl.org/dc/elements/1.1/"
   xmlns:cc="http://creativecommons.org/ns#"
   xmlns:rdf="http://www.w3.org/1999/02/22-rdf-syntax-ns#"
   xmlns:svg="http://www.w3.org/2000/svg"
   xmlns="http://www.w3.org/2000/svg"
   xmlns:sodipodi="http://sodipodi.sourceforge.net/DTD/sodipodi-0.dtd"
   xmlns:inkscape="http://www.inkscape.org/namespaces/inkscape"
   inkscape:version="1.0 (4035a4fb49, 2020-05-01)"
   sodipodi:docname="kapela.svg"
   xml:space="preserve"
   style="enable-background:new 0 0 3000 3000;"
   viewBox="0 0 3000 3000"
   y="0px"
   x="0px"
   id="Ebene_1"
   version="1.1"><metadata
   id="metadata126"><rdf:RDF><cc:Work
       rdf:about=""><dc:format>image/svg+xml</dc:format><dc:type
         rdf:resource="http://purl.org/dc/dcmitype/StillImage" /></cc:Work></rdf:RDF></metadata><defs
   id="defs124" /><sodipodi:namedview
   inkscape:current-layer="Ebene_1"
   inkscape:window-maximized="0"
   inkscape:window-y="26"
   inkscape:window-x="0"
   inkscape:cy="1400.8165"
   inkscape:cx="1101.6755"
   inkscape:zoom="0.091775442"
   showgrid="false"
   id="namedview122"
   inkscape:window-height="1050"
   inkscape:window-width="1148"
   inkscape:pageshadow="2"
   inkscape:pageopacity="0"
   guidetolerance="10"
   gridtolerance="10"
   objecttolerance="10"
   borderopacity="1"
   bordercolor="#666666"
   pagecolor="#ffffff" />
<rect
   ry="9.2957497"
   y="-397.07776"
   x="-596.44763"
   height="3921.8909"
   width="4425.7725"
   id="rect951"
   style="fill:#12122a;stroke:#cccccc;stroke-width:9;stroke-linecap:round;stroke-linejoin:round;paint-order:fill markers stroke;fill-opacity:1" /><g
   id="g92">
	<linearGradient
   y2="1443.8466"
   x2="2867.2219"
   y1="1443.8466"
   x1="132.7781"
   gradientUnits="userSpaceOnUse"
   id="SVGID_1_">
		<stop
   id="stop2"
   style="stop-color:#F28C11"
   offset="0" />
		<stop
   id="stop4"
   style="stop-color:#963089"
   offset="0.5531" />
		<stop
   id="stop6"
   style="stop-color:#5F5DA6"
   offset="1" />
	</linearGradient>
	<path
   id="path9"
   d="M1278.014,2802.79L138.76,1236.411   c-3.37-4.633-2.336-11.18,2.297-14.55L1707.436,82.606c4.633-3.37,11.18-2.336,14.55,2.297L2861.24,1651.282   c3.37,4.633,2.336,11.18-2.297,14.55L1292.564,2805.087C1287.932,2808.457,1281.384,2807.423,1278.014,2802.79z"
   style="fill:none;stroke:url(#SVGID_1_);stroke-width:8;stroke-miterlimit:10;" />
	<linearGradient
   y2="1466.635"
   x2="2785.4209"
   y1="1466.635"
   x1="212.8691"
   gradientUnits="userSpaceOnUse"
   id="SVGID_2_">
		<stop
   id="stop11"
   style="stop-color:#F28C11"
   offset="0" />
		<stop
   id="stop13"
   style="stop-color:#963089"
   offset="0.5531" />
		<stop
   id="stop15"
   style="stop-color:#5F5DA6"
   offset="1" />
	</linearGradient>
	<path
   id="path18"
   d="M1626.443,187.505l1152.716,1392.337   c3.632,4.118,3.234,10.459-0.885,14.091L1385.938,2746.649c-4.118,3.632-10.459,3.234-14.091-0.884L219.131,1353.428   c-3.632-4.118-3.234-10.459,0.884-14.091L1612.352,186.621C1616.47,182.989,1622.811,183.387,1626.443,187.505z"
   style="fill:none;stroke:url(#SVGID_2_);stroke-width:7.5556;stroke-miterlimit:10;" />
	<linearGradient
   y2="1489.4236"
   x2="2703.7163"
   y1="1489.4236"
   x1="292.8636"
   gradientUnits="userSpaceOnUse"
   id="SVGID_3_">
		<stop
   id="stop20"
   style="stop-color:#F28C11"
   offset="0" />
		<stop
   id="stop22"
   style="stop-color:#963089"
   offset="0.5531" />
		<stop
   id="stop24"
   style="stop-color:#5F5DA6"
   offset="1" />
	</linearGradient>
	<path
   id="path27"
   d="M1530.9,290.108l1166.178,1218.295   c3.894,3.603,4.132,9.737,0.528,13.631L1479.311,2688.212c-3.603,3.894-9.737,4.131-13.631,0.528L299.502,1470.445   c-3.894-3.603-4.131-9.737-0.528-13.631L1517.269,290.636C1520.872,286.742,1527.006,286.504,1530.9,290.108z"
   style="fill:none;stroke:url(#SVGID_3_);stroke-width:7.1111;stroke-miterlimit:10;" />
	<linearGradient
   y2="1512.2122"
   x2="2622.1189"
   y1="1512.2122"
   x1="372.7509"
   gradientUnits="userSpaceOnUse"
   id="SVGID_4_">
		<stop
   id="stop29"
   style="stop-color:#F28C11"
   offset="0" />
		<stop
   id="stop31"
   style="stop-color:#963089"
   offset="0.5531" />
		<stop
   id="stop33"
   style="stop-color:#5F5DA6"
   offset="1" />
	</linearGradient>
	<path
   id="path36"
   d="M1435.357,392.71l1179.639,1044.253   c4.156,3.089,5.029,9.016,1.941,13.172l-1044.253,1179.64c-3.089,4.156-9.016,5.029-13.172,1.941L379.873,1587.462   c-4.156-3.089-5.029-9.016-1.941-13.172L1422.185,394.65C1425.274,390.494,1431.201,389.621,1435.357,392.71z"
   style="fill:none;stroke:url(#SVGID_4_);stroke-width:6.6667;stroke-miterlimit:10;" />
	<linearGradient
   y2="1535.0007"
   x2="2540.636"
   y1="1535.0007"
   x1="452.5236"
   gradientUnits="userSpaceOnUse"
   id="SVGID_5_">
		<stop
   id="stop38"
   style="stop-color:#F28C11"
   offset="0" />
		<stop
   id="stop40"
   style="stop-color:#963089"
   offset="0.5531" />
		<stop
   id="stop42"
   style="stop-color:#5F5DA6"
   offset="1" />
	</linearGradient>
	<path
   id="path45"
   d="M1339.814,495.312l1193.101,870.211   c4.418,2.574,5.927,8.294,3.353,12.713l-870.211,1193.101c-2.574,4.418-8.295,5.927-12.713,3.353L460.244,1704.479   c-4.418-2.574-5.927-8.294-3.353-12.713l870.211-1193.101C1329.676,494.247,1335.396,492.738,1339.814,495.312z"
   style="fill:none;stroke:url(#SVGID_5_);stroke-width:6.2222;stroke-miterlimit:10;" />
	<linearGradient
   y2="1557.7892"
   x2="2459.2717"
   y1="1557.7892"
   x1="532.178"
   gradientUnits="userSpaceOnUse"
   id="SVGID_6_">
		<stop
   id="stop47"
   style="stop-color:#F28C11"
   offset="0" />
		<stop
   id="stop49"
   style="stop-color:#963089"
   offset="0.5531" />
		<stop
   id="stop51"
   style="stop-color:#5F5DA6"
   offset="1" />
	</linearGradient>
	<path
   id="path54"
   d="M1244.271,597.914l1206.562,696.169   c4.68,2.059,6.825,7.573,4.766,12.253l-696.168,1206.562c-2.059,4.68-7.573,6.825-12.253,4.766L540.616,1821.496   c-4.68-2.059-6.825-7.573-4.766-12.253L1232.018,602.68C1234.077,598,1239.591,595.855,1244.271,597.914z"
   style="fill:none;stroke:url(#SVGID_6_);stroke-width:5.7778;stroke-miterlimit:10;" />
	<linearGradient
   y2="1580.5778"
   x2="2378.0247"
   y1="1580.5778"
   x1="611.715"
   gradientUnits="userSpaceOnUse"
   id="SVGID_7_">
		<stop
   id="stop56"
   style="stop-color:#F28C11"
   offset="0" />
		<stop
   id="stop58"
   style="stop-color:#963089"
   offset="0.5531" />
		<stop
   id="stop60"
   style="stop-color:#5F5DA6"
   offset="1" />
	</linearGradient>
	<path
   id="path63"
   d="M1148.729,700.516l1220.024,522.126   c4.942,1.544,7.722,6.852,6.178,11.794l-522.126,1220.024c-1.544,4.942-6.852,7.722-11.794,6.178L620.987,1938.513   c-4.942-1.544-7.723-6.852-6.178-11.794l522.126-1220.024C1138.479,701.752,1143.786,698.972,1148.729,700.516z"
   style="fill:none;stroke:url(#SVGID_7_);stroke-width:5.3333;stroke-miterlimit:10;" />
	<linearGradient
   y2="1603.3663"
   x2="2296.8899"
   y1="1603.3663"
   x1="691.1395"
   gradientUnits="userSpaceOnUse"
   id="SVGID_8_">
		<stop
   id="stop65"
   style="stop-color:#F28C11"
   offset="0" />
		<stop
   id="stop67"
   style="stop-color:#963089"
   offset="0.5531" />
		<stop
   id="stop69"
   style="stop-color:#5F5DA6"
   offset="1" />
	</linearGradient>
	<path
   id="path72"
   d="M1053.186,803.119l1233.486,348.084   c5.204,1.03,8.62,6.13,7.591,11.334l-348.084,1233.486c-1.03,5.204-6.13,8.62-11.334,7.591L701.358,2055.53   c-5.204-1.03-8.62-6.13-7.591-11.335l348.084-1233.486C1042.881,805.505,1047.981,802.089,1053.186,803.119z"
   style="fill:none;stroke:url(#SVGID_8_);stroke-width:4.8889;stroke-miterlimit:10;" />
	<linearGradient
   y2="1626.1549"
   x2="2215.8599"
   y1="1626.1549"
   x1="770.4595"
   gradientUnits="userSpaceOnUse"
   id="SVGID_9_">
		<stop
   id="stop74"
   style="stop-color:#F28C11"
   offset="0" />
		<stop
   id="stop76"
   style="stop-color:#963089"
   offset="0.5531" />
		<stop
   id="stop78"
   style="stop-color:#5F5DA6"
   offset="1" />
	</linearGradient>
	<path
   id="path81"
   d="M957.643,905.721l1246.947,174.042   c5.467,0.515,9.518,5.409,9.003,10.875l-174.042,1246.947c-0.515,5.467-5.409,9.518-10.875,9.003L781.729,2172.547   c-5.467-0.515-9.518-5.409-9.003-10.875L946.768,914.724C947.283,909.258,952.177,905.206,957.643,905.721z"
   style="fill:none;stroke:url(#SVGID_9_);stroke-width:4.4444;stroke-miterlimit:10;" />
	<linearGradient
   y2="1648.9434"
   x2="2134.9248"
   y1="1648.9434"
   x1="849.6844"
   gradientUnits="userSpaceOnUse"
   id="SVGID_10_">
		<stop
   id="stop83"
   style="stop-color:#F28C11"
   offset="0" />
		<stop
   id="stop85"
   style="stop-color:#963089"
   offset="0.5531" />
		<stop
   id="stop87"
   style="stop-color:#5F5DA6"
   offset="1" />
	</linearGradient>
	<path
   id="path90"
   d="M2122.509,2289.563H862.1   c-5.729,0-10.416-4.687-10.416-10.416l0-1260.409c0-5.729,4.687-10.416,10.416-10.416h1260.409c5.729,0,10.416,4.687,10.416,10.416   v1260.409C2132.925,2284.876,2128.238,2289.563,2122.509,2289.563z"
   style="fill:none;stroke:url(#SVGID_10_);stroke-width:4;stroke-miterlimit:10;" />
</g>
<g
   id="g119">
	<polygon
   id="polygon94"
   points="1451.54,2401.583 1451.503,2401.545 1451.481,2401.583  "
   style="fill:#FFFFFF;" />
	<g
   id="g117">
		<g
   id="g115">
			<g
   id="g113">
				<linearGradient
   y2="1578.4448"
   x2="1880.55"
   y1="1578.4448"
   x1="1137.7905"
   gradientUnits="userSpaceOnUse"
   id="SVGID_11_">
					<stop
   id="stop96"
   style="stop-color:#F28C10"
   offset="0" />
					<stop
   id="stop98"
   style="stop-color:#962F88"
   offset="0.3073" />
					<stop
   id="stop100"
   style="stop-color:#5F5DA6"
   offset="0.803" />
				</linearGradient>
				<polygon
   id="polygon103"
   points="1585.67,1621.203 1820.884,1201.053 1565.455,1201.053 1155.398,1919.567       1155.398,1218.66 1343.429,1218.66 1343.429,1331.71 1361.037,1331.71 1361.037,1201.053 1137.791,1201.053 1137.791,1955.837       1154.631,1955.837 1575.6,1218.66 1790.85,1218.66 1564.211,1623.495 1841.564,1938.23 1566.658,1938.23 1489.729,1854.823       1476.787,1866.768 1558.944,1955.837 1880.55,1955.837     "
   style="fill:url(#SVGID_11_);" />
				<g
   id="g107">
					<circle
   id="circle105"
   r="11.138"
   cy="1376.412"
   cx="1352.232"
   style="fill:#5F5DA6;" />
				</g>
				<g
   id="g111">
					<circle
   id="circle109"
   r="11.138"
   cy="1829.881"
   cx="1454.69"
   style="fill:#F28C10;" />
				</g>
			</g>
		</g>
	</g>
</g>
</svg>
