<?xml version="1.0" standalone="no"?>
<!DOCTYPE svg PUBLIC "-//W3C//DTD SVG 1.1//EN" "http://www.w3.org/Graphics/SVG/1.1/DTD/svg11.dtd" >
<svg>
<metadata>
Created by FontForge 20090914 at Sat May 21 10:25:22 2016
 By www-data
Linux Libertine by Philipp H. Poll,
Open Font under Terms of following Free Software Licenses:
GPL (General Public License) with font-exception and OFL (Open Font License).
Created with FontForge (http://fontforge.sf.net)
Sept 2003, 2004, 2005, 2006, 2007, 2008, 2009, 2010, 2011,2012
</metadata>
<defs>
<font id="LinLibertineI" horiz-adv-x="0" >
  <font-face 
    font-family="Linux Libertine"
    font-weight="400"
    font-style="italic"
    font-stretch="normal"
    units-per-em="2048"
    panose-1="2 0 5 3 0 0 0 0 0 0"
    ascent="1638"
    descent="-410"
    x-height="898.999"
    cap-height="1323"
    bbox="-1299 -639 12638 1829"
    underline-thickness="81"
    underline-position="-201"
    slope="-12"
    unicode-range="U+0020-U+FFFD"
  />
<missing-glyph horiz-adv-x="1024" 
d="M102 1239v-1044l349 522zM164 102h696l-348 523zM573 717l349 -522v1044zM512 809l348 522h-696zM0 0v1434h1024v-1434h-1024z" />
    <glyph glyph-name="ellipsis" unicode="&#x2e;&#x2e;&#x2e;" horiz-adv-x="1533" 
d="M1339 195c27.333 0 50 -8.66699 68 -26s27 -39 27 -65c0 -31.333 -12.667 -60.333 -38 -87s-55 -40 -89 -40c-27.333 0 -50 9.33301 -68 28s-27 41 -27 67c0 30 12.333 58 37 84s54.667 39 90 39zM799 195c27.333 0 49.833 -8.66699 67.5 -26s26.5 -39 26.5 -65
c0 -31.333 -12.667 -60.333 -38 -87s-55 -40 -89 -40c-27.333 0 -49.833 9.33301 -67.5 28s-26.5 41 -26.5 67c0 30 12.333 58 37 84s54.667 39 90 39zM256 195c27.333 0 49.833 -8.66699 67.5 -26s26.5 -39 26.5 -65c0 -31.333 -12.667 -60.333 -38 -87s-55 -40 -89 -40
c-26 0 -48.167 9.33301 -66.5 28s-27.5 41 -27.5 67c0 30 12.333 58 37 84s54.667 39 90 39z" />
    <glyph glyph-name="exclamdbl" unicode="&#x21;&#x21;" horiz-adv-x="841" 
d="M870 1352c30 0 54.333 -12.998 73 -38.998s23 -63 13 -111c-9.33301 -50.667 -30 -119 -62 -205s-55 -149.333 -69 -190c-50.667 -162.667 -84.667 -286.334 -102 -371.001c-9.33301 -27.333 -22.333 -41 -39 -41c-18 0 -25.333 9 -22 27
c1.33301 8 4.33301 33.833 9 77.5l17 151.5c6.66699 57.333 12.334 109.333 17.001 156c4 49.333 6.66699 114.166 8 194.499s6.66602 147.166 15.999 200.499c9.33301 50.667 28.333 88.334 57 113.001s56.667 37 84 37zM514 88.002c5.33301 30 20.998 56 46.998 78
s54 33 84 33s53.5 -11 70.5 -33s22.833 -48 17.5 -78s-20.666 -55.5 -45.999 -76.5s-53.666 -31.5 -84.999 -31.5c-30 0 -53.5 10.5 -70.5 31.5s-22.833 46.5 -17.5 76.5zM493.998 1348c30 0 53.834 -12.998 71.501 -38.998s22.5 -63 14.5 -111
c-9.33301 -50.667 -30.166 -119 -62.499 -205s-55.166 -149.333 -68.499 -190c-20.667 -65.333 -38.834 -126 -54.501 -182s-28 -101.5 -37 -136.5s-13.5 -53.167 -13.5 -54.5c-6.66699 -27.333 -18.834 -41 -36.501 -41s-25.167 9 -22.5 27
c0 1.33301 5.66699 50.166 17 146.499s20 176.5 26 240.5c4 49.333 6.66699 114.166 8 194.499s6.66602 147.166 15.999 200.499c9.33301 50.667 28.5 88.334 57.5 113.001s57.167 37 84.5 37zM136.999 84.0039c5.33301 30 21 55.667 47 77s54 32 84 32s54 -10.667 72 -32
s23.5 -47 16.5 -77s-23.167 -55.667 -48.5 -77s-53 -32 -83 -32s-53.5 10.667 -70.5 32s-22.833 47 -17.5 77z" />
    <glyph glyph-name="question_question" unicode="&#x3f;&#x3f;" horiz-adv-x="1599" 
d="M322 1065c0 61.333 35.499 124.165 106.499 188.498s166.5 96.5 286.5 96.5c92.667 0 166.334 -22.167 221.001 -66.5s82 -104.166 82 -179.499c0 -54.667 -11.333 -104.834 -34 -150.501s-51.667 -84.167 -87 -115.5s-71.166 -59.333 -107.499 -84l-105.5 -73
c-34 -24 -57.333 -45.667 -70 -65c-32.667 -45.333 -54.334 -95 -65.001 -149l-14 -90c-1.33301 -13.333 -11.666 -20.333 -30.999 -21c-8 0 -14.167 1.83301 -18.5 5.5s-5.83301 8.83398 -4.5 15.501l17 94c13.333 70.667 34.666 131.667 63.999 183s60.5 91 93.5 119
l96.5 82c31.333 26.667 56.833 58.5 76.5 95.5s29.5 81.833 29.5 134.5c0 56 -16.333 103.833 -49 143.5s-74.334 59.5 -125.001 59.5c-65.333 0 -117.166 -14 -155.499 -42s-57.5 -59 -57.5 -93c0 -12 3.33301 -23.667 10 -35c4 -8 6 -17.333 6 -28
c0 -23.333 -8.5 -44.666 -25.5 -63.999s-40.5 -29 -70.5 -29c-46 0 -69 22.667 -69 68zM486.999 194.999c27.333 0 50 -8.66699 68 -26s27 -39 27 -65c0 -31.333 -12.667 -60.333 -38 -87s-55 -40 -89 -40c-27.333 0 -50 9.33301 -68 28s-27 41 -27 67c0 30 12.333 58 37 84
s54.667 39 90 39zM1092 1065c0 61.333 35.499 124.165 106.499 188.498s166.5 96.5 286.5 96.5c92.667 0 166.334 -22.167 221.001 -66.5s82 -104.166 82 -179.499c0 -54.667 -11.333 -104.834 -34 -150.501s-51.667 -84.167 -87 -115.5s-71.166 -59.333 -107.499 -84
l-105.5 -73c-34 -24 -57.333 -45.667 -70 -65c-32.667 -45.333 -54.334 -95 -65.001 -149l-14 -90c-1.33301 -13.333 -11.666 -20.333 -30.999 -21c-8 0 -14.167 1.83301 -18.5 5.5s-5.83301 8.83398 -4.5 15.501l17 94c13.333 70.667 34.666 131.667 63.999 183
s60.5 91 93.5 119l96.5 82c31.333 26.667 56.833 58.5 76.5 95.5s29.5 81.833 29.5 134.5c0 56 -16.333 103.833 -49 143.5s-74.334 59.5 -125.001 59.5c-65.333 0 -117.166 -14 -155.499 -42s-57.5 -59 -57.5 -93c0 -12 3.33301 -23.667 10 -35c4 -8 6 -17.333 6 -28
c0 -23.333 -8.5 -44.666 -25.5 -63.999s-40.5 -29 -70.5 -29c-46 0 -69 22.667 -69 68zM1257 194.998c27.333 0 50 -8.66699 68 -26s27 -39 27 -65c0 -31.333 -12.667 -60.333 -38 -87s-55 -40 -89 -40c-27.333 0 -50 9.33301 -68 28s-27 41 -27 67c0 30 12.333 58 37 84
s54.667 39 90 39z" />
    <glyph glyph-name="question_exclam" unicode="&#x3f;&#x21;" horiz-adv-x="1216" 
d="M299 1065c0 61.333 35.4961 124.165 106.496 188.498s166.5 96.5 286.5 96.5c92.667 0 166.334 -22.167 221.001 -66.5s82 -104.166 82 -179.499c0 -54.667 -11.167 -104.834 -33.5 -150.501s-51.333 -84.167 -87 -115.5s-71.5 -59.333 -107.5 -84l-105.5 -73
c-34.333 -24 -57.5 -45.667 -69.5 -65c-32.667 -45.333 -54.667 -95 -66 -149l-14 -90c-1.33301 -13.333 -11.666 -20.333 -30.999 -21c-8 0 -14 1.83301 -18 5.5s-5.33301 8.83398 -4 15.501l16 94c13.333 70.667 34.833 131.667 64.5 183s60.834 91 93.501 119l96 82
c31.333 26.667 57 58.5 77 95.5s30 81.833 30 134.5c0 56 -16.5 103.833 -49.5 143.5s-74.5 59.5 -124.5 59.5c-65.333 0 -117.166 -14 -155.499 -42s-57.5 -59 -57.5 -93c0 -12 3.33301 -23.667 10 -35c4 -8 6 -17.333 6 -28c0 -23.333 -8.5 -44.666 -25.5 -63.999
s-40.5 -29 -70.5 -29c-46.667 0 -70 22.667 -70 68zM464.996 194.999c27.333 0 49.833 -8.66699 67.5 -26s26.5 -39 26.5 -65c0 -31.333 -12.667 -60.333 -38 -87s-55 -40 -89 -40c-26 0 -48.167 9.33301 -66.5 28s-27.5 41 -27.5 67c0 30 12.333 58 37 84s54.667 39 90 39z
M931.996 85.999c6.66699 30 22.332 55.667 46.999 77s52 32 82 32c26 0 47.833 -8.66699 65.5 -26s26.5 -39 26.5 -65c0 -1.33301 -0.333008 -4 -1 -8s-1 -7.33301 -1 -10c-5.33301 -30 -20.666 -55.667 -45.999 -77s-53 -32 -83 -32c-26 0 -47.833 8.66699 -65.5 26
s-26.5 39 -26.5 65c0 1.33301 0.333008 4 1 8s1 7.33301 1 10zM1267.99 1366c26 0 47.833 -9.49805 65.5 -28.498s26.5 -46.5 26.5 -82.5c0 -16.667 -1.33301 -29.334 -4 -38.001c-6.66699 -39.333 -15.834 -78.333 -27.501 -117s-27.167 -84.167 -46.5 -136.5
s-35.666 -100.5 -48.999 -144.5c-44 -148.667 -76 -272 -96 -370c-6.66699 -27.333 -19 -41 -37 -41c-16.667 0 -25 7.33301 -25 22v4c20.667 207.333 33 335.666 37 384.999c4 56 6 102.333 6 139c0 10.667 -0.333008 26 -1 46s-1 35 -1 45c0 60 4.66699 116 14 168
c9.33301 50.667 27.833 88.167 55.5 112.5s55.167 36.5 82.5 36.5z" />
    <glyph glyph-name="exclam_question" unicode="&#x21;&#x3f;" horiz-adv-x="1202" 
d="M672 1061c0 61.333 35.498 124.17 106.498 188.503s166.5 96.5 286.5 96.5c92.667 0 166.334 -22.333 221.001 -67s82 -104.334 82 -179.001c0 -54.667 -11.333 -104.834 -34 -150.501s-51.667 -84.334 -87 -116.001s-71.166 -59.667 -107.499 -84l-105.5 -72.5
c-34 -24 -57 -45.667 -69 -65c-32.667 -45.333 -54.667 -95 -66 -149l-14 -90c-1.33301 -13.333 -11.666 -20.333 -30.999 -21c-8 0 -14.167 1.66699 -18.5 5s-5.83301 8.66602 -4.5 15.999l17 94c13.333 70.667 34.666 131.667 63.999 183s60.5 91 93.5 119l96.5 82
c31.333 26.667 56.833 58.334 76.5 95.001s29.5 81.667 29.5 135c0 56 -16.333 103.833 -49 143.5s-74.334 59.5 -125.001 59.5c-65.333 0 -117.166 -14 -155.499 -42s-57.5 -59 -57.5 -93c0 -12 3.33301 -23.667 10 -35c4 -8 6.33301 -17.667 7 -29
c0 -23.333 -8.66699 -44.5 -26 -63.5s-41 -28.5 -71 -28.5c-46 0 -69 22.667 -69 68zM837.998 190.004c27.333 0 49.833 -8.5 67.5 -25.5s26.5 -38.5 26.5 -64.5c0 -31.333 -12.667 -60.333 -38 -87s-55 -40 -89 -40c-26 0 -48.167 9.33301 -66.5 28s-27.5 41 -27.5 67
c0 30 12.333 57.833 37 83.5s54.667 38.5 90 38.5zM179.998 82.0039c6.66699 30 22.332 55.502 46.999 76.502s52 31.5 82 31.5c26 0 47.833 -8.5 65.5 -25.5s26.5 -38.5 26.5 -64.5c0 -1.33301 -0.333008 -4 -1 -8s-1 -7.33301 -1 -10
c-5.33301 -30 -20.666 -55.667 -45.999 -77s-53 -32 -83 -32c-26 0 -47.833 8.66699 -65.5 26s-26.5 38.666 -26.5 63.999c0 1.33301 0.333008 4.16602 1 8.49902s1 7.83301 1 10.5zM515.996 1362.01c26 0 47.8359 -9.50098 65.5029 -28.501s26.5 -46.5 26.5 -82.5
c0 -16.667 -1.33301 -29.667 -4 -39c-6.66699 -39.333 -15.834 -78.166 -27.501 -116.499s-27 -83.666 -46 -135.999s-35.5 -100.5 -49.5 -144.5c-44 -148.667 -76 -272.334 -96 -371.001c-6.66699 -27.333 -19 -41 -37 -41c-16.667 0 -24.667 7.66699 -24 23v4
c20.667 207.333 32.667 335.666 36 384.999c4 54.667 6.33301 101 7 139c0 10.667 -0.333008 26 -1 46s-1 34.667 -1 44c0 60 4.66699 116 14 168c9.33301 50.667 27.666 88.334 54.999 113.001s54.666 37 81.999 37z" />
    <glyph glyph-name="centigrade" unicode="&#xb0;C" horiz-adv-x="1636" 
d="M1106 -33c-182.667 0 -318.832 59.8301 -408.499 179.497s-119.5 257.834 -89.5 414.501c38 192.667 123.667 345.334 257 458.001s284 169 452 169c83.333 0 152.333 -6.16699 207 -18.5s96 -25.333 124 -39s48.667 -20.5 62 -20.5
c-15.333 -101.333 -21.333 -203.666 -18 -306.999l-62 -8c-16.667 216 -123.667 323.667 -321 323c-46.667 0 -93.167 -7.5 -139.5 -22.5s-95.166 -40.5 -146.499 -76.5s-97.5 -91 -138.5 -165s-71.5 -162 -91.5 -264c-28.667 -146 -13.334 -272 45.999 -378
s152.333 -159 279 -159c87.333 0 163.166 16.5 227.499 49.5s139.5 91.833 225.5 176.5l41 -31c-84.667 -94 -166.667 -164.333 -246 -211s-166 -70 -260 -70zM651.002 1141c8 36.667 2.83203 70.667 -15.501 102s-48.5 47 -90.5 47c-40.667 0 -76.5 -15.333 -107.5 -46
s-49.833 -65 -56.5 -103c-8 -38 -2.5 -71.833 16.5 -101.5s49 -44.5 90 -44.5s76.833 14.833 107.5 44.5s49.334 63.5 56.001 101.5zM311.501 1143c11 56 40.333 104.167 88 144.5s99.5 60.5 155.5 60.5s100.333 -20.167 133 -60.5s43.667 -88.5 33 -144.5
s-40 -104.167 -88 -144.5s-100 -60.5 -156 -60.5s-100.333 20.167 -133 60.5s-43.5 88.5 -32.5 144.5z" />
    <glyph glyph-name="fahrenheit" unicode="&#xb0;F" horiz-adv-x="1642" 
d="M1176 1032l-77.999 -400.999h270c34 0 59.167 7.16699 75.5 21.5s31.5 37.833 45.5 70.5l27 59c2.66699 12 8.66699 18.333 18 19h45c5.33301 0 6.66602 -3.33301 3.99902 -10c-30 -98 -47.667 -163 -53 -195c-9.33301 -48 -17 -113.667 -23 -197l-6 -6h-47
c-9.33301 0 -14 5 -14 15l2 63c0 31.333 -6.16699 54.166 -18.5 68.499s-34.833 21.5 -67.5 21.5h-273l-79 -414c-6.66699 -31.333 -2.66699 -54.166 12 -68.499s42 -21.5 82 -21.5h53c12 0 16.667 -5.33301 14 -16l-8 -39l-4 -4l-256 4l-264 -4l-4 4l8 39
c2.66699 10.667 8.66699 16 18 16h54c75.333 0 119 30 131 90l172 885c5.33301 31.333 2.16602 54.166 -9.50098 68.499s-38.5 21.5 -80.5 21.5h-62c-8 0 -12 5 -12 15l8 41l8 4l254 -4l154 2l510 2c-13.333 -105.333 -20.333 -212 -21 -320l-61 -8
c-5.33301 45.333 -10.5 78.5 -15.5 99.5s-14 45.167 -27 72.5s-31 46.5 -54 57.5s-53.167 16.5 -90.5 16.5h-249c-49.333 0 -78.666 -22.667 -87.999 -68zM651.001 1141c8 36.667 2.83203 70.667 -15.501 102s-48.5 47 -90.5 47c-40.667 0 -76.5 -15.333 -107.5 -46
s-49.833 -65 -56.5 -103c-8 -38 -2.5 -71.833 16.5 -101.5s49 -44.5 90 -44.5s76.833 14.833 107.5 44.5s49.334 63.5 56.001 101.5zM311.5 1143c11 56 40.333 104.167 88 144.5s99.5 60.5 155.5 60.5s100.333 -20.167 133 -60.5s43.667 -88.5 33 -144.5
s-40 -104.167 -88 -144.5s-100 -60.5 -156 -60.5s-100.333 20.167 -133 60.5s-43.5 88.5 -32.5 144.5z" />
    <glyph glyph-name="f_f_j" unicode="ffj" horiz-adv-x="1677" 
d="M1294 799l-219.004 -0.00292969l-6 -35c-84.667 -482 -153 -793.333 -205 -934c-16.667 -45.333 -34.334 -80.666 -53.001 -105.999c-61.333 -86 -140.666 -129.333 -237.999 -130c-64.667 0 -112.334 9.33301 -143.001 28s-46 41 -46 67c0 20 6.16699 37.167 18.5 51.5
s31.5 21.5 57.5 21.5c20.667 0 40.334 -6.83301 59.001 -20.5s33.334 -28.834 44.001 -45.501c14 -22.667 30.333 -34 49 -34c15.333 0 32.333 6 51 18s33.667 27 45 45c26 40.667 48 107.167 66 199.5s35.667 207.333 53 345s31.666 237.5 42.999 299.5l43 230h-143h-18
h-201l-6 -35c-22.667 -126.667 -55 -292.667 -97 -498c-40 -194.667 -73.167 -337.5 -99.5 -428.5s-53.833 -156.167 -82.5 -195.5c-61.333 -86 -140.333 -129 -237 -129c-64.667 0 -112.5 9.16699 -143.5 27.5s-46.5 40.5 -46.5 66.5c0 20 6.16699 37.333 18.5 52
s31.5 22 57.5 22c20.667 0 40.334 -7 59.001 -21s33.334 -29.333 44.001 -46c14 -22.667 30.667 -34 50 -34c15.333 0 31.833 5.83301 49.5 17.5s32.167 26.5 43.5 44.5c7.33301 11.333 14.5 25.333 21.5 42s13.333 33.334 19 50.001s11.667 37.5 18 62.5
s11.5 46.667 15.5 65s8.66699 43 14 74l12.5 72c3 17 7 42.5 12 76.5s8.33301 57.667 10 71s4.83398 37 9.50098 71s7.33398 55 8.00098 63c12 87.333 40 257.333 84 510h-168c-8 0 -12 1.33301 -12 4c0 6.66699 2.66699 18.334 8 35.001c5.33301 22 24.333 33.333 57 34
l136 7c5.33301 28.667 11.333 57.667 18 87s22 72.333 46 129s51.667 105.5 83 146.5s74.666 77.5 129.999 109.5s117 48 185 48c32 0 75.833 -8.33301 131.5 -25s96.167 -37.334 121.5 -62.001l23 22c73.333 65.333 163.666 98 270.999 98c74 0 143 -25.667 207 -77
s96 -101.666 96 -150.999c0 -32.667 -10.167 -59.5 -30.5 -80.5s-42.833 -31.5 -67.5 -31.5c-26 0 -46.833 8.5 -62.5 25.5s-23.5 39.833 -23.5 68.5c0 42 -1.66699 70.167 -5 84.5s-14 33.166 -32 56.499c-19.333 24.667 -53.333 37 -102 37
c-83.333 0 -149.666 -43.667 -198.999 -131c-15.333 -26 -29 -55 -41 -87s-21.833 -62.667 -29.5 -92s-13.834 -55.333 -18.501 -78s-8.66699 -44.167 -12 -64.5s-5 -31.166 -5 -32.499h223c52 0 116.5 2.33301 193.5 7s120.833 7 131.5 7c28 0 42 -14.333 42 -43
c0 -10 -1.83301 -25.167 -5.5 -45.5s-8.66699 -45.166 -15 -74.499s-11.166 -54 -14.499 -74l-29 -177c-58.667 -354.667 -128.667 -595.667 -210 -723c-67.333 -105.333 -149.666 -157.666 -246.999 -156.999c-48 0 -88 8.5 -120 25.5s-48 41.167 -48 72.5
c0 20.667 6.16699 36.334 18.5 47.001s26.166 16 41.499 16c36.667 0 66.334 -14.667 89.001 -44s41.334 -44 56.001 -44c24.667 0 51 16.167 79 48.5s52.333 87.166 73 164.499c13.333 56 29.166 137.667 47.499 245s31.833 184 40.5 230l57 297
c6.66699 35.333 10 69.666 10 102.999c0 16.667 -18.333 28 -55 34c-22 3.33301 -73.333 5 -154 5zM1031 1185c-14 10.667 -29.999 29.332 -47.999 55.999c-12.667 19.333 -23.667 34.333 -33 45s-23.333 20.834 -42 30.501s-39.334 14.5 -62.001 14.5
c-16.667 0 -34.167 -3.66699 -52.5 -11s-40.5 -21 -66.5 -41s-51 -53.167 -75 -99.5s-43.333 -102.833 -58 -169.5l-29 -131h242h12h111c25.333 124 59 226 101 306z" />
    <glyph glyph-name="f_j" unicode="fj" horiz-adv-x="1196" 
d="M969 657c6.66699 35.333 9.99609 69.6611 9.99609 102.994c0 16.667 -18.333 28 -55 34c-22 3.33301 -73.333 5 -154 5h-219l-6 -35c-91.333 -516 -166.666 -854.667 -225.999 -1016c-16.667 -45.333 -34.334 -80.666 -53.001 -105.999
c-61.333 -86 -140.333 -129 -237 -129c-64.667 0 -112.5 9.16699 -143.5 27.5s-46.5 40.5 -46.5 66.5c0 20 6.16699 37.333 18.5 52s31.5 22 57.5 22c20.667 0 40.334 -7 59.001 -21s33.334 -29.333 44.001 -46c14 -22.667 30.667 -34 50 -34c15.333 0 32.166 6 50.499 18
s33.166 27 44.499 45c26 40.667 49.667 113.334 71 218.001s42.666 234.5 63.999 389.5s37.333 261.167 48 318.5l43 230h-162c-8 0 -12 1.33301 -12 4c0 6.66699 2.66699 18.334 8 35.001c5.33301 22 25.333 33.333 60 34l123 7c44 216 115 367.667 213 455
c73.333 65.333 164 98 272 98c74 0 143 -25.667 207 -77s96 -101.666 96 -150.999c0 -32.667 -10.167 -59.5 -30.5 -80.5s-42.833 -31.5 -67.5 -31.5c-26 0 -46.833 8.5 -62.5 25.5s-23.5 39.833 -23.5 68.5c0 42 -1.83301 70.167 -5.5 84.5s-14.167 33.166 -31.5 56.499
c-19.333 24.667 -53.666 37 -102.999 37c-83.333 0 -149.333 -43.667 -198 -131c-15.333 -26 -29.166 -55 -41.499 -87s-22.166 -62.667 -29.499 -92s-13.5 -55.333 -18.5 -78s-9.16699 -44.167 -12.5 -64.5s-5 -31.166 -5 -32.499h223c52 0 116.667 2.33301 194 7
s121.333 7 132 7c28 0 42 -14.333 42 -43c0 -10 -1.83301 -25.167 -5.5 -45.5s-8.66699 -45.166 -15 -74.499s-11.166 -54 -14.499 -74l-29 -177c-58.667 -354.667 -129 -595.667 -211 -723c-67.333 -105.333 -149.333 -157.666 -246 -156.999c-48 0 -88 8.5 -120 25.5
s-48 41.167 -48 72.5c0 20.667 6.16699 36.334 18.5 47.001s25.833 16 40.5 16c36.667 0 66.334 -14.667 89.001 -44s41.667 -44 57 -44c24.667 0 51 16.167 79 48.5s52 87.166 72 164.499c13.333 56 29.333 137.667 48 245l40 230z" />
    <glyph glyph-name="f_k" unicode="fk" horiz-adv-x="1632" 
d="M1051 1178c-1.33301 34 -22.6621 75.9951 -63.9951 125.995c-32 38.667 -67.333 58 -106 58c-60 0 -117 -30.333 -171 -91c-58.667 -65.333 -99.334 -157.333 -122.001 -276l-23 -116h226c9.33301 0 14 -3.66699 14 -11l-10 -45c-4 -16.667 -22 -24.667 -54 -24h-190
l-6 -35c-22.667 -126.667 -55 -292.667 -97 -498c-40 -194.667 -73.167 -337.5 -99.5 -428.5s-53.833 -156.167 -82.5 -195.5c-61.333 -86 -140.333 -129 -237 -129c-64.667 0 -112.5 9.16699 -143.5 27.5s-46.5 40.5 -46.5 66.5c0 20 6.16699 37.333 18.5 52
s31.5 22 57.5 22c18 0 36 -6 54 -18s32 -25 42 -39c0.666992 -1.33301 2.33398 -4.16602 5.00098 -8.49902s4.5 -7.16602 5.5 -8.49902l5.5 -7c2.66699 -3.33301 4.66699 -5.66602 6 -6.99902s3.33301 -3 6 -5s5.33398 -3.5 8.00098 -4.5s5.83398 -1.83301 9.50098 -2.5
s7.5 -1 11.5 -1c15.333 0 31.833 5.83301 49.5 17.5s32.167 26.5 43.5 44.5c7.33301 11.333 14.5 25.333 21.5 42s13.333 33.334 19 50.001s11.667 37.5 18 62.5s11.5 46.667 15.5 65s8.66699 43 14 74l12.5 72c3 17 7 42.5 12 76.5s8.33301 57.667 10 71
s4.83398 37 9.50098 71s7.33398 55 8.00098 63c12 87.333 40 257.333 84 510h-168c-8 0 -12 1.33301 -12 4c0 6.66699 2.66699 18.334 8 35.001c5.33301 22 24.333 33.333 57 34l136 7c30.667 215.333 100.667 367.333 210 456c77.333 62.667 171 94.334 281 95.001
c35.333 0 74.166 -6.5 116.499 -19.5s72.166 -27.167 89.499 -42.5c47.333 26 91.333 46.667 132 62c16.667 0 25 -7 25 -21l-52 -215l-147 -637c32 0 72.333 21 121 63l82 70c157.333 139.333 270 209 338 209c66.667 0 100 -24 100 -72
c0 -28.667 -11.333 -52.834 -34 -72.501s-42.667 -29.5 -60 -29.5c-24.667 0 -45.834 4.83301 -63.501 14.5s-34.834 14.5 -51.501 14.5c-36.667 0 -102.334 -42.333 -197.001 -127l-106 -95v-8c31.333 -8 53.166 -19.167 65.499 -33.5s28.166 -39.833 47.499 -76.5
c6.66699 -13.333 21.5 -47.833 44.5 -103.5s45.5 -104.5 67.5 -146.5l7 -13.5c3.33301 -6.33301 5.83301 -10.833 7.5 -13.5s3.83398 -6.66699 6.50098 -12s4.66699 -9 6 -11s3.66602 -4.83301 6.99902 -8.5s6 -6.5 8 -8.5s4.66699 -4 8 -6s7.16602 -3.33301 11.499 -4
s8.5 -1 12.5 -1c26 0 61.333 32.667 106 98c15.333 0 30.333 -8.66699 45 -26c-68 -118.667 -136.667 -178 -206 -178c-40.667 0 -75.834 16 -105.501 48s-61.834 86 -96.501 162c-12.667 28 -29.5 72.833 -50.5 134.5s-38.167 104.5 -51.5 128.5c-12.667 22 -26 33 -40 33
c-18.667 0 -34 -2.33301 -46 -7l-73 -332c-1.33301 -8 -4 -23 -8 -45s-7.5 -38 -10.5 -48s-7.5 -22 -13.5 -36s-14.167 -23.833 -24.5 -29.5s-22.833 -8.5 -37.5 -8.5c-56 0 -84 18.333 -84 55c0 6 1.33301 15 4 27s6.33398 26.833 11.001 44.5l11 40.5z" />
    <glyph glyph-name="f_t" unicode="ft" horiz-adv-x="1251" 
d="M161 -358c17.333 27.333 33.9951 70.1621 49.9951 128.495s28.167 111.666 36.5 159.999s18.666 114 30.999 197s20.5 136.833 24.5 161.5c1.33301 4 10.833 66.667 28.5 188s36.167 228.666 55.5 321.999h-172c-6.66699 0 -10 1.33301 -10 4
c0 6.66699 2.66699 18.334 8 35.001c5.33301 22 24.333 33.333 57 34l136 7c24.667 112 51.834 204.833 81.501 278.5s54.5 122.334 74.5 146.001s44.333 47.167 73 70.5c46.667 36.667 96.334 55.334 149.001 56.001c62.667 0 115.334 -11.667 158.001 -35s64 -54 64 -92
c0 -19.333 -6.83301 -36.166 -20.5 -50.499s-31.5 -21.5 -53.5 -21.5c-48 0 -78 32 -90 96c-5.33301 28.667 -30 43 -74 43c-35.333 0 -66 -24.667 -92 -74c-31.333 -57.333 -60.666 -157.666 -87.999 -300.999l-23 -116h439l26 102c2.66699 10.667 6.5 29.334 11.5 56.001
s9.5 46.167 13.5 58.5s11.5 24.333 22.5 36s25.167 17.5 42.5 17.5c54.667 0 82 -18.333 82 -55c0 -2.66699 -8.66699 -43.667 -26 -123l-21 -92h203c10.667 -8 13 -22 7 -42s-15.333 -32.667 -28 -38h-200l-121 -539c-15.333 -66.667 -23 -109.667 -23 -129s9 -29 27 -29
c34 0 88.667 42.333 164 127c24.667 0 39.667 -13 45 -39c-34 -61.333 -80 -111.666 -138 -150.999s-111 -59 -159 -59c-34 0 -59.333 6.66699 -76 20s-25 38 -25 74c0 27.333 9.66699 83.333 29 168l125 557h-434l-6 -35c-22.667 -126.667 -55 -292.667 -97 -498
c-40 -194 -73.167 -336.5 -99.5 -427.5s-53.833 -156.5 -82.5 -196.5c-61.333 -86 -140.333 -129 -237 -129c-64.667 0 -112.5 9.16699 -143.5 27.5s-46.5 40.5 -46.5 66.5c0 20 6.16699 37.333 18.5 52s31.5 22 57.5 22c20.667 0 40.334 -7 59.001 -21
s33.334 -29.333 44.001 -46c14 -22.667 30.667 -34 50 -34c15.333 0 31.833 5.83301 49.5 17.5s32.167 26.5 43.5 44.5z" />
    <glyph glyph-name="t_t" unicode="tt" horiz-adv-x="1241" 
d="M1135 879l204.002 -0.00585938c10.667 -8 13 -22 7 -42s-15 -32.667 -27 -38h-201l-127 -543c-16.667 -75.333 -24.667 -119.666 -24 -132.999c0 -19.333 8.66699 -29 26 -29c32.667 0 88.667 45 168 135c24.667 0 39.667 -13 45 -39
c-40.667 -69.333 -88.667 -121.666 -144 -156.999s-106.333 -53 -153 -53c-66.667 0 -100 31.333 -100 94c0 28.667 9 83.334 27 164.001l129 561h-447l-121 -520c-13.333 -54.667 -20 -95 -20 -121c0 -42 13 -63.333 39 -64c44 0 100 28 168 84
c15.333 -6.66699 26.666 -19.667 33.999 -39c-36.667 -48 -81.167 -86.5 -133.5 -115.5s-101.166 -43.5 -146.499 -43.5c-82 0 -123 42 -123 126c0 16.667 3.33301 42 10 76l140 617h-144c-8 0 -12 1.33301 -12 4c0 6.66699 2.66699 18.334 8 35.001
c5.33301 22 24.333 33.333 57 34l109 7l27 102c2.66699 10.667 6.66699 29.667 12 57s9.66602 46.833 12.999 58.5s10.5 23.334 21.5 35.001s25.5 17.5 43.5 17.5c54.667 0 82 -18.333 82 -55c0 -5.33301 -9 -46.333 -27 -123l-20 -92h448l27 102
c2.66699 10.667 6.66699 29.667 12 57s9.66602 46.833 12.999 58.5s10.5 23.334 21.5 35.001s25.5 17.5 43.5 17.5c54.667 0 82 -18.333 82 -55c0 -2.66699 -9 -43.667 -27 -123z" />
    <glyph glyph-name="Q_u" unicode="Qu" horiz-adv-x="2453" 
d="M1077 -250c168 -61.333 308.668 -92.0049 422.001 -92.0049c122.667 0 254.334 37.667 395.001 113l25 -37c-72.667 -61.333 -158 -110.166 -256 -146.499s-196.333 -54.5 -295 -54.5c-164 0 -312.667 32.667 -446 98c-184 88.667 -337 133 -459 133
c-32 0 -67.333 -13.333 -106 -40c-26 -26 -50 -52 -72 -78l-74 47c58.667 66.667 150 142.334 274 227.001c36 24.667 72.667 46.334 110 65.001c-126 16.667 -226.833 68.667 -302.5 156s-113.5 200.333 -113.5 339c0 49.333 5.33301 101 16 155
c39.333 202 128.666 371.333 267.999 508s295.666 205 468.999 205c151.333 0 275 -47.667 371 -143s144 -222 144 -380c0 -49.333 -5 -99.666 -15 -150.999c-36 -185.333 -112.167 -340 -228.5 -464s-255.5 -198 -417.5 -222c-80.667 -22 -166 -63 -256 -123
c-6 -4 -13 -9 -21 -15c20 2.66699 40 4.33398 60 5.00098c152.667 -0.666992 322 -35.667 508 -105zM2423 720.995l-115.001 -467.001c-15.333 -65.333 -22.666 -104.333 -21.999 -117c0 -23.333 6.66699 -35 20 -35c10.667 0 29 10 55 30s52 44.333 78 73
c23.333 0 39 -11.667 47 -35c-100 -126.667 -194.667 -190 -284 -190c-50.667 0 -76 22.333 -76 67c0 44 11.667 107 35 189l22 79l-6 4c-83.333 -121.333 -153.666 -208.166 -210.999 -260.499s-123 -78.5 -197 -78.5c-39.333 0 -72 13.5 -98 40.5s-39 67.833 -39 122.5
c0 40.667 7 86.667 21 138l90 344c18 65.333 26.667 104 26 116c0 23.333 -6.66699 35 -20 35c-10.667 0 -30.667 -9.83301 -60 -29.5s-56.333 -43.834 -81 -72.501c-23.333 0 -39 11.667 -47 35c100 126.667 203 190 309 190c49.333 0 74 -22.667 74 -68
c0 -10.667 -14.333 -73.334 -43 -188.001l-89 -334c-12 -48 -18 -91.667 -18 -131c0 -50.667 20.333 -76 61 -76c48 0 98.333 31.5 151 94.5s120.667 166.167 204 309.5l59 225c2.66699 10.667 6.83398 29.667 12.5 57c5.66699 27.333 10.167 46.833 13.5 58.5
s11.166 23.334 23.5 35.001c12.333 11.667 27.166 17.5 44.499 17.5c57.333 0 86 -18.333 86 -55c0 -6.66699 -1.66699 -17.667 -5 -33s-7.33301 -32.166 -12 -50.499s-7.66699 -31.5 -9 -39.5zM893 1277.99c-102.667 0 -203.833 -51.8311 -303.5 -155.498
s-168.5 -254.5 -206.5 -452.5c-12 -60 -18 -117 -18 -171c0 -138.667 35 -248.334 105 -329.001s157 -121 261 -121c116 0 221.5 53 316.5 159s160.167 248.333 195.5 427c14 73.333 21 141.666 21 204.999c0 142 -33.333 250.5 -100 325.5s-157 112.5 -271 112.5z" />
    <glyph glyph-name="T_h" unicode="Th" horiz-adv-x="1968" 
d="M469 1321l758.004 0.000976562c39.333 0 89 6.16699 149 18.5s105.667 23.833 137 34.5c16.667 0 25 -6.66699 25 -20c-15.333 -54.667 -32.333 -126.334 -51 -215.001l-110 -501c87.333 102 161.166 171 221.499 207s120.166 54 179.499 54c90 0 135 -54.667 135 -164
c0 -26 -9 -77.667 -27 -155l-78 -326c-15.333 -65.333 -22.666 -104.333 -21.999 -117c0 -23.333 6.66699 -35 20 -35c10.667 0 29.167 10 55.5 30s52.166 44.333 77.499 73c23.333 0 39.333 -11.667 48 -35c-100 -126.667 -195 -190 -285 -190c-56 0 -84 22.333 -84 67
c0 32.667 11.667 95.667 35 189l78 327c13.333 57.333 20 103 20 137c0 30 -5.83301 50.167 -17.5 60.5s-29.834 15.5 -54.501 15.5c-35.333 0 -83.333 -26.667 -144 -80s-124.667 -123 -192 -209l-78 -340c-2 -10 -4.83301 -25.333 -8.5 -46s-7 -36.5 -10 -47.5
s-7.5 -23.167 -13.5 -36.5s-14 -22.833 -24 -28.5s-22.667 -8.5 -38 -8.5c-56 0 -83.667 18.333 -83 55c0 2.66699 8.66699 40 26 112l209 951c9.33301 42 14 76 14 102c0 27.333 -14.333 41 -43 41h-295c-35.333 0 -60.833 -5.83301 -76.5 -17.5
s-26.834 -34.5 -33.501 -68.5l-195 -999c-5.33301 -31.333 -1.5 -53.833 11.5 -67.5s39.167 -22.834 78.5 -27.501l70 -6c2.66699 -5.33301 3 -15.5 1 -30.5s-4.33301 -24.5 -7 -28.5c-120 2.66699 -206.667 4 -260 4c-40.667 0 -122.667 -1.33301 -246 -4
c-4 9.33301 -5.33301 20.5 -4 33.5s4 21.5 8 25.5l64 6c40.667 4 70.167 13.333 88.5 28s31.166 37 38.499 67l194 1005c5.33301 31.333 3 52.5 -7 63.5s-35 16.5 -75 16.5h-141c-54 0 -96.667 -12.333 -128 -37s-61.666 -70.667 -90.999 -138c-26 0 -46.667 4.66699 -62 14
c46.667 112.667 79 202 97 268c4 -1.33301 24 -6.16602 60 -14.499s64.333 -12.5 85 -12.5z" />
    <glyph glyph-name="f_f" unicode="ff" horiz-adv-x="1163" 
d="M1012 1167l-2.00391 -0.000976562c-20.667 0 -37.334 5 -50.001 15c-14.667 10.667 -28.667 37.667 -42 81c-5.33301 18 -10.666 32.167 -15.999 42.5s-14.666 20 -27.999 29s-30.333 13.5 -51 13.5c-15.333 0 -32.166 -4.5 -50.499 -13.5s-39.666 -24.167 -63.999 -45.5
s-48.166 -56.166 -71.499 -104.499s-42.333 -106.5 -57 -174.5l-29 -131h371c24.667 115.333 54.667 211.333 90 288zM1065 798.999l-7.99609 -35.0029l-55 -248c-24.667 -113.333 -43.5 -197.333 -56.5 -252s-29.833 -120.834 -50.5 -198.501
s-39.834 -140.834 -57.501 -189.501s-35.5 -88.667 -53.5 -120c-70.667 -118.667 -153 -178 -247 -178c-109.333 0 -164 33.333 -164 100c0 10.667 5 23.334 15 38.001s28 22 54 22c22 0 44.667 -14.333 68 -43c20.667 -27.333 42.334 -41 65.001 -41
c27.333 0 53.333 12.333 78 37c46.667 46.667 93.334 222 140.001 526c8 58.667 30.333 176 67 352l47 230h-375l-6 -35c-94 -536.667 -184.667 -886.334 -272 -1049c-75.333 -135.333 -161.333 -202.666 -258 -201.999c-110.667 0 -166 34 -166 102
c0 5.33301 1.33301 11.833 4 19.5s9.83398 15.834 21.501 24.501s26.5 13 44.5 13c26 0 48.333 -13.667 67 -41c23.333 -28.667 46 -43 68 -43c26 0 52 13 78 39c50.667 50.667 101.667 251.334 153 602.001c6.66699 50.667 19 117 37 199l31 141l43 230h-141
c-6.66699 0 -10.334 1.33301 -11.001 4c0 6.66699 2.66699 18.334 8 35.001c6.66699 27.333 26 41 58 41h104c31.333 152 76 268.333 134 349c81.333 114 187.666 171 318.999 171c35.333 0 77.666 -12 126.999 -36s82 -53.667 98 -89c80.667 113.333 173 170 277 170
c56 0 105.167 -15 147.5 -45s63.5 -64.333 63.5 -103c0 -13.333 -5.83301 -27.5 -17.5 -42.5s-29.834 -22.5 -54.501 -22.5c-20.667 0 -37.834 5.83301 -51.501 17.5s-22.834 22.834 -27.501 33.501s-9 25.667 -13 45c-5.33301 23.333 -11.833 38.666 -19.5 45.999
s-22.5 11 -44.5 11s-48 -14.333 -78 -43s-57 -71.667 -81 -129c-22 -53.333 -42.667 -120.666 -62 -201.999l-31 -131h226c9.33301 0 14 -3.66699 14 -11l-10 -45c-4 -16.667 -22.667 -24.667 -56 -24h-190z" />
    <glyph glyph-name="f_i" unicode="fi" horiz-adv-x="1155" 
d="M163 -357c26 40.667 49.6641 113.33 70.9971 217.997s42.666 234.5 63.999 389.5s37.333 261.167 48 318.5l43 230h-162c-8 0 -12 1.33301 -12 4c0 6.66699 2.66699 18.334 8 35.001c5.33301 22 25.333 33.333 60 34l123 7c44 216 115 367.667 213 455
c73.333 65.333 164 98 272 98c74 0 143 -25.667 207 -77s96 -101.666 96 -150.999c0 -32.667 -10.167 -59.5 -30.5 -80.5s-42.833 -31.5 -67.5 -31.5c-26 0 -46.833 8.5 -62.5 25.5s-23.5 39.833 -23.5 68.5c0 42 -1.83301 70.167 -5.5 84.5s-14.167 33.166 -31.5 56.499
c-19.333 24.667 -53.666 37 -102.999 37c-83.333 0 -149.333 -43.667 -198 -131c-15.333 -26 -29.166 -55 -41.499 -87s-22.166 -62.667 -29.499 -92s-13.5 -55.333 -18.5 -78s-9.16699 -44.167 -12.5 -64.5s-5 -31.166 -5 -32.499h223c52 0 109.833 2.33301 173.5 7
s100.834 7 111.501 7c28 0 42 -14.333 42 -43c0 -10.667 -1.83301 -25 -5.5 -43s-9.66699 -44.167 -18 -78.5l-17.5 -72.5l-93 -402c-15.333 -65.333 -23 -101 -23 -107c0 -23.333 7 -34.666 21 -33.999c12 0 31 8.16699 57 24.5s51.333 38.833 76 67.5
c23.333 0 39 -11.667 47 -35c-100 -126.667 -195 -190 -285 -190c-56 0 -83.667 22.333 -83 67c0 19.333 11.333 82.333 34 189l97 421c10.667 45.333 16 79.666 16 102.999c0 16.667 -18.333 28 -55 34c-22 3.33301 -59.667 5 -113 5h-219l-6 -35
c-91.333 -516 -166.666 -854.667 -225.999 -1016c-16.667 -45.333 -34.334 -80.666 -53.001 -105.999c-61.333 -86 -140.333 -129 -237 -129c-64.667 0 -112.5 9.16699 -143.5 27.5s-46.5 40.5 -46.5 66.5c0 20 6.16699 37.333 18.5 52s31.5 22 57.5 22
c20.667 0 40.334 -7 59.001 -21s33.334 -29.333 44.001 -46c14 -22.667 30.667 -34 50 -34c15.333 0 32.166 6 50.499 18s33.166 27 44.499 45z" />
    <glyph glyph-name="f_l" unicode="fl" horiz-adv-x="1167" 
d="M1208 1194l-209.003 -934.005c-18 -79.333 -26.667 -122.333 -26 -129c0 -19.333 8 -29 24 -29c13.333 0 35.166 11.333 65.499 34s59.833 51 88.5 85c20.667 0 35.667 -11.667 45 -35c-83.333 -138 -182.333 -206.667 -297 -206c-58.667 0 -88 30 -88 90
c0 23.333 10.333 81.333 31 174l209 934c-1.33301 34 -22.666 76 -63.999 126c-32 38.667 -67.333 58 -106 58c-60 0 -117 -30.333 -171 -91c-58.667 -65.333 -99.334 -157.333 -122.001 -276l-23 -116h226c9.33301 0 14 -3.66699 14 -11l-10 -45
c-4 -16.667 -22 -24.667 -54 -24h-190l-6 -35c-22.667 -126.667 -55 -292.667 -97 -498c-40 -194.667 -73.167 -337.5 -99.5 -428.5s-53.833 -156.167 -82.5 -195.5c-61.333 -86 -140.333 -129 -237 -129c-64.667 0 -112.5 9.16699 -143.5 27.5s-46.5 40.5 -46.5 66.5
c0 20 6.16699 37.333 18.5 52s31.5 22 57.5 22c18 0 36 -6 54 -18s32 -25 42 -39c0.666992 -1.33301 2.33398 -4.16602 5.00098 -8.49902s4.5 -7.16602 5.5 -8.49902l5.5 -7c2.66699 -3.33301 4.66699 -5.66602 6 -6.99902s3.33301 -3 6 -5s5.33398 -3.5 8.00098 -4.5
s5.83398 -1.83301 9.50098 -2.5s7.5 -1 11.5 -1c15.333 0 31.833 5.83301 49.5 17.5s32.167 26.5 43.5 44.5c7.33301 11.333 14.5 25.333 21.5 42s13.333 33.334 19 50.001s11.667 37.5 18 62.5s11.5 46.667 15.5 65s8.66699 43 14 74l12.5 72c3 17 7 42.5 12 76.5
s8.33301 57.667 10 71s4.83398 37 9.50098 71s7.33398 55 8.00098 63c12 87.333 40 257.333 84 510h-168c-8 0 -12 1.33301 -12 4c0 6.66699 2.66699 18.334 8 35.001c5.33301 22 24.333 33.333 57 34l136 7c30.667 215.333 100.667 367.333 210 456
c77.333 62.667 171 94.334 281 95.001c35.333 0 74.166 -6.5 116.499 -19.5s72.166 -27.167 89.499 -42.5c47.333 26 91.333 46.667 132 62c16.667 0 25 -7 25 -21c-15.333 -54.667 -32.666 -126.334 -51.999 -215.001z" />
    <glyph glyph-name="f_f_i" unicode="ffi" horiz-adv-x="1677" 
d="M1031 1185c-14 10.667 -29.999 29.332 -47.999 55.999c-12.667 19.333 -23.667 34.333 -33 45s-23.333 20.834 -42 30.501s-39.334 14.5 -62.001 14.5c-16.667 0 -34.167 -3.66699 -52.5 -11s-40.5 -21 -66.5 -41s-51 -53.167 -75 -99.5s-43.333 -102.833 -58 -169.5
l-29 -131h242h12h111c25.333 124 59 226 101 306zM708.001 -275.002c26 40.667 47.9971 107.165 65.9971 199.498s35.667 207.333 53 345s31.666 237.5 42.999 299.5l43 230h-143h-18h-201l-6 -35c-22.667 -126.667 -55 -292.667 -97 -498
c-40 -194.667 -73.167 -337.5 -99.5 -428.5s-53.833 -156.167 -82.5 -195.5c-61.333 -86 -140.333 -129 -237 -129c-64.667 0 -112.5 9.16699 -143.5 27.5s-46.5 40.5 -46.5 66.5c0 20 6.16699 37.333 18.5 52s31.5 22 57.5 22c20.667 0 40.334 -7 59.001 -21
s33.334 -29.333 44.001 -46c14 -22.667 30.667 -34 50 -34c15.333 0 31.833 5.83301 49.5 17.5s32.167 26.5 43.5 44.5c7.33301 11.333 14.5 25.333 21.5 42s13.333 33.334 19 50.001s11.667 37.5 18 62.5s11.5 46.667 15.5 65s8.66699 43 14 74l12.5 72
c3 17 7 42.5 12 76.5s8.33301 57.667 10 71s4.83398 37 9.50098 71s7.33398 55 8.00098 63c12 87.333 40 257.333 84 510h-168c-8 0 -12 1.33301 -12 4c0 6.66699 2.66699 18.334 8 35.001c5.33301 22 24.333 33.333 57 34l136 7c5.33301 28.667 11.333 57.667 18 87
s22 72.333 46 129s51.667 105.5 83 146.5s74.666 77.5 129.999 109.5s117 48 185 48c32 0 75.833 -8.33301 131.5 -25s96.167 -37.334 121.5 -62.001l23 22c73.333 65.333 163.666 98 270.999 98c74 0 143 -25.667 207 -77s96 -101.666 96 -150.999
c0 -32.667 -10.167 -59.5 -30.5 -80.5s-42.833 -31.5 -67.5 -31.5c-26 0 -46.833 8.5 -62.5 25.5s-23.5 39.833 -23.5 68.5c0 42 -1.66699 70.167 -5 84.5s-14 33.166 -32 56.499c-19.333 24.667 -53.333 37 -102 37c-83.333 0 -149.666 -43.667 -198.999 -131
c-15.333 -26 -29 -55 -41 -87s-21.833 -62.667 -29.5 -92s-13.834 -55.333 -18.501 -78s-8.66699 -44.167 -12 -64.5s-5 -31.166 -5 -32.499h223c52 0 109.667 2.33301 173 7s100.333 7 111 7c28 0 42 -14.333 42 -43c0 -10.667 -1.66699 -25 -5 -43
s-9.33301 -44.167 -18 -78.5l-18 -72.5l-93 -402c-15.333 -65.333 -22.666 -101 -21.999 -107c0 -23.333 6.66699 -34.666 20 -33.999c12 0 31 8.16699 57 24.5s51.333 38.833 76 67.5c23.333 0 39 -11.667 47 -35c-100 -126.667 -194.667 -190 -284 -190
c-56 0 -84 22.333 -84 67c0 19.333 11.667 82.333 35 189l96 421c10.667 45.333 16 79.666 16 102.999c0 16.667 -18.333 28 -55 34c-22 3.33301 -59.667 5 -113 5h-219l-6 -35c-84.667 -482 -153 -793.333 -205 -934c-16.667 -45.333 -34.334 -80.666 -53.001 -105.999
c-61.333 -86 -140.666 -129.333 -237.999 -130c-64.667 0 -112.334 9.33301 -143.001 28s-46 41 -46 67c0 20 6.16699 37.167 18.5 51.5s31.5 21.5 57.5 21.5c20.667 0 40.334 -6.83301 59.001 -20.5s33.334 -28.834 44.001 -45.501c14 -22.667 30.333 -34 49 -34
c15.333 0 32.333 6 51 18s33.667 27 45 45z" />
    <glyph glyph-name="f_f_l" unicode="ffl" horiz-adv-x="1699" 
d="M1014 1167l-4 -0.000976562c-28.667 0 -48.834 7.5 -60.501 22.5s-21 36.833 -28 65.5s-17 51.334 -30 68.001s-35.167 25 -66.5 25c-15.333 0 -31.666 -4.16699 -48.999 -12.5s-38 -23.5 -62 -45.5s-47.667 -57.167 -71 -105.5s-43 -106.5 -59 -174.5l-31 -131h371
c24.667 115.333 54.667 211.333 90 288zM1364 1384c-24.667 0 -57.5049 -14.668 -98.5049 -44.001s-73.167 -72 -96.5 -128c-19.333 -44 -39.666 -111.333 -60.999 -202l-31 -131h221c8 0 12.333 -3.66699 13 -11l-8 -45c-2.66699 -16.667 -21.334 -24.667 -56.001 -24h-188
l-6 -33c-42 -228 -89.833 -434.833 -143.5 -620.5s-104.167 -318.834 -151.5 -399.501c-69.333 -118.667 -153.333 -178 -252 -178c-109.333 0 -164 33.333 -164 100c0 10.667 5.16699 23.334 15.5 38.001s28.5 22 54.5 22c22 0 44.333 -14.333 67 -43
c20.667 -27.333 42.667 -41 66 -41c27.333 0 53.333 12.333 78 37c20.667 20.667 41.834 60.834 63.501 120.501s44.834 142.834 69.501 249.501s43 190 55 250l53 268l45 230h-374l-9 -33l-64.5 -263l-63 -261.5c-15.667 -64.333 -34.167 -135 -55.5 -212
s-41.166 -141.833 -59.499 -194.5s-36.5 -96 -54.5 -130c-75.333 -135.333 -161.333 -203 -258 -203c-64 0 -108.667 10.333 -134 31s-38 44.667 -38 72c0 5.33301 1.83301 11.666 5.5 18.999s10.834 15.5 21.501 24.5s25 13.5 43 13.5c24.667 0 48 -13.667 70 -41
c20.667 -28.667 42.334 -43 65.001 -43c26 0 52 13 78 39c12 12 24.5 32 37.5 60s26.667 67 41 117l38 136.5c11 41 24.333 97.667 40 170l35 160.5c7.66699 34.667 19.334 91 35.001 169s24.834 124.333 27.501 139l47 230h-166c-6.66699 0 -10 1.33301 -10 4
c0 5.33301 2.66699 15.666 8 30.999c8 24.667 26.333 37.334 55 38.001l127 7c5.33301 31.333 11.166 60.333 17.499 87s21.166 69.334 44.499 128.001s49.666 107.667 78.999 147s71.166 75.5 125.499 108.5s115.833 49.5 184.5 49.5c36.667 0 79.667 -12 129 -36
s82 -53.667 98 -89c45.333 64 97 108.333 155 133s108.667 37 152 37c34.667 0 77.834 -8.66699 129.501 -26s86.167 -34 103.5 -50c47.333 26 91.333 46.667 132 62c16.667 0 25 -7 25 -21c-15.333 -54.667 -32.666 -126.334 -51.999 -215.001l-209 -934
c-18 -79.333 -26.667 -122.333 -26 -129c0 -19.333 8 -29 24 -29c13.333 0 35.166 11.333 65.499 34s59.833 51 88.5 85c20.667 0 35.667 -11.667 45 -35c-83.333 -138 -182.333 -206.667 -297 -206c-58.667 0 -88 30 -88 90c0 23.333 10.333 81.333 31 174l209 934
c-1.33301 34 -22.666 76 -63.999 126c-44 53.333 -89 80 -135 80z" />
    <glyph glyph-name="longs_t" unicode="&#x17f;t" horiz-adv-x="1241" 
d="M1006 981c65.333 252.667 19.3301 378.999 -138.003 378.999c-62.667 0 -118.167 -30.667 -166.5 -92s-84.833 -153.666 -109.5 -276.999l-119 -592c-30.667 -153.333 -54 -266.166 -70 -338.499s-38.333 -153.333 -67 -243s-58 -154.5 -88 -194.5
c-49.333 -66.667 -127.333 -100 -234 -100c-35.333 0 -69 9.5 -101 28.5s-48 40.833 -48 65.5c0 22 7.16699 40.167 21.5 54.5s29.5 21.5 45.5 21.5c38 0 69 -22 93 -66c10.667 -20.667 28.334 -30.667 53.001 -30c22 0 40 5.16699 54 15.5s27.667 30.166 41 59.499
c22 48.667 38.333 100 49 154s26.834 152.833 48.501 296.5s46.5 291.167 74.5 442.5l37 197c2.66699 15.333 1 25.833 -5 31.5s-18.333 9.16699 -37 10.5l-74 5c-10.667 28.667 -8 49 8 61c68 7.33301 110.667 17.666 128 30.999c13.333 10.667 22 25 26 43
c76.667 323.333 229.667 485.333 459 486c124 0 207.833 -37.333 251.5 -112s47.834 -190.334 12.501 -347.001l-21 -92h207c8 0 12.333 -3.66699 13 -11l-11 -43c-1.33301 -18 -19 -26.667 -53 -26h-174l-127 -539c-18 -75.333 -27 -121 -27 -137c0 -19.333 9 -29 27 -29
c32.667 0 88.667 45 168 135c24.667 0 39.667 -13 45 -39c-40.667 -69.333 -88.667 -121.666 -144 -156.999s-106.333 -53 -153 -53c-66.667 0 -100 31.333 -100 94c0 35.333 9.33301 91.333 28 168l132 557h-144c-8 0 -12 1.33301 -12 4c0 6.66699 2.66699 18.334 8 35.001
c5.33301 22 24.333 33.333 57 34l109 7z" />
    <glyph glyph-name=".notdef" horiz-adv-x="1024" 
d="M102 1239v-1044l349 522zM164 102h696l-348 523zM573 717l349 -522v1044zM512 809l348 522h-696zM0 0v1434h1024v-1434h-1024z" />
    <glyph glyph-name="space" unicode=" " horiz-adv-x="512" 
 />
    <glyph glyph-name="exclam" unicode="!" horiz-adv-x="464" 
d="M180 82c6.66699 30 22.332 55.502 46.999 76.502s52 31.5 82 31.5c26 0 47.833 -8.5 65.5 -25.5s26.5 -38.5 26.5 -64.5c0 -1.33301 -0.333008 -4 -1 -8s-1 -7.33301 -1 -10c-5.33301 -30 -20.666 -55.667 -45.999 -77s-53 -32 -83 -32c-26 0 -47.833 8.66699 -65.5 26
s-26.5 38.666 -26.5 63.999c0 1.33301 0.333008 4.16602 1 8.49902s1 7.83301 1 10.5zM515.998 1362c26 0 47.8359 -9.50098 65.5029 -28.501s26.5 -46.5 26.5 -82.5c0 -16.667 -1.33301 -29.667 -4 -39c-6.66699 -39.333 -15.834 -78.166 -27.501 -116.499
s-27 -83.666 -46 -135.999s-35.5 -100.5 -49.5 -144.5c-44 -148.667 -76 -272.334 -96 -371.001c-6.66699 -27.333 -19 -41 -37 -41c-16.667 0 -24.667 7.66699 -24 23v4c20.667 207.333 32.667 335.666 36 384.999c4 54.667 6.33301 101 7 139c0 10.667 -0.333008 26 -1 46
s-1 34.667 -1 44c0 60 4.66699 116 14 168c9.33301 50.667 27.666 88.334 54.999 113.001s54.666 37 81.999 37z" />
    <glyph glyph-name="quotedbl" unicode="&#x22;" horiz-adv-x="688" 
d="M596 874c1.33301 217.333 3.33301 332.332 6 344.999c2.66699 24.667 16.667 47.834 42 69.501s52.333 32.5 81 32.5c39.333 0 59 -17.667 59 -53v-15l-133 -370zM336 871.999c2.66699 217.333 4.66699 332.332 6 344.999c4 24.667 18.333 47.834 43 69.501
s52 32.5 82 32.5c39.333 0 59 -17.667 59 -53c0 -6.66699 -0.666992 -11.667 -2 -15l-133 -370z" />
    <glyph glyph-name="numbersign" unicode="#" horiz-adv-x="897" 
d="M770 698l-76 -225h185l-31 -98h-184l-119 -348h-68l117 348h-225l-117 -348h-68l115 348h-184l32 98h187l74 225h-185l33 101h186l115 348h70l-117 -348h225l117 348h68l-117 -348h184l-33 -101h-184zM629 473l73 225h-225l-76 -225h228z" />
    <glyph glyph-name="dollar" unicode="$" horiz-adv-x="897" 
d="M188.5 20c-9.66699 0 -20.667 -3.66895 -33 -11.002s-25.833 -11 -40.5 -11c9.33301 52 18 152.333 26 301l56 6c5.33301 -68 26.166 -126.5 62.499 -175.5s87.166 -77.167 152.499 -84.5l97 496c-28.667 14 -53 26.667 -73 38s-43.667 27.833 -71 49.5
s-48.666 44 -63.999 67s-27.166 51.333 -35.499 85s-8.83301 69.834 -1.5 108.501c10.667 55.333 37.334 104.333 80.001 147s88.667 74.334 138 95.001s99 33.667 149 39l22 114h70l-22 -113c26.667 -1.33301 67.5 -5 122.5 -11s92.5 -7.66699 112.5 -5
c-8 -52 -13.333 -149.667 -16 -293l-56 -8l-4 37c-6.66699 69.333 -23.334 121.5 -50.001 156.5s-67 55.167 -121 60.5l-86 -438c212.667 -86.667 305.334 -203.667 278.001 -351c-4 -20 -9.33301 -40.167 -16 -60.5s-20.167 -47.833 -40.5 -82.5s-44.333 -65 -72 -91
s-66.334 -49.667 -116.001 -71s-105.834 -34 -168.501 -38l-28 -142h-69l27 142c-41.333 2.66699 -84.166 10.667 -128.499 24s-71.333 20 -81 20zM482 45.998c52.667 8 102.333 29 149 63s76.667 84.333 90 151c3.33301 28 5.16602 52.333 5.49902 73s-4 40 -13 58
s-17.667 33 -26 45s-20 23.333 -35 34s-28.167 19 -39.5 25s-24.666 12.333 -39.999 19zM618.999 1107c-52.667 -8 -100 -30.668 -142 -68.001s-68.667 -84.666 -80 -141.999c-14 -76 33.333 -142 142 -198z" />
    <glyph glyph-name="percent" unicode="%" horiz-adv-x="1304" 
d="M899 158c0 -48 9.49902 -83 28.499 -105s40.167 -33 63.5 -33c53.333 0 97.833 33.833 133.5 101.5s53.5 134.5 53.5 200.5c0 32.667 -6.16699 58.834 -18.5 78.501s-24.666 32.167 -36.999 37.5s-24.833 8 -37.5 8c-48 0 -91 -32.333 -129 -97
s-57 -128.334 -57 -191.001zM794.999 186c0 80.667 26.501 155.167 79.501 223.5s116.5 102.5 190.5 102.5c49.333 0 90.666 -14.333 123.999 -43s50 -76.334 50 -143.001c0 -82 -23.833 -163.333 -71.5 -244s-110.5 -121 -188.5 -121c-58.667 0 -104 22.833 -136 68.5
s-48 97.834 -48 156.501zM893 1055c136.667 0 239 36.666 307 109.999l68 -43l-983 -1151l-76 19l876 1028c-62.667 -26 -133 -39 -211 -39c-61.333 0 -116.333 14.333 -165 43c4 -16.667 6 -33.667 6 -51c0 -79.333 -24 -159.666 -72 -240.999s-110.667 -122 -188 -122
c-60 0 -106.167 22.5 -138.5 67.5s-48.5 96.833 -48.5 155.5c0 80.667 27 155.167 81 223.5s117.333 102.5 190 102.5c61.333 0 106.333 -17 135 -51c73.333 -34 146.333 -51 219 -51zM373 802.999c0 -48 9.50098 -82.499 28.501 -103.499s40.833 -31.5 65.5 -31.5
c52 0 95.667 33.333 131 100s53 133.667 53 201c0 45.333 -9.5 77.166 -28.5 95.499s-40.167 27.5 -63.5 27.5c-46.667 0 -89.334 -32.5 -128.001 -97.5s-58 -128.833 -58 -191.5z" />
    <glyph glyph-name="ampersand" unicode="&#x26;" horiz-adv-x="1443" 
d="M889 1249c-44 0 -87.167 -21.499 -129.5 -64.499s-63.5 -93.833 -63.5 -152.5c0 -40.667 13.667 -103.334 41 -188.001c174.667 104 262 203.667 262 299c0.666992 70.667 -36 106 -110 106zM1135 1139c0 -68 -36.1729 -134.831 -108.506 -200.498
s-158.5 -124.5 -258.5 -176.5c2.66699 -4 7.83398 -15 15.501 -33l25.5 -57.5c9.33301 -20.333 27.333 -55.833 54 -106.5s59.334 -109.334 98.001 -176.001c184 216 276 349 276 399c0 15.333 -8.33301 23 -25 23h-59c-6.66699 0 -8.66699 4.66699 -6 14l6 35l4 4
c70.667 -2.66699 129.334 -4 176.001 -4l180 4l3 -4l-7 -33c-1.33301 -10.667 -8 -16 -20 -16h-57c-20.667 0 -40.167 -5.83301 -58.5 -17.5s-39.166 -31.834 -62.499 -60.501s-46.666 -59.667 -69.999 -93l-102.5 -142c-45 -61.333 -91.5 -121 -139.5 -179l54 -92
c48 -90 92.333 -135 133 -135c64 0 123.333 39 178 117l27 -16c-34 -69.333 -72.667 -121.833 -116 -157.5s-84 -53.5 -122 -53.5c-26 0 -48.167 2.33301 -66.5 7s-41.166 17.834 -68.499 39.501s-52 53.167 -74 94.5l-47 78c-132.667 -146 -272 -219 -418 -219
c-104 0 -186.333 21.5 -247 64.5s-91 110.167 -91 201.5c0 104 35.833 196.167 107.5 276.5s189.5 162.833 353.5 247.5c-36.667 91.333 -55 167 -55 227c0 92.667 36.167 169.167 108.5 229.5s157.5 90.5 255.5 90.5c65.333 0 119 -16.333 161 -49s63 -76.334 63 -131.001z
M636.994 696.003c-42 -20.667 -78.1689 -40.834 -108.502 -60.501s-64.833 -47.5 -103.5 -83.5s-68.667 -79.667 -90 -131s-32 -108.333 -32 -171c0 -68 18.833 -118.167 56.5 -150.5s86.5 -48.5 146.5 -48.5c66.667 0 124.334 16.833 173.001 50.5
s108.334 89.834 179.001 168.501c-132 230.667 -205.667 372.667 -221 426z" />
    <glyph glyph-name="quotesingle" unicode="'" horiz-adv-x="389" 
d="M315 872c2.66699 217.333 5.66699 332.332 9 344.999c2.66699 24.667 16.5 47.834 41.5 69.501s51.833 32.5 80.5 32.5c39.333 0 59.333 -17.667 60 -53v-15l-133 -370z" />
    <glyph glyph-name="parenleft" unicode="(" horiz-adv-x="626" 
d="M221 0c-30 100 -45 205.001 -45 315.001c0 61.333 5.66699 128.333 17 201c32.667 182.667 102.667 354 210 514c109.333 166.667 239.333 306 390 418l30 -37c-125.333 -116 -227 -250.333 -305 -403c-80.667 -154 -136 -318 -166 -492
c-18 -104 -26.667 -197.333 -26 -280c0 -75.333 6 -146.333 18 -213c24.667 -152.667 78.667 -288 162 -406l-43 -35c-119.333 123.333 -200 262.666 -242 417.999z" />
    <glyph glyph-name="parenright" unicode=")" horiz-adv-x="641" 
d="M639 1032c30 -100 45 -205 45 -315c0 -61.333 -5.33301 -128.333 -16 -201c-34 -186 -104.333 -358 -211 -516c-112 -168 -241.667 -306.667 -389 -416l-31 35c125.333 117.333 227 252.666 305 405.999c80.667 154 136 317.667 166 491c18 104 27 197.667 27 281
c0 72.667 -6.33301 143.667 -19 213c-24.667 152.667 -78.667 287.667 -162 405l43 35c117.333 -121.333 198 -260.666 242 -417.999z" />
    <glyph glyph-name="asterisk" unicode="*" horiz-adv-x="886" 
d="M610 1161c-22 5.33301 -50.6689 8 -86.002 8c-101.333 0 -151.666 21.333 -150.999 64v12c4 16.667 12.5 31.167 25.5 43.5s30.5 18.5 52.5 18.5c26 0 56.667 -15 92 -45s64.666 -50 87.999 -60v23c0 20.667 -3.16699 46.667 -9.5 78s-9.5 53 -9.5 65
c0 2.66699 0.333008 6.33398 1 11.001s1 8.66699 1 12c4 22 13.667 40.667 29 56s31.666 23 48.999 23c36.667 0 55.334 -18.333 56.001 -55v-16c-4 -19.333 -16.333 -52.5 -37 -99.5s-33.667 -80.167 -39 -99.5c27.333 10.667 63.5 31.167 108.5 61.5s80.5 45.5 106.5 45.5
c38 0 57 -18 57 -54v-8c-8 -50.667 -59 -76 -153 -76c-42 0 -79.667 -2.66699 -113 -8c10.667 -16.667 36.5 -41.334 77.5 -74.001s61.5 -62 61.5 -88c0 -6.66699 -0.666992 -12 -2 -16c-2.66699 -18 -11.167 -32.333 -25.5 -43s-29.166 -16 -44.499 -16
c-23.333 0 -41 10.833 -53 32.5s-22.167 52.667 -30.5 93s-16.5 69.5 -24.5 87.5c-13.333 -18 -32 -48.167 -56 -90.5s-44.833 -73.333 -62.5 -93s-38.167 -29.5 -61.5 -29.5c-15.333 0 -27.666 4.66699 -36.999 14s-14 21 -14 35v8c5.33301 26 18.166 47.833 38.499 65.5
s47.833 36.667 82.5 57s62.334 39.5 83.001 57.5z" />
    <glyph glyph-name="plus" unicode="+" horiz-adv-x="1079" 
d="M684 524h354l-18 -100h-354l-64 -354h-100l63 354h-354l16 100h357l61 357h100z" />
    <glyph glyph-name="comma" unicode="," horiz-adv-x="448" 
d="M127 92c0 30 12.001 54.666 36.001 73.999s52.333 29 85 29s59.167 -12 79.5 -36s30.5 -56 30.5 -96c0 -42 -7.5 -83.833 -22.5 -125.5s-45.667 -83.334 -92 -125.001s-106.5 -69.167 -180.5 -82.5c-16 13.333 -21.667 29 -17 47c52.667 12 101.5 37.333 146.5 76
s67.5 72.667 67.5 102c0 10.667 -3.33301 19.834 -10 27.501s-13.834 12.834 -21.501 15.501s-18.167 6 -31.5 10c-46.667 12 -70 40 -70 84z" />
    <glyph glyph-name="hyphen" unicode="-" horiz-adv-x="681" 
d="M643 457h-465.001c-13.333 0 -20 11.667 -20 35c0 16.667 8.16699 35.5 24.5 56.5s29.833 31.5 40.5 31.5h469c15.333 0 23 -8.33301 23 -25s-8.16699 -37.167 -24.5 -61.5s-32.166 -36.5 -47.499 -36.5z" />
    <glyph glyph-name="period" unicode="." horiz-adv-x="448" 
d="M256 195c27.333 0 49.833 -8.66699 67.5 -26s26.5 -39 26.5 -65c0 -31.333 -12.667 -60.333 -38 -87s-55 -40 -89 -40c-26 0 -48.167 9.33301 -66.5 28s-27.5 41 -27.5 67c0 30 12.333 58 37 84s54.667 39 90 39z" />
    <glyph glyph-name="slash" unicode="/" horiz-adv-x="595" 
d="M823 1397l-737 -1440h-86l739 1440h84z" />
    <glyph glyph-name="zero" unicode="0" horiz-adv-x="909" 
d="M705 1178c-24.667 0 -49.668 -8.33301 -75.001 -25s-53 -44.667 -83 -84s-59.667 -101 -89 -185s-55.666 -185.333 -78.999 -304c-10.667 -56 -18.834 -109.667 -24.501 -161s-8.16699 -107.333 -7.5 -168s12.334 -109.167 35.001 -145.5s55 -54.5 97 -54.5
c16.667 0 34.5 3.16699 53.5 9.5s44.167 24.833 75.5 55.5s58.666 71.334 81.999 122.001c38 83.333 76.333 223.666 115 420.999c50.667 258 44.334 419.333 -18.999 484c-18.667 23.333 -45.667 35 -81 35zM462.999 -20c-76.667 0 -137.333 28.667 -182 86
c-42 56 -69.333 132 -82 228s-8 198.667 14 308c36.667 194 104.5 350.333 203.5 469s199.833 178 302.5 178c96.667 0 167.667 -44.333 213 -133c64 -121.333 76.333 -286.333 37 -495c-22 -113.333 -54.167 -213.833 -96.5 -301.5s-87.666 -155 -135.999 -202
s-95.833 -81.667 -142.5 -104s-90.334 -33.5 -131.001 -33.5z" />
    <glyph glyph-name="one" unicode="1" horiz-adv-x="909" 
d="M651 250c-15.333 -82 -14.6641 -132.831 2.00293 -152.498s61 -31.167 133 -34.5c5.33301 -6.66699 6.33301 -17.834 3 -33.501s-8.33301 -26.834 -15 -33.501c-131.333 2.66699 -211 4 -239 4c-54.667 0 -146.334 -1.33301 -275.001 -4
c-5.33301 6.66699 -6 17.834 -2 33.501s9.33301 26.834 16 33.501c76.667 2.66699 129.667 14.667 159 36s51.666 71.666 66.999 150.999l131 668c16.667 79.333 11 118.666 -17 117.999c-35.333 0 -95.333 -17 -180 -51c-16.667 13.333 -23.334 31.666 -20.001 54.999
c202 90 344 158.333 426 205c8 0 11.333 -3.33301 10 -10c-8 -27.333 -27.667 -118.666 -59 -273.999z" />
    <glyph glyph-name="two" unicode="2" horiz-adv-x="909" 
d="M303 958c13.333 68 59.6699 133.498 139.003 196.498s170.333 94.5 273 94.5c90 0 163 -26.167 219 -78.5s73.667 -129.833 53 -232.5c-9.33301 -49.333 -28 -96.166 -56 -140.499s-56.333 -80.166 -85 -107.499s-70.334 -64 -125.001 -110l-238 -199
c-15.333 -12 -33.5 -28 -54.5 -48s-48.167 -51.167 -81.5 -93.5s-52.666 -77.833 -57.999 -106.5h350c35.333 0 65.666 14.333 90.999 43s53.666 80 84.999 154c24.667 5.33301 43 1.66602 55 -11.001c-23.333 -100 -60 -207.667 -110 -323
c-58.667 2.66699 -109.334 4 -152.001 4h-344l-166 -4c12 65.333 38.667 128 80 188s117.333 138.667 228 236l174 149c131.333 116 208.333 236.333 231 361c18 88.667 13.333 152.167 -14 190.5s-63.666 57.5 -108.999 57.5c-65.333 0 -116.5 -13 -153.5 -39
s-58.833 -54.667 -65.5 -86c0 -1.33301 2 -17.666 6 -48.999c2.66699 -18 2.66699 -32.333 0 -43c-4 -20.667 -18.333 -39.5 -43 -56.5s-46.334 -25.5 -65.001 -25.5c-20.667 0 -37.5 7.66699 -50.5 23s-17.5 34 -13.5 56z" />
    <glyph glyph-name="three" unicode="3" horiz-adv-x="909" 
d="M670 1178c-23.333 0 -48.3271 -3.49902 -74.9941 -10.499s-55.334 -23.167 -86.001 -48.5s-49.334 -57.666 -56.001 -96.999c-15.333 -70.667 -47.666 -106.334 -96.999 -107.001c-22 0 -37.333 7.66699 -46 23s-11 31 -7 47c9.33301 52 50.666 109 123.999 171
s172.666 93 297.999 93c91.333 0 157.666 -26.667 198.999 -80c32.667 -44 42.667 -97.667 30 -161c-10.667 -57.333 -35.5 -107.5 -74.5 -150.5s-100.833 -83.833 -185.5 -122.5l2 -4c70.667 -12 128.667 -44 174 -96s58.333 -127.667 39 -227
c-26 -130 -89.5 -233.833 -190.5 -311.5s-212.167 -116.5 -333.5 -116.5c-65.333 0 -126.666 13.167 -183.999 39.5s-82 58.833 -74 97.5c2.66699 16.667 14.667 32.667 36 48s42 23 62 23c31.333 0 56 -17.667 74 -53c1.33301 -2.66699 3.33301 -7.33398 6 -14.001
s4.66699 -11.5 6 -14.5s4.16602 -7.5 8.49902 -13.5s8.16602 -10.333 11.499 -13l14 -11.5c6 -5 12.5 -8.5 19.5 -10.5s15.667 -3.66699 26 -5s21.5 -2 33.5 -2c22 0 46 4.83301 72 14.5s55 25 87 46s61.667 54.833 89 101.5s47 102 59 166c34 176 -35 264 -207 264
c-39.333 0 -70.666 -1.33301 -93.999 -4l2 66c92.667 13.333 174.167 50.333 244.5 111s111.166 119.667 122.499 177c12 61.333 5.16699 107.5 -20.5 138.5s-61.834 46.5 -108.501 46.5z" />
    <glyph glyph-name="four" unicode="4" horiz-adv-x="909" 
d="M743 1038c-118.667 -131.333 -281.667 -327.667 -489 -589h375zM942 448.999c19.333 0 26.998 -10.9971 22.998 -32.9971c-2.66699 -12 -12 -25.667 -28 -41s-30 -23 -42 -23h-135l-37 -188c2.66699 -23.333 1.66699 -40.833 -3 -52.5s0.833008 -21.167 16.5 -28.5
s26.834 -11.333 33.501 -12s24 -2.66699 52 -6c8.66699 -1.33301 15.334 -2 20.001 -2c5.33301 -6.66699 6 -17.834 2 -33.501s-9.66699 -26.834 -17 -33.501c-84.667 2.66699 -155.667 4 -213 4c-70.667 0 -148.334 -1.33301 -233.001 -4
c-5.33301 6.66699 -6 17.834 -2 33.501s9.33301 26.834 16 33.501c72.667 5.33301 119.334 15.666 140.001 30.999c20 15.333 32.667 38.666 38 69.999l37 188h-401c-39.333 0 -59 28.667 -59 86c272 336 500.667 599 686 789c12 15.333 23.333 22.666 34 21.999h64l4 -4
c-4 -12 -18.333 -78 -43 -198l-117 -598h164z" />
    <glyph glyph-name="five" unicode="5" horiz-adv-x="909" 
d="M707 387c20.667 106.667 14.833 185.168 -17.5 235.501s-82.5 75.5 -150.5 75.5c-83.333 0 -170 -16.333 -260 -49l182 590c75.333 -6.66699 145.666 -10 210.999 -10c76.667 0 185 7.33301 325 22l13 -8l-58 -139c-82 -8 -151.667 -12 -209 -12
c-44 0 -119.667 6 -227 18l-104 -342c58.667 22 124.667 33 198 33c106.667 0 185 -36.833 235 -110.5s64.667 -162.5 44 -266.5c-24.667 -130 -84.5 -237 -179.5 -321s-203.167 -126 -324.5 -126c-61.333 0 -120.333 15.833 -177 47.5s-81 67.167 -73 106.5
c4 20.667 15.333 38.5 34 53.5s37.334 22.5 56.001 22.5c35.333 0 64.666 -22 87.999 -66l10.5 -20.5c5.66699 -11 9.83398 -18.5 12.501 -22.5s7 -10 13 -18s12.167 -13.833 18.5 -17.5s14.333 -6.83398 24 -9.50098s20.5 -4 32.5 -4c60 0 117.667 32.5 173 97.5
s92 145.167 110 240.5z" />
    <glyph glyph-name="six" unicode="6" horiz-adv-x="909" 
d="M397 629c-21.333 -55.333 -37 -108.666 -47 -159.999c-31.333 -160 -31.666 -270 -0.999023 -330s82.334 -90 155.001 -90c52 0 100.167 28 144.5 84s76.5 137.333 96.5 244c4 38 6.16699 79.167 6.5 123.5s-15.334 84.666 -47.001 120.999s-76.834 54.5 -135.501 54.5
c-62.667 0 -120 -15.667 -172 -47zM429 704c67.333 29.333 132.668 44.002 196.001 44.002c125.333 0 210.166 -31.167 254.499 -93.5s57.166 -142.5 38.499 -240.5c-9.33301 -46.667 -26.166 -94.5 -50.499 -143.5s-54.5 -95.833 -90.5 -140.5s-81 -81.334 -135 -110.001
s-111.667 -43 -173 -43c-34 0 -65.667 4.16699 -95 12.5s-60.166 23.166 -92.499 44.499s-57 50.333 -74 87s-29.5 84.334 -37.5 143.001s-2.66699 129 16 211c16.667 83.333 49.167 168.666 97.5 255.999s109.5 167.333 183.5 240c134 132.667 295.667 226 485 280
c12 -9.33301 16.333 -27 13 -53c-129.333 -46.667 -238.333 -114.167 -327 -202.5s-158.334 -185.5 -209.001 -291.5z" />
    <glyph glyph-name="seven" unicode="7" horiz-adv-x="909" 
d="M586 1096c-26 0 -47.8311 -3.16895 -65.498 -9.50195s-39.5 -23.166 -65.5 -50.499s-50.667 -66.666 -74 -117.999c-20.667 -1.33301 -41.334 0.666992 -62.001 6c57.333 165.333 91.666 274.333 102.999 327c1.33301 4 4 6 8 6
c5.33301 -1.33301 15.833 -6.33301 31.5 -15s36.5 -13 62.5 -13h404c53.333 0 105 7.33301 155 22l27 -24c-198 -336 -425.333 -751.667 -682 -1247l-135 -7l-12 15l657 1108h-352z" />
    <glyph glyph-name="eight" unicode="8" horiz-adv-x="909" 
d="M698 1178c-57.333 0 -104.665 -16.5 -141.998 -49.5s-61 -73.833 -71 -122.5c-16.667 -82 15.666 -153.667 96.999 -215l53 -39c121.333 80.667 189.666 161.667 204.999 243c9.33301 52 3 95.5 -19 130.5s-63 52.5 -123 52.5zM977.001 993
c-10.667 -58.667 -46.166 -112.833 -106.499 -162.5s-123.833 -90.167 -190.5 -121.5l121 -88c90 -64 122.667 -160.333 98 -289c-18 -88.667 -67.833 -169.5 -149.5 -242.5s-182.834 -109.5 -303.501 -109.5c-106.667 0 -186.167 27.5 -238.5 82.5
s-68.166 133.833 -47.499 236.5c19.333 94 73.333 176 162 246c49.333 38 109.333 75.333 180 112l-45 33c-101.333 75.333 -141 167.666 -119 276.999c15.333 80.667 58.666 147.834 129.999 201.501s156.333 80.5 255 80.5c94 0 163.667 -23.833 209 -71.5
s60.333 -109.167 45 -184.5zM465.002 51.001c60 0 117.667 17.5 173 52.5s92 97.5 110 187.5c20.667 109.333 -19 200 -119 272l-82 58c-146 -88.667 -231.333 -196 -256 -322c-16.667 -83.333 -5.5 -145.5 33.5 -186.5s85.833 -61.5 140.5 -61.5z" />
    <glyph glyph-name="nine" unicode="9" horiz-adv-x="909" 
d="M787 598c21.333 55.333 37 108.667 47 160c31.333 160 31.5 270 0.5 330s-82.5 90 -154.5 90c-52 0 -100.5 -28 -145.5 -84s-77.833 -137.333 -98.5 -244c-8 -26 -10.667 -56 -8 -90s8.5 -66.5 17.5 -97.5s28.167 -57.333 57.5 -79s66.333 -32.5 111 -32.5
c63.333 0 121 15.667 173 47zM755 524.001c-67.333 -30 -132.668 -44.998 -196.001 -44.998c-125.333 0 -210.166 31.167 -254.499 93.5s-57.166 142.5 -38.499 240.5c9.33301 46.667 26 94.5 50 143.5s54.167 95.667 90.5 140s81.5 80.833 135.5 109.5s111.667 43 173 43
c34 0 65.667 -4 95 -12s60 -22.667 92 -44s56.167 -50.333 72.5 -87s28.666 -84.5 36.999 -143.5s2.83301 -129.167 -16.5 -210.5c-35.333 -184 -128 -349.333 -278 -496c-134 -132.667 -296 -226.334 -486 -281.001c-12 9.33301 -16 27.333 -12 54
c130 47.333 239.167 115.166 327.5 203.499s157.833 185.5 208.5 291.5z" />
    <glyph glyph-name="colon" unicode=":" horiz-adv-x="448" 
d="M385 834c27.333 0 49.833 -8.66699 67.5 -26s26.5 -39 26.5 -65c0 -31.333 -12.667 -60.333 -38 -87s-55 -40 -89 -40c-27.333 0 -49.833 9.33301 -67.5 28s-26.5 41 -26.5 67c0 30 12.333 58 37 84s54.667 39 90 39zM291 297c27.333 0 49.833 -8.5 67.5 -25.5
s26.5 -38.5 26.5 -64.5c0 -31.333 -12.667 -60.333 -38 -87s-55 -40 -89 -40c-27.333 0 -49.833 9.16699 -67.5 27.5s-26.5 40.5 -26.5 66.5c0 30 12.333 58 37 84s54.667 39 90 39z" />
    <glyph glyph-name="semicolon" unicode=";" horiz-adv-x="448" 
d="M145 92c0 30 11.999 54.666 35.999 73.999s52.333 29 85 29s59.334 -12 80.001 -36s31 -56 31 -96c0 -42 -7.5 -83.833 -22.5 -125.5s-45.667 -83.334 -92 -125.001s-106.5 -69.167 -180.5 -82.5c-16 13.333 -21.667 29 -17 47c52.667 12 101.5 37.333 146.5 76
s67.5 72.667 67.5 102c0 10.667 -3.5 19.834 -10.5 27.501s-14.167 12.834 -21.5 15.501s-18 6 -32 10c-46.667 12 -70 40 -70 84zM382.999 833.999c27.333 0 49.833 -8.66699 67.5 -26s26.5 -39 26.5 -65c0 -31.333 -12.667 -60.333 -38 -87s-55 -40 -89 -40
c-26 0 -48.167 9.33301 -66.5 28s-27.5 41 -27.5 67c0 30 12.333 58 37 84s54.667 39 90 39z" />
    <glyph glyph-name="less" unicode="&#x3c;" horiz-adv-x="997" 
d="M336 489l606 -237l-16 -102l-748 290l17 99l849 288l-18 -102z" />
    <glyph glyph-name="equal" unicode="=" horiz-adv-x="1079" 
d="M1016 395l-19 -100h-811l19 100h811zM1061 651l-19 -100h-811l19 100h811z" />
    <glyph glyph-name="greater" unicode="&#x3e;" horiz-adv-x="997" 
d="M834 483l-607 238l19 102l747 -291l-16 -98l-850 -289l16 103z" />
    <glyph glyph-name="question" unicode="?" horiz-adv-x="829" 
d="M299 1065c0 61.333 35.4961 124.165 106.496 188.498s166.5 96.5 286.5 96.5c92.667 0 166.334 -22.167 221.001 -66.5s82 -104.166 82 -179.499c0 -54.667 -11.167 -104.834 -33.5 -150.501s-51.333 -84.167 -87 -115.5s-71.5 -59.333 -107.5 -84l-105.5 -73
c-34.333 -24 -57.5 -45.667 -69.5 -65c-32.667 -45.333 -54.667 -95 -66 -149l-14 -90c-1.33301 -13.333 -11.666 -20.333 -30.999 -21c-8 0 -14 1.83301 -18 5.5s-5.33301 8.83398 -4 15.501l16 94c13.333 70.667 34.833 131.667 64.5 183s60.834 91 93.501 119l96 82
c31.333 26.667 57 58.5 77 95.5s30 81.833 30 134.5c0 56 -16.5 103.833 -49.5 143.5s-74.5 59.5 -124.5 59.5c-65.333 0 -117.166 -14 -155.499 -42s-57.5 -59 -57.5 -93c0 -12 3.33301 -23.667 10 -35c4 -8 6 -17.333 6 -28c0 -23.333 -8.5 -44.666 -25.5 -63.999
s-40.5 -29 -70.5 -29c-46.667 0 -70 22.667 -70 68zM464.996 194.999c27.333 0 49.833 -8.66699 67.5 -26s26.5 -39 26.5 -65c0 -31.333 -12.667 -60.333 -38 -87s-55 -40 -89 -40c-26 0 -48.167 9.33301 -66.5 28s-27.5 41 -27.5 67c0 30 12.333 58 37 84s54.667 39 90 39z
" />
    <glyph glyph-name="at" unicode="@" horiz-adv-x="1697" 
d="M1221 647c8 38 2.16797 69.001 -17.499 93.001s-46.834 36 -81.501 36c-64 0 -126.667 -27.333 -188 -82c-106.667 -91.333 -175.667 -212 -207 -362c-26 -125.333 10.333 -188.333 109 -189c32.667 0 75.5 25.667 128.5 77s101.5 114.666 145.5 189.999
c57.333 88.667 94.333 167.667 111 237zM1141 152.001c-2.66699 -16.667 1.99707 -24.998 13.9971 -24.998c105.333 0 191.333 32.5 258 97.5s117.334 177.833 152.001 338.5c20.667 105.333 21.667 197.166 3 275.499s-51.834 143.5 -99.501 195.5s-101.167 91 -160.5 117
s-120.666 39 -183.999 39c-161.333 0 -315.666 -59.833 -462.999 -179.5s-245.333 -291.834 -294 -516.501c-13.333 -65.333 -21.166 -130.833 -23.499 -196.5s5 -132.334 22 -200.001s43.333 -127.167 79 -178.5s87.5 -93.333 155.5 -126s149.333 -49 244 -49
c150 0 287 45 411 135l19 -37c-79.333 -54.667 -154.833 -96 -226.5 -124s-156.5 -42 -254.5 -42c-222.667 0 -388 74.5 -496 223.5s-138 334.833 -90 557.5c46.667 220 162.834 407.333 348.501 562s386.167 232 601.5 232c203.333 0 358 -64.167 464 -192.5
s138.333 -288.5 97 -480.5c-13.333 -62.667 -35.666 -123.167 -66.999 -181.5s-73 -113.666 -125 -165.999s-118.333 -94.666 -199 -126.999s-170 -48.5 -268 -48.5c-24.667 0 -40.5 9 -47.5 27s-7.5 37 -1.5 57c5.33301 24.667 23.666 67.667 54.999 129l-4 2
c-54.667 -70.667 -108.667 -123.5 -162 -158.5s-98.333 -52.5 -135 -52.5c-58.667 0 -103.667 16.167 -135 48.5s-47.333 67.166 -48 104.499s0.333008 71 3 101c30 140.667 103.667 263.667 221 369s229.333 158 336 158c31.333 0 59.333 -8.16699 84 -24.5
s39 -37.5 43 -63.5l20 49l107 26l24 -10l-225 -528c-32.667 -82 -50.334 -127.667 -53.001 -137z" />
    <glyph glyph-name="A" unicode="A" horiz-adv-x="1366" 
d="M629 580h342l-84 546h-4l-297 -520c-3.33301 -4.66699 -5 -8.66699 -5 -12c0 -9.33301 16 -14 48 -14zM330 162c-10 -16.667 -15 -32.6689 -15 -48.002c0 -32.667 24.667 -51 74 -55l55 -4c9.33301 0 13.666 -5.33301 12.999 -16l-4 -39l-7 -4
c-95.333 2.66699 -180.666 4 -255.999 4c-23.333 0 -84 -1.33301 -182 -4l-2 4l6 39c1.33301 10.667 7.66602 16 18.999 16c48 2.66699 87.667 14.334 119 35.001s64.666 60.334 99.999 119.001l645 1065c28.667 49.333 55.334 74 80.001 74
c13.333 0 22.5 -4.83301 27.5 -14.5s9.5 -25.5 13.5 -47.5l188 -1110c5.33301 -39.333 17.333 -68 36 -86s47.667 -29 87 -33l21 -2c12 0 17.333 -5.33301 16 -16l-4 -39l-4 -4c-95.333 2.66699 -172.666 4 -231.999 4c-75.333 0 -162 -1.33301 -260 -4l-2 4l4 39
c1.33301 10.667 7 16 17 16l57 4c66.667 5.33301 100 28.333 100 69c0 6 -0.666992 12.333 -2 19l-51 347h-409c-38 0 -63.333 -11.667 -76 -35z" />
    <glyph glyph-name="B" unicode="B" horiz-adv-x="1140" 
d="M594 1167l-82.002 -416.999h145c188.667 0 298.667 78.333 330 235c5.33301 26 8 50 8 72c0 69.333 -21.167 119.666 -63.5 150.999s-92.166 47 -149.499 47s-98.5 -3 -123.5 -9s-40.667 -14.167 -47 -24.5s-12.166 -28.5 -17.499 -54.5zM499.998 680.001l-103 -520
c-2 -12 -3 -21.667 -3 -29c0 -24 10.667 -40.833 32 -50.5s60.333 -14.5 117 -14.5c138 0 236.667 23.833 296 71.5s97.666 114.5 114.999 200.5c4.66699 25.333 7.33398 50.333 8.00098 75c0 80 -27 144.5 -81 193.5s-136 73.5 -246 73.5h-135zM40.998 39.001
c2.66699 10.667 7.99902 15.9971 15.999 15.9971l60 4c44 2.66699 73 9.16699 87 19.5s24.667 32.5 32 66.5l200 1031c3.33301 14.667 5 26.667 5 36c0 18 -6.33301 30.167 -19 36.5s-36.667 10.833 -72 13.5l-57 4c-8 0 -12 4.66699 -12 14l8 41l6 4
c122.667 -2.66699 205.334 -4 248.001 -4c27.333 0 68.666 0.666992 123.999 2s93.666 2 114.999 2c245.333 0 368.333 -80 369 -240c0 -22.667 -2.66699 -47.667 -8 -75c-9.33301 -53.333 -36.666 -104.666 -81.999 -153.999s-96.666 -87.666 -153.999 -114.999v-4
c158 -50 237 -145 237 -285c0 -24 -2.33301 -49 -7 -75c-20.667 -105.333 -76.334 -195.166 -167.001 -269.499s-225 -111.5 -403 -111.5c-66.667 0 -125.667 0.666992 -177 2s-85.666 2 -102.999 2c-44 0 -127.333 -1.33301 -250 -4l-4 4z" />
    <glyph glyph-name="C" unicode="C" horiz-adv-x="1261" 
d="M692 -20c-86.667 0 -163.333 13.666 -230 40.999s-120 65.166 -160 113.499s-70 102.833 -90 163.5s-30 126 -30 196c0 50 5 100.333 15 151c38 198 133.167 364.667 285.5 500s311.833 203 478.5 203c69.333 0 130.333 -7.16699 183 -21.5s97 -29.5 133 -45.5
s67.667 -24.667 95 -26c-9.33301 -90 -15.333 -195.667 -18 -317l-60 -8c-22 228 -145.333 342 -370 342c-42 0 -89 -11.667 -141 -35s-105.333 -57.166 -160 -101.499s-105 -106.166 -151 -185.499s-78.333 -168 -97 -266c-11.333 -58 -17 -115.667 -17 -173
c0 -83.333 11.5 -157.5 34.5 -222.5s61.333 -118.833 115 -161.5s120.167 -64 199.5 -64c91.333 0 176.166 17.5 254.499 52.5s159.833 92.167 244.5 171.5c19.333 0 32.333 -10.333 39 -31c-169.333 -184 -353.666 -276 -552.999 -276z" />
    <glyph glyph-name="D" unicode="D" horiz-adv-x="1366" 
d="M39 37c2.66699 12 8.66797 18 18.001 18l60 4c69.333 4 109.666 35 120.999 93l198 1019c2.66699 15.333 4.33398 27.666 5.00098 36.999c0 20 -6.5 33.333 -19.5 40s-36.833 11.334 -71.5 14.001l-53 4c-12 0 -16.667 5.33301 -14 16l6 39l6 4
c122.667 -2.66699 205.334 -4 248.001 -4c23.333 0 71.5 0.666992 144.5 2s131.833 2 176.5 2c163.333 0 297 -52.833 401 -158.5s156 -238.167 156 -397.5c0 -46 -4.66699 -92 -14 -138c-23.333 -120 -63.333 -223.5 -120 -310.5s-122.5 -153 -197.5 -198
s-149.333 -77.333 -223 -97s-148.834 -29.5 -225.501 -29.5c-78 0 -152.833 0.666992 -224.5 2s-114.834 2 -129.501 2c-44 0 -127.333 -1.33301 -250 -4l-4 4zM395.001 150c-2 -10.667 -3 -19.665 -3 -26.998c0 -22.667 13.5 -37.834 40.5 -45.501
s80.833 -11.5 161.5 -11.5c348 0 555.667 172 623 516c12 62.667 18 124 18 184c0 67.333 -8.16699 129.166 -24.5 185.499s-41.666 107.833 -75.999 154.5s-82 83.167 -143 109.5s-132.833 39.5 -215.5 39.5c-56 0 -98.333 -5 -127 -15s-46.334 -31.333 -53.001 -64z" />
    <glyph glyph-name="E" unicode="E" horiz-adv-x="1077" 
d="M1133 1323c0 -86 -5.66602 -185.006 -16.999 -297.006l-57 -10c-9.33301 80.667 -25.333 138 -48 172s-68.334 51 -137.001 51h-204c-48 0 -76.667 -23.333 -86 -70l-82 -430h250c58.667 0 96.667 28.667 114 86l15 52c2.66699 10.667 8.66699 16 18 16h43l6 -8
c-22.667 -82 -37 -143.667 -43 -185c-12 -58.667 -20.667 -118 -26 -178l-11 -6h-43c-10.667 0 -14 5.33301 -10 16l4 52c0.666992 6.66699 1 12.334 1 17.001c0 22.667 -6.5 38.5 -19.5 47.5s-34.833 13.5 -65.5 13.5h-250l-100 -515c-1.33301 -8.66699 -2 -15.667 -2 -21
c0 -30.667 20.333 -46 61 -46h267c130 0 235.667 89.333 317 268l59 -10l-139 -342c-104 2.66699 -187.333 4 -250 4h-422c-44 0 -127 -1.33301 -249 -4l-4 4l8 41c2.66699 9.33301 8.66699 14 18 14l60 4c38 2.66699 65.5 10.834 82.5 24.501s28.833 34.834 35.5 63.501
l199 1022c2 10.667 3 20.334 3 29.001c0 20.667 -6.66699 35.834 -20 45.501s-35.666 15.834 -66.999 18.501l-57 4c-10.667 0 -15 4.66699 -13 14l9 41l4 4c122.667 -2.66699 205 -4 247 -4h498c31.333 0 62.666 2.66699 93.999 8c6 0 9 -2 9 -6z" />
    <glyph glyph-name="F" unicode="F" horiz-adv-x="935" 
d="M735 662l-249.999 -0.000976562l-98 -510c-2 -10 -3 -19.333 -3 -28c0 -21.333 7.16699 -36.833 21.5 -46.5s38.166 -15.834 71.499 -18.501l49 -4c12 0 17 -5.33301 15 -16l-9 -39l-4 -4c-122.667 2.66699 -206.667 4 -252 4c-42 0 -124.333 -1.33301 -247 -4l-4 4l8 39
c2.66699 10.667 8.66699 16 18 16l53 4c40.667 2.66699 70 11.167 88 25.5s29.667 36.833 35 67.5l199 1017c2 10.667 3 20.667 3 30c0 20 -6.66699 34.833 -20 44.5s-35.666 15.834 -66.999 18.501l-57 4c-10.667 0 -15 4.66699 -13 14l9 41l4 4
c122.667 -2.66699 205 -4 247 -4h500c30 0 61.333 2.66699 94 8c4 0 6.33301 -2 7 -6c0 -49.333 -5.66699 -148.333 -17 -297l-57 -10c-9.33301 80.667 -25.333 138 -48 172s-68.334 51 -137.001 51h-204c-48 0 -76.667 -23.333 -86 -70l-82 -430h250
c58.667 0 96.667 28.667 114 86l15 52c2.66699 10.667 8.66699 16 18 16h43l6 -8c-22.667 -82 -37 -143.667 -43 -185c-12 -58.667 -20.667 -118 -26 -178l-11 -6h-43c-10.667 0 -14 5.33301 -10 16l4 52c0.666992 6.66699 1 12.334 1 17.001c0 22.667 -6.5 38.5 -19.5 47.5
s-34.833 13.5 -65.5 13.5z" />
    <glyph glyph-name="G" unicode="G" horiz-adv-x="1359" 
d="M997 1348c90 0 173.668 -15.499 251.001 -46.499s131 -46.5 161 -46.5c-12 -126.667 -18 -231.667 -18 -315l-62 -12c-9.33301 104 -41.333 187.333 -96 250s-147 94 -277 94c-135.333 0 -259.5 -56.333 -372.5 -169s-186.833 -257 -221.5 -433
c-7.33301 -40 -11 -80.667 -11 -122c0 -62.667 8.66699 -122.667 26 -180s42.833 -109.833 76.5 -157.5s78.834 -85.834 135.501 -114.501s121 -43 193 -43c125.333 0 228 33 308 99l61 313c2 10 3 18.667 3 26c0 20.667 -7.33301 35.167 -22 43.5s-39 13.833 -73 16.5
l-49 4c-10.667 0 -15 5.33301 -13 16l11 54l4 4c122.667 -2.66699 205.167 -4 247.5 -4s103.166 1.33301 182.499 4l4 -4l-10 -54c-1.33301 -8 -8.33301 -13.333 -21 -16c-32.667 -4 -56.834 -11.833 -72.501 -23.5s-26.167 -33.834 -31.5 -66.501l-47 -238
c-4 -20.667 2.66699 -39.667 20 -57c-168 -126.667 -355 -190 -561 -190c-168.667 0 -302.834 48.667 -402.501 146s-149.5 221.333 -149.5 372c0 42.667 4.33301 86.334 13 131.001c42 216 143.333 389.833 304 521.5s330.334 197.5 509.001 197.5z" />
    <glyph glyph-name="H" unicode="H" horiz-adv-x="1378" 
d="M1235 1165c5.33301 31.333 1.50684 53.833 -11.4932 67.5s-39.167 22.834 -78.5 27.501l-70 6c-2.66699 5.33301 -3 15.5 -1 30.5s4.33301 24.5 7 28.5c120 -2.66699 206.667 -4 260 -4c40.667 0 122.667 1.33301 246 4c4 -9.33301 5.33301 -20.5 4 -33.5
s-4 -21.5 -8 -25.5l-63 -6c-40.667 -4 -70.334 -13.333 -89.001 -28s-31.334 -37 -38.001 -67l-199 -1009c-6.66699 -31.333 -3.16699 -53.833 10.5 -67.5s40.167 -22.834 79.5 -27.501l70 -6c2.66699 -5.33301 3 -15.5 1 -30.5s-4.33301 -24.5 -7 -28.5
c-120 2.66699 -207 4 -261 4c-40.667 0 -122.334 -1.33301 -245.001 -4c-4 9.33301 -5.33301 20.5 -4 33.5s4 21.5 8 25.5l63 6c40.667 4 70.667 13.333 90 28s31.666 37 36.999 67l99 501h-641l-99 -501c-6.66699 -31.333 -3.16699 -53.833 10.5 -67.5
s40.167 -22.834 79.5 -27.501l70 -6c2.66699 -5.33301 3 -15.5 1 -30.5s-4.33301 -24.5 -7 -28.5c-120 2.66699 -206.667 4 -260 4c-40.667 0 -122.667 -1.33301 -246 -4c-4 9.33301 -5.33301 20.5 -4 33.5s4 21.5 8 25.5l64 6c40.667 4 70.5 13.333 89.5 28
s31.5 37 37.5 67l198 1009c5.33301 31.333 1.66602 53.833 -11.001 67.5s-39 22.834 -79 27.501l-70 6c-2.66699 5.33301 -2.83398 15.5 -0.500977 30.5s4.83301 24.5 7.5 28.5c120 -2.66699 206.667 -4 260 -4c40.667 0 122.334 1.33301 245.001 4
c4 -9.33301 5.5 -20.5 4.5 -33.5s-3.83301 -21.5 -8.5 -25.5l-63 -6c-40.667 -4 -70.334 -13.333 -89.001 -28s-31.334 -37 -38.001 -67l-83 -422h641z" />
    <glyph glyph-name="I" unicode="I" horiz-adv-x="573" 
d="M436 1165c5.33301 31.333 1.66895 53.833 -10.998 67.5s-39 22.834 -79 27.501l-70 6c-2.66699 5.33301 -2.83398 15.5 -0.500977 30.5s4.83301 24.5 7.5 28.5c120 -2.66699 206.667 -4 260 -4c40.667 0 122.334 1.33301 245.001 4c4 -9.33301 5.5 -20.5 4.5 -33.5
s-3.83301 -21.5 -8.5 -25.5l-63 -6c-40.667 -4 -70.334 -13.333 -89.001 -28s-31.334 -37 -38.001 -67l-199 -1009c-6.66699 -31.333 -3.16699 -53.833 10.5 -67.5s40.167 -22.834 79.5 -27.501l70 -6c2.66699 -5.33301 3 -15.5 1 -30.5s-4.33301 -24.5 -7 -28.5
c-120 2.66699 -206.667 4 -260 4c-40.667 0 -122.667 -1.33301 -246 -4c-4 9.33301 -5.33301 20.5 -4 33.5s4 21.5 8 25.5l64 6c40.667 4 70.5 13.333 89.5 28s31.5 37 37.5 67z" />
    <glyph glyph-name="J" unicode="J" horiz-adv-x="847" 
d="M891 1188c-8 -49.333 -19.501 -130.665 -34.501 -243.998s-22.5 -182.333 -22.5 -207c0 -20.667 6.33301 -34.334 19 -41.001s37.667 -11.334 75 -14.001l-6 -51l-109 -10l-59 -359c-75.333 -448 -240 -672 -494 -672c-50.667 0 -96.167 11.333 -136.5 34
s-60.5 51.667 -60.5 87c0 19.333 6.83301 37.833 20.5 55.5s32.834 26.5 57.501 26.5c42 0 74.333 -15.667 97 -47c5.33301 -8 10 -17.5 14 -28.5s7 -20.333 9 -28s5 -14.167 9 -19.5s10.333 -8 19 -8c134 0 231.667 185 293 555l67 401l-252 19v41l265 14l4 25
c18 105.333 35.333 187.666 52 246.999s41.667 125 75 197l-2 8c-8 -4 -19 -6 -33 -6c-34 0 -70.333 8.33301 -109 25c-18 6.66699 -44.667 18.5 -80 35.5s-65.333 29.667 -90 38s-50 12.5 -76 12.5c-22 0 -40 -6.16699 -54 -18.5s-21 -25.166 -21 -38.499
c0 -4 10.833 -17 32.5 -39s32.5 -42.667 32.5 -62c0 -42 -22.333 -63 -67 -63c-50.667 0 -76 30 -76 90c0 50.667 22.833 99.167 68.5 145.5s113.5 69.5 203.5 69.5c56 0 157 -34.333 303 -103c5.33301 31.333 18.333 61 39 89s46 42 76 42c50.667 0 76 -19 76 -57
s-41.667 -85 -125 -141z" />
    <glyph glyph-name="K" unicode="K" horiz-adv-x="1304" 
d="M436 1165c5.33301 31.333 1.66992 53.835 -10.9971 67.502s-39 22.834 -79 27.501l-70 6c-2.66699 5.33301 -2.83398 15.5 -0.500977 30.5s4.83301 24.5 7.5 28.5c120 -2.66699 206.667 -4 260 -4c40.667 0 122.334 1.33301 245.001 4c4 -9.33301 5.5 -20.5 4.5 -33.5
s-3.83301 -21.5 -8.5 -25.5l-63 -6c-40.667 -4 -70.334 -13.333 -89.001 -28s-31.334 -37 -38.001 -67l-90 -454c61.333 3.33301 119.333 30 174 80l401 360c40 37.333 60 64.666 60 81.999c0 16 -15.667 25.667 -47 29l-39 4c-10.667 0 -15 5.33301 -13 16l7 39l6 4
c122.667 -2.66699 198.334 -4 227.001 -4c5.33301 0 69.666 1.33301 192.999 4l6 -4l-9 -39c-2.66699 -10.667 -10.667 -16 -24 -16c-34 -4 -62 -8.83301 -84 -14.5s-50 -17.334 -84 -35.001s-68 -42.167 -102 -73.5l-336 -309c-57.333 -53.333 -88 -87 -92 -101
c-2.66699 -18 2 -35 14 -51l328 -532c30 -53.333 75 -84.333 135 -93l12 -2c10.667 -2.66699 15.334 -8 14.001 -16l-6 -39l-8 -4c-122.667 2.66699 -190.334 4 -203.001 4c-38 0 -84.333 -1.33301 -139 -4l-2 4l2 12c5.33301 23.333 8 43 8 59c0 28 -6.66699 54.333 -20 79
l-242 405c-28.667 52 -79.334 78 -152.001 78l5 25l-99 -502c-6.66699 -31.333 -3.16699 -53.833 10.5 -67.5s40.167 -22.834 79.5 -27.501l70 -6c2.66699 -5.33301 3 -15.5 1 -30.5s-4.33301 -24.5 -7 -28.5c-120 2.66699 -206.667 4 -260 4
c-40.667 0 -122.667 -1.33301 -246 -4c-4 9.33301 -5.33301 20.5 -4 33.5s4 21.5 8 25.5l64 6c40.667 4 70.5 13.333 89.5 28s31.5 37 37.5 67z" />
    <glyph glyph-name="L" unicode="L" horiz-adv-x="1062" 
d="M240 156l196.002 1009c5.33301 31.333 1.66602 53.833 -11.001 67.5s-39 22.834 -79 27.501l-70 6c-2.66699 5.33301 -2.83398 15.5 -0.500977 30.5s4.83301 24.5 7.5 28.5c120 -2.66699 206.667 -4 260 -4c40.667 0 122.334 1.33301 245.001 4
c4 -9.33301 5.5 -20.5 4.5 -33.5s-3.83301 -21.5 -8.5 -25.5l-63 -6c-40.667 -4 -70.667 -13.333 -90 -28s-31.666 -37 -36.999 -67l-193 -983c-2 -10 -2.66699 -19 -2 -27c0 -23.333 6.66699 -41.666 20 -54.999s32 -20 56 -20h225c118.667 0 219 89.333 301 268
c23.333 5.33301 42.666 0.666016 57.999 -14.001c-56 -139.333 -95.667 -252 -119 -338c-120 2.66699 -197.667 4 -233 4h-416c-40.667 0 -122.667 -1.33301 -246 -4c-4 9.33301 -5.33301 20.5 -4 33.5s4 21.5 8 25.5l64 6c40.667 4 70.667 13.333 90 28
s31.666 37 36.999 67z" />
    <glyph glyph-name="M" unicode="M" horiz-adv-x="1646" 
d="M1341 178l122.998 916h-4l-653 -1084c-9.33301 -15.333 -19.666 -22.666 -30.999 -21.999c-13.333 0 -22 7.33301 -26 22l-199 1063h-4l-258 -897c-5.33301 -20 -8.33301 -37.667 -9 -53c0 -39.333 18 -60.666 54 -63.999l49 -4c10.667 0 16 -5.33301 16 -16l-2 -39
l-6 -4c-76.667 2.66699 -136.667 4 -180 4c-36.667 0 -94.667 -1.33301 -174 -4l-4 4l4 39c1.33301 10.667 8 16 20 16l54 4c49.333 2.66699 83.333 41.667 102 117l289 1000c4.66699 17.333 7 30.666 7 39.999c0 14.667 -5.16699 25.5 -15.5 32.5s-27.5 11.5 -51.5 13.5
l-55 4c-6.66699 0 -11 1.33301 -13 4s-3 6 -3 10l4 41l4 4l295 -2l200 -1042c1.33301 -18 5 -27 11 -27c4 0 11.333 9.66699 22 29l621 1042h258l4 -4l-4 -41c-1.33301 -8 -9.66602 -12.667 -24.999 -14l-53 -4c-54.667 -4 -85.334 -32.667 -92.001 -86l-125 -998
c-2 -18.667 -3.33301 -33.667 -4 -45c0 -46 20.333 -70.667 61 -74l54 -4c6.66699 0 11.334 -1.33301 14.001 -4s4 -6.66699 4 -12l-4 -39l-4 -4c-122.667 2.66699 -196.334 4 -221.001 4c-15.333 0 -85.666 -1.33301 -210.999 -4l-4 4l4 39
c1.33301 9.33301 8 14.666 20 15.999l53 4c24.667 1.33301 44.5 14 59.5 38s24.5 51 28.5 81z" />
    <glyph glyph-name="N" unicode="N" horiz-adv-x="1363" 
d="M1407 1141l-213.003 -1098c-9.33301 -42 -27 -63 -53 -63c-31.333 0 -54.666 16.333 -69.999 49l-510 903c-27.333 45.333 -45.666 67.666 -54.999 66.999c-12 0 -25 -33.333 -39 -100l-139 -719c-2 -10.667 -3.33301 -21 -4 -31c0 -54.667 29.333 -84.667 88 -90l51 -4
c9.33301 -1.33301 13.333 -6.66602 12 -15.999l-4 -39l-4 -4c-122.667 2.66699 -193.667 4 -213 4c-27.333 0 -102.333 -1.33301 -225 -4l-4 4l4 37c1.33301 10.667 10.666 16.667 27.999 18l52 4c70.667 5.33301 114.334 45.666 131.001 120.999l184 946
c-1.33301 30 -12.333 60.167 -33 90.5s-46 46.833 -76 49.5c-20.667 2.66699 -30 8 -28 16l4 39l6 4h270l498 -909c42 -75.333 68 -113 78 -113c8 0 16 20.667 24 62l152 776c2 11.333 3 21.666 3 30.999c0 55.333 -29 85.333 -87 90l-49 4
c-18 1.33301 -26.333 6.66602 -25 15.999l6 39l4 4c122.667 -2.66699 198 -4 226 -4c19.333 0 90.333 1.33301 213 4l4 -4l-4 -39c-1.33301 -9.33301 -7.66602 -14.666 -18.999 -15.999l-55 -4c-70.667 -5.33301 -113.667 -45.666 -129 -120.999z" />
    <glyph glyph-name="O" unicode="O" horiz-adv-x="1368" 
d="M893 1278c-102.667 0 -203.833 -51.8311 -303.5 -155.498s-168.5 -254.5 -206.5 -452.5c-12 -60 -18 -117 -18 -171c0 -138.667 35 -248.334 105 -329.001s157 -121 261 -121c116 0 221.5 53 316.5 159s160.167 248.333 195.5 427c14 73.333 21 141.666 21 204.999
c0 142 -33.333 250.5 -100 325.5s-157 112.5 -271 112.5zM1432 674.002c-39.333 -206 -128.165 -373.168 -266.498 -501.501s-300.833 -192.5 -487.5 -192.5c-148.667 0 -269 44.833 -361 134.5s-138 211.5 -138 365.5c0 49.333 5.33301 101 16 155
c39.333 202 128.666 371.333 267.999 508s295.666 205 468.999 205c151.333 0 275 -47.667 371 -143s144 -222 144 -380c0 -49.333 -5 -99.666 -15 -150.999z" />
    <glyph glyph-name="P" unicode="P" horiz-adv-x="1021" 
d="M596 1176l-100.001 -518.999c23.333 -6.66699 69 -10 137 -10c196.667 0 315.334 103.667 356.001 311c7.33301 39.333 11.333 74.666 12 105.999c0 137.333 -75.667 206 -227 206c-65.333 0 -110 -7.5 -134 -22.5s-38.667 -38.833 -44 -71.5zM235.999 145.001
l200.001 1031c1.33301 6.66699 2 13 2 19c0 22 -7.33301 38.333 -22 49s-31 16.667 -49 18l-76 4c-8 0 -11.333 4 -10 12l8 43l6 4c95.333 -2.66699 178.666 -4 249.999 -4c28.667 0 75 3 139 9s103.667 9 119 9c72 0 133.833 -8.5 185.5 -25.5s90.334 -40 116.001 -69
s44 -58.333 55 -88s16.5 -61.5 16.5 -95.5c0 -22 -2.33301 -44 -7 -66c-9.33301 -48 -26 -94.833 -50 -140.5s-56.333 -90 -97 -133s-95.167 -77.667 -163.5 -104s-144.833 -39.5 -229.5 -39.5c-57.333 0 -106 6.66699 -146 20l-88 -453c-2 -10 -3 -18.333 -3 -25
c0 -20.667 7.33301 -35.5 22 -44.5s38.334 -14.5 71.001 -16.5l72 -4c10.667 0 14.667 -5.33301 12 -16l-8 -39l-4 -4c-122.667 2.66699 -212 4 -268 4c-72.667 0 -156.667 -1.33301 -252 -4l-4 4l8 39c2.66699 10.667 8.66699 16 18 16l52 4
c39.333 2.66699 68.666 10.5 87.999 23.5s31.666 33.833 36.999 62.5z" />
    <glyph glyph-name="Q" unicode="Q" horiz-adv-x="1368" 
d="M893 1278c-102.667 0 -203.833 -51.8311 -303.5 -155.498s-168.5 -254.5 -206.5 -452.5c-12 -60 -18 -117 -18 -171c0 -138.667 35 -248.334 105 -329.001s157 -121 261 -121c116 0 221.5 53 316.5 159s160.167 248.333 195.5 427c14 73.333 21 141.666 21 204.999
c0 142 -33.333 250.5 -100 325.5s-157 112.5 -271 112.5zM260.001 -262.998c101.333 101.333 215.668 183.664 343.001 246.997c-128.667 15.333 -231.5 66.833 -308.5 154.5s-115.5 201.5 -115.5 341.5c0 49.333 5.33301 101 16 155
c39.333 202 128.666 371.333 267.999 508s295.666 205 468.999 205c151.333 0 275 -47.667 371 -143s144 -222 144 -380c0 -49.333 -5 -99.666 -15 -150.999c-34.667 -179.333 -107.334 -330.166 -218.001 -452.499s-243.667 -198.5 -399 -228.5
c-93.333 -23.333 -192 -69.666 -296 -138.999c14.667 2 27.334 3 38.001 3c61.333 0 122.833 -14 184.5 -42l177.5 -84c56.667 -28 108 -42 154 -42c75.333 0 137.666 25 186.999 75l28 -24c-95.333 -112 -200.333 -168 -315 -168c-57.333 0 -112 10.167 -164 30.5
s-94 42.5 -126 66.5s-69.167 46.333 -111.5 67s-83.166 31 -122.499 31c-21.333 0 -46 -8.33301 -74 -25c-32.667 -30 -64 -62 -94 -96l-68 41c12.667 17.333 28.334 34 47.001 50z" />
    <glyph glyph-name="R" unicode="R" horiz-adv-x="1136" 
d="M780 1270c-65.333 0 -110.999 -7.50098 -136.999 -22.501s-41.667 -38.833 -47 -71.5l-100 -510h98c108 0 195.667 22.5 263 67.5s112.666 126.833 135.999 245.5c6 32.667 9.33301 62.334 10 89.001c-0.666992 134.667 -75 202 -223 202zM793.001 1339
c75.333 0 138.833 -6.50098 190.5 -19.501s94.5 -40.5 128.5 -82.5c42 -51.333 63.333 -111 64 -179c0 -23.333 -3 -49 -9 -77c-19.333 -94 -63 -170.667 -131 -230s-134 -99.333 -198 -120l163 -430c20.667 -53.333 42.334 -93 65.001 -119s53.667 -39 93 -39l-6 -49
c-20.667 -9.33301 -49.334 -14 -86.001 -14c-101.333 0 -176.333 60.667 -225 182l-140 356c-12 27.333 -32.667 47.166 -62 59.499s-81.666 18.5 -156.999 18.5l-88 -449c-2 -10 -3 -18.667 -3 -26c0 -20 7.16699 -34.667 21.5 -44s38.166 -15.333 71.499 -18l52 -4
c10.667 0 14.667 -5.33301 12 -16l-6 -39l-6 -4c-122.667 2.66699 -206 4 -250 4s-127.333 -1.33301 -250 -4l-4 4l8 39c2.66699 10.667 8.66699 16 18 16l52 4c40.667 2.66699 70.167 10.834 88.5 24.501s30.5 34.834 36.5 63.501l200 1029c1.33301 6.66699 2 13 2 19
c0 22 -7.33301 38.333 -22 49s-31 16.667 -49 18l-76 4c-8 0 -11.333 4 -10 12l8 43l6 4c122.667 -2.66699 205.334 -4 248.001 -4c28.667 0 74.167 3 136.5 9s100.166 9 113.499 9z" />
    <glyph glyph-name="S" unicode="S" horiz-adv-x="929" 
d="M1010 1282c-1.33301 -22 -4.49902 -61.998 -9.49902 -119.998s-7.5 -106 -7.5 -144l-63 4c-4 39.333 -9.16699 72 -15.5 98s-17 52.333 -32 79s-37.5 46.5 -67.5 59.5s-67.667 19.5 -113 19.5c-64 0 -120.167 -19.167 -168.5 -57.5s-78.833 -88.833 -91.5 -151.5
c-2.66699 -13.333 -4 -27.333 -4 -42c0 -104.667 72.333 -190.334 217 -257.001c39.333 -18 73.666 -36.167 102.999 -54.5s58.333 -41 87 -68s50.5 -58.5 65.5 -94.5s22.5 -76 22.5 -120c0 -23.333 -2.33301 -49 -7 -77c-20.667 -104 -78.5 -192.667 -173.5 -266
s-199.167 -110 -312.5 -110c-58.667 0 -120.334 5 -185.001 15s-115 15 -151 15c12 78 21 187.333 27 328l62 6c1.33301 -194 94 -291 278 -291c158.667 0 253 77.333 283 232c5.33301 28 8 53.333 8 76c0 56.667 -15 103.334 -45 140.001s-71.667 68.334 -125 95.001
c-42.667 21.333 -79.167 41.666 -109.5 60.999s-61.5 43.166 -93.5 71.499s-56.5 60.833 -73.5 97.5s-25.5 76.667 -25.5 120c0 22 2.33301 44.667 7 68c20.667 102.667 75.334 184 164.001 244s180 90 274 90c70.667 0 129 -10.333 175 -31s79.333 -32.334 100 -35.001z
" />
    <glyph glyph-name="T" unicode="T" horiz-adv-x="1114" 
d="M469 1321l684.001 -0.000976562c22 0 41.5 1.33301 58.5 4s35.667 6.33398 56 11.001l53.5 12c-5.33301 -86 2 -181.667 22 -287c-16.667 -6.66699 -37 -10 -61 -10c-18 72.667 -38.5 122.5 -61.5 149.5s-59.833 40.5 -110.5 40.5h-111
c-35.333 0 -60.833 -5.83301 -76.5 -17.5s-26.834 -34.5 -33.501 -68.5l-195 -999c-5.33301 -31.333 -1.5 -53.833 11.5 -67.5s39.167 -22.834 78.5 -27.501l70 -6c2.66699 -5.33301 3 -15.5 1 -30.5s-4.33301 -24.5 -7 -28.5c-120 2.66699 -206.667 4 -260 4
c-40.667 0 -122.667 -1.33301 -246 -4c-4 9.33301 -5.33301 20.5 -4 33.5s4 21.5 8 25.5l64 6c40.667 4 70.167 13.333 88.5 28s31.166 37 38.499 67l194 1005c5.33301 31.333 3 52.5 -7 63.5s-35 16.5 -75 16.5h-141c-54 0 -96.667 -12.333 -128 -37
s-61.666 -70.667 -90.999 -138c-26 0 -46.667 4.66699 -62 14c46.667 112.667 79 202 97 268c4 -1.33301 24 -6.16602 60 -14.499s64.333 -12.5 85 -12.5z" />
    <glyph glyph-name="U" unicode="U" horiz-adv-x="1298" 
d="M627 -20c-34 0 -66.8369 2.8291 -98.5039 8.49609s-64.667 16.834 -99 33.501s-64.166 37.834 -89.499 63.501s-46 60.334 -62 104.001s-24 93.834 -24 150.501c0 43.333 4.66699 91 14 143l135 688c2 10 3 19 3 27c0 20.667 -7.16699 35.834 -21.5 45.501
s-38.166 15.834 -71.499 18.501l-51 4c-10.667 0 -14.667 5.33301 -12 16l6 39l6 4c122.667 -2.66699 205.334 -4 248.001 -4c45.333 0 129.333 1.33301 252 4l4 -4l-8 -39c-2.66699 -10.667 -9 -16 -19 -16l-51 -4c-40.667 -2.66699 -70.334 -11.334 -89.001 -26.001
s-31.334 -36.334 -38.001 -65.001l-121 -620c-16.667 -92.667 -25 -159.334 -25 -200.001c0 -74.667 18.667 -136.334 56 -185.001c54.667 -68 125.667 -102.333 213 -103c64 0 121.333 10.667 172 32s91.334 47.333 122.001 78s58 70.334 82 119.001s41.333 93 52 133
s21.667 87.333 33 142l117 600c2 10.667 3 20.334 3 29.001c0 21.333 -7.16699 37 -21.5 47s-37.5 16.333 -69.5 19l-54 4c-10.667 0 -14.667 5.33301 -12 16l8 39l4 4c122.667 -2.66699 194.334 -4 215.001 -4c22 0 94.333 1.33301 217 4l4 -4l-8 -39
c-2.66699 -10.667 -8.66699 -16 -18 -16l-51 -4c-40.667 -2.66699 -70.667 -11.667 -90 -27s-31.666 -38 -36.999 -68l-111 -563c-38 -202 -102.667 -356.5 -194 -463.5s-231.333 -160.5 -420 -160.5z" />
    <glyph glyph-name="V" unicode="V" horiz-adv-x="1222" 
d="M1264 1133c44 78 115.001 122.331 213.001 132.998c6.66699 5.33301 10 14.833 10 28.5s-3.33301 23.834 -10 30.501c-101.333 -2.66699 -165.666 -4 -192.999 -4c-40.667 0 -115.667 1.33301 -225 4c-6.66699 -6.66699 -10 -16.834 -10 -30.501
s3.33301 -23.167 10 -28.5c56 -4 94.167 -15 114.5 -33s20.5 -46 0.5 -84l-478 -889c-5.33301 -5.33301 -10 -5.33301 -14 0l-131 911c-4 31.333 8.66699 54.333 38 69s65.666 23.334 108.999 26.001c6.66699 5.33301 10.167 14.833 10.5 28.5s-3.16699 23.834 -10.5 30.501
c-90 -2.66699 -172.333 -4 -247 -4c-35.333 0 -108 1.33301 -218 4c-5.33301 -6.66699 -8 -16.834 -8 -30.501s2.66699 -23.167 8 -28.5c30 -4 49.833 -7.16699 59.5 -9.5s23 -7.5 40 -15.5s29 -20.167 36 -36.5s12.5 -38.166 16.5 -65.499l166 -1116
c4 -31.333 16.333 -47.333 37 -48c19.333 0 37.666 16 54.999 48z" />
    <glyph glyph-name="W" unicode="W" horiz-adv-x="1861" 
d="M444 1118c-5.33301 52 -19.502 87.165 -42.502 105.498s-61.833 32.5 -116.5 42.5c-6.66699 5.33301 -10.167 14.833 -10.5 28.5s3.16699 23.834 10.5 30.501c98 -2.66699 171.667 -4 221 -4c74 0 156 1.33301 246 4c6.66699 -6.66699 10 -16.834 10 -30.501
s-3.33301 -23.167 -10 -28.5c-44 -2.66699 -80 -11.167 -108 -25.5s-40.667 -37.5 -38 -69.5l70 -725l14 -135l78 131l403 753h89c10 -87.333 17.333 -154 22 -200l66 -571l14 -125l76 141l383 709c20.667 36.667 18.334 64.334 -6.99902 83.001s-66.666 30 -123.999 34
c-6.66699 5.33301 -10.167 14.833 -10.5 28.5s3.16699 23.834 10.5 30.501c109.333 -2.66699 186.333 -4 231 -4c44 0 111 1.33301 201 4c5.33301 -6.66699 8 -16.834 8 -30.501s-2.66699 -23.167 -8 -28.5c-87.333 -9.33301 -153 -53.666 -197 -132.999l-616 -1110
c-9.33301 -18 -16.833 -29.667 -22.5 -35s-12.5 -8 -20.5 -8c-19.333 0 -31 15 -35 45l-86 727c-2.66699 25.333 -6.16699 51.166 -10.5 77.499s-7.5 46.5 -9.5 60.5c-0.666992 3.33301 -4 5 -10 5l-31 -57.5l-44 -79.5l-401 -733
c-10.667 -19.333 -18.5 -31.666 -23.5 -36.999s-11.5 -8 -19.5 -8c-10.667 0 -17.5 3 -20.5 9s-5.83301 18 -8.5 36z" />
    <glyph glyph-name="X" unicode="X" horiz-adv-x="1286" 
d="M274 1280l8.99805 39.0049l6 6c104 -2.66699 171.667 -4 203 -4c36.667 0 116.334 1.33301 239.001 4c0 -4 0.666992 -6 2 -6l-6 -39c-1.33301 -9.33301 -5.33301 -14 -12 -14l-66 -4c-16.667 -1.33301 -28.667 -4.5 -36 -9.5s-11 -12.167 -11 -21.5
c0 -11.333 7 -31.333 21 -60l163 -360c8 -15.333 14.333 -23 19 -23c6 0 16.333 8.33301 31 25l323 358c28.667 32 43 55 43 69c0 12.667 -12.333 20 -37 22l-57 4c-9.33301 0 -13.333 4.66699 -12 14l8 41l4 4c106.667 -2.66699 171.667 -4 195 -4c22 0 86 1.33301 192 4
l4 -4l-8 -41c0 -9.33301 -7 -14 -21 -14c-36.667 -1.33301 -70.334 -8.83301 -101.001 -22.5s-54.5 -28.334 -71.5 -44.001s-39.833 -38.834 -68.5 -69.501l-328 -362c-22 -24.667 -35 -45 -39 -61c-0.666992 -4 -1 -7.66699 -1 -11c0 -14 6.66699 -33 20 -57l219 -430
c48 -96.667 107.333 -148 178 -154c8 0 12 -4.66699 12 -14l-8 -41l-4 -4c-106.667 2.66699 -175.667 4 -207 4c-40.667 0 -122.667 -1.33301 -246 -4l-6 4l8 41c2.66699 9.33301 7.66699 14 15 14l41 4c24.667 2.66699 41.834 6.16699 51.501 10.5s14.5 10.833 14.5 19.5
c0 9.33301 -7.66699 29.666 -23 60.999l-185 385c-8 15.333 -16 22.666 -24 21.999c-4 0 -15.667 -9.66699 -35 -29l-332 -370c-25.333 -30.667 -38 -53 -38 -67c0 -17.333 16 -28 48 -32l37 -4c6.66699 -1.33301 10.334 -6 11.001 -14l-9 -41l-6 -4
c-122.667 2.66699 -196.334 4 -221.001 4c-31.333 0 -86.666 -1.33301 -165.999 -4v4l8 41c1.33301 9.33301 9.66602 14 24.999 14c80.667 4 166 56.667 256 158l344 383c18 19.333 27.667 35 29 47c0.666992 4 1 8 1 12c0 14 -6 30.667 -18 50l-200 419
c-39.333 83.333 -88.666 130.666 -147.999 141.999c-19.333 5.33301 -29 10 -29 14z" />
    <glyph glyph-name="Y" unicode="Y" horiz-adv-x="1130" 
d="M688 156c-6.66699 -31.333 -3.16504 -53.8301 10.502 -67.4971s40.167 -22.834 79.5 -27.501l70 -6c2.66699 -5.33301 3 -15.5 1 -30.5s-4.33301 -24.5 -7 -28.5c-120 2.66699 -206.667 4 -260 4c-40.667 0 -122.667 -1.33301 -246 -4c-4 9.33301 -5.33301 20.5 -4 33.5
s4 21.5 8 25.5l63 6c75.333 6.66699 117.666 38.334 126.999 95.001l72 374c4.66699 22.667 7 40 7 52c0 12.667 -2.33301 24.667 -7 36l-188 502c-22 56 -39.833 92.5 -53.5 109.5s-37.5 27.833 -71.5 32.5l-31 4c-2.66699 5.33301 -4.66699 15.166 -6 29.499
s-0.666016 24.166 2.00098 29.499c76.667 -2.66699 147.667 -4 213 -4c39.333 0 112.333 1.33301 219 4c2.66699 -4 3.33398 -13.5 2.00098 -28.5s-3.33301 -25.167 -6 -30.5l-68 -6c-32.667 -2.66699 -51 -9.83398 -55 -21.501s0 -31.167 12 -58.5l174 -494h9l323 494
c20.667 30 30.334 50 29.001 60s-14.333 16.667 -39 20l-66 6c-2.66699 4 -3.33398 13.833 -2.00098 29.5s3.66602 25.5 6.99902 29.5c104 -2.66699 166 -4 186 -4c30 0 84.667 1.33301 164 4c2.66699 -4 3 -13.5 1 -28.5s-5 -25.167 -9 -30.5l-54 -4
c-32.667 -2.66699 -57.834 -11.667 -75.501 -27s-39.5 -41.333 -65.5 -78l-358 -522c-10.667 -18 -20.334 -46.667 -29.001 -86z" />
    <glyph glyph-name="Z" unicode="Z" horiz-adv-x="1183" 
d="M1081 -4c-131.333 2.66699 -213.665 4.00098 -246.998 4.00098h-717c-22 0 -33 8 -33 24c0 18 9 36 27 54l979 1108c13.333 15.333 20.666 27.666 21.999 36.999c4 10.667 -1.33301 16 -16 16h-453c-66.667 0 -118.167 -19.167 -154.5 -57.5s-75.5 -100.5 -117.5 -186.5
l-58 11c35.333 92.667 72.333 206.667 111 342c19.333 -1.33301 41.166 -6.16602 65.499 -14.499s53.833 -12.5 88.5 -12.5h630c22 2.66699 47 6.66699 75 12s46 8 54 8c27.333 0 41.333 -5.33301 42 -16c0 -24 -23.333 -62.333 -70 -115l-944 -1063
c-13.333 -20.667 -21 -34.334 -23 -41.001c-4 -18 10.333 -26.667 43 -26h459c68 0 124.5 23.167 169.5 69.5s87.5 112.5 127.5 198.5l59 -10c-53.333 -134 -93 -248 -119 -342z" />
    <glyph glyph-name="bracketleft" unicode="[" horiz-adv-x="684" 
d="M868 1411l-14 -88h-301l-289 -1642h299l-14 -91h-440l319 1821h440z" />
    <glyph glyph-name="backslash" unicode="\" horiz-adv-x="657" 
d="M365 1430l272 -1528h-90l-273 1528h91z" />
    <glyph glyph-name="bracketright" unicode="]" horiz-adv-x="684" 
d="M-6 -410l14 91h301l289 1642h-299l14 88h441l-322 -1821h-438z" />
    <glyph glyph-name="asciicircum" unicode="^" horiz-adv-x="1060" 
d="M743 1214l-299 -503h-90l369 620h86l147 -620h-90z" />
    <glyph glyph-name="underscore" unicode="_" horiz-adv-x="995" 
d="M948 -225l-16 -90h-977l14 90h979z" />
    <glyph glyph-name="grave" unicode="`" horiz-adv-x="802" 
d="M616 1430l99.002 -256.001c4 -12 6 -22.333 6 -31s-0.666992 -15 -2 -19c-2.66699 -15.333 -13.667 -22.666 -33 -21.999c-12 0 -29.667 13.667 -53 41l-195 223l8 20l21 13c13.333 8 24.166 13.667 32.499 17s20.666 7.5 36.999 12.5s33.5 7.5 51.5 7.5
c12 0 21.333 -2 28 -6z" />
    <glyph glyph-name="a" unicode="a" horiz-adv-x="995" 
d="M840 887c10.667 -2.66699 58.3359 -4.00098 143.003 -4.00098l-141 -637c-13.333 -65.333 -20.333 -103.666 -21 -114.999c0 -19.333 8.33301 -29 25 -29c23.333 0 61.666 36.333 114.999 109c18 0 33.667 -11 47 -33c-60 -132.667 -147.667 -198.667 -263 -198
c-56 0 -83.667 30.667 -83 92c0 30 6.66699 67.333 20 112l27 86l-4 4c-132.667 -196.667 -248.334 -294.667 -347.001 -294c-132.667 0 -198.667 92 -198 276c0 155.333 57.667 301.333 173 438s229.666 205 342.999 205c35.333 0 90 -4 164 -12zM737.002 448.999
c15.333 38 29.167 86.001 41.5 144.001s20.5 106.333 24.5 145l6 59c-40.667 26 -83 39 -127 39c-88.667 0 -170.5 -62.167 -245.5 -186.5s-112.5 -244.5 -112.5 -360.5c0 -131.333 30 -197 90 -197c32.667 0 82 36.667 148 110s124.333 155.666 175 246.999z" />
    <glyph glyph-name="b" unicode="b" horiz-adv-x="978" 
d="M584 1194l-113 -505.997l4 -2l63.5 71.5c13.667 15 35.834 36.167 66.501 63.5s61.334 47.166 92.001 59.499s62.667 18.5 96 18.5c86 0 143.333 -20.5 172 -61.5s43 -101.833 43 -182.5c0 -100 -38 -207.833 -114 -323.5s-163 -207.834 -261 -276.501
c-74 -50.667 -145.667 -75.667 -215 -75c-87.333 0 -147.833 22.5 -181.5 67.5s-42.834 101.5 -27.501 169.5l211 936c9.33301 42 14 76 14 102c0 38 -14.333 57.333 -43 58l-63 4c-6.66699 0 -10.334 3.33301 -11.001 10l7 49c118.667 8 214 26 286 54
c16.667 0 25 -7 25 -21c-14.667 -54.667 -31.667 -126.334 -51 -215.001zM840 616.003c0 124 -36.333 186.334 -109 187.001c-13.333 0 -26.833 -2 -40.5 -6s-28 -11.5 -43 -22.5l-39 -29c-11 -8.33301 -25.333 -22 -43 -41s-30.334 -33 -38.001 -42l-42 -50.5
c-20.333 -24.667 -34.166 -40.334 -41.499 -47.001l-69 -295c-34 -146 -16.333 -219 53 -219c84.667 0 174.5 59 269.5 177s142.5 247.333 142.5 388z" />
    <glyph glyph-name="c" unicode="c" horiz-adv-x="796" 
d="M428 -20c-84.667 0 -150.334 32.668 -197.001 98.001c-40.667 57.333 -61 133 -61 227c0 89.333 15 172.666 45 249.999s71 144 123 200c40.667 43.333 89.834 78.166 147.501 104.499s108.167 39.5 151.5 39.5c52 0 94.667 -5.83301 128 -17.5s56.833 -29 70.5 -52
s22.167 -43.5 25.5 -61.5s5 -40 5 -66c0 -24.667 -10.5 -46.167 -31.5 -64.5s-45.833 -27.5 -74.5 -27.5c-16.667 0 -30 6.5 -40 19.5s-15 28.333 -15 46s3.33301 32 10 43s10 24.167 10 39.5c0 52 -28.667 78 -86 78c-83.333 0 -154.333 -44.167 -213 -132.5
s-88 -206.166 -88 -353.499c0 -91.333 17 -159 51 -203c24.667 -31.333 59 -47 103 -47c50.667 0 97.167 13.5 139.5 40.5s85.833 65.833 130.5 116.5c9.33301 0 18.333 -3.33301 27 -10s14.667 -15 18 -25c-52.667 -73.333 -111.5 -132 -176.5 -176s-132.5 -66 -202.5 -66z
" />
    <glyph glyph-name="d" unicode="d" horiz-adv-x="1001" 
d="M707 397c62.667 114.667 94.001 198 94.001 250c0 39.333 -12.333 78.833 -37 118.5s-55.334 59.5 -92.001 59.5c-60 0 -117 -28.333 -171 -85s-96 -124.5 -126 -203.5s-45 -155.5 -45 -229.5c0 -155.333 26.667 -233 80 -233c38 0 84 30 138 90s107 137.667 159 233z
M707.001 238l-7 3.99902c-62.667 -91.333 -119.5 -157.833 -170.5 -199.5s-102.5 -62.5 -154.5 -62.5c-56 0 -100.333 17.667 -133 53s-53.5 72.833 -62.5 112.5s-13.5 82.5 -13.5 128.5c0 155.333 55 298.333 165 429s221.667 196 335 196c36.667 0 69.667 -10.5 99 -31.5
s50 -48.167 62 -81.5h2l76 367c9.33301 46.667 14.333 80.667 15 102c0 38 -14.333 57.333 -43 58l-64 4c-6.66699 0 -10 3.33301 -10 10l6 49c118.667 8 214.334 26 287.001 54c16.667 0 24.667 -7 24 -21l-51 -215l-217 -948
c-13.333 -65.333 -20.333 -103.666 -21 -114.999c0 -19.333 8.33301 -29 25 -29c23.333 0 61.666 36.333 114.999 109c18 0 33.667 -11 47 -33c-60 -132.667 -147.333 -198.667 -262 -198c-56 0 -84 30.667 -84 92c0 20.667 6.66699 58 20 112z" />
    <glyph glyph-name="e" unicode="e" horiz-adv-x="821" 
d="M727 758c0 30 -7.5 50.502 -22.5 61.502s-40.833 16.5 -77.5 16.5c-122 0 -212.333 -116.667 -271 -350c44 5.33301 85.667 13.833 125 25.5s78.5 27.667 117.5 48s70.167 47.666 93.5 81.999s35 73.166 35 116.499zM342 408.002
c-1.33301 -10.667 -2.00098 -34 -2.00098 -70c0 -87.333 13.333 -148.5 40 -183.5s65.167 -52.5 115.5 -52.5s92.666 8.66699 126.999 26s79.5 54.666 135.5 111.999c22 0 37.667 -11 47 -33c-117.333 -151.333 -245 -227 -383 -227c-82 0 -144.5 29 -187.5 87
s-64.5 132.667 -64.5 224c0 53.333 5.83301 107.666 17.5 162.999s30.834 109.833 57.501 163.5s59 101 97 142s85.667 74.5 143 100.5s120.333 39 189 39c65.333 0 114 -16.667 146 -50s48 -67 48 -101c0 -18 -0.333008 -31.167 -1 -39.5s-4 -22.666 -10 -42.999
s-15.167 -37.666 -27.5 -51.999s-31.166 -31.833 -56.499 -52.5s-56 -38.834 -92 -54.501s-83 -32.167 -141 -49.5s-124 -33.666 -198 -48.999z" />
    <glyph glyph-name="f" unicode="f" horiz-adv-x="643" 
d="M385 799l-168.007 0.00195312c-8 0 -12 1.33301 -12 4c0 6.66699 2.66699 18.334 8 35.001c5.33301 22 24.333 33.333 57 34l136 7c42 202 95.667 341.667 161 419c38 45.333 83 78.666 135 99.999s96.667 32 134 32c70.667 0 127.667 -14.833 171 -44.5
s65 -65.834 65 -108.501c0 -14.667 -6.16699 -29.834 -18.5 -45.501s-32.166 -23.5 -59.499 -23.5c-50.667 0 -82.667 33.667 -96 101c-4 20 -12 33.833 -24 41.5s-30.333 11.5 -55 11.5c-23.333 0 -51.666 -13.333 -84.999 -40s-61.666 -68 -84.999 -124
c-26 -58.667 -46.333 -126.334 -61 -203.001l-23 -116h226c9.33301 0 14 -3.66699 14 -11l-10 -45c-4 -16.667 -22 -24.667 -54 -24h-190l-6 -35c-22.667 -126.667 -55 -292.667 -97 -498c-40 -194.667 -73.167 -337.5 -99.5 -428.5s-53.833 -156.167 -82.5 -195.5
c-61.333 -86 -140.333 -129 -237 -129c-64.667 0 -112.5 9.16699 -143.5 27.5s-46.5 40.5 -46.5 66.5c0 20 6.16699 37.333 18.5 52s31.5 22 57.5 22c20.667 0 40.334 -7 59.001 -21s33.334 -29.333 44.001 -46c14 -22.667 30.667 -34 50 -34
c15.333 0 31.833 5.83301 49.5 17.5s32.167 26.5 43.5 44.5c7.33301 11.333 14.5 25.333 21.5 42s13.333 33.334 19 50.001s11.667 37.5 18 62.5s11.5 46.667 15.5 65s8.66699 43 14 74l12.5 72c3 17 7 42.5 12 76.5s8.33301 57.667 10 71s4.83398 37 9.50098 71
s7.33398 55 8.00098 63c12 87.333 40 257.333 84 510z" />
    <glyph glyph-name="g" unicode="g" horiz-adv-x="976" 
d="M330 -6c-118.667 -86 -177.999 -160.997 -177.999 -224.997c0 -58.667 28.667 -104.834 86 -138.501s142 -50.5 254 -50.5c83.333 0 145.666 15.667 186.999 47s62 69 62 113c0 35.333 -12.5 65.666 -37.5 90.999s-66.833 51.666 -125.5 78.999
c-83.333 38 -166 66 -248 84zM850.001 596.003c0 -100 -29.002 -179.331 -87.002 -237.998s-132.667 -88 -224 -88c-56 0 -102.667 11.667 -140 35c-31.333 -58.667 -47 -100.334 -47 -125.001c0 -19.333 5.16699 -35.333 15.5 -48s26.833 -23.834 49.5 -33.501
s44.834 -17.167 66.501 -22.5l89 -21.5c37.667 -9 68.834 -17.5 93.501 -25.5c139.333 -40.667 208.666 -118.667 207.999 -234c0 -188.667 -155.333 -282.667 -466 -282c-62.667 0 -121.834 5.33301 -177.501 16s-105.667 32.5 -150 65.5s-66.5 75.167 -66.5 126.5
c0 95.333 92.333 193.666 277 294.999c-35.333 20.667 -53 53.667 -53 99c0 34 11.167 72.167 33.5 114.5s47.833 78.5 76.5 108.5c-62.667 75.333 -94 156 -94 242c0 90 26.333 165.667 79 227s132.667 92 240 92c84.667 0 151.667 -28.667 201 -86
c62.667 57.333 130.334 86 203.001 86c23.333 0 42.5 -6.83301 57.5 -20.5s22.5 -30 22.5 -49s-6.16699 -35 -18.5 -48s-27.5 -19.5 -45.5 -19.5c-23.333 0 -42.333 11.667 -57 35c-8 13.333 -18.333 20 -31 20c-8 0 -22.667 -5.16699 -44 -15.5
s-38.666 -22.166 -51.999 -35.499c27.333 -39.333 41 -96 41 -170zM697.999 596.005c0 72.667 -11.499 131.167 -34.499 175.5s-55.833 66.5 -98.5 66.5c-62.667 0 -104.834 -22.167 -126.501 -66.5s-32.5 -108.833 -32.5 -193.5c0 -164 47.667 -246 143 -246
c99.333 0 149 88 149 264z" />
    <glyph glyph-name="h" unicode="h" horiz-adv-x="1062" 
d="M360 147c-2 -10 -4.83301 -25.332 -8.5 -45.999s-7 -36.5 -10 -47.5s-7.5 -23.167 -13.5 -36.5s-14 -22.833 -24 -28.5s-22.667 -8.5 -38 -8.5c-56 0 -84 18.333 -84 55c0 2.66699 8.66699 40 26 112l224 1006c9.33301 42 14 76 14 102c0 38 -14.333 57.333 -43 58l-63 4
c-6.66699 0 -10 3.33301 -10 10l6 49c118.667 8 214.334 26 287.001 54c16.667 0 24.667 -7 24 -21c-15.333 -54.667 -32.333 -126.334 -51 -215.001l-124 -556c87.333 102 161.166 171 221.499 207s119.833 54 178.5 54c90 0 135.333 -54.667 136 -164
c0 -26 -9 -77.667 -27 -155l-78 -326c-15.333 -65.333 -22.666 -104.333 -21.999 -117c0 -23.333 6.66699 -35 20 -35c10.667 0 29 10 55 30s52 44.333 78 73c23.333 0 39 -11.667 47 -35c-100 -126.667 -194.667 -190 -284 -190c-56 0 -84 22.333 -84 67
c0 32.667 11.667 95.667 35 189l77 327c13.333 57.333 20.333 103 21 137c0 30 -5.83301 50.167 -17.5 60.5s-29.834 15.5 -54.501 15.5c-35.333 0 -83.333 -26.667 -144 -80s-124.667 -123 -192 -209z" />
    <glyph glyph-name="i" unicode="i" horiz-adv-x="565" 
d="M412 1167c0 27.333 9.83301 50.666 29.5 69.999s42.5 29 68.5 29s48.833 -9.66699 68.5 -29s29.5 -42.666 29.5 -69.999s-9.83301 -50.5 -29.5 -69.5s-42.5 -28.5 -68.5 -28.5s-48.833 9.5 -68.5 28.5s-29.5 42.167 -29.5 69.5zM502 656l-91.999 -402.001
c-15.333 -65.333 -23 -104.333 -23 -117c0 -23.333 7 -35 21 -35c10.667 0 29 10 55 30s52 44.333 78 73c23.333 0 39 -11.667 47 -35c-100 -126.667 -195 -190 -285 -190c-56 0 -84 22.333 -84 67c0 19.333 11.667 82.333 35 189l96 421c12 52 18.333 87 19 105
c0 24.667 -12.333 38.334 -37 41.001l-82 6c-15.333 22 -16 41 -2 57c139.333 18 224 27 254 27c28 0 42 -14.333 42 -43c0 -10.667 -1.83301 -25 -5.5 -43s-9.83398 -44.167 -18.501 -78.5z" />
    <glyph glyph-name="j" unicode="j" horiz-adv-x="530" 
d="M515 656l-38.0029 -177c-24.667 -113.333 -46.5 -208.5 -65.5 -285.5s-42.5 -156.167 -70.5 -237.5s-57 -145.833 -87 -193.5s-66.167 -86.834 -108.5 -117.501s-88.166 -46 -137.499 -46c-48 0 -88 8.5 -120 25.5s-48 41.167 -48 72.5
c0 20.667 6.16699 36.334 18.5 47.001s26.166 16 41.499 16c36.667 0 66.334 -14.667 89.001 -44s41.334 -44 56.001 -44c24.667 0 51 16.167 79 48.5s52.333 87.166 73 164.499c13.333 54.667 30.666 134.667 51.999 240l48 235l65 297
c10.667 50.667 16.334 85.667 17.001 105c0 24.667 -12.333 38.334 -37 41.001l-82 6c-15.333 22 -16 41 -2 57c118.667 18 203.334 27 254.001 27c28 0 42 -14.333 42 -43c0 -9.33301 -13 -74 -39 -194zM421.997 1167c0 27.333 9.5 50.666 28.5 69.999s42.167 29 69.5 29
s50.5 -9.66699 69.5 -29s28.5 -42.666 28.5 -69.999s-9.5 -50.5 -28.5 -69.5s-42.167 -28.5 -69.5 -28.5s-50.5 9.5 -69.5 28.5s-28.5 42.167 -28.5 69.5z" />
    <glyph glyph-name="k" unicode="k" horiz-adv-x="995" 
d="M182 147l226.009 1006c9.33301 42 14 76 14 102c0 38 -14.333 57.333 -43 58l-64 4c-6.66699 0 -10 3.33301 -10 10l6 49c118.667 8 214.334 26 287.001 54c16.667 0 25 -7 25 -21l-52 -215l-147 -637c32 0 72.333 21 121 63l82 70c157.333 139.333 270 209 338 209
c66.667 0 100 -24 100 -72c0 -28.667 -11.333 -52.834 -34 -72.501s-42.667 -29.5 -60 -29.5c-24.667 0 -45.834 4.83301 -63.501 14.5s-34.834 14.5 -51.501 14.5c-36.667 0 -102.334 -42.333 -197.001 -127l-106 -95v-8c31.333 -8 53.166 -19.167 65.499 -33.5
s28.166 -39.833 47.499 -76.5c6.66699 -13.333 21.5 -47.833 44.5 -103.5s45.5 -104.5 67.5 -146.5c1.33301 -2.66699 3.83301 -7.16699 7.5 -13.5s6.16699 -10.833 7.5 -13.5l6 -12c2.66699 -5.33301 4.66699 -9 6 -11s3.66602 -4.83301 6.99902 -8.5s6 -6.5 8 -8.5
s4.83301 -4 8.5 -6s7.5 -3.33301 11.5 -4s8 -1 12 -1c26 0 61.333 32.667 106 98c15.333 0 30.666 -8.66699 45.999 -26c-68 -118.667 -137 -178 -207 -178c-40.667 0 -75.834 16 -105.501 48s-61.834 86 -96.501 162c-12.667 28 -29.5 72.833 -50.5 134.5
s-37.833 104.5 -50.5 128.5c-12.667 22 -26.334 33 -41.001 33c-18.667 0 -33.667 -2.33301 -45 -7l-74 -332c-1.33301 -8 -4 -23 -8 -45s-7.5 -38 -10.5 -48s-7.5 -22 -13.5 -36s-14.167 -23.833 -24.5 -29.5s-22.833 -8.5 -37.5 -8.5c-56 0 -84 18.333 -84 55
c0 2.66699 8.66699 40 26 112z" />
    <glyph glyph-name="l" unicode="l" horiz-adv-x="544" 
d="M586 1194l-208.998 -933.999c-16.667 -72.667 -25 -115.667 -25 -129c0 -19.333 8.33301 -29 25 -29c13.333 0 34.666 11 63.999 33s58.333 50.667 87 86c20.667 0 35.667 -11.667 45 -35c-83.333 -138 -182.333 -206.667 -297 -206c-57.333 0 -86 30 -86 90
c0 30 9.66699 88 29 174l203 909c9.33301 42 14 76 14 102c0 38 -14.333 57.333 -43 58l-63 4c-6.66699 0 -10.334 3.33301 -11.001 10l7 49c118.667 8 214 26 286 54c16.667 0 25 -7 25 -21c-14.667 -54.667 -31.667 -126.334 -51 -215.001z" />
    <glyph glyph-name="m" unicode="m" horiz-adv-x="1603" 
d="M373 657c12 57.333 18.001 92.3311 18.001 104.998c0 24.667 -12.333 38.334 -37 41.001l-82 6c-15.333 22 -16 41 -2 57c139.333 18 224 27 254 27c28 0 42 -14.333 42 -43c0 -10.667 -2 -25.167 -6 -43.5s-10.5 -44.166 -19.5 -77.499l-19.5 -73l-5 -19l4 -2
c136.667 176 270.667 264 402 264c79.333 0 118.666 -59.333 117.999 -178c0 -35.333 -2.66699 -67.333 -8 -96c72.667 90 137.334 158.167 194.001 204.5s117.667 69.5 183 69.5c35.333 0 65 -14.667 89 -44s36 -74 36 -134c0 -48 -7 -98 -21 -150l-96 -364
c-6.66699 -26 -10 -53.333 -10 -82c0 -15.333 4.66699 -23 14 -23c39.333 0 87.333 44.667 144 134c26 0 41 -9.66699 45 -29c-62.667 -151.333 -163.667 -227 -303 -227c-15.333 0 -30 6.5 -44 19.5s-21 29.167 -21 48.5c0 26 12 87.667 36 185l80 322
c12 48 18 96.333 18 145c0 28.667 -4.66699 48.5 -14 59.5s-24.333 16.5 -45 16.5c-34 0 -75 -22.167 -123 -66.5s-113.667 -124.5 -197 -240.5l-78 -322c-2 -10 -4.83301 -25.333 -8.5 -46s-7 -36.5 -10 -47.5s-7.5 -23.167 -13.5 -36.5s-14 -22.833 -24 -28.5
s-22.667 -8.5 -38 -8.5c-56 0 -83.667 18.333 -83 55c0 2 8.66699 39.333 26 112l98 416c10.667 48 16.334 93.667 17.001 137c0 30 -3.83301 50.167 -11.5 60.5s-21.834 15.5 -42.501 15.5c-88.667 0 -202 -99.667 -340 -299l-82 -330
c-2.66699 -10.667 -5.83398 -26 -9.50098 -46s-7 -35.667 -10 -47s-7.33301 -23.5 -13 -36.5s-13.5 -22.5 -23.5 -28.5s-22.667 -9 -38 -9c-56 0 -83.667 18.333 -83 55c0 2.66699 8.66699 40 26 112z" />
    <glyph glyph-name="n" unicode="n" horiz-adv-x="1060" 
d="M887 254c-15.333 -65.333 -23 -104.332 -23 -116.999c0 -23.333 7 -35 21 -35c10.667 0 29 10 55 30s52 44.333 78 73c23.333 0 39 -11.667 47 -35c-100 -126.667 -197 -190 -291 -190c-56 0 -84 22.333 -84 67c0 32.667 11.667 95.667 35 189l78 327
c18 75.333 26.667 121.666 26 138.999c0 30 -5.66699 49.833 -17 59.5s-29.333 14.5 -54 14.5c-62.667 0 -168 -96.333 -316 -289l-78 -340c-2 -10 -4.83301 -25.333 -8.5 -46s-7 -36.5 -10 -47.5s-7.5 -23.167 -13.5 -36.5s-14 -22.833 -24 -28.5s-22.667 -8.5 -38 -8.5
c-58.667 0 -88 18.333 -88 55c0 2.66699 8.66699 40 26 112l116 510c12 57.333 18 92.333 18 105c0 24.667 -12.333 38.334 -37 41.001l-82 6c-15.333 22 -16 41 -2 57c118.667 18 204.667 27 258 27c28 0 42 -14.333 42 -43c0 -48 -14.333 -112.667 -43 -194l-7 -19l2 -2
c90 105.333 162 175.666 216 210.999s109.667 53 167 53c90 0 135 -54.667 135 -164c0 -26 -8.66699 -77.667 -26 -155z" />
    <glyph glyph-name="o" unicode="o" horiz-adv-x="915" 
d="M330 348c0 -96.667 15.668 -169.667 47.001 -219s64.666 -74 99.999 -74c90 0 162.333 41.667 217 125c58.667 90 88 214.333 88 373c0 83.333 -10.333 146 -31 188c-30.667 60 -72 90 -124 90c-66.667 0 -124 -28.167 -172 -84.5s-80.833 -119.5 -98.5 -189.5
s-26.5 -139.667 -26.5 -209zM160.001 332c0 64 10.5 128.5 31.5 193.5s51.333 125.833 91 182.5s92.667 102.667 159 138s140.5 53 222.5 53c192.667 0 288.667 -110.667 288 -332c0 -118.667 -30 -228.167 -90 -328.5s-135.667 -173.833 -227 -220.5
c-52 -26 -115 -38.667 -189 -38c-61.333 0 -112.5 12.5 -153.5 37.5s-70.333 58 -88 99s-29.5 78.333 -35.5 112s-9 68.167 -9 103.5z" />
    <glyph glyph-name="p" unicode="p" horiz-adv-x="1001" 
d="M545 827c80.667 48 159 72.001 235 72.001c174.667 0 262 -102.333 262 -307c0 -146 -55 -286.667 -165 -422c-104 -126.667 -222.333 -190 -355 -190c-57.333 0 -107 22.333 -149 67l-90 -377c-5.33301 -22 -4 -39.333 4 -52s16.833 -20.834 26.5 -24.501
s21.834 -6.16699 36.501 -7.5l39 -6c8 -1.33301 12 -6.66602 12 -15.999v-41l-4 -4c-92.667 2.66699 -165.667 4 -219 4l-213 -10l-4 4v39c0 8 7 13.333 21 16l38 6c61.333 9.33301 97.666 40 108.999 92l211 940c-68 -56 -117 -103.667 -147 -143
c-34 0 -55.333 14.333 -64 43c46.667 58.667 125.334 127.667 236.001 207l26 121c1.33301 8 4.16602 23.333 8.49902 46s7.83301 38.667 10.5 48s7 21.166 13 35.499s14.167 24.333 24.5 30s22.833 8.5 37.5 8.5c57.333 0 86 -18.667 86 -56
c0 -6.66699 -1.66699 -17.5 -5 -32.5s-7.33301 -31.833 -12 -50.5s-7.66699 -32 -9 -40zM874 559.001c0 164 -53.001 246 -159.001 246c-53.333 0 -116.333 -23.333 -189 -70l-135 -598c40.667 -57.333 91.334 -86 152.001 -86c38 0 76 13.5 114 40.5s71 62.5 99 106.5
c37.333 58 66.333 119.667 87 185s31 124 31 176z" />
    <glyph glyph-name="q" unicode="q" horiz-adv-x="1005" 
d="M829 676c0 42 -11.499 77.335 -34.499 106.002s-52.833 43 -89.5 43c-101.333 0 -187.833 -51.833 -259.5 -155.5s-107.5 -218.834 -107.5 -345.501c0 -66.667 9.16699 -126.334 27.5 -179.001s46.166 -79 83.499 -79c39.333 0 93.833 34 163.5 102
s116.167 135 139.5 201c19.333 56 37 117 53 183s24 107.333 24 124zM604.001 -329.998l135.002 532.999l-6 2c-108 -150 -217 -225 -327 -225c-87.333 0 -149.166 30.667 -185.499 92s-54.5 137.666 -54.5 228.999c0 84.667 17.333 165.167 52 241.5
s78.667 139.833 132 190.5s110.666 91 171.999 121s119.333 45 174 45c79.333 0 145 -36 197 -108l59 83c18 26 39.333 39 64 39c15.333 0 22.666 -6.66699 21.999 -20c0 -8 -1.33301 -18.333 -4 -31l-274 -1192c-10.667 -48 11.666 -76 66.999 -84l39 -6
c8 -1.33301 12.333 -6.66602 13 -15.999v-41l-5 -4c-92.667 2.66699 -165.667 4 -219 4l-215 -10l-4 4v39c0 8 7 13.333 21 16l39 6c32.667 5.33301 57.167 14.833 73.5 28.5s27.833 34.834 34.5 63.501z" />
    <glyph glyph-name="r" unicode="r" horiz-adv-x="731" 
d="M453 584l7.99707 -2.00195c45.333 96.667 95.833 173.667 151.5 231s108.834 86 159.501 86c35.333 0 62 -9.83301 80 -29.5s27 -41.834 27 -66.501c0 -28.667 -9 -55 -27 -79s-40 -36 -66 -36c-22 0 -45 14.333 -69 43c-13.333 16.667 -27.666 25 -42.999 25
c-38 0 -124.667 -123 -260 -369l-60 -240c-2.66699 -10 -6.16699 -25.667 -10.5 -47s-8 -37.166 -11 -47.499s-7.66699 -22.166 -14 -35.499s-14.166 -22.833 -23.499 -28.5s-21 -8.5 -35 -8.5c-52 0 -78 18.333 -78 55c0 9.33301 1.5 19.833 4.5 31.5
s6.83301 25.5 11.5 41.5s8 29 10 39l114 510c9.33301 38 14 73 14 105c0 24.667 -12.333 38.334 -37 41.001l-82 6c-15.333 22 -16 41 -2 57c139.333 18 221.333 27 246 27c29.333 0 44 -17 44 -51c0 -19.333 -11.667 -81.333 -35 -186z" />
    <glyph glyph-name="s" unicode="s" horiz-adv-x="722" 
d="M356 -20c-68 4 -124.166 21.665 -168.499 52.998s-66.5 66.666 -66.5 105.999c0 16.667 6.16699 32.834 18.5 48.501s31.5 23.5 57.5 23.5c27.333 0 49.166 -11 65.499 -33s26.5 -47.333 30.5 -76c2.66699 -22 10.834 -36.667 24.501 -44s34.834 -11 63.501 -11
c50.667 0 92.334 12 125.001 36s49 62.667 49 116c0 66.667 -41.667 128 -125 184c-118.667 80.667 -178 167.334 -178 260.001c0 66.667 26.667 126 80 178s122.333 78 207 78c61.333 0 115.5 -17.667 162.5 -53s70.5 -72.333 70.5 -111c0 -46.667 -24.667 -69.667 -74 -69
c-24.667 0 -45.834 10.833 -63.501 32.5s-27.834 46.167 -30.501 73.5c-5.33301 39.333 -36 59 -92 59c-40.667 0 -72.334 -14.333 -95.001 -43s-34 -62.667 -34 -102c0 -49.333 27.333 -92.333 82 -129c90 -60 153.167 -114.667 189.5 -164s54.5 -99.666 54.5 -150.999
c0 -78 -29 -141.167 -87 -189.5s-136.333 -72.5 -235 -72.5h-31z" />
    <glyph glyph-name="t" unicode="t" horiz-adv-x="628" 
d="M381 879l27 101.997c2.66699 10.667 6.33398 29.334 11.001 56.001s9 46.167 13 58.5s11.5 24.333 22.5 36s25.5 17.5 43.5 17.5c54.667 0 82 -18.333 82 -55c0 -2.66699 -9 -43.667 -27 -123l-21 -92h203c10.667 -8 13 -22 7 -42s-15 -32.667 -27 -38h-201l-121 -539
c-15.333 -66.667 -22.833 -109.667 -22.5 -129s9.16602 -29 26.499 -29c34 0 88.667 42.333 164 127c24.667 0 39.667 -13 45 -39c-34 -61.333 -80 -111.666 -138 -150.999s-111 -59 -159 -59c-34 0 -59.167 6.66699 -75.5 20s-24.5 38 -24.5 74
c0 27.333 9.66699 83.333 29 168l124 557h-143c-8 0 -12 1.33301 -12 4c0 6.66699 2.66699 18.334 8 35.001c5.33301 22 24.333 33.333 57 34z" />
    <glyph glyph-name="u" unicode="u" horiz-adv-x="1067" 
d="M1036 721l-113.998 -467.001c-15.333 -65.333 -23 -104.333 -23 -117c0 -23.333 7 -35 21 -35c10.667 0 29 10 55 30s52 44.333 78 73c23.333 0 39 -11.667 47 -35c-100 -126.667 -195 -190 -285 -190c-50.667 0 -76 22.333 -76 67c0 44 11.667 107 35 189l23 79l-6 4
c-83.333 -121.333 -153.666 -208.166 -210.999 -260.499s-123 -78.5 -197 -78.5c-39.333 0 -72 13.5 -98 40.5s-39 67.833 -39 122.5c0 40.667 6.66699 86.667 20 138l90 344c18 65.333 27 104 27 116c0 23.333 -7 35 -21 35c-10.667 0 -30.667 -9.83301 -60 -29.5
s-56.333 -43.834 -81 -72.501c-23.333 0 -39 11.667 -47 35c100 126.667 203 190 309 190c49.333 0 74 -22.667 74 -68c0 -10.667 -14.333 -73.334 -43 -188.001l-88 -334c-12 -48 -18 -91.667 -18 -131c0 -50.667 20.333 -76 61 -76c48 0 98.167 31.5 150.5 94.5
s120.166 166.167 203.499 309.5l60 225c2.66699 10.667 6.66699 29.667 12 57s9.66602 46.833 12.999 58.5s11.166 23.334 23.499 35.001s27.5 17.5 45.5 17.5c57.333 0 86 -18.333 86 -55c0 -6.66699 -1.66699 -17.667 -5 -33s-7.5 -32.166 -12.5 -50.499
s-8.16699 -31.5 -9.5 -39.5z" />
    <glyph glyph-name="v" unicode="v" horiz-adv-x="966" 
d="M624 156l8.99609 -5c23.333 18.667 66 69.667 128 153c41.333 55.333 77.333 117.5 108 186.5s46 124.833 46 167.5c0 38.667 -14.333 79.667 -43 123c-7.33301 11.333 -11 25.333 -11 42c0 50.667 31.667 76 95 76c71.333 0 107.333 -32.333 108 -97
c0 -59.333 -18.667 -132 -56 -218c-9.33301 -21.333 -20.166 -43.833 -32.499 -67.5l-33 -61c-9.66699 -17 -22.334 -37.333 -38.001 -61l-34 -50.5l-33.5 -47.5c-15.333 -21.667 -23.666 -33.5 -24.999 -35.5c-46 -65.333 -103 -135.666 -171 -210.999
c-44.667 -50 -74 -75 -88 -75c-28.667 0 -50.667 43.667 -66 131l-86 500c-13.333 83.333 -28.833 125 -46.5 125s-37.167 -8 -58.5 -24s-49.666 -41 -84.999 -75c-23.333 3.33301 -38 15.666 -44 36.999c38.667 59.333 83.334 112.5 134.001 159.5
s92.334 70.5 125.001 70.5c36.667 0 63.5 -19.167 80.5 -57.5s33.167 -107.833 48.5 -208.5z" />
    <glyph glyph-name="w" unicode="w" horiz-adv-x="1409" 
d="M543 -25c-22 0 -40.6719 43.668 -56.0049 131.001l-86 500c-13.333 83.333 -28.833 125 -46.5 125s-37.167 -8 -58.5 -24s-49.666 -41 -84.999 -75c-23.333 3.33301 -38 15.666 -44 36.999c38.667 59.333 83.334 112.5 134.001 159.5s92.334 70.5 125.001 70.5
c35.333 0 61.5 -19.167 78.5 -57.5s33.833 -107.833 50.5 -208.5l70 -436l5 -3c28.667 44 70.667 118.167 126 222.5s102.333 201.833 141 292.5c30 15.333 63.333 23.333 100 24c12 -29.333 29 -90 51 -182c28.667 -119.333 52.667 -237.333 72 -354l15 -4
c31.333 34.667 62 71.667 92 111c38 51.333 69.333 111.333 94 180s37 126.667 37 174c0 38.667 -14.333 79.667 -43 123c-7.33301 11.333 -11 25.333 -11 42c0 50.667 31.667 76 95 76c71.333 0 107 -32.333 107 -97c0 -59.333 -18.333 -132 -55 -218
c-55.333 -130 -113.666 -238.333 -174.999 -325c-64 -90 -115.333 -159.333 -154 -208c-40.667 -50.667 -72 -76 -94 -76c-20 0 -35.667 40 -47 120c-20.667 142 -47.667 286.333 -81 433l-12 -2c-69.333 -150.667 -156 -307.667 -260 -471
c-15.333 -24 -31.166 -43.333 -47.499 -58s-28.833 -22 -37.5 -22z" />
    <glyph glyph-name="x" unicode="x" horiz-adv-x="972" 
d="M440 633c-15.333 42.667 -27.334 71.3369 -36.001 86.0039c-9.33301 16 -28.333 23.667 -57 23c-27.333 0 -72 -14.667 -134 -44c-14 13.333 -23 34.333 -27 63c40 29.333 89.5 59.666 148.5 90.999s99.833 47 122.5 47c24.667 0 44.5 -10.5 59.5 -31.5
s31.167 -59.5 48.5 -115.5l58 -181l102 148c49.333 69.333 93.333 116.666 132 141.999s84.667 38 138 38c26 0 49.667 -7.5 71 -22.5s32 -34.833 32 -59.5c0 -23.333 -7.16699 -43.833 -21.5 -61.5s-29.166 -26.5 -44.499 -26.5c-27.333 0 -49.833 6.83301 -67.5 20.5
s-38.167 20.5 -61.5 20.5c-39.333 0 -71.333 -18.333 -96 -55l-156 -230l111 -329c16.667 -50.667 33 -76 49 -76c24.667 0 58.667 28 102 84c23.333 -4 40 -17 50 -39c-57.333 -96.667 -132.666 -145 -225.999 -145c-32.667 0 -56.834 8.16699 -72.501 24.5
s-30.167 46.166 -43.5 89.499l-79 249l-143 -204c-44 -62.667 -80.833 -104.834 -110.5 -126.501s-62.5 -32.5 -98.5 -32.5c-27.333 0 -53.833 6.66699 -79.5 20s-38.5 32.333 -38.5 57c0 22 7.16699 40.5 21.5 55.5s33.166 22.5 56.499 22.5c20.667 0 40.334 -4 59.001 -12
c16.667 -8 35.167 -12 55.5 -12s39.5 13 57.5 39l191 281z" />
    <glyph glyph-name="y" unicode="y" horiz-adv-x="1030" 
d="M722 0l-93.001 -142.999c-65.333 -101.333 -135.333 -182.666 -210 -243.999s-139.334 -92 -194.001 -92c-26 0 -53.333 6.83301 -82 20.5s-43 35.5 -43 65.5s10 54.833 30 74.5s41.667 29.5 65 29.5c26 0 49.667 -9.33301 71 -28c30 -24.667 54 -37 72 -37
c15.333 0 42.333 21.5 81 64.5s78 97.167 118 162.5c12 27.333 5.66699 135.166 -19 323.499s-52 333.833 -82 436.5c-12.667 43.333 -23.334 72 -32.001 86c-9.33301 16 -28.333 23.667 -57 23c-27.333 0 -72 -14.667 -134 -44c-14 13.333 -23 34.333 -27 63
c40 29.333 89.5 59.666 148.5 90.999s99.833 47 122.5 47c24.667 0 44.834 -11.333 60.501 -34s30.834 -61.667 45.501 -117c28 -116 47.833 -224.167 59.5 -324.5s21.167 -220.833 28.5 -361.5l14 -6l63 96l66 108l28 44c102.667 161.333 154.334 279.333 155.001 354
c0 38.667 -14.333 79.667 -43 123c-7.33301 11.333 -11 25.333 -11 42c0 50.667 31.667 76 95 76c71.333 0 107 -32.333 107 -97c0 -59.333 -18.333 -132 -55 -218c-17.333 -40 -50.5 -101.333 -99.5 -184l-117.5 -193z" />
    <glyph glyph-name="z" unicode="z" horiz-adv-x="892" 
d="M897 909l58.999 -29.998c-4 -5.33301 -41.333 -51.333 -112 -138c-45.333 -56 -132.166 -152.833 -260.499 -290.5l-223.5 -241.5c42.667 0 79 -3.83301 109 -11.5s51.333 -15.834 64 -24.501s28.167 -16.834 46.5 -24.501s38.833 -11.5 61.5 -11.5
c23.333 0 43.166 2.5 59.499 7.5s36.833 17.667 61.5 38s49.334 50.166 74.001 89.499c22 0 39 -6.66699 51 -20c-46.667 -105.333 -88.667 -177 -126 -215s-79.333 -57 -126 -57c-60 0 -118.667 17 -176 51c-57.333 35.333 -109.333 53 -156 53
c-12 0 -29.333 -9.5 -52 -28.5s-44.334 -45.833 -65.001 -80.5c-15.333 1.33301 -31 5.66602 -47 12.999c-12 2.66699 -21.333 11.334 -28 26.001c6.66699 26 49 83.333 127 172l492 543c-17.333 -2.66699 -38.666 -4 -63.999 -4c-18 0 -52.333 3 -103 9s-93 9 -127 9
c-48 0 -83.167 -7.5 -105.5 -22.5s-44.5 -45.5 -66.5 -91.5c-26 0 -44.333 5.33301 -55 16c18 62.667 47 120.667 87 174s77.333 80 112 80c38 0 110.333 -9 217 -27c90 -19.333 143.667 -28.666 161 -27.999c36 -0.666992 73 21 111 65z" />
    <glyph glyph-name="braceleft" unicode="{" horiz-adv-x="559" 
d="M571 1161l-64.999 -370.003c-16.667 -90 -38.334 -154.5 -65.001 -193.5s-68 -69.5 -124 -91.5c66.667 -31.333 100.334 -87.333 101.001 -168c0 -34 -5.66699 -81.667 -17 -143l-59 -336c-6.66699 -45.333 -10 -81.666 -10 -108.999
c0 -31.333 3.33301 -58.666 10 -81.999c18 -44 46 -72 84 -84l-4 -28c-117.333 2.66699 -189 27 -215 73c-16.667 28.667 -25 68.334 -25 119.001c0 30 5 77 15 141l63 359c6.66699 38 10 70 10 96c0 86 -34 138 -102 156l2 10c95.333 26 155.333 108.667 180 248l70 387
c19.333 112 52.166 191.167 98.499 237.5s126.166 70.833 239.499 73.5l-6 -29c-45.333 -12 -83.666 -40 -114.999 -84c-27.333 -34 -49.333 -94.667 -66 -182z" />
    <glyph glyph-name="bar" unicode="|" horiz-adv-x="419" 
d="M172 -477h-90l319 1812h91z" />
    <glyph glyph-name="braceright" unicode="}" horiz-adv-x="559" 
d="M168 -150l63.001 371.001c16.667 90 38.667 154.833 66 194.5s69 70.5 125 92.5c-66.667 28.667 -100 84 -100 166c0 36.667 5.33301 84.334 16 143.001l57 336c8 43.333 12.333 80.333 13 111c0 32.667 -4.33301 59 -13 79c-8 22 -18.167 39.5 -30.5 52.5
s-21.5 20.5 -27.5 22.5l-26 9l6 29c117.333 -2.66699 189 -27.334 215 -74.001c15.333 -30 23 -69.333 23 -118c0 -42 -4.66699 -89.333 -14 -142l-64 -356c-5.33301 -32.667 -8 -65.334 -8 -98.001c0 -86 33.333 -138 100 -156v-10c-95.333 -26 -156 -108 -182 -246
l-68 -389c-20.667 -112 -53.334 -191.333 -98.001 -238c-49.333 -46.667 -129 -71 -239 -73l6 28c45.333 12 83.333 40 114 84c27.333 38 49.333 98.667 66 182z" />
    <glyph glyph-name="asciitilde" unicode="~" horiz-adv-x="919" 
d="M129 428c26 68 68.666 128.667 127.999 182s119 80 179 80c31.333 0 78.166 -22.167 140.499 -66.5s108.5 -66.5 138.5 -66.5c35.333 0 74.833 11.333 118.5 34s79.834 57 108.501 103l33 -12c-31.333 -66.667 -68.166 -119.834 -110.499 -159.501
s-76.833 -64 -103.5 -73s-51.667 -13.5 -75 -13.5c-36.667 0 -84 22.167 -142 66.5s-105 66.5 -141 66.5c-38 0 -81.5 -13.667 -130.5 -41s-88.5 -62.666 -118.5 -105.999z" />
    <glyph glyph-name="uni00A0" unicode="&#xa0;" horiz-adv-x="512" 
 />
    <glyph glyph-name="exclamdown" unicode="&#xa1;" horiz-adv-x="464" 
d="M489 807c-5.33301 -30 -20.166 -55.999 -44.499 -77.999s-51.833 -33 -82.5 -33c-26 0 -47.833 8.66699 -65.5 26s-26.5 38.666 -26.5 63.999c0 8 0.666992 15 2 21c5.33301 30 20.333 55.5 45 76.5s52 31.5 82 31.5c27.333 0 49.666 -8.5 66.999 -25.5
s26 -39.167 26 -66.5c-0.666992 -8 -1.66699 -13.333 -3 -16zM154 -472.999c-26 0 -48 9.16797 -66 27.501s-27 45.166 -27 80.499c0 8 1.66699 21.667 5 41c9.33301 50.667 29 118.334 59 203.001s51 149 63 193c19.333 65.333 36.5 126.666 51.5 183.999l34 133
c7.66699 31.333 12.167 49 13.5 53c6.66699 27.333 19 41 37 41c15.333 0 22.666 -6.66699 21.999 -20v-4c0 -10.667 -5.16699 -63.167 -15.5 -157.5s-17.5 -170.833 -21.5 -229.5c-2.66699 -36.667 -4 -82.667 -4 -138v-92c0 -56 -4 -111.333 -12 -166
c-9.33301 -50.667 -27.666 -88.167 -54.999 -112.5s-55.333 -36.5 -84 -36.5z" />
    <glyph glyph-name="cent" unicode="&#xa2;" horiz-adv-x="897" 
d="M657 1196l70.001 0.00292969l-30 -153c43.333 -3.33301 78.833 -11.333 106.5 -24s47 -30 58 -52s18 -41.167 21 -57.5s4.5 -36.833 4.5 -61.5s-10.667 -46.167 -32 -64.5s-46.333 -27.5 -75 -27.5c-16.667 0 -30 6.5 -40 19.5s-15 28.333 -15 46s3.33301 32 10 43
s10 23.833 10 38.5c0 41.333 -20 66.333 -60 75l-142 -730c76 8.66699 155.667 60 239 154c9.33301 0 18.5 -3.16699 27.5 -9.5s14.833 -14.5 17.5 -24.5c-93.333 -130.667 -195.666 -209 -306.999 -235l-31 -158h-69l29 150c-84.667 0 -150.334 32.667 -197.001 98
c-40.667 57.333 -61.334 133.333 -62.001 228c0 89.333 15.167 172.666 45.5 249.999s71.5 143.666 123.5 198.999c36 38.667 78.833 70.667 128.5 96s96.5 40.666 140.5 45.999zM473.001 250.003l142 726.001c-72.667 -16 -133.667 -66.833 -183 -152.5
s-74 -194.834 -74 -327.501c0 -91.333 17.333 -159 52 -203c16 -22 37 -36.333 63 -43z" />
    <glyph glyph-name="sterling" unicode="&#xa3;" horiz-adv-x="897" 
d="M336 174c86 0 154.999 -19.002 206.999 -57.002c32.667 -26 68.667 -39 108 -39c32.667 0 69.834 8.16699 111.501 24.5s76.834 40.166 105.501 71.499l33 -27c-62.667 -114.667 -163.667 -172 -303 -172c-53.333 0 -114 22 -182 66c-56 35.333 -103.333 53 -142 53
c-57.333 0 -89.333 -17.667 -96 -53c-4 -24.667 -15.833 -43.5 -35.5 -56.5s-39.834 -19.5 -60.501 -19.5c-13.333 0 -24.5 5.16699 -33.5 15.5s-12.167 21.5 -9.5 33.5c8 40.667 47 77.667 117 111c12 8.66699 25.667 19.667 41 33c84.667 74 145.334 203 182.001 387
l10 53h-135l16 82h134l4 16c30 151.333 105 276.333 225 375c83.333 70.667 176 106.334 278 107.001c32.667 0 65.5 -7.5 98.5 -22.5s46.167 -37.833 39.5 -68.5c-4 -24.667 -15 -43.667 -33 -57s-39.333 -20 -64 -20c-20.667 0 -40.334 12.333 -59.001 37
c-30 30 -59.333 45 -88 45c-46.667 0 -92.5 -28.667 -137.5 -86s-75.833 -127.666 -92.5 -210.999l-22 -115h266l-14 -82h-268l-2 -10c-38 -206 -107 -342 -207 -408c-1.33301 -1.33301 -3.5 -2.66602 -6.5 -3.99902s-4.83301 -2.33301 -5.5 -3c7.33301 0.666992 14 1 20 1z
" />
    <glyph glyph-name="currency" unicode="&#xa4;" horiz-adv-x="897" 
d="M492 254c-82 0 -151.67 24.667 -209.003 74l-107 -111l-70 82l125 88c-31.333 50.667 -47 104.667 -47 162c0 19.333 2 40.333 6 63c16.667 86 57 161.333 121 226l-90 84l90 79l74 -102c76.667 48 154.334 72 233.001 72c80.667 0 150.334 -25.333 209.001 -76l115 113
l66 -84l-129 -90c28.667 -45.333 43 -96.666 43 -153.999c0 -22.667 -2.33301 -45.334 -7 -68.001c-15.333 -83.333 -52.666 -157 -111.999 -221l90 -90l-88 -78l-76 107c-74.667 -50.667 -153.667 -76 -237 -76zM314.997 614c-4 -20.667 -6 -40.334 -6 -59.001
c0 -62.667 17.833 -114.167 53.5 -154.5s84.167 -60.5 145.5 -60.5c68 0 129 26.667 183 80s88 117.333 102 192c2.66699 24.667 4 43.334 4 56.001c0 62.667 -17.833 114.5 -53.5 155.5s-81.5 61.5 -137.5 61.5c-69.333 0 -131.833 -26.667 -187.5 -80
s-90.167 -117 -103.5 -191z" />
    <glyph glyph-name="yen" unicode="&#xa5;" horiz-adv-x="897" 
d="M895 340l-16.0029 -80h-294l-22 -113c-6.66699 -31.333 -2.5 -54.166 12.5 -68.499s42.167 -21.5 81.5 -21.5h56c10.667 0 14.667 -5.33301 12 -16l-6 -39l-6 -4c-117.333 2.66699 -202.666 4 -255.999 4l-267 -4l-2 4l7 39c2.66699 10.667 9.33398 16 20.001 16h53
c75.333 0 118.333 30 129 90l22 113h-269l16 80h269l25 129h-270l17 82h257l-136 475c-9.33301 32.667 -20.333 56.5 -33 71.5s-31.667 22.5 -57 22.5h-15c-12 4 -17.333 9.66699 -16 17l6 37l4 4c22 -4 84 -6.33301 186 -7c88.667 0 148.334 2.33301 179.001 7l2 -4l-6 -35
c-2.66699 -12 -9 -18.333 -19 -19h-27c-32.667 0 -51 -8.66699 -55 -26c-1.33301 -8 2 -29.333 10 -64l123 -436l277 436c20.667 36.667 31.667 58.667 33 66c2.66699 9.33301 0.166992 16 -7.5 20s-20.5 6 -38.5 6h-30c-9.33301 0 -12.666 5 -9.99902 15l8 37l2 4
c32.667 -4 86 -6.33301 160 -7c60 0 109 2.33301 147 7l4 -4l-6 -35c-2.66699 -10.667 -10.334 -16.334 -23.001 -17.001h-14c-54.667 0 -101.667 -32 -141 -96l-304 -475h269l-16 -82h-294l-25 -129h294z" />
    <glyph glyph-name="brokenbar" unicode="&#xa6;" horiz-adv-x="419" 
d="M324 330l-131 -742h-101l131 742h101zM510 1380l-131 -741h-100l131 741h100z" />
    <glyph glyph-name="section" unicode="&#xa7;" horiz-adv-x="968" 
d="M442 852c-38.667 52.667 -58.001 107.993 -58.001 165.993c0 92 32.5 170 97.5 234s155.167 96 270.5 96c82 0 145.833 -18.833 191.5 -56.5s68.5 -78.834 68.5 -123.501c0 -70 -28.667 -105 -86 -105c-45.333 0 -69.333 28 -72 84
c-2.66699 45.333 -11.5 79.5 -26.5 102.5s-43.167 34.5 -84.5 34.5c-57.333 0 -106 -17.5 -146 -52.5s-60 -81.833 -60 -140.5c0 -39.333 11.667 -78.166 35 -116.499s58.666 -71.833 105.999 -100.5c5.33301 -3.33301 21 -12.5 47 -27.5s43.333 -25.333 52 -31l47 -32
c22.667 -15.667 38.667 -28.5 48 -38.5l38 -41.5c16 -17.667 27.333 -34.5 34 -50.5s12.834 -35 18.501 -57s8.5 -44.667 8.5 -68c0 -25.333 -2.66699 -51.166 -8 -77.499s-15.166 -57.166 -29.499 -92.499s-37.833 -71.666 -70.5 -108.999s-72.334 -72 -119.001 -104
c34.667 -45.333 52 -94.666 52 -147.999c0 -102 -36.5 -185.667 -109.5 -251s-163.167 -98 -270.5 -98c-81.333 0 -143.166 18.5 -185.499 55.5s-63.5 78.5 -63.5 124.5c0 26.667 7.16699 50.667 21.5 72s38.166 32 71.499 32c40.667 0 62.667 -28 66 -84
c2.66699 -45.333 10.834 -79.5 24.501 -102.5s40.834 -34.5 81.501 -34.5c56.667 0 105.834 20.833 147.501 62.5s62.5 92.5 62.5 152.5c0 74 -46 139 -138 195c-5.33301 3.33301 -21 12.5 -47 27.5s-43.5 25.333 -52.5 31s-24.667 16.334 -47 32.001s-38.333 28.5 -48 38.5
s-22.334 24 -38.001 42s-26.834 35 -33.501 51s-13 34.833 -19 56.5s-9 44.167 -9 67.5c0 24.667 2.83301 50.334 8.5 77.001s16 57.667 31 93s39 71.833 72 109.5s73.167 72.834 120.5 105.501zM703.999 188.993c42.667 30 75.499 62.167 98.499 96.5s34.5 77.5 34.5 129.5
c0 32.667 -5.5 62.667 -16.5 90s-29 53.166 -54 77.499s-46.833 43.5 -65.5 57.5s-46 33 -82 57c-6.66699 4.66699 -11.667 8 -15 10c-50 32.667 -91.333 66 -124 100c-30 -22 -53.167 -40.833 -69.5 -56.5s-31.666 -38.5 -45.999 -68.5s-21.5 -64 -21.5 -102
c0 -32.667 5.5 -62.5 16.5 -89.5s29 -52.667 54 -77s46.667 -43.5 65 -57.5s45.5 -33 81.5 -57c6.66699 -4.66699 11.667 -8 15 -10c54 -35.333 97 -68.666 129 -99.999z" />
    <glyph glyph-name="dieresis" unicode="&#xa8;" horiz-adv-x="768" 
d="M428 1266c22 0 40.5 -7.16699 55.5 -21.5s22.5 -32.5 22.5 -54.5c0 -31.333 -12 -57.666 -36 -78.999s-49 -32 -75 -32c-23.333 0 -42.166 7.16699 -56.499 21.5s-21.5 33.166 -21.5 56.499c0 30 11.667 55.667 35 77s48.666 32 75.999 32zM758 1268
c22 0 40.5 -7.49902 55.5 -22.499s22.5 -33.5 22.5 -55.5c0 -30 -11.667 -55.667 -35 -77s-48.666 -32 -75.999 -32c-22 0 -40.5 7.16699 -55.5 21.5s-22.5 32.5 -22.5 54.5c0 31.333 11.667 57.666 35 78.999s48.666 32 75.999 32z" />
    <glyph glyph-name="copyright" unicode="&#xa9;" horiz-adv-x="1296" 
d="M895 444c-23.333 -36.667 -55.499 -67.668 -96.499 -93.001s-87.5 -38 -139.5 -38c-94 0 -170 31.167 -228 93.5s-87 136.5 -87 222.5c0 79.333 28.667 150 86 212s131.666 93 222.999 93c53.333 0 97.833 -4.83301 133.5 -14.5s61.5 -14.5 77.5 -14.5l25 -160l-55 -8
c-5.33301 28.667 -10.166 49.834 -14.499 63.501s-12.333 28.667 -24 45s-29 28 -52 35s-52.5 10.5 -88.5 10.5c-49.333 0 -94.333 -20.5 -135 -61.5s-61 -109.167 -61 -204.5c0 -72.667 17.667 -133.5 53 -182.5s86.666 -73.5 153.999 -73.5
c76.667 0 138.667 34.667 186 104zM649.501 46.999c-159.667 0 -296.167 56.667 -409.5 170s-170 249.833 -170 409.5s56.667 295.834 170 408.501s249.833 169 409.5 169s295.834 -56.333 408.501 -169s169 -248.834 169 -408.501s-56.333 -296.167 -169 -409.5
s-248.834 -170 -408.501 -170zM649.001 1141c-143.333 0 -265.166 -50.167 -365.499 -150.5s-150.5 -221.5 -150.5 -363.5s50.167 -263.167 150.5 -363.5s222.166 -150.5 365.499 -150.5c142 0 263.167 50.167 363.5 150.5s150.5 221.5 150.5 363.5
s-50.167 263.167 -150.5 363.5s-221.5 150.5 -363.5 150.5z" />
    <glyph glyph-name="ordfeminine" unicode="&#xaa;" horiz-adv-x="565" 
d="M598 1028c-84.667 -22 -144.333 -43.5 -179 -64.5s-56.334 -47.833 -65.001 -80.5c-1.33301 -6.66699 -2 -15.667 -2 -27c0 -38 23.333 -57 70 -57c32.667 0 78.334 22.333 137.001 67zM610.001 733c-20.667 0 -36.3311 7.16992 -46.998 21.5029s-16 31.166 -16 50.499
c0 4 0.666992 6.66699 2 8c-40.667 -31.333 -73.334 -52.5 -98.001 -63.5s-52 -16.5 -82 -16.5c-35.333 0 -64 10 -86 30s-33 46.333 -33 79c0 6.66699 1.33301 18.334 4 35.001c19.333 82 98.666 140.667 237.999 176l118 30c6.66699 27.333 10.334 54.666 11.001 81.999
c0 58.667 -24.667 88 -74 88c-70.667 0 -109.667 -18.333 -117 -55c-2.66699 -10.667 -4 -17.334 -4 -20.001v-7c1.33301 -1.33301 2 -4 2 -8c0 -6.66699 -0.666992 -12 -2 -16c-2.66699 -9.33301 -9.16699 -18.833 -19.5 -28.5s-23.5 -14.5 -39.5 -14.5
c-27.333 0 -41 12.333 -41 37c0 1.33301 0.333008 3.66602 1 6.99902s1 5.66602 1 6.99902c8 38 37.667 72.5 89 103.5s98.666 46.5 141.999 46.5c106.667 0 160 -50 160 -150c0 -28.667 -3.33301 -56.667 -10 -84l-35 -153c-9.33301 -39.333 -14.333 -69.666 -15 -90.999
c0 -18 5 -26.667 15 -26c6.66699 0 14.667 3.33301 24 10l11 -33c-30.667 -30 -63.667 -45 -99 -45z" />
    <glyph glyph-name="guillemotleft" unicode="&#xab;" horiz-adv-x="950" 
d="M354 440c62.667 -78 127.667 -192.666 195 -343.999l-70 -49c-95.333 154 -182 268.667 -260 344c-15.333 15.333 -27 26.333 -35 33l6 33l50 32c117.333 82 253 197 407 345l47 -50c-138 -158.667 -251.333 -273.334 -340 -344.001zM688 440.001
c62.667 -78 127.667 -192.666 195 -343.999l-68 -49c-95.333 154 -182 268.667 -260 344c-15.333 15.333 -27 26.333 -35 33l6 33l49 32c117.333 82 253.333 197 408 345l45 -50c-138 -158.667 -251.333 -273.334 -340 -344.001z" />
    <glyph glyph-name="logicalnot" unicode="&#xac;" horiz-adv-x="1146" 
d="M1038 272l80 459h-940l17 90h1048l-96 -549h-109z" />
    <glyph glyph-name="uni00AD" unicode="&#xad;" horiz-adv-x="716" 
d="M647 483h-465c-16.667 0 -24.667 9.66699 -24 29c1.33301 2.66699 2 4.66699 2 6c2.66699 16.667 11.167 33.5 25.5 50.5s26.833 25.5 37.5 25.5h469c15.333 0 23 -8.33301 23 -25v-12c-2.66699 -12 -11.667 -27.333 -27 -46s-29 -28 -41 -28z" />
    <glyph glyph-name="registered" unicode="&#xae;" horiz-adv-x="1296" 
d="M854 762c0 -31.333 -9.83105 -59.999 -29.498 -85.999s-39.167 -44 -58.5 -54l-29 -16l99 -168c24.667 -42 52 -63 82 -63v-27c-18 -5.33301 -34 -8 -48 -8c-60 0 -102.333 26 -127 78l-98 162c-6.66699 5.33301 -25 8 -55 8v-195c0 -10.667 4.66699 -16 14 -16h25
c15.333 0 22.666 -4 21.999 -12v-23c-57.333 2.66699 -95.333 4 -114 4l-113 -4v25c0 6.66699 6.66699 10 20 10h25c10.667 0 16 5.33301 16 16v457c0 15.333 -2.66699 22.666 -8 21.999l-33 -2c-13.333 1.33301 -20 5.66602 -20 12.999v22c48 6.66699 126.333 10 235 10
c69.333 0 119.166 -15.667 149.499 -47s45.5 -66.666 45.5 -105.999zM752.002 762.001c0 35.333 -8.99805 64.001 -26.998 86.001s-44 33 -78 33c-18 0 -37 -2.33301 -57 -7v-243c22 0 40.167 1 54.5 3s30.666 6.66699 48.999 14s32.666 20.666 42.999 39.999
s15.5 44 15.5 74zM649.504 47.002c-159.667 0 -296.167 56.667 -409.5 170s-170 249.833 -170 409.5s56.667 295.834 170 408.501s249.833 169 409.5 169s295.834 -56.333 408.501 -169s169 -248.834 169 -408.501s-56.333 -296.167 -169 -409.5
s-248.834 -170 -408.501 -170zM649.004 1141c-143.333 0 -265.166 -50.167 -365.499 -150.5s-150.5 -221.5 -150.5 -363.5s50.167 -263.167 150.5 -363.5s222.166 -150.5 365.499 -150.5c142 0 263.167 50.167 363.5 150.5s150.5 221.5 150.5 363.5
s-50.167 263.167 -150.5 363.5s-221.5 150.5 -363.5 150.5z" />
    <glyph glyph-name="macron" unicode="&#xaf;" horiz-adv-x="813" 
d="M838 1083h-502c-13.333 0 -20.333 7.66699 -21 23c0 2.66699 0.666992 5.33398 2 8.00098c2.66699 13.333 9.5 26.666 20.5 39.999s22.833 20 35.5 20h499c16.667 0 25 -7.66699 25 -23v-6c-2.66699 -12 -10.167 -25.333 -22.5 -40s-24.5 -22 -36.5 -22z" />
    <glyph glyph-name="degree" unicode="&#xb0;" horiz-adv-x="546" 
d="M285 1214c9.33301 56 37.5 103.833 84.5 143.5s98.5 59.5 154.5 59.5c49.333 0 90 -15.667 122 -47s48 -71.666 48 -120.999c0 -15.333 -0.666992 -27 -2 -35c-10.667 -56 -39.167 -104 -85.5 -144s-97.5 -60 -153.5 -60c-50.667 0 -92 15.667 -124 47
s-48 71.666 -48 120.999c0 7.33301 1.33301 19.333 4 36zM625 1212c0 2.66699 0.333984 7.16602 1.00098 13.499s1 10.833 1 13.5c0 32.667 -9.66699 61.334 -29 86.001s-47.333 37 -84 37c-40.667 0 -76.167 -15 -106.5 -45s-48.833 -65 -55.5 -105
c-2.66699 -13.333 -4 -22.666 -4 -27.999c0 -32.667 10.333 -60.334 31 -83.001s48.667 -34 84 -34c39.333 0 74.166 14.667 104.499 44s49.5 63 57.5 101z" />
    <glyph glyph-name="plusminus" unicode="&#xb1;" horiz-adv-x="1079" 
d="M969 137l-19 -100h-809l19 100h809zM715 698h352l-16 -100h-355l-61 -354h-103l64 354h-356l18 100h354l64 357h100z" />
    <glyph glyph-name="two.superior" unicode="&#xb2;" horiz-adv-x="628" 
d="M385 1202c-12 0 -22.834 4.16602 -32.501 12.499s-14.5 17.833 -14.5 28.5c0 4 0.666992 6.66699 2 8c6.66699 35.333 31.834 70.5 75.501 105.5s101.834 52.5 174.501 52.5c53.333 0 98.333 -10.5 135 -31.5s55 -54.833 55 -101.5
c0 -15.333 -1.33301 -27.666 -4 -36.999c-8 -44 -30.167 -84.333 -66.5 -121s-90.5 -77.667 -162.5 -123c-102.667 -64 -159.334 -125.333 -170.001 -184h166c46.667 0 94.334 45.667 143.001 137l47 -10c-27.333 -60 -52 -124.333 -74 -193h-421
c13.333 75.333 91.666 162.333 234.999 261c60 40.667 103 76.334 129 107.001s43.667 72 53 124c2.66699 13.333 4 23.666 4 30.999c0 31.333 -9.16699 54.5 -27.5 69.5s-38.5 22.5 -60.5 22.5c-75.333 0 -115.333 -20 -120 -60
c-1.33301 -6.66699 -1.66602 -15 -0.999023 -25s0.333984 -18 -0.999023 -24c-2.66699 -15.333 -11.334 -27.333 -26.001 -36s-27.334 -13 -38.001 -13z" />
    <glyph glyph-name="three.superior" unicode="&#xb3;" horiz-adv-x="628" 
d="M635 1278c0 2.66699 0.335938 6.33301 1.00293 11s1 8.33398 1 11.001c0 39.333 -23.333 59.333 -70 60c-26 0 -52.167 -6.16699 -78.5 -18.5s-42.5 -30.166 -48.5 -53.499c-9.33301 -39.333 -30.333 -59 -63 -59c-27.333 0 -41 12.333 -41 37
c4 27.333 29.833 58 77.5 92s110.5 51 188.5 51c48 0 85.333 -8.5 112 -25.5s40 -41.167 40 -72.5c0 -9.33301 -0.666992 -17 -2 -23c-10.667 -54.667 -54.334 -101 -131.001 -139c34 -4 64.667 -18 92 -42s41 -57.667 41 -101c0 -8 -1.33301 -20.333 -4 -37
c-13.333 -69.333 -53.333 -126 -120 -170s-141.334 -66 -224.001 -66c-39.333 0 -77.5 7.16699 -114.5 21.5s-55.5 31.166 -55.5 50.499c0 12 6.66699 22.5 20 31.5s26.333 13.5 39 13.5c18 0 33.667 -9.66699 47 -29c15.333 -24.667 46.666 -37 93.999 -37
c32.667 0 69.5 12.667 110.5 38s67.833 68.666 80.5 129.999c1.33301 8 2 18.333 2 31c0 66.667 -45.667 100 -137 100c-6.66699 0 -21 -1.33301 -43 -4l6 49c48 6.66699 88 23.167 120 49.5s52 59.833 60 100.5z" />
    <glyph glyph-name="acute" unicode="&#xb4;" horiz-adv-x="698" 
d="M612 1440c8 2.66699 18.334 3.99902 31.001 3.99902c40.667 0 71.334 -12.333 92.001 -37c5.33301 -5.33301 9.66602 -8.66602 12.999 -9.99902v-23l-275 -223c-32.667 -27.333 -54.334 -41 -65.001 -41c-16.667 0 -25 7.5 -25 22.5s6.66699 31.5 20 49.5z" />
    <glyph glyph-name="uni00B5" unicode="&#xb5;" horiz-adv-x="993" 
d="M276 731c2.66699 9.33301 5.83496 24.6631 9.50195 45.9961s6.83398 37.5 9.50098 48.5s7 23 13 36s14.167 22.5 24.5 28.5s23.166 9 38.499 9c57.333 0 86 -18.333 86 -55c0 -2.66699 -9 -43.667 -27 -123l-96 -420c-34 -146 -4.66699 -219 88 -219
c45.333 0 95.5 34.5 150.5 103.5s124.833 175.833 209.5 320.5l60 225c2.66699 10.667 6.66699 29.667 12 57s9.66602 46.833 12.999 58.5s11.166 23.334 23.499 35.001s27.5 17.5 45.5 17.5c57.333 0 86 -18.333 86 -55c0 -6.66699 -1.66699 -17.667 -5 -33
s-7.5 -32.166 -12.5 -50.499s-8.16699 -31.5 -9.5 -39.5l-114 -467c-15.333 -65.333 -23 -104.333 -23 -117c0 -23.333 7 -35 21 -35c10.667 0 29 10 55 30s52 44.333 78 73c23.333 0 39 -11.667 47 -35c-100 -126.667 -195 -190 -285 -190c-50.667 0 -76 22.333 -76 67
c0 44 11.667 107 35 189l23 79l-6 4c-83.333 -121.333 -153.666 -208.166 -210.999 -260.499s-123 -78.5 -197 -78.5c-38 0 -66.667 15.667 -86 47c-16.667 0 -26.334 -6.33301 -29.001 -19c-9.33301 -39.333 -14 -90.333 -14 -153c0 -15.333 0.333008 -36.666 1 -63.999
s1 -47 1 -59c0 -78 -12.333 -132.667 -37 -164s-52.667 -47 -84 -47c-16.667 0 -34.167 9.83301 -52.5 29.5s-27.5 44.5 -27.5 74.5c0 27.333 16.5 84 49.5 170s54.167 149 63.5 189c4 16.667 10.5 58 19.5 124s18.167 121.333 27.5 166z" />
    <glyph glyph-name="paragraph" unicode="&#xb6;" horiz-adv-x="1232" 
d="M758 -424c27.333 0 46.835 9.16895 58.502 27.502s22.167 51.5 31.5 99.5l254 1436c4 28.667 6 51 6 67c0 23.333 -3.83301 38.166 -11.5 44.499s-18.834 10.166 -33.501 11.499c-20.667 0 -37.834 -7.16699 -51.501 -21.5s-22.5 -29 -26.5 -44s-8 -36.167 -12 -63.5
l-252 -1426c-4 -20.667 -6 -41.667 -6 -63c0 -45.333 14.333 -68 43 -68zM969.002 -294.998c-5.33301 -27.333 -7.99902 -51.333 -7.99902 -72c0 -22 4.66699 -36.333 14 -43s26.333 -10.667 51 -12h61c8 0 11 -4.66699 9 -14l-9 -43h-671l8 43c1.33301 9.33301 6 14 14 14
h60c34 1.33301 57.167 9.83301 69.5 25.5s23.166 50.167 32.499 103.5l133 758c-35.333 -16.667 -89.333 -25 -162 -25c-32.667 0 -64.667 3.16699 -96 9.5s-63.666 18 -96.999 35s-62.333 38.167 -87 63.5s-45.167 58.833 -61.5 100.5s-24.5 88.167 -24.5 139.5
c0 39.333 2.66699 76.333 8 111c23.333 130 77.666 233.167 162.999 309.5s195 114.5 329 114.5c60 0 127.5 -1.66699 202.5 -5s117.833 -5 128.5 -5l144 6l227 4l-8 -43c-2.66699 -9.33301 -7.66699 -14 -15 -14h-61c-34 0 -57.5 -8.66699 -70.5 -26s-23.5 -51 -31.5 -101z
" />
    <glyph glyph-name="periodcentered" unicode="&#xb7;" horiz-adv-x="512" 
d="M365 408c-28.667 0 -54.334 11.167 -77.001 33.5s-34 47.833 -34 76.5s11.333 54.334 34 77.001s48.334 34 77.001 34s54.167 -11.333 76.5 -34s33.5 -48.334 33.5 -77.001s-11.167 -54.167 -33.5 -76.5s-47.833 -33.5 -76.5 -33.5z" />
    <glyph glyph-name="cedilla" unicode="&#xb8;" horiz-adv-x="1107" 
d="M563 -164c-28.667 0 -59.999 -3.99902 -93.999 -11.999l-10 12l121 178h69l-76 -118c16.667 4 34.667 6 54 6c35.333 0 64.333 -8.16699 87 -24.5s34 -40.5 34 -72.5c0 -50.667 -25 -92.667 -75 -126s-110.333 -50 -181 -50c-48 0 -96.667 11.667 -146 35l29 37
c39.333 -13.333 77.333 -20 114 -20c38 0 71.833 9.16699 101.5 27.5s44.5 43.166 44.5 74.499c0 16.667 -6.83301 29.667 -20.5 39s-30.834 14 -51.501 14z" />
    <glyph glyph-name="one.superior" unicode="&#xb9;" horiz-adv-x="628" 
d="M508 1272c-31.333 0 -72.332 -10.999 -122.999 -32.999l-8 55c90 31.333 176.667 69.666 260 114.999h33l-105 -535c-5.33301 -22 -4.16602 -40 3.50098 -54s18.834 -21 33.501 -21h57c8 0 11.667 -3.66699 11 -11l-8 -43c-70.667 1.33301 -129.667 2.33301 -177 3
l-200 -3l8 43c4 6.66699 9.33301 10.334 16 11.001h74c16.667 0 32.5 7.16699 47.5 21.5s25.167 32.166 30.5 53.499l59 312c2.66699 18 4.66699 32 6 42s1.66602 18.5 0.999023 25.5s-2.33398 11.833 -5.00098 14.5s-7.33398 4 -14.001 4z" />
    <glyph glyph-name="ordmasculine" unicode="&#xba;" horiz-adv-x="714" 
d="M252 879c16.667 87.333 54.998 155.832 114.998 205.499s133.667 74.5 221 74.5c94 0 158.5 -25.5 193.5 -76.5s44.833 -114.833 29.5 -191.5c-15.333 -75.333 -52.666 -139.166 -111.999 -191.499s-134.666 -78.5 -225.999 -78.5c-76.667 0 -136.5 24.5 -179.5 73.5
s-56.833 110.5 -41.5 184.5zM564.998 1108c-49.333 0 -90.999 -20.166 -124.999 -60.499s-56.333 -89.833 -67 -148.5c-10.667 -57.333 -5.5 -108.5 15.5 -153.5s60.167 -67.5 117.5 -67.5c38 0 74.833 13.667 110.5 41s59.5 73.666 71.5 138.999
c15.333 80.667 11.666 142.5 -11.001 185.5s-60 64.5 -112 64.5z" />
    <glyph glyph-name="guillemotright" unicode="&#xbb;" horiz-adv-x="950" 
d="M799 440c-62.667 78 -127.667 192.666 -195 343.999l70 50c95.333 -154 182 -269 260 -345c15.333 -15.333 27 -26 35 -32l-6 -33l-50 -33c-117.333 -82 -253 -196.667 -407 -344l-47 49c138 158.667 251.333 273.334 340 344.001zM465 439.999
c-62.667 78 -127.667 192.666 -195 343.999l68 50c95.333 -154 182 -269 260 -345c15.333 -15.333 27 -26 35 -32l-6 -33l-49 -33c-117.333 -82 -253.333 -196.667 -408 -344l-45 49c138 158.667 251.333 273.334 340 344.001z" />
    <glyph glyph-name="onequarter" unicode="&#xbc;" horiz-adv-x="1351" 
d="M1284 1108l84 -16l-1081 -1178l-86 16zM502 1171c-31.333 0 -72.3291 -10.667 -122.996 -32l-8 55c90 31.333 176.667 69.666 260 114.999h33l-105 -535c-5.33301 -22 -4.33301 -40.167 3 -54.5s18.666 -21.5 33.999 -21.5h57c8 0 11.667 -3.33301 11 -10l-9 -43
c-70.667 1.33301 -129.334 2 -176.001 2l-200 -2l8 43c2.66699 6.66699 8 10 16 10h74c16.667 0 32.334 7.16699 47.001 21.5s25 32.5 31 54.5l59 311c2.66699 18 4.66699 32.167 6 42.5s1.66602 18.833 0.999023 25.5s-2.33398 11.334 -5.00098 14.001
s-7.33398 4 -14.001 4zM1155 393c-150 -147.333 -238 -243 -264 -287h201zM1065 -12l10.0049 49h-241c-24.667 0 -37.334 8 -38.001 24c0 8 3.66699 19 11 33c10.667 16.667 19.667 28.334 27 35.001c60 72.667 158.667 173 296 301c31.333 28.667 60.333 50 87 64
c1.33301 1.33301 10.666 2 27.999 2c5.33301 0 10.5 -0.333008 15.5 -1s9.83301 -2.83398 14.5 -6.50098s6.33398 -8.16699 5.00098 -13.5l-82 -369h115l-29 -69h-102l-11 -49c-8 -35.333 -5.83301 -59.166 6.5 -71.499s38.166 -19.833 77.499 -22.5
c5.33301 -22 0.666016 -42 -14.001 -60c-40.667 1.33301 -93.334 2 -158.001 2c-66.667 0 -120.334 -0.666992 -161.001 -2c-2.66699 5.33301 -2.66699 14.5 0 27.5s7.33398 23.833 14.001 32.5c45.333 2.66699 76.166 9.16699 92.499 19.5s28.5 35.166 36.5 74.499z" />
    <glyph glyph-name="onehalf" unicode="&#xbd;" horiz-adv-x="1351" 
d="M1243 1108l84 -16l-1081 -1178l-86 16zM506 1171c-31.333 0 -72.3311 -10.667 -122.998 -32l-8 55c90 31.333 176.667 69.666 260 114.999h33l-105 -535c-5.33301 -22 -4.16602 -40.167 3.50098 -54.5s18.834 -21.5 33.501 -21.5h57c8 0 11.667 -3.33301 11 -10l-9 -43
c-70.667 1.33301 -129.334 2 -176.001 2l-200 -2l8 43c2.66699 6.66699 8 10 16 10h74c16.667 0 32.5 7.16699 47.5 21.5s25.167 32.5 30.5 54.5l59 311c2.66699 18 4.66699 32.167 6 42.5s1.66602 18.833 0.999023 25.5s-2.33398 11.334 -5.00098 14.001
s-7.33398 4 -14.001 4zM954.002 295c-12 0 -22.833 3.99902 -32.5 11.999s-14.5 17.667 -14.5 29c0 4 0.666992 6.66699 2 8c6.66699 35.333 32 70.5 76 105.5s102 52.5 174 52.5c53.333 0 98.5 -10.667 135.5 -32s55.5 -55 55.5 -101
c0 -15.333 -1.33301 -27.666 -4 -36.999c-8 -44 -30.167 -84.333 -66.5 -121s-90.833 -77.667 -163.5 -123c-102.667 -64 -159.334 -125.333 -170.001 -184h166c46.667 0 94.334 45.667 143.001 137l48 -10c-27.333 -60 -52 -124.333 -74 -193h-422
c13.333 75.333 91.666 162 234.999 260c60 40.667 103 76.5 129 107.5s44 72.5 54 124.5c2.66699 13.333 4 23.333 4 30c0 31.333 -9.16699 54.666 -27.5 69.999s-38.5 23 -60.5 23c-75.333 0 -115.666 -20 -120.999 -60
c-1.33301 -6.66699 -1.66602 -15.167 -0.999023 -25.5s0.333984 -18.166 -0.999023 -23.499c-2.66699 -15.333 -11.334 -27.333 -26.001 -36s-27.334 -13 -38.001 -13z" />
    <glyph glyph-name="threequarters" unicode="&#xbe;" horiz-adv-x="1351" 
d="M1284 1108l84 -16l-1081 -1178l-86 16zM1102 397c-150 -147.333 -238 -242.667 -264 -286h200zM1012 -8.00098l10.0029 49h-242c-24.667 0 -37 8 -37 24c0 8 3.66699 19 11 33c10.667 16.667 19.334 28.334 26.001 35.001c60 72.667 159 173 297 301
c31.333 28.667 60 50 86 64c1.33301 1.33301 11 2 29 2c5.33301 0 10.333 -0.333008 15 -1s9.5 -2.83398 14.5 -6.50098s6.83301 -8.16699 5.5 -13.5l-82 -368h115l-29 -70h-103l-10 -49c-8 -35.333 -5.83301 -59.166 6.5 -71.499s38.166 -19.833 77.499 -22.5
c5.33301 -22 0.666016 -42 -14.001 -60c-40.667 1.33301 -93.334 2 -158.001 2c-66.667 0 -120.667 -0.666992 -162 -2c-2.66699 5.33301 -2.66699 14.5 0 27.5s7.66699 23.833 15 32.5c45.333 2.66699 76.166 9.16699 92.499 19.5s28.5 35.166 36.5 74.499zM631.003 1174
c0 2.66699 0.331055 6.33301 0.998047 11s1 8.33398 1 11.001c0 39.333 -23.333 59 -70 59c-26 0 -52.333 -6 -79 -18s-42.667 -29.667 -48 -53c-9.33301 -39.333 -30.333 -59.333 -63 -60c-27.333 0 -41 12.333 -41 37c4 27.333 29.833 58.166 77.5 92.499
s110.5 51.5 188.5 51.5c48 0 85.333 -8.66699 112 -26s40 -41.666 40 -72.999c0 -9.33301 -0.666992 -16.666 -2 -21.999c-10.667 -54.667 -54.667 -101.334 -132 -140.001c34 -4 64.833 -17.833 92.5 -41.5s41.5 -57.5 41.5 -101.5c0 -8 -1.66699 -20.333 -5 -37
c-13.333 -69.333 -53.166 -125.833 -119.499 -169.5s-141.166 -65.5 -224.499 -65.5c-39.333 0 -77.5 7.16699 -114.5 21.5s-55.5 30.833 -55.5 49.5c0 12 6.83301 22.5 20.5 31.5s26.834 13.5 39.501 13.5c18 0 33.667 -9.33301 47 -28
c15.333 -24.667 46.666 -37 93.999 -37c32.667 0 69.5 12.667 110.5 38s67.833 68.666 80.5 129.999c1.33301 8 2 18.333 2 31c0 66.667 -46 100 -138 100c-6.66699 0 -21 -1.33301 -43 -4l7 49c48 6.66699 88 23.167 120 49.5s52 59.833 60 100.5z" />
    <glyph glyph-name="questiondown" unicode="&#xbf;" horiz-adv-x="829" 
d="M715 813c-5.33301 -30 -20.668 -55.5 -46.001 -76.5s-53 -31.5 -83 -31.5c-26 0 -47.833 8.5 -65.5 25.5s-26.5 38.5 -26.5 64.5c0 2.66699 0.333008 6 1 10s1 6.66699 1 8c6.66699 30 22.334 55.667 47.001 77s52 32 82 32c26 0 47.833 -8.66699 65.5 -26
s26.5 -38 26.5 -62c0 -2.66699 -0.333008 -6.5 -1 -11.5s-1 -8.16699 -1 -9.5zM583.998 -279c4 23.333 2.66602 41.3281 -4.00098 53.9951c-5.33301 12 -7 28.333 -5 49c4 22 15.333 39.5 34 52.5s39 19.5 61 19.5c46.667 0 69.667 -22 69 -66
c0 -1.33301 -0.333008 -4.66602 -1 -9.99902s-1 -9.66602 -1 -12.999c-12 -68 -57 -129.333 -135 -184c-72.667 -53.333 -162 -80 -268 -80c-91.333 0 -162.666 22.167 -213.999 66.5s-77 104.166 -77 179.499c0 8 1 19.833 3 35.5s3 25.167 3 28.5
c8 50.667 29.167 98.334 63.5 143.001s65.5 78 93.5 100s67.333 50 118 84c65.333 42 107 76.333 125 103c35.333 49.333 57 99 65 149l16 90c1.33301 13.333 11 20.333 29 21c16.667 0 23 -7 19 -21l-17 -94c-6.66699 -39.333 -13.834 -72.666 -21.501 -99.999
s-26.167 -63.166 -55.5 -107.499s-67.666 -85.166 -114.999 -122.499c-96.667 -78 -152 -157 -166 -237c-2.66699 -24.667 -4 -42.667 -4 -54c0 -57.333 15.333 -105.333 46 -144s70.667 -58 120 -58c57.333 0 106.833 11.5 148.5 34.5s65.167 50.167 70.5 81.5z" />
    <glyph glyph-name="Agrave" unicode="&#xc0;" horiz-adv-x="1366" 
d="M1225 1475c0 -26 -13 -39 -39 -39c-18 0 -45.333 8 -82 24l-289 129l178 92l209 -172c15.333 -12 23 -23.333 23 -34zM629 580h342l-84 546h-4l-297 -520c-3.33301 -4.66699 -5 -8.66699 -5 -12c0 -9.33301 16 -14 48 -14zM330 162c-10 -16.667 -15 -32.6689 -15 -48.002
c0 -32.667 24.667 -51 74 -55l55 -4c9.33301 0 13.666 -5.33301 12.999 -16l-4 -39l-7 -4c-95.333 2.66699 -180.666 4 -255.999 4c-23.333 0 -84 -1.33301 -182 -4l-2 4l6 39c1.33301 10.667 7.66602 16 18.999 16c48 2.66699 87.667 14.334 119 35.001
s64.666 60.334 99.999 119.001l645 1065c28.667 49.333 55.334 74 80.001 74c13.333 0 22.5 -4.83301 27.5 -14.5s9.5 -25.5 13.5 -47.5l188 -1110c5.33301 -39.333 17.333 -68 36 -86s47.667 -29 87 -33l21 -2c12 0 17.333 -5.33301 16 -16l-4 -39l-4 -4
c-95.333 2.66699 -172.666 4 -231.999 4c-75.333 0 -162 -1.33301 -260 -4l-2 4l4 39c1.33301 10.667 7 16 17 16l57 4c66.667 5.33301 100 28.333 100 69c0 6 -0.666992 12.333 -2 19l-51 347h-409c-38 0 -63.333 -11.667 -76 -35z" />
    <glyph glyph-name="Aacute" unicode="&#xc1;" horiz-adv-x="1366" 
d="M811 1436c-16.667 0 -25.001 7.33301 -25.001 22c0 16.667 14.333 33.667 43 51l289 172l133 -92l-346 -129c-49.333 -16 -80.666 -24 -93.999 -24zM628.999 580h342l-84 546h-4l-297 -520c-3.33301 -4.66699 -5 -8.66699 -5 -12c0 -9.33301 16 -14 48 -14zM329.999 162
c-10 -16.667 -15 -32.6689 -15 -48.002c0 -32.667 24.667 -51 74 -55l55 -4c9.33301 0 13.666 -5.33301 12.999 -16l-4 -39l-7 -4c-95.333 2.66699 -180.666 4 -255.999 4c-23.333 0 -84 -1.33301 -182 -4l-2 4l6 39c1.33301 10.667 7.66602 16 18.999 16
c48 2.66699 87.667 14.334 119 35.001s64.666 60.334 99.999 119.001l645 1065c28.667 49.333 55.334 74 80.001 74c13.333 0 22.5 -4.83301 27.5 -14.5s9.5 -25.5 13.5 -47.5l188 -1110c5.33301 -39.333 17.333 -68 36 -86s47.667 -29 87 -33l21 -2
c12 0 17.333 -5.33301 16 -16l-4 -39l-4 -4c-95.333 2.66699 -172.666 4 -231.999 4c-75.333 0 -162 -1.33301 -260 -4l-2 4l4 39c1.33301 10.667 7 16 17 16l57 4c66.667 5.33301 100 28.333 100 69c0 6 -0.666992 12.333 -2 19l-51 347h-409
c-38 0 -63.333 -11.667 -76 -35z" />
    <glyph glyph-name="Acircumflex" unicode="&#xc2;" horiz-adv-x="1366" 
d="M1098 1671c40.667 -69.333 94.666 -133.332 161.999 -191.999l-43 -43c-76.667 39.333 -139.667 81.666 -189 126.999c-79.333 -50.667 -162 -93 -248 -127l-18 43c80.667 52 163.334 116 248.001 192h88zM628.999 580.001h342l-84 546h-4l-297 -520
c-3.33301 -4.66699 -5 -8.66699 -5 -12c0 -9.33301 16 -14 48 -14zM329.999 162.001c-10 -16.667 -15 -32.6689 -15 -48.002c0 -32.667 24.667 -51 74 -55l55 -4c9.33301 0 13.666 -5.33301 12.999 -16l-4 -39l-7 -4c-95.333 2.66699 -180.666 4 -255.999 4
c-23.333 0 -84 -1.33301 -182 -4l-2 4l6 39c1.33301 10.667 7.66602 16 18.999 16c48 2.66699 87.667 14.334 119 35.001s64.666 60.334 99.999 119.001l645 1065c28.667 49.333 55.334 74 80.001 74c13.333 0 22.5 -4.83301 27.5 -14.5s9.5 -25.5 13.5 -47.5l188 -1110
c5.33301 -39.333 17.333 -68 36 -86s47.667 -29 87 -33l21 -2c12 0 17.333 -5.33301 16 -16l-4 -39l-4 -4c-95.333 2.66699 -172.666 4 -231.999 4c-75.333 0 -162 -1.33301 -260 -4l-2 4l4 39c1.33301 10.667 7 16 17 16l57 4c66.667 5.33301 100 28.333 100 69
c0 6 -0.666992 12.333 -2 19l-51 347h-409c-38 0 -63.333 -11.667 -76 -35z" />
    <glyph glyph-name="Atilde" unicode="&#xc3;" horiz-adv-x="1366" 
d="M1118 1528c24 0 45.165 7.5 63.498 22.5s38.5 42.833 60.5 83.5l46 -12c-49.333 -122.667 -121 -184 -215 -184c-34 0 -74 17.667 -120 53c-43.333 30 -77.333 45 -102 45c-26 0 -48.167 -7.66699 -66.5 -23s-36.166 -40.333 -53.499 -75l-47 10
c27.333 62 56.833 107.833 88.5 137.5s69.167 44.5 112.5 44.5s88.333 -19 135 -57c34.667 -30 67.334 -45 98.001 -45zM628.998 580h342l-84 546h-4l-297 -520c-3.33301 -4.66699 -5 -8.66699 -5 -12c0 -9.33301 16 -14 48 -14zM329.998 162
c-10 -16.667 -15 -32.6689 -15 -48.002c0 -32.667 24.667 -51 74 -55l55 -4c9.33301 0 13.666 -5.33301 12.999 -16l-4 -39l-7 -4c-95.333 2.66699 -180.666 4 -255.999 4c-23.333 0 -84 -1.33301 -182 -4l-2 4l6 39c1.33301 10.667 7.66602 16 18.999 16
c48 2.66699 87.667 14.334 119 35.001s64.666 60.334 99.999 119.001l645 1065c28.667 49.333 55.334 74 80.001 74c13.333 0 22.5 -4.83301 27.5 -14.5s9.5 -25.5 13.5 -47.5l188 -1110c5.33301 -39.333 17.333 -68 36 -86s47.667 -29 87 -33l21 -2
c12 0 17.333 -5.33301 16 -16l-4 -39l-4 -4c-95.333 2.66699 -172.666 4 -231.999 4c-75.333 0 -162 -1.33301 -260 -4l-2 4l4 39c1.33301 10.667 7 16 17 16l57 4c66.667 5.33301 100 28.333 100 69c0 6 -0.666992 12.333 -2 19l-51 347h-409
c-38 0 -63.333 -11.667 -76 -35z" />
    <glyph glyph-name="Adieresis" unicode="&#xc4;" horiz-adv-x="1366" 
d="M641 1446c0 27.333 9.83301 50.5 29.5 69.5s42.5 28.5 68.5 28.5s49 -9.5 69 -28.5s30 -42.167 30 -69.5s-10 -50.5 -30 -69.5s-43 -28.5 -69 -28.5s-48.833 9.5 -68.5 28.5s-29.5 42.167 -29.5 69.5zM1126 1446c0 27.333 9.66699 50.5 29 69.5s42.666 28.5 69.999 28.5
s50.5 -9.5 69.5 -28.5s28.5 -42.167 28.5 -69.5s-9.5 -50.5 -28.5 -69.5s-42.167 -28.5 -69.5 -28.5s-50.666 9.5 -69.999 28.5s-29 42.167 -29 69.5zM629 580h342l-84 546h-4l-297 -520c-3.33301 -4.66699 -5 -8.66699 -5 -12c0 -9.33301 16 -14 48 -14zM330 162
c-10 -16.667 -15 -32.6689 -15 -48.002c0 -32.667 24.667 -51 74 -55l55 -4c9.33301 0 13.666 -5.33301 12.999 -16l-4 -39l-7 -4c-95.333 2.66699 -180.666 4 -255.999 4c-23.333 0 -84 -1.33301 -182 -4l-2 4l6 39c1.33301 10.667 7.66602 16 18.999 16
c48 2.66699 87.667 14.334 119 35.001s64.666 60.334 99.999 119.001l645 1065c28.667 49.333 55.334 74 80.001 74c13.333 0 22.5 -4.83301 27.5 -14.5s9.5 -25.5 13.5 -47.5l188 -1110c5.33301 -39.333 17.333 -68 36 -86s47.667 -29 87 -33l21 -2
c12 0 17.333 -5.33301 16 -16l-4 -39l-4 -4c-95.333 2.66699 -172.666 4 -231.999 4c-75.333 0 -162 -1.33301 -260 -4l-2 4l4 39c1.33301 10.667 7 16 17 16l57 4c66.667 5.33301 100 28.333 100 69c0 6 -0.666992 12.333 -2 19l-51 347h-409
c-38 0 -63.333 -11.667 -76 -35z" />
    <glyph glyph-name="Aring" unicode="&#xc5;" horiz-adv-x="1366" 
d="M1004 1583c-30.667 0 -57.666 -11.166 -80.999 -33.499s-38.333 -49.5 -45 -81.5c-6 -30.667 -1.83301 -57.334 12.5 -80.001s36.666 -34 66.999 -34s57.333 11.5 81 34.5s38.5 49.5 44.5 79.5c6.66699 32.667 2.66699 60 -12 82s-37 33 -67 33zM803.001 1468
c9.33301 46.667 35.167 86.665 77.5 119.998s87.166 50 134.499 50c48 0 86.333 -16.5 115 -49.5s38.334 -73.167 29.001 -120.5c-7.33301 -35.333 -24.666 -67.5 -51.999 -96.5s-59 -49.5 -95 -61.5c0.666992 -3.33301 2 -11.333 4 -24l188 -1110
c5.33301 -39.333 17.333 -68 36 -86s47.667 -29 87 -33l21 -2c12 0 17.333 -5.33301 16 -16l-4 -39l-4 -4c-95.333 2.66699 -172.666 4 -231.999 4c-75.333 0 -162 -1.33301 -260 -4l-2 4l4 39c1.33301 10.667 7 16 17 16l57 4c66.667 5.33301 100 28.333 100 69
c0 6 -0.666992 12.333 -2 19l-51 347h-409c-38 0 -63.333 -11.667 -76 -35l-172 -297c-10 -16.667 -15 -32.667 -15 -48c0 -32.667 24.667 -51 74 -55l55 -4c9.33301 0 13.666 -5.33301 12.999 -16l-4 -39l-7 -4c-95.333 2.66699 -180.666 4 -255.999 4
c-23.333 0 -84 -1.33301 -182 -4l-2 4l6 39c1.33301 10.667 7.66602 16 18.999 16c48 2.66699 87.667 14.334 119 35.001s64.666 60.334 99.999 119.001l645 1065l17 28c-38.667 8 -68.5 27.5 -89.5 58.5s-27.5 66.833 -19.5 107.5zM629.002 579.999h342l-84 546h-4
l-297 -520c-3.33301 -4.66699 -5 -8.66699 -5 -12c0 -9.33301 16 -14 48 -14z" />
    <glyph glyph-name="AE" unicode="&#xc6;" horiz-adv-x="1697" 
d="M653 625l312 -0.000976562l108 553c4 28.667 3.33301 44.334 -2 47.001zM926 -0.000976562l-254.003 -3.99805l-4 4l8 37c2.66699 12 8.66699 18 18 18l54 4c74 5.33301 115.333 36.333 124 93l78 393h-350l-283 -406c-18 -26 -28.5 -43.667 -31.5 -53
s-1.16699 -15.833 5.5 -19.5s23 -6.16699 49 -7.5l55 -4c6.66699 0 10.334 -4 11.001 -12l-9 -43l-2 -4c-88.667 2.66699 -159 4 -211 4l-178 -4l-2 4l8 39c1.33301 8 9 13.333 23 16l45 4c36.667 2.66699 63.5 10.5 80.5 23.5s42.167 43.5 75.5 91.5l704 1008
c13.333 24.667 15.333 43.834 6 57.501s-25 21.167 -47 22.5l-59 4c-10.667 0 -15 4.66699 -13 14l9 41l4 2l344 -2h151h437c-9.33301 -105.333 -15.666 -210.333 -18.999 -315l-59 -11c-4 36.667 -7.5 64 -10.5 82s-8.5 39.333 -16.5 64s-17.833 42.667 -29.5 54
s-27.667 21.5 -48 30.5s-44.833 13.5 -73.5 13.5h-197c-22 0 -41.167 -8.83301 -57.5 -26.5s-26.5 -38.834 -30.5 -63.501l-80 -406h201c32.667 0 56.834 6.83301 72.501 20.5s30.167 37.167 43.5 70.5l25 61c5.33301 10.667 11.333 16 18 16h43c4 0 6.33301 -2.66699 7 -8
c-27.333 -86 -46 -150.667 -56 -194c-4 -20.667 -7.33301 -44.334 -10 -71.001s-5 -53 -7 -79s-3.66699 -41.667 -5 -47l-4 -6h-45c-9.33301 0 -14.333 4.66699 -15 14l2 64c-1.33301 31.333 -7.83301 54.166 -19.5 68.499s-33.167 21.5 -64.5 21.5h-200l-101 -522
c-8 -48 11.333 -72 58 -72h256c68 0 125.167 23.833 171.5 71.5s89.5 114.5 129.5 200.5l57 -10c-54.667 -135.333 -93.667 -249.333 -117 -342h-665z" />
    <glyph glyph-name="Ccedilla" unicode="&#xc7;" horiz-adv-x="1261" 
d="M681 -197c-35.333 0 -67 -4.00391 -95 -12.0039l-9 12l109 177c-85.333 0.666992 -161 14.834 -227 42.501s-118.667 65.5 -158 113.5s-69 102.167 -89 162.5s-30 125.5 -30 195.5c0 50 5 100.333 15 151c38 198 133.167 364.667 285.5 500s311.833 203 478.5 203
c69.333 0 130.333 -7.16699 183 -21.5s97 -29.5 133 -45.5s67.667 -24.667 95 -26c-9.33301 -90 -15.333 -195.667 -18 -317l-60 -8c-22 228 -145.333 342 -370 342c-42 0 -89 -11.667 -141 -35s-105.333 -57.166 -160 -101.499s-105 -106.166 -151 -185.499
s-78.333 -168 -97 -266c-11.333 -58 -17 -115.667 -17 -173c0 -83.333 11.5 -157.5 34.5 -222.5s61.333 -118.833 115 -161.5s120.167 -64 199.5 -64c91.333 0 176.166 17.5 254.499 52.5s159.833 92.167 244.5 171.5c19.333 0 32.333 -10.333 39 -31
c-149.333 -162 -311.666 -253 -486.999 -273l-69 -120c17.333 4 35.333 6 54 6c36.667 0 66.334 -9 89.001 -27s34 -42.667 34 -74c0 -52.667 -25.667 -95.5 -77 -128.5s-110 -49.5 -176 -49.5c-48 0 -96 11.667 -144 35c4.66699 22 15 39.667 31 53
c48 -19.333 85.667 -28.666 113 -27.999c37.333 0 67.166 9.5 89.499 28.5s33.5 44.167 33.5 75.5c0 32.667 -18.333 49 -55 49z" />
    <glyph glyph-name="Egrave" unicode="&#xc8;" horiz-adv-x="1077" 
d="M977 1468c0 -26 -13 -38.666 -39 -37.999c-18 0 -45.333 8 -82 24l-289 129l178 92l209 -172c15.333 -12.667 23 -24.334 23 -35.001zM1133 1323c0 -86 -5.66602 -185.006 -16.999 -297.006l-57 -10c-9.33301 80.667 -25.333 138 -48 172s-68.334 51 -137.001 51h-204
c-48 0 -76.667 -23.333 -86 -70l-82 -430h250c58.667 0 96.667 28.667 114 86l15 52c2.66699 10.667 8.66699 16 18 16h43l6 -8c-22.667 -82 -37 -143.667 -43 -185c-12 -58.667 -20.667 -118 -26 -178l-11 -6h-43c-10.667 0 -14 5.33301 -10 16l4 52
c0.666992 6.66699 1 12.334 1 17.001c0 22.667 -6.5 38.5 -19.5 47.5s-34.833 13.5 -65.5 13.5h-250l-100 -515c-1.33301 -8.66699 -2 -15.667 -2 -21c0 -30.667 20.333 -46 61 -46h267c130 0 235.667 89.333 317 268l59 -10l-139 -342c-104 2.66699 -187.333 4 -250 4h-422
c-44 0 -127 -1.33301 -249 -4l-4 4l8 41c2.66699 9.33301 8.66699 14 18 14l60 4c38 2.66699 65.5 10.834 82.5 24.501s28.833 34.834 35.5 63.501l199 1022c2 10.667 3 20.334 3 29.001c0 20.667 -6.66699 35.834 -20 45.501s-35.666 15.834 -66.999 18.501l-57 4
c-10.667 0 -15 4.66699 -13 14l9 41l4 4c122.667 -2.66699 205 -4 247 -4h498c31.333 0 62.666 2.66699 93.999 8c6 0 9 -2 9 -6z" />
    <glyph glyph-name="Eacute" unicode="&#xc9;" horiz-adv-x="1077" 
d="M563 1425c-16.667 0 -24.834 7.5 -24.501 22.5s14.833 32.167 43.5 51.5l288 172l134 -92l-347 -129c-49.333 -16.667 -80.666 -25 -93.999 -25zM1133 1323c0 -86 -5.66602 -185.006 -16.999 -297.006l-57 -10c-9.33301 80.667 -25.333 138 -48 172
s-68.334 51 -137.001 51h-204c-48 0 -76.667 -23.333 -86 -70l-82 -430h250c58.667 0 96.667 28.667 114 86l15 52c2.66699 10.667 8.66699 16 18 16h43l6 -8c-22.667 -82 -37 -143.667 -43 -185c-12 -58.667 -20.667 -118 -26 -178l-11 -6h-43
c-10.667 0 -14 5.33301 -10 16l4 52c0.666992 6.66699 1 12.334 1 17.001c0 22.667 -6.5 38.5 -19.5 47.5s-34.833 13.5 -65.5 13.5h-250l-100 -515c-1.33301 -8.66699 -2 -15.667 -2 -21c0 -30.667 20.333 -46 61 -46h267c130 0 235.667 89.333 317 268l59 -10l-139 -342
c-104 2.66699 -187.333 4 -250 4h-422c-44 0 -127 -1.33301 -249 -4l-4 4l8 41c2.66699 9.33301 8.66699 14 18 14l60 4c38 2.66699 65.5 10.834 82.5 24.501s28.833 34.834 35.5 63.501l199 1022c2 10.667 3 20.334 3 29.001c0 20.667 -6.66699 35.834 -20 45.501
s-35.666 15.834 -66.999 18.501l-57 4c-10.667 0 -15 4.66699 -13 14l9 41l4 4c122.667 -2.66699 205 -4 247 -4h498c31.333 0 62.666 2.66699 93.999 8c6 0 9 -2 9 -6z" />
    <glyph glyph-name="Ecircumflex" unicode="&#xca;" horiz-adv-x="1077" 
d="M909 1661c40.667 -69.333 94.667 -133.666 162 -192.999l-43 -43c-76.667 39.333 -139.334 81.666 -188.001 126.999c-79.333 -50.667 -162 -93 -248 -127l-19 43c80.667 52 163.334 116.333 248.001 193h88zM1133 1323c0 -86 -5.66602 -185.006 -16.999 -297.006
l-57 -10c-9.33301 80.667 -25.333 138 -48 172s-68.334 51 -137.001 51h-204c-48 0 -76.667 -23.333 -86 -70l-82 -430h250c58.667 0 96.667 28.667 114 86l15 52c2.66699 10.667 8.66699 16 18 16h43l6 -8c-22.667 -82 -37 -143.667 -43 -185
c-12 -58.667 -20.667 -118 -26 -178l-11 -6h-43c-10.667 0 -14 5.33301 -10 16l4 52c0.666992 6.66699 1 12.334 1 17.001c0 22.667 -6.5 38.5 -19.5 47.5s-34.833 13.5 -65.5 13.5h-250l-100 -515c-1.33301 -8.66699 -2 -15.667 -2 -21c0 -30.667 20.333 -46 61 -46h267
c130 0 235.667 89.333 317 268l59 -10l-139 -342c-104 2.66699 -187.333 4 -250 4h-422c-44 0 -127 -1.33301 -249 -4l-4 4l8 41c2.66699 9.33301 8.66699 14 18 14l60 4c38 2.66699 65.5 10.834 82.5 24.501s28.833 34.834 35.5 63.501l199 1022
c2 10.667 3 20.334 3 29.001c0 20.667 -6.66699 35.834 -20 45.501s-35.666 15.834 -66.999 18.501l-57 4c-10.667 0 -15 4.66699 -13 14l9 41l4 4c122.667 -2.66699 205 -4 247 -4h498c31.333 0 62.666 2.66699 93.999 8c6 0 9 -2 9 -6z" />
    <glyph glyph-name="Edieresis" unicode="&#xcb;" horiz-adv-x="1077" 
d="M561 1520c5.33301 26 18.999 47.832 40.999 65.499s46 26.5 72 26.5c22 0 40.167 -6.83301 54.5 -20.5s21.5 -31.5 21.5 -53.5c0 -1.33301 -0.333008 -4 -1 -8s-1 -7.33301 -1 -10c-5.33301 -26 -18.666 -48 -39.999 -66s-45 -27 -71 -27c-22 0 -40.5 7.16699 -55.5 21.5
s-22.5 32.5 -22.5 54.5c0 1.33301 0.333008 3.83301 1 7.5s1 6.83398 1 9.50098zM949.999 1522c5.33301 24.667 18.666 46.168 39.999 64.501s45 27.5 71 27.5c22 0 40.167 -7.16699 54.5 -21.5s21.5 -31.833 21.5 -52.5c0 -9.33301 -0.666992 -15.333 -2 -18
c-4 -26 -16.667 -48.333 -38 -67s-45 -28 -71 -28c-23.333 0 -42.166 7.16699 -56.499 21.5s-21.5 33.166 -21.5 56.499c0 7.33301 0.666992 13 2 17zM1133 1323c0 -86 -5.66602 -185.006 -16.999 -297.006l-57 -10c-9.33301 80.667 -25.333 138 -48 172
s-68.334 51 -137.001 51h-204c-48 0 -76.667 -23.333 -86 -70l-82 -430h250c58.667 0 96.667 28.667 114 86l15 52c2.66699 10.667 8.66699 16 18 16h43l6 -8c-22.667 -82 -37 -143.667 -43 -185c-12 -58.667 -20.667 -118 -26 -178l-11 -6h-43
c-10.667 0 -14 5.33301 -10 16l4 52c0.666992 6.66699 1 12.334 1 17.001c0 22.667 -6.5 38.5 -19.5 47.5s-34.833 13.5 -65.5 13.5h-250l-100 -515c-1.33301 -8.66699 -2 -15.667 -2 -21c0 -30.667 20.333 -46 61 -46h267c130 0 235.667 89.333 317 268l59 -10l-139 -342
c-104 2.66699 -187.333 4 -250 4h-422c-44 0 -127 -1.33301 -249 -4l-4 4l8 41c2.66699 9.33301 8.66699 14 18 14l60 4c38 2.66699 65.5 10.834 82.5 24.501s28.833 34.834 35.5 63.501l199 1022c2 10.667 3 20.334 3 29.001c0 20.667 -6.66699 35.834 -20 45.501
s-35.666 15.834 -66.999 18.501l-57 4c-10.667 0 -15 4.66699 -13 14l9 41l4 4c122.667 -2.66699 205 -4 247 -4h498c31.333 0 62.666 2.66699 93.999 8c6 0 9 -2 9 -6z" />
    <glyph glyph-name="Igrave" unicode="&#xcc;" horiz-adv-x="573" 
d="M678 1464c0 -26 -13 -38.999 -39 -38.999c-18 0 -45.333 8.33301 -82 25l-289 129l178 92l209 -172c15.333 -12.667 23 -24.334 23 -35.001zM436 1165c5.33301 31.333 1.66895 53.833 -10.998 67.5s-39 22.834 -79 27.501l-70 6
c-2.66699 5.33301 -2.83398 15.5 -0.500977 30.5s4.83301 24.5 7.5 28.5c120 -2.66699 206.667 -4 260 -4c40.667 0 122.334 1.33301 245.001 4c4 -9.33301 5.5 -20.5 4.5 -33.5s-3.83301 -21.5 -8.5 -25.5l-63 -6c-40.667 -4 -70.334 -13.333 -89.001 -28
s-31.334 -37 -38.001 -67l-199 -1009c-6.66699 -31.333 -3.16699 -53.833 10.5 -67.5s40.167 -22.834 79.5 -27.501l70 -6c2.66699 -5.33301 3 -15.5 1 -30.5s-4.33301 -24.5 -7 -28.5c-120 2.66699 -206.667 4 -260 4c-40.667 0 -122.667 -1.33301 -246 -4
c-4 9.33301 -5.33301 20.5 -4 33.5s4 21.5 8 25.5l64 6c40.667 4 70.5 13.333 89.5 28s31.5 37 37.5 67z" />
    <glyph glyph-name="Iacute" unicode="&#xcd;" horiz-adv-x="573" 
d="M428 1425c-16.667 0 -25.001 7.5 -25.001 22.5s14.333 32.167 43 51.5l289 172l133 -92l-346 -129c-49.333 -16.667 -80.666 -25 -93.999 -25zM435.999 1165c5.33301 31.333 1.66895 53.833 -10.998 67.5s-39 22.834 -79 27.501l-70 6
c-2.66699 5.33301 -2.83398 15.5 -0.500977 30.5s4.83301 24.5 7.5 28.5c120 -2.66699 206.667 -4 260 -4c40.667 0 122.334 1.33301 245.001 4c4 -9.33301 5.5 -20.5 4.5 -33.5s-3.83301 -21.5 -8.5 -25.5l-63 -6c-40.667 -4 -70.334 -13.333 -89.001 -28
s-31.334 -37 -38.001 -67l-199 -1009c-6.66699 -31.333 -3.16699 -53.833 10.5 -67.5s40.167 -22.834 79.5 -27.501l70 -6c2.66699 -5.33301 3 -15.5 1 -30.5s-4.33301 -24.5 -7 -28.5c-120 2.66699 -206.667 4 -260 4c-40.667 0 -122.667 -1.33301 -246 -4
c-4 9.33301 -5.33301 20.5 -4 33.5s4 21.5 8 25.5l64 6c40.667 4 70.5 13.333 89.5 28s31.5 37 37.5 67z" />
    <glyph glyph-name="Icircumflex" unicode="&#xce;" horiz-adv-x="573" 
d="M653 1661c40.667 -69.333 94.667 -133.666 162 -192.999l-43 -43c-76.667 39.333 -139.334 81.666 -188.001 126.999c-79.333 -50.667 -162 -93 -248 -127l-19 43c80.667 52 163.334 116.333 248.001 193h88zM436 1165c5.33301 31.333 1.66895 53.833 -10.998 67.5
s-39 22.834 -79 27.501l-70 6c-2.66699 5.33301 -2.83398 15.5 -0.500977 30.5s4.83301 24.5 7.5 28.5c120 -2.66699 206.667 -4 260 -4c40.667 0 122.334 1.33301 245.001 4c4 -9.33301 5.5 -20.5 4.5 -33.5s-3.83301 -21.5 -8.5 -25.5l-63 -6
c-40.667 -4 -70.334 -13.333 -89.001 -28s-31.334 -37 -38.001 -67l-199 -1009c-6.66699 -31.333 -3.16699 -53.833 10.5 -67.5s40.167 -22.834 79.5 -27.501l70 -6c2.66699 -5.33301 3 -15.5 1 -30.5s-4.33301 -24.5 -7 -28.5c-120 2.66699 -206.667 4 -260 4
c-40.667 0 -122.667 -1.33301 -246 -4c-4 9.33301 -5.33301 20.5 -4 33.5s4 21.5 8 25.5l64 6c40.667 4 70.5 13.333 89.5 28s31.5 37 37.5 67z" />
    <glyph glyph-name="Idieresis" unicode="&#xcf;" horiz-adv-x="573" 
d="M301 1520c5.33301 26 19 47.832 41 65.499s46 26.5 72 26.5c22 0 40 -6.83301 54 -20.5s21 -31.5 21 -53.5c0 -1.33301 -0.333008 -4 -1 -8s-1 -7.33301 -1 -10c-5.33301 -26 -18.5 -48 -39.5 -66s-44.5 -27 -70.5 -27c-22 0 -40.5 7.16699 -55.5 21.5
s-22.5 32.5 -22.5 54.5c0 1.33301 0.333008 3.83301 1 7.5s1 6.83398 1 9.50098zM690 1522c5.33301 24.667 18.667 46.168 40 64.501s45 27.5 71 27.5c22 0 40.167 -7.16699 54.5 -21.5s21.5 -31.833 21.5 -52.5c0 -9.33301 -1 -15.333 -3 -18
c-4 -26 -16.5 -48.333 -37.5 -67s-44.5 -28 -70.5 -28c-22 0 -40.5 7.16699 -55.5 21.5s-22.5 33.166 -22.5 56.499c0 7.33301 0.666992 13 2 17zM436.001 1165c5.33301 31.333 1.66895 53.833 -10.998 67.5s-39 22.834 -79 27.501l-70 6
c-2.66699 5.33301 -2.83398 15.5 -0.500977 30.5s4.83301 24.5 7.5 28.5c120 -2.66699 206.667 -4 260 -4c40.667 0 122.334 1.33301 245.001 4c4 -9.33301 5.5 -20.5 4.5 -33.5s-3.83301 -21.5 -8.5 -25.5l-63 -6c-40.667 -4 -70.334 -13.333 -89.001 -28
s-31.334 -37 -38.001 -67l-199 -1009c-6.66699 -31.333 -3.16699 -53.833 10.5 -67.5s40.167 -22.834 79.5 -27.501l70 -6c2.66699 -5.33301 3 -15.5 1 -30.5s-4.33301 -24.5 -7 -28.5c-120 2.66699 -206.667 4 -260 4c-40.667 0 -122.667 -1.33301 -246 -4
c-4 9.33301 -5.33301 20.5 -4 33.5s4 21.5 8 25.5l64 6c40.667 4 70.5 13.333 89.5 28s31.5 37 37.5 67z" />
    <glyph glyph-name="Eth" unicode="&#xd0;" horiz-adv-x="1366" 
d="M39 37c2.66699 12 8.66797 18 18.001 18l60 4c69.333 4 109.666 35 120.999 93l85 436h-186l17 80h184l98 503c2.66699 15.333 4.33398 27.666 5.00098 36.999c0 20 -6.5 33.333 -19.5 40s-36.833 11.334 -71.5 14.001l-53 4c-12 0 -16.667 5.33301 -14 16l6 39l6 4
c122.667 -2.66699 205.334 -4 248.001 -4c23.333 0 71.5 0.666992 144.5 2s131.833 2 176.5 2c163.333 0 297 -52.833 401 -158.5s156 -238.167 156 -397.5c0 -46 -4.66699 -92 -14 -138c-23.333 -120 -63.333 -223.5 -120 -310.5s-122.5 -153 -197.5 -198
s-149.333 -77.333 -223 -97s-148.834 -29.5 -225.501 -29.5c-78 0 -152.833 0.666992 -224.5 2s-114.834 2 -129.501 2c-44 0 -127.333 -1.33301 -250 -4l-4 4zM395.001 150c-2 -10.667 -3 -19.665 -3 -26.998c0 -22.667 13.5 -37.834 40.5 -45.501
s80.833 -11.5 161.5 -11.5c348 0 555.667 172 623 516c12 62.667 18 124 18 184c0 67.333 -8.16699 129.166 -24.5 185.499s-41.666 107.833 -75.999 154.5s-82 83.167 -143 109.5s-132.833 39.5 -215.5 39.5c-56 0 -98.333 -5 -127 -15s-46.334 -31.333 -53.001 -64
l-99 -508h212l-17 -80h-211z" />
    <glyph glyph-name="Ntilde" unicode="&#xd1;" horiz-adv-x="1363" 
d="M1095 1518c24 0 45.168 7.33496 63.501 22.002s38.5 42.667 60.5 84l47 -12c-49.333 -122.667 -121.333 -184.334 -216 -185.001c-34 0 -74 18 -120 54c-43.333 30 -77.333 45 -102 45c-26 0 -48 -7.83301 -66 -23.5s-36 -40.834 -54 -75.501l-47 11
c27.333 62 56.833 107.833 88.5 137.5s69.167 44.5 112.5 44.5s88.666 -19 135.999 -57c34 -30 66.333 -45 97 -45zM1407 1141l-213.003 -1098c-9.33301 -42 -27 -63 -53 -63c-31.333 0 -54.666 16.333 -69.999 49l-510 903c-27.333 45.333 -45.666 67.666 -54.999 66.999
c-12 0 -25 -33.333 -39 -100l-139 -719c-2 -10.667 -3.33301 -21 -4 -31c0 -54.667 29.333 -84.667 88 -90l51 -4c9.33301 -1.33301 13.333 -6.66602 12 -15.999l-4 -39l-4 -4c-122.667 2.66699 -193.667 4 -213 4c-27.333 0 -102.333 -1.33301 -225 -4l-4 4l4 37
c1.33301 10.667 10.666 16.667 27.999 18l52 4c70.667 5.33301 114.334 45.666 131.001 120.999l184 946c-1.33301 30 -12.333 60.167 -33 90.5s-46 46.833 -76 49.5c-20.667 2.66699 -30 8 -28 16l4 39l6 4h270l498 -909c42 -75.333 68 -113 78 -113c8 0 16 20.667 24 62
l152 776c2 11.333 3 21.666 3 30.999c0 55.333 -29 85.333 -87 90l-49 4c-18 1.33301 -26.333 6.66602 -25 15.999l6 39l4 4c122.667 -2.66699 198 -4 226 -4c19.333 0 90.333 1.33301 213 4l4 -4l-4 -39c-1.33301 -9.33301 -7.66602 -14.666 -18.999 -15.999l-55 -4
c-70.667 -5.33301 -113.667 -45.666 -129 -120.999z" />
    <glyph glyph-name="Ograve" unicode="&#xd2;" horiz-adv-x="1368" 
d="M1032 1464c0 -26 -13 -38.999 -39 -38.999c-18 0 -45.333 8.33301 -82 25l-288 129l178 92l209 -172c14.667 -12.667 22 -24.334 22 -35.001zM893 1278c-102.667 0 -203.833 -51.8311 -303.5 -155.498s-168.5 -254.5 -206.5 -452.5c-12 -60 -18 -117 -18 -171
c0 -138.667 35 -248.334 105 -329.001s157 -121 261 -121c116 0 221.5 53 316.5 159s160.167 248.333 195.5 427c14 73.333 21 141.666 21 204.999c0 142 -33.333 250.5 -100 325.5s-157 112.5 -271 112.5zM1432 674.003c-39.333 -206 -128.165 -373.168 -266.498 -501.501
s-300.833 -192.5 -487.5 -192.5c-148.667 0 -269 44.833 -361 134.5s-138 211.5 -138 365.5c0 49.333 5.33301 101 16 155c39.333 202 128.666 371.333 267.999 508s295.666 205 468.999 205c151.333 0 275 -47.667 371 -143s144 -222 144 -380
c0 -49.333 -5 -99.666 -15 -150.999z" />
    <glyph glyph-name="Oacute" unicode="&#xd3;" horiz-adv-x="1368" 
d="M780 1425c-16.667 0 -24.834 7.5 -24.501 22.5s14.833 32.167 43.5 51.5l288 172l134 -92l-347 -129c-49.333 -16.667 -80.666 -25 -93.999 -25zM893 1278c-102.667 0 -203.833 -51.8311 -303.5 -155.498s-168.5 -254.5 -206.5 -452.5c-12 -60 -18 -117 -18 -171
c0 -138.667 35 -248.334 105 -329.001s157 -121 261 -121c116 0 221.5 53 316.5 159s160.167 248.333 195.5 427c14 73.333 21 141.666 21 204.999c0 142 -33.333 250.5 -100 325.5s-157 112.5 -271 112.5zM1432 674.002c-39.333 -206 -128.165 -373.168 -266.498 -501.501
s-300.833 -192.5 -487.5 -192.5c-148.667 0 -269 44.833 -361 134.5s-138 211.5 -138 365.5c0 49.333 5.33301 101 16 155c39.333 202 128.666 371.333 267.999 508s295.666 205 468.999 205c151.333 0 275 -47.667 371 -143s144 -222 144 -380
c0 -49.333 -5 -99.666 -15 -150.999z" />
    <glyph glyph-name="Ocircumflex" unicode="&#xd4;" horiz-adv-x="1368" 
d="M1026 1661c40.667 -69.333 94.665 -133.666 161.998 -192.999l-43 -43c-76.667 39.333 -139.667 81.666 -189 126.999c-79.333 -50.667 -161.666 -93 -246.999 -127l-19 43c80.667 52 163.334 116.333 248.001 193h88zM892.998 1278
c-102.667 0 -203.833 -51.8311 -303.5 -155.498s-168.5 -254.5 -206.5 -452.5c-12 -60 -18 -117 -18 -171c0 -138.667 35 -248.334 105 -329.001s157 -121 261 -121c116 0 221.5 53 316.5 159s160.167 248.333 195.5 427c14 73.333 21 141.666 21 204.999
c0 142 -33.333 250.5 -100 325.5s-157 112.5 -271 112.5zM1432 674.002c-39.333 -206 -128.165 -373.168 -266.498 -501.501s-300.833 -192.5 -487.5 -192.5c-148.667 0 -269 44.833 -361 134.5s-138 211.5 -138 365.5c0 49.333 5.33301 101 16 155
c39.333 202 128.666 371.333 267.999 508s295.666 205 468.999 205c151.333 0 275 -47.667 371 -143s144 -222 144 -380c0 -49.333 -5 -99.666 -15 -150.999z" />
    <glyph glyph-name="Otilde" unicode="&#xd5;" horiz-adv-x="1368" 
d="M1089 1518c24 0 45.167 7.33496 63.5 22.002s38.5 42.667 60.5 84l47 -12c-49.333 -122.667 -121.333 -184.334 -216 -185.001c-34 0 -74 18 -120 54c-43.333 30 -77.333 45 -102 45c-26 0 -48.167 -7.83301 -66.5 -23.5s-36.166 -40.834 -53.499 -75.501l-47 11
c27.333 62 56.833 107.833 88.5 137.5s69.167 44.5 112.5 44.5s88.666 -19 135.999 -57c34 -30 66.333 -45 97 -45zM893 1278c-102.667 0 -203.833 -51.8311 -303.5 -155.498s-168.5 -254.5 -206.5 -452.5c-12 -60 -18 -117 -18 -171c0 -138.667 35 -248.334 105 -329.001
s157 -121 261 -121c116 0 221.5 53 316.5 159s160.167 248.333 195.5 427c14 73.333 21 141.666 21 204.999c0 142 -33.333 250.5 -100 325.5s-157 112.5 -271 112.5zM1432 674.004c-39.333 -206 -128.165 -373.168 -266.498 -501.501s-300.833 -192.5 -487.5 -192.5
c-148.667 0 -269 44.833 -361 134.5s-138 211.5 -138 365.5c0 49.333 5.33301 101 16 155c39.333 202 128.666 371.333 267.999 508s295.666 205 468.999 205c151.333 0 275 -47.667 371 -143s144 -222 144 -380c0 -49.333 -5 -99.666 -15 -150.999z" />
    <glyph glyph-name="Odieresis" unicode="&#xd6;" horiz-adv-x="1368" 
d="M428 1446c0 27.333 9.83301 50.5 29.5 69.5s42.5 28.5 68.5 28.5s49 -9.5 69 -28.5s30 -42.167 30 -69.5s-10 -50.5 -30 -69.5s-43 -28.5 -69 -28.5s-48.833 9.5 -68.5 28.5s-29.5 42.167 -29.5 69.5zM1266 1446c0 27.333 9.5 50.5 28.5 69.5s42.167 28.5 69.5 28.5
s50.5 -9.5 69.5 -28.5s28.5 -42.167 28.5 -69.5s-9.5 -50.5 -28.5 -69.5s-42.167 -28.5 -69.5 -28.5s-50.5 9.5 -69.5 28.5s-28.5 42.167 -28.5 69.5zM893 1278c-102.667 0 -203.833 -51.8311 -303.5 -155.498s-168.5 -254.5 -206.5 -452.5c-12 -60 -18 -117 -18 -171
c0 -138.667 35 -248.334 105 -329.001s157 -121 261 -121c116 0 221.5 53 316.5 159s160.167 248.333 195.5 427c14 73.333 21 141.666 21 204.999c0 142 -33.333 250.5 -100 325.5s-157 112.5 -271 112.5zM1432 674.002c-39.333 -206 -128.165 -373.168 -266.498 -501.501
s-300.833 -192.5 -487.5 -192.5c-148.667 0 -269 44.833 -361 134.5s-138 211.5 -138 365.5c0 49.333 5.33301 101 16 155c39.333 202 128.666 371.333 267.999 508s295.666 205 468.999 205c151.333 0 275 -47.667 371 -143s144 -222 144 -380
c0 -49.333 -5 -99.666 -15 -150.999z" />
    <glyph glyph-name="multiply" unicode="&#xd7;" horiz-adv-x="1079" 
d="M694 471l205 -250l-84 -71l-205 249l-295 -249l-59 71l295 250l-207 252l84 72l207 -252l297 252l57 -72z" />
    <glyph glyph-name="Oslash" unicode="&#xd8;" horiz-adv-x="1368" 
d="M1489 1372l51 -51.001l-179 -188c56.667 -86 85.334 -188.667 86.001 -308c0 -49.333 -5 -99.666 -15 -150.999c-39.333 -206 -128.166 -373.167 -266.499 -501.5s-300.833 -192.5 -487.5 -192.5c-127.333 0 -234.333 33.333 -321 100l-160 -168l-54 51l159 167
c-82 89.333 -123 206 -123 350c0 49.333 5.33301 101 16 155c39.333 202 128.666 371.333 267.999 508s295.666 205 468.999 205c160.667 0 288.667 -52.333 384 -157zM893 1278c-102.667 0 -203.834 -51.832 -303.501 -155.499s-168.5 -254.5 -206.5 -452.5
c-12 -60 -18 -117 -18 -171c0 -94.667 17.667 -177.334 53 -248.001l797 835c-61.333 128 -168.666 192 -321.999 192zM1244 1010l-786 -824c69.333 -91.333 160.333 -137 273 -137c116 0 221.5 53 316.5 159s160.167 248.333 195.5 427c14 73.333 21 141.666 21 204.999
c0.666992 62.667 -6 119.334 -20 170.001z" />
    <glyph glyph-name="Ugrave" unicode="&#xd9;" horiz-adv-x="1298" 
d="M1202 1464c0 -26 -13 -38.999 -39 -38.999c-18 0 -45.333 8.33301 -82 25l-288 129l178 92l209 -172c14.667 -12.667 22 -24.334 22 -35.001zM627 -19.999c-34 0 -66.8369 2.8291 -98.5039 8.49609s-64.667 16.834 -99 33.501s-64.166 37.834 -89.499 63.501
s-46 60.334 -62 104.001s-24 93.834 -24 150.501c0 43.333 4.66699 91 14 143l135 688c2 10 3 19 3 27c0 20.667 -7.16699 35.834 -21.5 45.501s-38.166 15.834 -71.499 18.501l-51 4c-10.667 0 -14.667 5.33301 -12 16l6 39l6 4c122.667 -2.66699 205.334 -4 248.001 -4
c45.333 0 129.333 1.33301 252 4l4 -4l-8 -39c-2.66699 -10.667 -9 -16 -19 -16l-51 -4c-40.667 -2.66699 -70.334 -11.334 -89.001 -26.001s-31.334 -36.334 -38.001 -65.001l-121 -620c-16.667 -92.667 -25 -159.334 -25 -200.001c0 -74.667 18.667 -136.334 56 -185.001
c54.667 -68 125.667 -102.333 213 -103c64 0 121.333 10.667 172 32s91.334 47.333 122.001 78s58 70.334 82 119.001s41.333 93 52 133s21.667 87.333 33 142l117 600c2 10.667 3 20.334 3 29.001c0 21.333 -7.16699 37 -21.5 47s-37.5 16.333 -69.5 19l-54 4
c-10.667 0 -14.667 5.33301 -12 16l8 39l4 4c122.667 -2.66699 194.334 -4 215.001 -4c22 0 94.333 1.33301 217 4l4 -4l-8 -39c-2.66699 -10.667 -8.66699 -16 -18 -16l-51 -4c-40.667 -2.66699 -70.667 -11.667 -90 -27s-31.666 -38 -36.999 -68l-111 -563
c-38 -202 -102.667 -356.5 -194 -463.5s-231.333 -160.5 -420 -160.5z" />
    <glyph glyph-name="Uacute" unicode="&#xda;" horiz-adv-x="1298" 
d="M788 1425c-16.667 0 -24.833 7.5 -24.5 22.5s14.833 32.167 43.5 51.5l289 172l133 -92l-346 -129c-50 -16.667 -81.667 -25 -95 -25zM627.001 -20c-34 0 -66.8369 2.8291 -98.5039 8.49609s-64.667 16.834 -99 33.501s-64.166 37.834 -89.499 63.501
s-46 60.334 -62 104.001s-24 93.834 -24 150.501c0 43.333 4.66699 91 14 143l135 688c2 10 3 19 3 27c0 20.667 -7.16699 35.834 -21.5 45.501s-38.166 15.834 -71.499 18.501l-51 4c-10.667 0 -14.667 5.33301 -12 16l6 39l6 4c122.667 -2.66699 205.334 -4 248.001 -4
c45.333 0 129.333 1.33301 252 4l4 -4l-8 -39c-2.66699 -10.667 -9 -16 -19 -16l-51 -4c-40.667 -2.66699 -70.334 -11.334 -89.001 -26.001s-31.334 -36.334 -38.001 -65.001l-121 -620c-16.667 -92.667 -25 -159.334 -25 -200.001c0 -74.667 18.667 -136.334 56 -185.001
c54.667 -68 125.667 -102.333 213 -103c64 0 121.333 10.667 172 32s91.334 47.333 122.001 78s58 70.334 82 119.001s41.333 93 52 133s21.667 87.333 33 142l117 600c2 10.667 3 20.334 3 29.001c0 21.333 -7.16699 37 -21.5 47s-37.5 16.333 -69.5 19l-54 4
c-10.667 0 -14.667 5.33301 -12 16l8 39l4 4c122.667 -2.66699 194.334 -4 215.001 -4c22 0 94.333 1.33301 217 4l4 -4l-8 -39c-2.66699 -10.667 -8.66699 -16 -18 -16l-51 -4c-40.667 -2.66699 -70.667 -11.667 -90 -27s-31.666 -38 -36.999 -68l-111 -563
c-38 -202 -102.667 -356.5 -194 -463.5s-231.333 -160.5 -420 -160.5z" />
    <glyph glyph-name="Ucircumflex" unicode="&#xdb;" horiz-adv-x="1298" 
d="M1075 1661c40.667 -69.333 94.667 -133.666 162 -192.999l-43 -43c-76.667 39.333 -139.334 81.666 -188.001 126.999c-79.333 -50.667 -162 -93 -248 -127l-19 43c80.667 52 163.334 116.333 248.001 193h88zM627 -20c-34 0 -66.8369 2.8291 -98.5039 8.49609
s-64.667 16.834 -99 33.501s-64.166 37.834 -89.499 63.501s-46 60.334 -62 104.001s-24 93.834 -24 150.501c0 43.333 4.66699 91 14 143l135 688c2 10 3 19 3 27c0 20.667 -7.16699 35.834 -21.5 45.501s-38.166 15.834 -71.499 18.501l-51 4
c-10.667 0 -14.667 5.33301 -12 16l6 39l6 4c122.667 -2.66699 205.334 -4 248.001 -4c45.333 0 129.333 1.33301 252 4l4 -4l-8 -39c-2.66699 -10.667 -9 -16 -19 -16l-51 -4c-40.667 -2.66699 -70.334 -11.334 -89.001 -26.001s-31.334 -36.334 -38.001 -65.001l-121 -620
c-16.667 -92.667 -25 -159.334 -25 -200.001c0 -74.667 18.667 -136.334 56 -185.001c54.667 -68 125.667 -102.333 213 -103c64 0 121.333 10.667 172 32s91.334 47.333 122.001 78s58 70.334 82 119.001s41.333 93 52 133s21.667 87.333 33 142l117 600
c2 10.667 3 20.334 3 29.001c0 21.333 -7.16699 37 -21.5 47s-37.5 16.333 -69.5 19l-54 4c-10.667 0 -14.667 5.33301 -12 16l8 39l4 4c122.667 -2.66699 194.334 -4 215.001 -4c22 0 94.333 1.33301 217 4l4 -4l-8 -39c-2.66699 -10.667 -8.66699 -16 -18 -16l-51 -4
c-40.667 -2.66699 -70.667 -11.667 -90 -27s-31.666 -38 -36.999 -68l-111 -563c-38 -202 -102.667 -356.5 -194 -463.5s-231.333 -160.5 -420 -160.5z" />
    <glyph glyph-name="Udieresis" unicode="&#xdc;" horiz-adv-x="1298" 
d="M625 -20c-38 0 -75.1641 3.99707 -111.497 11.9971s-74 23 -113 45s-69.833 51.667 -92.5 89s-39.667 85.333 -51 144s-7.66602 129.667 11.001 213l131 670c6.66699 36.667 -1.5 63.667 -24.5 81s-53.5 28 -91.5 32c-12 0 -17 6 -15 18l8 37l5 4
c95.333 -2.66699 171.666 -4 228.999 -4c44 0 98.667 1.33301 164 4c15.333 0 20.666 -10.333 15.999 -31c-2.66699 -15.333 -13 -24.666 -31 -27.999c-58.667 -15.333 -94 -58.333 -106 -129l-115 -586c-10.667 -60 -18 -106.5 -22 -139.5s-2.33301 -73.667 5 -122
s24 -89.5 50 -123.5c52 -68 123 -102.333 213 -103c78 0 145.667 14.833 203 44.5s102.666 71.334 135.999 125.001s58.5 105.834 75.5 156.501s32.5 110 46.5 178l104 539c18 95.333 1 148.666 -51 159.999c-20.667 4 -28.667 12.667 -24 26c2.66699 22 14.667 33 36 33
c65.333 -2.66699 107 -4 125 -4c34 0 100.333 1.33301 199 4l2 -4l-6 -37c-2.66699 -10.667 -20.334 -16.667 -53.001 -18c-70.667 -5.33301 -115.334 -49.666 -134.001 -132.999l-102 -529c-19.333 -98 -42.666 -182.167 -69.999 -252.5s-64.5 -134.833 -111.5 -193.5
s-106.667 -103 -179 -133s-157.5 -45 -255.5 -45zM709.003 1448c0 26 9.5 48.5 28.5 67.5s41.5 28.5 67.5 28.5s48.5 -9.5 67.5 -28.5s28.5 -41.5 28.5 -67.5s-9.5 -48.5 -28.5 -67.5s-41.5 -28.5 -67.5 -28.5s-48.5 9.5 -67.5 28.5s-28.5 41.5 -28.5 67.5zM1004 1448
c0 26 9.5 48.5 28.5 67.5s41.5 28.5 67.5 28.5s48.5 -9.5 67.5 -28.5s28.5 -41.5 28.5 -67.5s-9.5 -48.5 -28.5 -67.5s-41.5 -28.5 -67.5 -28.5s-48.5 9.5 -67.5 28.5s-28.5 41.5 -28.5 67.5z" />
    <glyph glyph-name="Yacute" unicode="&#xdd;" horiz-adv-x="1130" 
d="M831 1425c-16.667 0 -24.833 7.5 -24.5 22.5s14.833 32.167 43.5 51.5l289 172l133 -92l-346 -129c-50 -16.667 -81.667 -25 -95 -25zM688.001 156c-6.66699 -31.333 -3.16504 -53.8301 10.502 -67.4971s40.167 -22.834 79.5 -27.501l70 -6
c2.66699 -5.33301 3 -15.5 1 -30.5s-4.33301 -24.5 -7 -28.5c-120 2.66699 -206.667 4 -260 4c-40.667 0 -122.667 -1.33301 -246 -4c-4 9.33301 -5.33301 20.5 -4 33.5s4 21.5 8 25.5l63 6c75.333 6.66699 117.666 38.334 126.999 95.001l72 374c4.66699 22.667 7 40 7 52
c0 12.667 -2.33301 24.667 -7 36l-188 502c-22 56 -39.833 92.5 -53.5 109.5s-37.5 27.833 -71.5 32.5l-31 4c-2.66699 5.33301 -4.66699 15.166 -6 29.499s-0.666016 24.166 2.00098 29.499c76.667 -2.66699 147.667 -4 213 -4c39.333 0 112.333 1.33301 219 4
c2.66699 -4 3.33398 -13.5 2.00098 -28.5s-3.33301 -25.167 -6 -30.5l-68 -6c-32.667 -2.66699 -51 -9.83398 -55 -21.501s0 -31.167 12 -58.5l174 -494h9l323 494c20.667 30 30.334 50 29.001 60s-14.333 16.667 -39 20l-66 6c-2.66699 4 -3.33398 13.833 -2.00098 29.5
s3.66602 25.5 6.99902 29.5c104 -2.66699 166 -4 186 -4c30 0 84.667 1.33301 164 4c2.66699 -4 3 -13.5 1 -28.5s-5 -25.167 -9 -30.5l-54 -4c-32.667 -2.66699 -57.834 -11.667 -75.501 -27s-39.5 -41.333 -65.5 -78l-358 -522c-10.667 -18 -20.334 -46.667 -29.001 -86z
" />
    <glyph glyph-name="Thorn" unicode="&#xde;" horiz-adv-x="1026" 
d="M543 981l-117.001 -596c18 -6.66699 63.667 -10 137 -10c198 0 318.333 109 361 327c22 110.667 11.667 188.667 -31 234s-100 68 -172 68c-65.333 0 -124.666 -7.66699 -177.999 -23zM421.999 1178c5.33301 30 1.16406 50.665 -12.5029 61.998
s-40.167 18.666 -79.5 21.999l-51 4c-10.667 0 -15 5.33301 -13 16l8 39l5 2c113.333 -1.33301 195.666 -2 246.999 -2l254 2l2 -2l-6 -39c-2.66699 -10.667 -8.66699 -16 -18 -16l-56 -4c-39.333 -2.66699 -68.166 -10.167 -86.499 -22.5s-30.166 -32.833 -35.499 -61.5
l-21 -115c46.667 2.66699 105.334 4 176.001 4c69.333 0 129.333 -7.83301 180 -23.5s88.334 -36.5 113.001 -62.5s44.5 -55 59.5 -87s21.167 -64.333 18.5 -97l-8 -95c-8 -42 -24.333 -84.167 -49 -126.5s-57.5 -84 -98.5 -125s-95.333 -74.5 -163 -100.5
s-143.167 -39 -226.5 -39c-72.667 0 -121 5 -145 15l-35 -179c-5.33301 -31.333 -1.5 -53.166 11.5 -65.499s38.5 -19.833 76.5 -22.5l53 -4c10.667 0 15 -5.33301 13 -16l-9 -39l-4 -4c-113.333 2.66699 -196 4 -248 4l-254 -4l-4 4l9 39c2.66699 10.667 8.66699 16 18 16
l53 4c40.667 2.66699 70 10.834 88 24.501s30.333 34.834 37 63.501z" />
    <glyph glyph-name="germandbls" unicode="&#xdf;" horiz-adv-x="1112" 
d="M526 766l-70.498 -340.998c-31.667 -156.667 -55.834 -271.167 -72.501 -343.5s-40.667 -153.833 -72 -244.5s-64 -160.667 -98 -210c-56 -76.667 -125.667 -114.667 -209 -114c-63.333 0 -107.833 10 -133.5 30s-38.5 42.667 -38.5 68c0 17.333 6.16699 32.5 18.5 45.5
s29.833 19.5 52.5 19.5c37.333 0 66.333 -16.667 87 -50c7.33301 -11.333 12.833 -19.5 16.5 -24.5s9 -9.83301 16 -14.5s14.5 -7 22.5 -7c18 0 36.5 8.5 55.5 25.5s34.833 38.5 47.5 64.5c10.667 23.333 21.5 53.166 32.5 89.499s22.167 82 33.5 137l26 129.5
c6 31.333 14.833 80.833 26.5 148.5s18.5 105.834 20.5 114.501c45.333 251.333 75.333 413.666 90 486.999c0 10.667 -1.33301 17.167 -4 19.5s-9.66699 3.5 -21 3.5h-84c-10.667 0 -16 4.66699 -16 14c0 13.333 4.83301 27.666 14.5 42.999s25.167 23 46.5 23
c53.333 0 89.666 32.667 108.999 98c82 302 245.667 453 491 453c86 0 150.167 -18.5 192.5 -55.5s63.5 -81.5 63.5 -133.5c0 -128.667 -106.333 -261.667 -319 -399v-4c39.333 -31.333 70.333 -57.333 93 -78s49.334 -48 80.001 -82s53.167 -70.833 67.5 -110.5
s21.5 -81.5 21.5 -125.5c0 -106.667 -40.333 -210.334 -121 -311.001s-179 -151 -295 -151c-114.667 0 -172 45 -172 135s28 135 84 135c38 0 57.167 -13.667 57.5 -41s-7 -51.666 -22 -72.999s-22.5 -36 -22.5 -44c0 -30 30.667 -45 92 -45
c49.333 0 96.833 40.333 142.5 121s68.5 162.667 68.5 246c0 140.667 -68.333 273 -205 397l6 27c20.667 13.333 43.167 30.333 67.5 51s54.333 49 90 85s65.167 77.5 88.5 124.5s35 94.5 35 142.5c0 82 -41.667 123 -125 123c-40.667 0 -77.5 -9.5 -110.5 -28.5
s-60.167 -41.5 -81.5 -67.5s-40.833 -61.833 -58.5 -107.5s-31.334 -86 -41.001 -121s-20.5 -79.833 -32.5 -134.5z" />
    <glyph glyph-name="agrave" unicode="&#xe0;" horiz-adv-x="995" 
d="M764 1374l90.999 -258c4.66699 -16 5.33398 -32.333 2.00098 -49c-1.33301 -5.33301 -5.5 -10.5 -12.5 -15.5s-14.5 -7.5 -22.5 -7.5c-10.667 0 -27.667 13.667 -51 41l-188 224l8 22c48 31.333 95.667 47 143 47c9.33301 0 19.333 -1.33301 30 -4zM839.999 887
c10.667 -2.66699 58.3359 -4.00098 143.003 -4.00098l-141 -637c-13.333 -65.333 -20.333 -103.666 -21 -114.999c0 -19.333 8.33301 -29 25 -29c23.333 0 61.666 36.333 114.999 109c18 0 33.667 -11 47 -33c-60 -132.667 -147.667 -198.667 -263 -198
c-56 0 -83.667 30.667 -83 92c0 30 6.66699 67.333 20 112l27 86l-4 4c-132.667 -196.667 -248.334 -294.667 -347.001 -294c-132.667 0 -198.667 92 -198 276c0 155.333 57.667 301.333 173 438s229.666 205 342.999 205c35.333 0 90 -4 164 -12zM737.001 448.999
c15.333 38 29.167 86.001 41.5 144.001s20.5 106.333 24.5 145l6 59c-40.667 26 -83 39 -127 39c-88.667 0 -170.5 -62.167 -245.5 -186.5s-112.5 -244.5 -112.5 -360.5c0 -131.333 30 -197 90 -197c32.667 0 82 36.667 148 110s124.333 155.666 175 246.999z" />
    <glyph glyph-name="aacute" unicode="&#xe1;" horiz-adv-x="995" 
d="M754 1364c8 2.66699 17.666 4.00098 28.999 4.00098c42 0 76.333 -15.667 103 -47l2 -23l-281 -223c-31.333 -26 -54.333 -39 -69 -39c-7.33301 0 -13.5 2.66699 -18.5 8s-6.83301 11.666 -5.5 18.999c2.66699 14 14.334 33 35.001 57zM839.999 887.001
c10.667 -2.66699 58.3359 -4.00098 143.003 -4.00098l-141 -637c-13.333 -65.333 -20.333 -103.666 -21 -114.999c0 -19.333 8.33301 -29 25 -29c23.333 0 61.666 36.333 114.999 109c18 0 33.667 -11 47 -33c-60 -132.667 -147.667 -198.667 -263 -198
c-56 0 -83.667 30.667 -83 92c0 30 6.66699 67.333 20 112l27 86l-4 4c-132.667 -196.667 -248.334 -294.667 -347.001 -294c-132.667 0 -198.667 92 -198 276c0 155.333 57.667 301.333 173 438s229.666 205 342.999 205c35.333 0 90 -4 164 -12zM737.001 449
c15.333 38 29.167 86.001 41.5 144.001s20.5 106.333 24.5 145l6 59c-40.667 26 -83 39 -127 39c-88.667 0 -170.5 -62.167 -245.5 -186.5s-112.5 -244.5 -112.5 -360.5c0 -131.333 30 -197 90 -197c32.667 0 82 36.667 148 110s124.333 155.666 175 246.999z" />
    <glyph glyph-name="acircumflex" unicode="&#xe2;" horiz-adv-x="995" 
d="M782 1337c30 -72.667 81.001 -160.667 153.001 -264l-49 -29c-82 71.333 -141.667 133 -179 185c-72.667 -62 -158.334 -123.667 -257.001 -185l-35 29c120.667 110 209 198 265 264h102zM840.001 887c10.667 -2.66699 58.3359 -4.00098 143.003 -4.00098l-141 -637
c-13.333 -65.333 -20.333 -103.666 -21 -114.999c0 -19.333 8.33301 -29 25 -29c23.333 0 61.666 36.333 114.999 109c18 0 33.667 -11 47 -33c-60 -132.667 -147.667 -198.667 -263 -198c-56 0 -83.667 30.667 -83 92c0 30 6.66699 67.333 20 112l27 86l-4 4
c-132.667 -196.667 -248.334 -294.667 -347.001 -294c-132.667 0 -198.667 92 -198 276c0 155.333 57.667 301.333 173 438s229.666 205 342.999 205c35.333 0 90 -4 164 -12zM737.003 448.999c15.333 38 29.167 86.001 41.5 144.001s20.5 106.333 24.5 145l6 59
c-40.667 26 -83 39 -127 39c-88.667 0 -170.5 -62.167 -245.5 -186.5s-112.5 -244.5 -112.5 -360.5c0 -131.333 30 -197 90 -197c32.667 0 82 36.667 148 110s124.333 155.666 175 246.999z" />
    <glyph glyph-name="atilde" unicode="&#xe3;" horiz-adv-x="995" 
d="M810 1157c24 0 45.167 7.5 63.5 22.5s38.833 43.167 61.5 84.5l46 -13c-49.333 -122.667 -121 -184 -215 -184c-34 0 -74.333 17.667 -121 53c-43.333 30 -77 45 -101 45c-26 0 -48.167 -7.66699 -66.5 -23s-36.166 -40.333 -53.499 -75l-48 10c27.333 62 57 108 89 138
s69.333 45 112 45c43.333 0 88.666 -19.333 135.999 -58c34 -30 66.333 -45 97 -45zM840 887c10.667 -2.66699 58.3359 -4.00098 143.003 -4.00098l-141 -637c-13.333 -65.333 -20.333 -103.666 -21 -114.999c0 -19.333 8.33301 -29 25 -29
c23.333 0 61.666 36.333 114.999 109c18 0 33.667 -11 47 -33c-60 -132.667 -147.667 -198.667 -263 -198c-56 0 -83.667 30.667 -83 92c0 30 6.66699 67.333 20 112l27 86l-4 4c-132.667 -196.667 -248.334 -294.667 -347.001 -294c-132.667 0 -198.667 92 -198 276
c0 155.333 57.667 301.333 173 438s229.666 205 342.999 205c35.333 0 90 -4 164 -12zM737.002 448.999c15.333 38 29.167 86.001 41.5 144.001s20.5 106.333 24.5 145l6 59c-40.667 26 -83 39 -127 39c-88.667 0 -170.5 -62.167 -245.5 -186.5s-112.5 -244.5 -112.5 -360.5
c0 -131.333 30 -197 90 -197c32.667 0 82 36.667 148 110s124.333 155.666 175 246.999z" />
    <glyph glyph-name="adieresis" unicode="&#xe4;" horiz-adv-x="995" 
d="M469 1173.5c0 25.667 9.16699 47.834 27.5 66.501s40.5 28 66.5 28s48.167 -9.33301 66.5 -28s27.5 -40.834 27.5 -66.501s-9.16699 -47.834 -27.5 -66.501s-40.5 -28 -66.5 -28s-48.167 9.33301 -66.5 28s-27.5 40.834 -27.5 66.501zM797 1173.5
c0 25.667 9.16699 47.834 27.5 66.501s40.5 28 66.5 28s48.167 -9.33301 66.5 -28s27.5 -40.834 27.5 -66.501s-9.16699 -47.834 -27.5 -66.501s-40.5 -28 -66.5 -28s-48.167 9.33301 -66.5 28s-27.5 40.834 -27.5 66.501zM840 887
c10.667 -2.66699 58.3359 -4.00098 143.003 -4.00098l-141 -637c-13.333 -65.333 -20.333 -103.666 -21 -114.999c0 -19.333 8.33301 -29 25 -29c23.333 0 61.666 36.333 114.999 109c18 0 33.667 -11 47 -33c-60 -132.667 -147.667 -198.667 -263 -198
c-56 0 -83.667 30.667 -83 92c0 30 6.66699 67.333 20 112l27 86l-4 4c-132.667 -196.667 -248.334 -294.667 -347.001 -294c-132.667 0 -198.667 92 -198 276c0 155.333 57.667 301.333 173 438s229.666 205 342.999 205c35.333 0 90 -4 164 -12zM737.002 448.999
c15.333 38 29.167 86.001 41.5 144.001s20.5 106.333 24.5 145l6 59c-40.667 26 -83 39 -127 39c-88.667 0 -170.5 -62.167 -245.5 -186.5s-112.5 -244.5 -112.5 -360.5c0 -131.333 30 -197 90 -197c32.667 0 82 36.667 148 110s124.333 155.666 175 246.999z" />
    <glyph glyph-name="aring" unicode="&#xe5;" horiz-adv-x="995" 
d="M723 1329c-30.667 0 -57.501 -11.166 -80.501 -33.499s-37.833 -49.5 -44.5 -81.5c-6 -30.667 -2 -57.334 12 -80.001s36.167 -34 66.5 -34s57.333 11.5 81 34.5s38.834 49.5 45.501 79.5c6.66699 32.667 2.5 60 -12.5 82s-37.5 33 -67.5 33zM521.999 1214.5
c9.33301 46.333 35.168 86.167 77.501 119.5s87.5 50 135.5 50s86.333 -16.333 115 -49s38 -73 28 -121c-9.33301 -46 -34.833 -85.833 -76.5 -119.5s-86.834 -50.5 -135.501 -50.5c-47.333 0 -85.5 16.833 -114.5 50.5s-38.833 73.667 -29.5 120zM840.001 887.002
c10.667 -2.66699 58.3359 -4.00098 143.003 -4.00098l-141 -637c-13.333 -65.333 -20.333 -103.666 -21 -114.999c0 -19.333 8.33301 -29 25 -29c23.333 0 61.666 36.333 114.999 109c18 0 33.667 -11 47 -33c-60 -132.667 -147.667 -198.667 -263 -198
c-56 0 -83.667 30.667 -83 92c0 30 6.66699 67.333 20 112l27 86l-4 4c-132.667 -196.667 -248.334 -294.667 -347.001 -294c-132.667 0 -198.667 92 -198 276c0 155.333 57.667 301.333 173 438s229.666 205 342.999 205c35.333 0 90 -4 164 -12zM737.003 449.001
c15.333 38 29.167 86.001 41.5 144.001s20.5 106.333 24.5 145l6 59c-40.667 26 -83 39 -127 39c-88.667 0 -170.5 -62.167 -245.5 -186.5s-112.5 -244.5 -112.5 -360.5c0 -131.333 30 -197 90 -197c32.667 0 82 36.667 148 110s124.333 155.666 175 246.999z" />
    <glyph glyph-name="ae" unicode="&#xe6;" horiz-adv-x="1406" 
d="M883 518c54.667 2.66699 99.6689 5.66699 135.002 9s75.166 9.5 119.499 18.5s79.166 20 104.499 33s46.833 30.833 64.5 53.5s26.5 49 26.5 79c0 31.333 -12.667 58.833 -38 82.5s-59 35.5 -101 35.5c-66.667 0 -128 -29.333 -184 -88s-98.333 -133 -127 -223z
M713.002 440c-30 -2.66699 -59.6689 -6.00098 -89.002 -10.001s-66.666 -12.167 -111.999 -24.5s-84.333 -27 -117 -44s-61 -41.167 -85 -72.5s-36 -67 -36 -107c0 -78 50.667 -116.667 152 -116c88.667 0 159.667 47 213 141c20.667 36.667 45.334 114.334 74.001 233.001z
M754 683.999c0 57.333 -14.667 97.335 -44 120.002s-60 34 -92 34c-27.333 0 -54.666 -3.16699 -81.999 -9.5s-53.333 -19.333 -78 -39s-37 -44.5 -37 -74.5c0 -4.66699 0.5 -9.66699 1.5 -15s1.5 -9.66602 1.5 -12.999c0 -24.667 -9.83301 -45.667 -29.5 -63
s-43.167 -26 -70.5 -26c-44 0 -66 20.333 -66 61c0 64 40 120 120 168s167 72 261 72c135.333 0 218.666 -47.667 249.999 -143c91.333 95.333 199 143 323 143c95.333 0 166 -19.167 212 -57.5s69 -79.833 69 -124.5c0 -40.667 -12.667 -76.834 -38 -108.501
s-57 -56.667 -95 -75s-87.167 -34 -147.5 -47s-116 -21.833 -167 -26.5s-112.167 -9.33398 -183.5 -14.001c-8 -38 -12 -75.333 -12 -112c0 -78 18.833 -139.833 56.5 -185.5s88.5 -68.5 152.5 -68.5c92.667 0 180.667 37.667 264 113l29 -21
c-44 -57.333 -96.333 -103.666 -157 -138.999s-123.667 -53 -189 -53c-132.667 0 -227 47 -283 141c-39.333 -42 -88.5 -76 -147.5 -102s-116.5 -39 -172.5 -39c-91.333 0 -160.833 16.667 -208.5 50s-71.5 78.666 -71.5 135.999c0 203.333 202 318.666 606 345.999
c16.667 78 25 135.333 25 172z" />
    <glyph glyph-name="ccedilla" unicode="&#xe7;" horiz-adv-x="796" 
d="M433 -188c-35.333 0 -66.998 -4.33203 -94.998 -12.999l-9 13l104 168h-5c-84.667 0 -150.334 32.667 -197.001 98c-40.667 57.333 -61 133 -61 227c0 89.333 15 172.666 45 249.999s71 144 123 200c40.667 43.333 89.834 78.166 147.501 104.499
s108.167 39.5 151.5 39.5c52 0 94.667 -5.83301 128 -17.5s56.833 -29 70.5 -52s22.167 -43.5 25.5 -61.5s5 -40 5 -66c0 -24.667 -10.5 -46.167 -31.5 -64.5s-45.833 -27.5 -74.5 -27.5c-16.667 0 -30 6.5 -40 19.5s-15 28.333 -15 46s3.33301 32 10 43s10 24.167 10 39.5
c0 52 -28.667 78 -86 78c-83.333 0 -154.333 -44.167 -213 -132.5s-88 -206.166 -88 -353.499c0 -91.333 17 -159 51 -203c24.667 -31.333 59 -47 103 -47c50.667 0 97.167 13.5 139.5 40.5s85.833 65.833 130.5 116.5c9.33301 0 18.333 -3.33301 27 -10s14.667 -15 18 -25
c-90 -126 -189 -203.333 -297 -232l-69 -119c17.333 4 35.666 6 54.999 6c36.667 0 66.167 -9 88.5 -27s33.5 -42.333 33.5 -73c0 -52.667 -25.667 -95.5 -77 -128.5s-110 -49.5 -176 -49.5c-48 0 -96 11.333 -144 34c4.66699 22 15 40 31 54c48 -19.333 85.667 -29 113 -29
c37.333 0 67.166 9.5 89.499 28.5s33.5 44.167 33.5 75.5c0 33.333 -18.333 50 -55 50z" />
    <glyph glyph-name="egrave" unicode="&#xe8;" horiz-adv-x="821" 
d="M688 1374l90.999 -258c4.66699 -16 5.33398 -32.333 2.00098 -49c-1.33301 -5.33301 -5.5 -10.5 -12.5 -15.5s-14.5 -7.5 -22.5 -7.5c-10.667 0 -27.667 13.667 -51 41l-188 224l9 22c48 31.333 95.333 47 142 47c9.33301 0 19.333 -1.33301 30 -4zM726.999 758
c0 30 -7.5 50.502 -22.5 61.502s-40.833 16.5 -77.5 16.5c-122 0 -212.333 -116.667 -271 -350c44 5.33301 85.667 13.833 125 25.5s78.5 27.667 117.5 48s70.167 47.666 93.5 81.999s35 73.166 35 116.499zM341.999 408.002c-1.33301 -10.667 -2.00098 -34 -2.00098 -70
c0 -87.333 13.333 -148.5 40 -183.5s65.167 -52.5 115.5 -52.5s92.666 8.66699 126.999 26s79.5 54.666 135.5 111.999c22 0 37.667 -11 47 -33c-117.333 -151.333 -245 -227 -383 -227c-82 0 -144.5 29 -187.5 87s-64.5 132.667 -64.5 224
c0 53.333 5.83301 107.666 17.5 162.999s30.834 109.833 57.501 163.5s59 101 97 142s85.667 74.5 143 100.5s120.333 39 189 39c65.333 0 114 -16.667 146 -50s48 -67 48 -101c0 -18 -0.333008 -31.167 -1 -39.5s-4 -22.666 -10 -42.999s-15.167 -37.666 -27.5 -51.999
s-31.166 -31.833 -56.499 -52.5s-56 -38.834 -92 -54.501s-83 -32.167 -141 -49.5s-124 -33.666 -198 -48.999z" />
    <glyph glyph-name="eacute" unicode="&#xe9;" horiz-adv-x="821" 
d="M764 1364c8 2.66699 18 4.00098 30 4.00098c42 0 76.333 -15.667 103 -47l1 -23l-281 -223c-31.333 -26 -54.333 -39 -69 -39c-7.33301 0 -13.5 2.66699 -18.5 8s-6.83301 11.666 -5.5 18.999c2.66699 14 14.667 33 36 57zM727 758.001c0 30 -7.5 50.502 -22.5 61.502
s-40.833 16.5 -77.5 16.5c-122 0 -212.333 -116.667 -271 -350c44 5.33301 85.667 13.833 125 25.5s78.5 27.667 117.5 48s70.167 47.666 93.5 81.999s35 73.166 35 116.499zM342 408.003c-1.33301 -10.667 -2.00098 -34 -2.00098 -70c0 -87.333 13.333 -148.5 40 -183.5
s65.167 -52.5 115.5 -52.5s92.666 8.66699 126.999 26s79.5 54.666 135.5 111.999c22 0 37.667 -11 47 -33c-117.333 -151.333 -245 -227 -383 -227c-82 0 -144.5 29 -187.5 87s-64.5 132.667 -64.5 224c0 53.333 5.83301 107.666 17.5 162.999s30.834 109.833 57.501 163.5
s59 101 97 142s85.667 74.5 143 100.5s120.333 39 189 39c65.333 0 114 -16.667 146 -50s48 -67 48 -101c0 -18 -0.333008 -31.167 -1 -39.5s-4 -22.666 -10 -42.999s-15.167 -37.666 -27.5 -51.999s-31.166 -31.833 -56.499 -52.5s-56 -38.834 -92 -54.501
s-83 -32.167 -141 -49.5s-124 -33.666 -198 -48.999z" />
    <glyph glyph-name="ecircumflex" unicode="&#xea;" horiz-adv-x="821" 
d="M716 1337c30 -72.667 81.334 -160.667 154.001 -264l-49 -29c-82 71.333 -142 133 -180 185c-72.667 -62 -158.334 -123.667 -257.001 -185l-35 29c120.667 110 209 198 265 264h102zM727.001 758c0 30 -7.5 50.502 -22.5 61.502s-40.833 16.5 -77.5 16.5
c-122 0 -212.333 -116.667 -271 -350c44 5.33301 85.667 13.833 125 25.5s78.5 27.667 117.5 48s70.167 47.666 93.5 81.999s35 73.166 35 116.499zM342.001 408.002c-1.33301 -10.667 -2.00098 -34 -2.00098 -70c0 -87.333 13.333 -148.5 40 -183.5
s65.167 -52.5 115.5 -52.5s92.666 8.66699 126.999 26s79.5 54.666 135.5 111.999c22 0 37.667 -11 47 -33c-117.333 -151.333 -245 -227 -383 -227c-82 0 -144.5 29 -187.5 87s-64.5 132.667 -64.5 224c0 53.333 5.83301 107.666 17.5 162.999s30.834 109.833 57.501 163.5
s59 101 97 142s85.667 74.5 143 100.5s120.333 39 189 39c65.333 0 114 -16.667 146 -50s48 -67 48 -101c0 -18 -0.333008 -31.167 -1 -39.5s-4 -22.666 -10 -42.999s-15.167 -37.666 -27.5 -51.999s-31.166 -31.833 -56.499 -52.5s-56 -38.834 -92 -54.501
s-83 -32.167 -141 -49.5s-124 -33.666 -198 -48.999z" />
    <glyph glyph-name="edieresis" unicode="&#xeb;" horiz-adv-x="821" 
d="M397 1173.5c0 25.667 9.33301 47.834 28 66.501s40.834 28 66.501 28s47.834 -9.33301 66.501 -28s28 -40.834 28 -66.501s-9.33301 -47.834 -28 -66.501s-40.834 -28 -66.501 -28s-47.834 9.33301 -66.501 28s-28 40.834 -28 66.501zM725 1173.5
c0 25.667 9.16699 47.834 27.5 66.501s40.5 28 66.5 28s48.167 -9.33301 66.5 -28s27.5 -40.834 27.5 -66.501s-9.16699 -47.834 -27.5 -66.501s-40.5 -28 -66.5 -28s-48.167 9.33301 -66.5 28s-27.5 40.834 -27.5 66.501zM727 758c0 30 -7.5 50.502 -22.5 61.502
s-40.833 16.5 -77.5 16.5c-122 0 -212.333 -116.667 -271 -350c44 5.33301 85.667 13.833 125 25.5s78.5 27.667 117.5 48s70.167 47.666 93.5 81.999s35 73.166 35 116.499zM342 408.002c-1.33301 -10.667 -2.00098 -34 -2.00098 -70c0 -87.333 13.333 -148.5 40 -183.5
s65.167 -52.5 115.5 -52.5s92.666 8.66699 126.999 26s79.5 54.666 135.5 111.999c22 0 37.667 -11 47 -33c-117.333 -151.333 -245 -227 -383 -227c-82 0 -144.5 29 -187.5 87s-64.5 132.667 -64.5 224c0 53.333 5.83301 107.666 17.5 162.999s30.834 109.833 57.501 163.5
s59 101 97 142s85.667 74.5 143 100.5s120.333 39 189 39c65.333 0 114 -16.667 146 -50s48 -67 48 -101c0 -18 -0.333008 -31.167 -1 -39.5s-4 -22.666 -10 -42.999s-15.167 -37.666 -27.5 -51.999s-31.166 -31.833 -56.499 -52.5s-56 -38.834 -92 -54.501
s-83 -32.167 -141 -49.5s-124 -33.666 -198 -48.999z" />
    <glyph glyph-name="igrave" unicode="&#xec;" horiz-adv-x="565" 
d="M436 1374l90.998 -258c4.66699 -16 5.33398 -32.333 2.00098 -49c-1.33301 -5.33301 -5.5 -10.5 -12.5 -15.5s-14.5 -7.5 -22.5 -7.5c-10.667 0 -27.667 13.667 -51 41l-188 224l9 22c48 31.333 95.667 47 143 47c8.66699 0 18.334 -1.33301 29.001 -4zM501.998 656
l-91.999 -402.001c-15.333 -65.333 -23 -104.333 -23 -117c0 -23.333 7 -35 21 -35c10.667 0 29 10 55 30s52 44.333 78 73c23.333 0 39 -11.667 47 -35c-100 -126.667 -195 -190 -285 -190c-56 0 -84 22.333 -84 67c0 19.333 11.667 82.333 35 189l96 421
c12 52 18.333 87 19 105c0 24.667 -12.333 38.334 -37 41.001l-82 6c-15.333 22 -16 41 -2 57c139.333 18 224 27 254 27c28 0 42 -14.333 42 -43c0 -10.667 -1.83301 -25 -5.5 -43s-9.83398 -44.167 -18.501 -78.5z" />
    <glyph glyph-name="iacute" unicode="&#xed;" horiz-adv-x="565" 
d="M625 1393c8 2.66699 17.666 4.00098 28.999 4.00098c42 0 76.333 -15.667 103 -47l2 -23l-281 -223c-31.333 -26 -54.333 -39 -69 -39c-7.33301 0 -13.5 2.66699 -18.5 8s-6.83301 11.666 -5.5 18.999c2.66699 14 14.334 33 35.001 57zM501.999 656.001l-91.999 -402.001
c-15.333 -65.333 -23 -104.333 -23 -117c0 -23.333 7 -35 21 -35c10.667 0 29 10 55 30s52 44.333 78 73c23.333 0 39 -11.667 47 -35c-100 -126.667 -195 -190 -285 -190c-56 0 -84 22.333 -84 67c0 19.333 11.667 82.333 35 189l96 421c12 52 18.333 87 19 105
c0 24.667 -12.333 38.334 -37 41.001l-82 6c-15.333 22 -16 41 -2 57c139.333 18 224 27 254 27c28 0 42 -14.333 42 -43c0 -10.667 -1.83301 -25 -5.5 -43s-9.83398 -44.167 -18.501 -78.5z" />
    <glyph glyph-name="icircumflex" unicode="&#xee;" horiz-adv-x="565" 
d="M575 1337c30 -72.667 81.001 -160.667 153.001 -264l-49 -29c-82 71.333 -141.667 133 -179 185c-72.667 -62 -158.334 -123.667 -257.001 -185l-35 29c120.667 110 209 198 265 264h102zM502.001 656l-91.999 -402.001c-15.333 -65.333 -23 -104.333 -23 -117
c0 -23.333 7 -35 21 -35c10.667 0 29 10 55 30s52 44.333 78 73c23.333 0 39 -11.667 47 -35c-100 -126.667 -195 -190 -285 -190c-56 0 -84 22.333 -84 67c0 19.333 11.667 82.333 35 189l96 421c12 52 18.333 87 19 105c0 24.667 -12.333 38.334 -37 41.001l-82 6
c-15.333 22 -16 41 -2 57c139.333 18 224 27 254 27c28 0 42 -14.333 42 -43c0 -10.667 -1.83301 -25 -5.5 -43s-9.83398 -44.167 -18.501 -78.5z" />
    <glyph glyph-name="idieresis" unicode="&#xef;" horiz-adv-x="565" 
d="M236 1173.5c0 25.667 9.16699 47.834 27.5 66.501s40.5 28 66.5 28s48.167 -9.33301 66.5 -28s27.5 -40.834 27.5 -66.501s-9.16699 -47.834 -27.5 -66.501s-40.5 -28 -66.5 -28s-48.167 9.33301 -66.5 28s-27.5 40.834 -27.5 66.501zM563 1173.5
c0 25.667 9.16699 47.834 27.5 66.501s40.5 28 66.5 28s48.333 -9.33301 67 -28s28 -40.834 28 -66.501s-9.33301 -47.834 -28 -66.501s-41 -28 -67 -28s-48.167 9.33301 -66.5 28s-27.5 40.834 -27.5 66.501zM502 656l-91.999 -402.001
c-15.333 -65.333 -23 -104.333 -23 -117c0 -23.333 7 -35 21 -35c10.667 0 29 10 55 30s52 44.333 78 73c23.333 0 39 -11.667 47 -35c-100 -126.667 -195 -190 -285 -190c-56 0 -84 22.333 -84 67c0 19.333 11.667 82.333 35 189l96 421c12 52 18.333 87 19 105
c0 24.667 -12.333 38.334 -37 41.001l-82 6c-15.333 22 -16 41 -2 57c139.333 18 224 27 254 27c28 0 42 -14.333 42 -43c0 -10.667 -1.83301 -25 -5.5 -43s-9.83398 -44.167 -18.501 -78.5z" />
    <glyph glyph-name="eth" unicode="&#xf0;" horiz-adv-x="978" 
d="M168 426c19.333 83.333 50.4971 157.332 93.4971 221.999s90.333 114.834 142 150.501s102.834 62.334 153.501 80.001s98.334 26.5 143.001 26.5c58.667 0 109.334 -9.33301 152.001 -28c-20.667 109.333 -59 211.666 -115 306.999l-258 -150l-28 66l247 143l-24 35
c-32.667 42 -69.667 81.667 -111 119l41 43c70.667 -44 132 -92 184 -144l252 146l29 -66l-229 -135l28 -35c113.333 -150 170 -318 170 -504c0 -72.667 -8.66699 -145 -26 -217c-38 -164 -110 -290 -216 -378s-221 -132 -345 -132c-98 0 -172 31.5 -222 94.5
s-75 141.5 -75 235.5c0 32.667 4.66699 73 14 121zM503.997 54.999c62.667 0 125.667 30.167 189 90.5s112.333 164.166 147 311.499c19.333 84.667 28.666 166.334 27.999 245.001c0 4 -0.333008 9.83301 -1 17.5s-1 12.834 -1 15.501
c-35.333 65.333 -96.666 98.333 -183.999 99c-49.333 0 -94.833 -11.667 -136.5 -35s-76.167 -54.833 -103.5 -94.5s-49.5 -79.334 -66.5 -119.001s-30.167 -81.167 -39.5 -124.5c-12 -49.333 -18.333 -95.666 -19 -138.999c0 -80.667 17.167 -145.334 51.5 -194.001
s79.5 -73 135.5 -73z" />
    <glyph glyph-name="ntilde" unicode="&#xf1;" horiz-adv-x="1060" 
d="M894 1167c24 0 45.168 7.50195 63.501 22.502s38.5 43.167 60.5 84.5l47 -12c-49.333 -122.667 -121 -184.334 -215 -185.001c-34 0 -74.333 17.667 -121 53c-43.333 30 -77 45.333 -101 46c-26 0 -48.167 -7.83301 -66.5 -23.5s-36.5 -40.834 -54.5 -75.501l-47 10
c27.333 62 57 108 89 138s69.333 45 112 45c43.333 0 88.666 -19.333 135.999 -58c34 -30 66.333 -45 97 -45zM887.001 254.002c-15.333 -65.333 -23 -104.332 -23 -116.999c0 -23.333 7 -35 21 -35c10.667 0 29 10 55 30s52 44.333 78 73c23.333 0 39 -11.667 47 -35
c-100 -126.667 -197 -190 -291 -190c-56 0 -84 22.333 -84 67c0 32.667 11.667 95.667 35 189l78 327c18 75.333 26.667 121.666 26 138.999c0 30 -5.66699 49.833 -17 59.5s-29.333 14.5 -54 14.5c-62.667 0 -168 -96.333 -316 -289l-78 -340
c-2 -10 -4.83301 -25.333 -8.5 -46s-7 -36.5 -10 -47.5s-7.5 -23.167 -13.5 -36.5s-14 -22.833 -24 -28.5s-22.667 -8.5 -38 -8.5c-58.667 0 -88 18.333 -88 55c0 2.66699 8.66699 40 26 112l116 510c12 57.333 18 92.333 18 105c0 24.667 -12.333 38.334 -37 41.001l-82 6
c-15.333 22 -16 41 -2 57c118.667 18 204.667 27 258 27c28 0 42 -14.333 42 -43c0 -48 -14.333 -112.667 -43 -194l-7 -19l2 -2c90 105.333 162 175.666 216 210.999s109.667 53 167 53c90 0 135 -54.667 135 -164c0 -26 -8.66699 -77.667 -26 -155z" />
    <glyph glyph-name="ograve" unicode="&#xf2;" horiz-adv-x="915" 
d="M330 348c0 -96.667 15.668 -169.667 47.001 -219s64.666 -74 99.999 -74c90 0 162.333 41.667 217 125c58.667 90 88 214.333 88 373c0 83.333 -10.333 146 -31 188c-30.667 60 -72 90 -124 90c-66.667 0 -124 -28.167 -172 -84.5s-80.833 -119.5 -98.5 -189.5
s-26.5 -139.667 -26.5 -209zM160.001 332c0 64 10.5 128.5 31.5 193.5s51.333 125.833 91 182.5s92.667 102.667 159 138s140.5 53 222.5 53c192.667 0 288.667 -110.667 288 -332c0 -118.667 -30 -228.167 -90 -328.5s-135.667 -173.833 -227 -220.5
c-52 -26 -115 -38.667 -189 -38c-61.333 0 -112.5 12.5 -153.5 37.5s-70.333 58 -88 99s-29.5 78.333 -35.5 112s-9 68.167 -9 103.5zM729.001 1374l90.999 -258c4.66699 -16 5.33398 -32.333 2.00098 -49c-1.33301 -5.33301 -5.5 -10.5 -12.5 -15.5s-14.5 -7.5 -22.5 -7.5
c-10.667 0 -27.667 13.667 -51 41l-188 224l9 22c48 31.333 95.333 47 142 47c9.33301 0 19.333 -1.33301 30 -4z" />
    <glyph glyph-name="oacute" unicode="&#xf3;" horiz-adv-x="915" 
d="M330 348c0 -96.667 15.668 -169.667 47.001 -219s64.666 -74 99.999 -74c90 0 162.333 41.667 217 125c58.667 90 88 214.333 88 373c0 83.333 -10.333 146 -31 188c-30.667 60 -72 90 -124 90c-66.667 0 -124 -28.167 -172 -84.5s-80.833 -119.5 -98.5 -189.5
s-26.5 -139.667 -26.5 -209zM160.001 332c0 64 10.5 128.5 31.5 193.5s51.333 125.833 91 182.5s92.667 102.667 159 138s140.5 53 222.5 53c192.667 0 288.667 -110.667 288 -332c0 -118.667 -30 -228.167 -90 -328.5s-135.667 -173.833 -227 -220.5
c-52 -26 -115 -38.667 -189 -38c-61.333 0 -112.5 12.5 -153.5 37.5s-70.333 58 -88 99s-29.5 78.333 -35.5 112s-9 68.167 -9 103.5zM700.001 1364c8 2.66699 17.999 4.00098 29.999 4.00098c42 0 76.333 -15.667 103 -47l2 -23l-281 -223
c-31.333 -26 -54.666 -39 -69.999 -39c-7.33301 0 -13.333 2.66699 -18 8s-6.33398 11.666 -5.00098 18.999c2.66699 14 14.334 33 35.001 57z" />
    <glyph glyph-name="ocircumflex" unicode="&#xf4;" horiz-adv-x="915" 
d="M330 348c0 -96.667 15.668 -169.667 47.001 -219s64.666 -74 99.999 -74c90 0 162.333 41.667 217 125c58.667 90 88 214.333 88 373c0 83.333 -10.333 146 -31 188c-30.667 60 -72 90 -124 90c-66.667 0 -124 -28.167 -172 -84.5s-80.833 -119.5 -98.5 -189.5
s-26.5 -139.667 -26.5 -209zM160.001 332c0 64 10.5 128.5 31.5 193.5s51.333 125.833 91 182.5s92.667 102.667 159 138s140.5 53 222.5 53c192.667 0 288.667 -110.667 288 -332c0 -118.667 -30 -228.167 -90 -328.5s-135.667 -173.833 -227 -220.5
c-52 -26 -115 -38.667 -189 -38c-61.333 0 -112.5 12.5 -153.5 37.5s-70.333 58 -88 99s-29.5 78.333 -35.5 112s-9 68.167 -9 103.5zM741.001 1337c30 -72.667 81.001 -160.667 153.001 -264l-49 -29c-82 71.333 -141.667 133 -179 185
c-72.667 -62 -158.334 -123.667 -257.001 -185l-35 29c120.667 110 209 198 265 264h102z" />
    </font>
</defs>
</svg>
