<?xml version="1.0" standalone="no"?>
<!DOCTYPE svg PUBLIC "-//W3C//DTD SVG 1.1//EN" "http://www.w3.org/Graphics/SVG/1.1/DTD/svg11.dtd" >
<svg>
<metadata>
Created by FontForge 20090914 at Sat May 21 10:24:07 2016
 By www-data
Linux Libertine by Philipp H. Poll,
Open Font under Terms of following Free Software Licenses:
GPL (General Public License) with font-exception and OFL (Open Font License).
Created with FontForge (http://fontforge.sf.net)
Sept 2003, 2004, 2005, 2006, 2007, 2008, 2009, 2010, 2011,2012
</metadata>
<defs>
<font id="LinLibertineB" horiz-adv-x="0" >
  <font-face 
    font-family="Linux Libertine"
    font-weight="700"
    font-stretch="normal"
    units-per-em="2048"
    panose-1="2 0 8 3 0 0 0 0 0 0"
    ascent="1638"
    descent="-410"
    x-height="892.999"
    cap-height="1325"
    bbox="-2216 -672.001 12638 2077"
    underline-thickness="81"
    underline-position="-201"
    unicode-range="U+0020-U+FFFD"
  />
<missing-glyph horiz-adv-x="1024" 
d="M102 1239v-1044l349 522zM164 102h696l-348 523zM573 717l349 -522v1044zM512 809l348 522h-696zM0 0v1434h1024v-1434h-1024z" />
    <glyph glyph-name="ellipsis" unicode="&#x2e;&#x2e;&#x2e;" horiz-adv-x="1673" 
d="M100 119c0 39.333 15 73.332 45 101.999s65.5 43 106.5 43s75.833 -13.667 104.5 -41s43 -60.666 43 -99.999c0 -38 -15 -71.333 -45 -100s-65.5 -43 -106.5 -43s-75.833 13.667 -104.5 41s-43 60 -43 98zM686 118.999c0 39.333 15 73.332 45 101.999s65.5 43 106.5 43
s75.833 -13.667 104.5 -41s43 -60.666 43 -99.999c0 -38 -15 -71.333 -45 -100s-65.5 -43 -106.5 -43s-75.833 13.667 -104.5 41s-43 60 -43 98zM1274 118.998c0 39.333 15 73.332 45 101.999s65.5 43 106.5 43s75.833 -13.667 104.5 -41s43 -60.666 43 -99.999
c0 -38 -15 -71.333 -45 -100s-65.5 -43 -106.5 -43s-75.833 13.667 -104.5 41s-43 60 -43 98z" />
    <glyph glyph-name="exclamdbl" unicode="&#x21;&#x21;" horiz-adv-x="841" 
d="M649 1352c40.667 0 75.4971 -13.332 104.497 -39.999s43.5 -64.667 43.5 -114c0 -39.333 -9.66699 -111.666 -29 -216.999c-38 -233.333 -58.333 -402 -61 -506c-1.33301 -57.333 -20.666 -86 -57.999 -86c-24.667 0 -40.667 8.5 -48 25.5s-11.666 45.5 -12.999 85.5
c-4 135.333 -23.333 297.666 -58 486.999c-19.333 95.333 -28.666 165.666 -27.999 210.999c0 52 15 90.667 45 116s64 38 102 38zM499.997 123.001c0 39.333 15 73.332 45 101.999s65.5 43 106.5 43s75.833 -13.667 104.5 -41s43 -60.666 43 -99.999
c0 -38 -15 -71.333 -45 -100s-65.5 -43 -106.5 -43s-75.833 13.667 -104.5 41s-43 60 -43 98zM271.997 1348c40.667 0 75.498 -13.332 104.498 -39.999s43.5 -64.667 43.5 -114c0 -39.333 -9.66699 -111.666 -29 -216.999c-38 -233.333 -58.333 -402 -61 -506
c-1.33301 -57.333 -20.666 -86 -57.999 -86c-24.667 0 -40.667 8.5 -48 25.5s-11.666 45.5 -12.999 85.5c-4 135.333 -23 297.666 -57 486.999c-19.333 95.333 -29 165.666 -29 210.999c0 52 15 90.667 45 116s64 38 102 38zM122.995 119.001c0 39.333 15 73.332 45 101.999
s65.5 43 106.5 43s75.833 -13.667 104.5 -41s43 -60.666 43 -99.999c0 -38 -15 -71.333 -45 -100s-65.5 -43 -106.5 -43s-75.833 13.667 -104.5 41s-43 60 -43 98z" />
    <glyph glyph-name="question_question" unicode="&#x3f;&#x3f;" horiz-adv-x="1691" 
d="M1071 1167c0 -13.333 3.16406 -30.334 9.49707 -51.001s9.5 -40.334 9.5 -59.001c0 -24.667 -10.333 -44.834 -31 -60.501s-46.667 -23.5 -78 -23.5c-27.333 0 -53.666 10.833 -78.999 32.5s-38 50.5 -38 86.5c0 57.333 36.333 116 109 176c64 53.333 157.333 80 280 80
c116 0 208.167 -28.667 276.5 -86s102.5 -133.333 102.5 -228c0 -35.333 -6.5 -68.666 -19.5 -99.999s-33.167 -61.666 -60.5 -90.999s-50.5 -51.833 -69.5 -67.5s-46.167 -36.5 -81.5 -62.5c-26 -18 -46.5 -34.5 -61.5 -49.5s-30 -39.833 -45 -74.5
s-22.5 -74.667 -22.5 -120v-27c0 -27.333 -4.16699 -45.666 -12.5 -54.999s-26.833 -14 -55.5 -14c-26 0 -43.333 5.5 -52 16.5s-13 28.5 -13 52.5v31c0 39.333 1.66699 71.666 5 96.999s16.333 60.833 39 106.5s56.334 89.167 101.001 130.5
c75.333 66.667 113 147.334 113 242.001c0 64 -13.667 117.5 -41 160.5s-68.333 64.5 -123 64.5c-45.333 0 -83.666 -10.667 -114.999 -32s-47 -46.333 -47 -75zM1059 118.999c0 39.333 15 73.332 45 101.999s65.5 43 106.5 43s75.833 -13.667 104.5 -41
s43 -60.666 43 -99.999c0 -38 -15 -71.333 -45 -100s-65.5 -43 -106.5 -43s-75.833 13.667 -104.5 41s-43 60 -43 98zM259.997 1167c0 -13.333 3.16406 -30.334 9.49707 -51.001s9.5 -40.334 9.5 -59.001c0 -24.667 -10.333 -44.834 -31 -60.501s-46.667 -23.5 -78 -23.5
c-27.333 0 -53.666 10.833 -78.999 32.5s-38 50.5 -38 86.5c0 57.333 36.333 116 109 176c64 53.333 157.333 80 280 80c116 0 208.167 -28.667 276.5 -86s102.5 -133.333 102.5 -228c0 -35.333 -6.5 -68.666 -19.5 -99.999s-33.167 -61.666 -60.5 -90.999
s-50.5 -51.833 -69.5 -67.5s-46.167 -36.5 -81.5 -62.5c-26 -18 -46.5 -34.5 -61.5 -49.5s-30 -39.833 -45 -74.5s-22.5 -74.667 -22.5 -120v-27c0 -27.333 -4.16699 -45.666 -12.5 -54.999s-26.833 -14 -55.5 -14c-26 0 -43.333 5.5 -52 16.5s-13 28.5 -13 52.5v31
c0 39.333 1.66699 71.666 5 96.999s16.333 60.833 39 106.5s56.334 89.167 101.001 130.5c75.333 66.667 113 147.334 113 242.001c0 64 -13.667 117.5 -41 160.5s-68.333 64.5 -123 64.5c-45.333 0 -83.666 -10.667 -114.999 -32s-47 -46.333 -47 -75zM247.994 118.997
c0 39.333 15 73.332 45 101.999s65.5 43 106.5 43s75.833 -13.667 104.5 -41s43 -60.666 43 -99.999c0 -38 -15 -71.333 -45 -100s-65.5 -43 -106.5 -43s-75.833 13.667 -104.5 41s-43 60 -43 98z" />
    <glyph glyph-name="question_exclam" unicode="&#x3f;&#x21;" horiz-adv-x="1259" 
d="M1067 1352c40.667 0 75.3311 -13.332 103.998 -39.999s43 -64.667 43 -114c0 -39.333 -9.33301 -111.666 -28 -216.999c-38 -233.333 -58.667 -402 -62 -506c-1.33301 -57.333 -20.333 -86 -57 -86c-24.667 0 -40.667 8.5 -48 25.5s-11.666 45.5 -12.999 85.5
c-4 135.333 -23.333 297.666 -58 486.999c-19.333 95.333 -28.666 165.666 -27.999 210.999c0 52 15 90.667 45 116s64 38 102 38zM917.997 123.001c0 39.333 15.001 73.332 45.001 101.999s65.333 43 106 43s75.5 -13.667 104.5 -41s43.5 -60.666 43.5 -99.999
c0 -38 -15.167 -71.333 -45.5 -100s-65.833 -43 -106.5 -43s-75.334 13.667 -104.001 41s-43 60 -43 98zM259.998 1167c0 -13.333 3.16406 -30.334 9.49707 -51.001s9.5 -40.334 9.5 -59.001c0 -24.667 -10.333 -44.834 -31 -60.501s-46.667 -23.5 -78 -23.5
c-27.333 0 -53.666 10.833 -78.999 32.5s-38 50.5 -38 86.5c0 57.333 36.333 116 109 176c64 53.333 157.333 80 280 80c116 0 208.167 -28.667 276.5 -86s102.5 -133.333 102.5 -228c0 -35.333 -6.5 -68.666 -19.5 -99.999s-33.167 -61.666 -60.5 -90.999
s-50.5 -51.833 -69.5 -67.5s-46.167 -36.5 -81.5 -62.5c-26 -18 -46.5 -34.5 -61.5 -49.5s-30 -39.833 -45 -74.5s-22.5 -74.667 -22.5 -120v-27c0 -27.333 -4.16699 -45.666 -12.5 -54.999s-26.833 -14 -55.5 -14c-26 0 -43.333 5.5 -52 16.5s-13 28.5 -13 52.5v31
c0 39.333 1.66699 71.666 5 96.999s16.333 60.833 39 106.5s56.334 89.167 101.001 130.5c75.333 66.667 113 147.334 113 242.001c0 64 -13.667 117.5 -41 160.5s-68.333 64.5 -123 64.5c-45.333 0 -83.666 -10.667 -114.999 -32s-47 -46.333 -47 -75zM247.995 118.999
c0 39.333 15 73.332 45 101.999s65.5 43 106.5 43s75.833 -13.667 104.5 -41s43 -60.666 43 -99.999c0 -38 -15 -71.333 -45 -100s-65.5 -43 -106.5 -43s-75.833 13.667 -104.5 41s-43 60 -43 98z" />
    <glyph glyph-name="exclam_question" unicode="&#x21;&#x3f;" horiz-adv-x="1286" 
d="M272 1348c40.667 0 75.498 -13.332 104.498 -39.999s43.5 -64.667 43.5 -114c0 -39.333 -9.66699 -111.666 -29 -216.999c-38 -233.333 -58.333 -402 -61 -506c-1.33301 -57.333 -20.666 -86 -57.999 -86c-24.667 0 -40.667 8.5 -48 25.5s-11.666 45.5 -12.999 85.5
c-4 135.333 -23 297.666 -57 486.999c-19.333 95.333 -29 165.666 -29 210.999c0 52 15 90.667 45 116s64 38 102 38zM122.998 119.001c0 39.333 15 73.332 45 101.999s65.5 43 106.5 43s75.833 -13.667 104.5 -41s43 -60.666 43 -99.999c0 -38 -15 -71.333 -45 -100
s-65.5 -43 -106.5 -43s-75.833 13.667 -104.5 41s-43 60 -43 98zM673.998 1163c0 -13.333 2.99902 -30.333 8.99902 -51s9 -40.334 9 -59.001c0 -24.667 -10.167 -44.834 -30.5 -60.501s-46.166 -23.5 -77.499 -23.5c-27.333 0 -53.666 10.833 -78.999 32.5
s-38 50.167 -38 85.5c0 57.333 36 116.333 108 177c64 53.333 157.667 79.666 281 78.999c116 0 208.167 -28.667 276.5 -86s102.5 -133 102.5 -227c0 -35.333 -6.5 -68.666 -19.5 -99.999s-33.167 -61.666 -60.5 -90.999s-50.5 -51.833 -69.5 -67.5
s-46.167 -36.5 -81.5 -62.5c-26 -18 -46.5 -34.5 -61.5 -49.5s-30.167 -40 -45.5 -75s-23 -74.833 -23 -119.5v-27c0 -27.333 -4 -45.666 -12 -54.999s-26.333 -14 -55 -14c-26 0 -43.5 5.33301 -52.5 16s-13.5 28.334 -13.5 53.001v31c0 39.333 1.83301 71.666 5.5 96.999
s16.667 60.833 39 106.5s56.166 89.167 101.499 130.5c75.333 66.667 112.666 147 111.999 241c0 64 -13.5 117.667 -40.5 161s-67.833 65 -122.5 65c-45.333 0 -83.666 -10.667 -114.999 -32s-47 -46.333 -47 -75zM661.997 115c0 39.333 15.001 73.332 45.001 101.999
s65.333 43 106 43s75.5 -13.667 104.5 -41s43.5 -60.666 43.5 -99.999c0 -38 -15.167 -71.5 -45.5 -100.5s-65.833 -43.5 -106.5 -43.5s-75.334 13.833 -104.001 41.5s-43 60.5 -43 98.5z" />
    <glyph glyph-name="f_j" unicode="fj" horiz-adv-x="1292" 
d="M862 643c0 54.667 -7.00098 90.832 -21.001 108.499s-44.667 29.167 -92 34.5h-268v-524c0 -82 9 -134.167 27 -156.5s54.667 -35.5 110 -39.5c5.33301 -5.33301 8.16602 -17 8.49902 -35s-2.5 -29.667 -8.5 -35c-117.333 2.66699 -207.333 4 -270 4
c-79.333 0 -176.333 -1.33301 -291 -4c-5.33301 5.33301 -8 16.833 -8 34.5s2.66699 29.5 8 35.5c65.333 2.66699 108 15.167 128 37.5s30 73.833 30 154.5v528h-115c-36.667 0 -55 7 -55 21v35c0 8 16 17.833 48 29.5s64.333 17.5 97 17.5h25v26
c0 72.667 8.5 136.334 25.5 191.001s36.167 95.334 57.5 122.001s51 59 89 97c70.667 69.333 175 104.333 313 105c110 0 204.333 -21.667 283 -65c30 -16.667 54.5 -38.5 73.5 -65.5s28.5 -50.5 28.5 -70.5c0 -44 -12.167 -77.833 -36.5 -101.5s-55.833 -35.5 -94.5 -35.5
c-35.333 0 -66 12.833 -92 38.5s-45.667 57.167 -59 94.5c-30 79.333 -77 118.666 -141 117.999c-13.333 0 -29 -5 -47 -15s-37.667 -27 -59 -51s-39.166 -62 -53.499 -114s-21.5 -113.333 -21.5 -184v-90h449c84.667 5.33301 138 12 160 20
c32.667 0 48.334 -11.667 47.001 -35c-5.33301 -76.667 -8.33301 -149 -9 -217v-432c0 -178.667 -14 -310 -42 -394s-69 -147.667 -123 -191c-45.333 -38 -90.5 -66.667 -135.5 -86s-103.833 -29 -176.5 -29c-38 0 -76.833 12.667 -116.5 38s-59.5 58.333 -59.5 99
c0 27.333 12.333 54.666 37 81.999s46.667 41 66 41c10.667 0 21.5 -1.33301 32.5 -4s20.167 -5.66699 27.5 -9s15.5 -8.83301 24.5 -16.5s15.5 -13.5 19.5 -17.5l20.5 -20.5l16.5 -16.5c24.667 -24.667 45 -37 61 -37c28.667 0 52 15.333 70 46s27 64.667 27 102
c0 46.667 -2.5 106.334 -7.5 179.001s-7.5 127.667 -7.5 165v487z" />
    <glyph glyph-name="f_t" unicode="ft" horiz-adv-x="1409" 
d="M849 786l-367.999 -0.00195312v-524c0 -82 9 -134.167 27 -156.5s54.667 -35.5 110 -39.5c5.33301 -5.33301 8.16602 -17 8.49902 -35s-2.5 -29.667 -8.5 -35c-117.333 2.66699 -207.333 4 -270 4c-79.333 0 -176.333 -1.33301 -291 -4
c-5.33301 5.33301 -8 16.833 -8 34.5s2.66699 29.5 8 35.5c65.333 2.66699 108 15.167 128 37.5s30 73.833 30 154.5v528h-115c-36.667 0 -55 7 -55 21v35c0 8 16 17.833 48 29.5s64.333 17.5 97 17.5h25v26c0 72.667 8.5 136.334 25.5 191.001s36.167 95.334 57.5 122.001
s51 59 89 97c70.667 69.333 182 104.333 334 105c49.333 0 93 -5 131 -15c44.667 -11.333 88.667 -33.666 132 -66.999s76.166 -64.333 98.499 -93s33.5 -47.667 33.5 -57v-309h195c30 0 45 -7 45 -21v-47c0 -23.333 -18.667 -35 -56 -35h-184v-526
c0 -48 8.5 -82.833 25.5 -104.5s38.5 -32.5 64.5 -32.5c46.667 0 82.334 9.66699 107.001 29c24.667 -20.667 37 -40 37 -58c-22 -30 -58.667 -56.5 -110 -79.5s-104.333 -34.5 -159 -34.5c-68 0 -124.667 19 -170 57c-40.667 35.333 -61 94.666 -61 177.999z
M791.001 888.998c22.667 0 41.333 6.5 56 19.5s25 32.333 31 58s10 50 12 73s3 51.833 3 86.5c0 48 -23.5 96.167 -70.5 144.5s-93.833 72.5 -140.5 72.5c-15.333 0 -32.5 -5 -51.5 -15s-40.5 -27 -64.5 -51s-44.167 -62 -60.5 -114s-24.5 -113.333 -24.5 -184v-90h310z" />
    <glyph glyph-name="Q_u" unicode="Qu" horiz-adv-x="2721" 
d="M661 -130c23.333 4.66699 44.335 7.00195 63.002 7.00195c134 0 246.167 -4.16699 336.5 -12.5s181.833 -27.5 274.5 -57.5c225.333 -70.667 409.666 -106 552.999 -106c116 0 250 42.333 402 127l34 -49c-66.667 -62.667 -149.167 -113.834 -247.5 -153.501
s-198.5 -59.5 -300.5 -59.5c-228 0 -411 25 -549 75c-118.667 43.333 -241.667 76.666 -369 99.999s-216.333 35 -267 35c-31.333 0 -55.333 -6 -72 -18c-35.333 -24.667 -73 -68.667 -113 -132c-33.333 32.667 -60.666 52.667 -81.999 60
c40 61.333 88.167 118.333 144.5 171s114.5 96 174.5 130c-160.667 22.667 -295.334 92 -404.001 208s-163 262 -163 438c0 192 55.333 353.667 166 485c60.667 72 134.167 128.333 220.5 169s179.833 61 280.5 61c191.333 0 352.166 -62.5 482.499 -187.5
s195.5 -287.167 195.5 -486.5c0 -200.667 -58.667 -364.667 -176 -492c-92.667 -100 -210.667 -163.333 -354 -190c-34.667 -10 -76.5 -27.333 -125.5 -52s-86.167 -46.667 -111.5 -66zM719.002 1262c-98 0 -178.166 -48.5 -240.499 -145.5s-93.5 -244.5 -93.5 -442.5
c0 -187.333 37.833 -335.5 113.5 -444.5s171.5 -163.5 287.5 -163.5c102.667 0 182.667 51.167 240 153.5s86 239.5 86 411.5c0 200.667 -36.833 356 -110.5 466s-167.834 165 -282.501 165zM2540 272.002c0 -58.667 8.49902 -98.5049 25.499 -119.505
s52.833 -34.167 107.5 -39.5c8 -26 9.33301 -48 4 -66c-116 -15.333 -229.333 -37.666 -340 -66.999c-30 0 -45.667 11.333 -47 34c-3.33301 26 -6.66602 56 -9.99902 90c-61.333 -34.667 -124.5 -64 -189.5 -88s-115.5 -36 -151.5 -36c-174.667 0 -262 109 -262 327v320
c0 80.667 -9.83301 132.834 -29.5 156.501s-55.5 36.834 -107.5 39.501c-5.33301 5.33301 -8 17 -8 35s2.66699 29.667 8 35c117.333 -2.66699 207.333 -4 270 -4c28.667 0 67.667 1.33301 117 4c13.333 -13.333 20.333 -36.666 21 -69.999
c0 -5.33301 -0.666992 -22.333 -2 -51s-2 -77 -2 -145v-342c0 -65.333 11.5 -107.333 34.5 -126s59.167 -28 108.5 -28c66 0 128.667 18.333 188 55c-1.33301 22 -2 42.333 -2 61v380c0 82 -8.83301 133.833 -26.5 155.5s-54.5 35.167 -110.5 40.5
c-6.66699 5.33301 -10 17 -10 35s3.33301 29.667 10 35c106.667 -2.66699 196.667 -4 270 -4c28.667 0 67.667 1.33301 117 4c13.333 -13.333 20.333 -36.666 21 -69.999c0 -5.33301 -0.666992 -22.333 -2 -51s-2 -77 -2 -145v-355z" />
    <glyph glyph-name="T_h" unicode="Th" horiz-adv-x="2326" 
d="M2134 262c0 -83.333 9.83398 -136.167 29.501 -158.5s62.5 -34.833 128.5 -37.5c6.66699 -5.33301 10 -17 10 -35s-3.33301 -29.667 -10 -35c-117.333 2.66699 -214.333 4 -291 4c-52 0 -135.333 -1.33301 -250 -4c-6.66699 5.33301 -10 16.833 -10 34.5
s3.33301 29.5 10 35.5c45.333 2.66699 76.166 15.834 92.499 39.501s24.5 75.834 24.5 156.501v342c0 53.333 -15.667 92.333 -47 117s-70.333 37 -117 37c-51.333 0 -107.333 -19.333 -168 -58v-440c0 -80.667 7.83301 -132.5 23.5 -155.5s46.834 -35.833 93.501 -38.5
c6.66699 -5.33301 10 -17 10 -35s-3.33301 -29.667 -10 -35c-117.333 2.66699 -200.666 4 -249.999 4c-65.333 0 -155.333 -1.33301 -270 -4c-6.66699 5.33301 -10.167 16.833 -10.5 34.5s3.16699 29.5 10.5 35.5c54.667 2.66699 91.167 15.5 109.5 38.5
s27.5 74.833 27.5 155.5v893c0 39.333 -6.83301 63.5 -20.5 72.5s-52.5 13.5 -116.5 13.5h-209c-35.333 0 -60 -17.333 -74 -52s-21 -87 -21 -157v-778c0 -82 11 -132.833 33 -152.5s70.667 -30.834 146 -33.501c5.33301 -5.33301 8 -17 8 -35s-2.66699 -29.667 -8 -35
c-136.667 2.66699 -245.334 4 -326.001 4c-91.333 0 -204 -1.33301 -338 -4c-5.33301 5.33301 -8 16.833 -8 34.5s2.66699 29.5 8 35.5c86 2.66699 140.667 13.834 164 33.501s35 70.5 35 152.5v784c0 66.667 -7.16699 117.167 -21.5 151.5s-39.5 51.5 -75.5 51.5h-100
c-69.333 0 -124.833 -16.333 -166.5 -49s-72.834 -88.667 -93.501 -168c-36.667 0 -63.334 3.33301 -80.001 10c27.333 117.333 44.333 217 51 299c0 4 3 6 9 6c138 -10.667 297 -16 477 -16h288h293c44 0 90.167 6.83301 138.5 20.5s99.833 31 154.5 52
s85.334 33.167 92.001 36.5c22 0 33 -9 33 -27c-4 -50.667 -6 -120.334 -6 -209.001v-412c150 85.333 255 127.666 315 126.999c188.667 0 283 -109 283 -327v-320z" />
    <glyph glyph-name="Q_u.sc" unicode="Q&#xe065;" horiz-adv-x="2787" 
d="M719 1262c-98 0 -178.166 -48.5 -240.499 -145.5s-93.5 -244.5 -93.5 -442.5c0 -187.333 37.833 -335.5 113.5 -444.5s171.5 -163.5 287.5 -163.5c102.667 0 182.667 51.167 240 153.5s86 239.5 86 411.5c0 200.667 -36.833 356 -110.5 466s-167.834 165 -282.501 165z
M1421 674c0 -200.667 -58.6641 -364.671 -175.997 -492.004c-125.333 -135.333 -292 -202.666 -500 -201.999c-20.667 0 -42 0.666992 -64 2c-15.333 -8.66699 -27.333 -26 -36 -52c188.667 -8 377.667 -42 567 -102c195.333 -61.333 379.666 -92 552.999 -92
c54.667 0 119.334 9.83301 194.001 29.5s144 47.167 208 82.5l35 -49c-64 -60 -145.333 -108 -244 -144s-200.334 -54 -305.001 -54c-211.333 0 -389 25.667 -533 77c-122.667 45.333 -243.334 82 -362.001 110s-198.667 42 -240 42c-23.333 0 -52 -9.16699 -86 -27.5
s-60 -48.166 -78 -89.499c-6.66699 2.66699 -19.834 10.834 -39.501 24.501s-33.167 21.834 -40.5 24.501c24.667 40.667 62.334 75.5 113.001 104.5s93 46.167 127 51.5l80 77c-149.333 32 -273 104.667 -371 218s-147 253.333 -147 420c0 192 55.333 353.667 166 485
c60.667 72 134.167 128.333 220.5 169s179.833 61 280.5 61c191.333 0 352.166 -62.5 482.499 -187.5s195.5 -287.167 195.5 -486.5zM2464 679.996c0 82 -11.667 134.504 -35 157.504s-68.333 36.167 -135 39.5c-5.33301 5.33301 -8 16.833 -8 34.5s2.66699 29.167 8 34.5
c117.333 -2.66699 192.333 -4 225 -4c40.667 0 113 1.33301 217 4c5.33301 -5.33301 8 -16.833 8 -34.5s-2.66699 -29.167 -8 -34.5c-66.667 -2.66699 -111.667 -15.667 -135 -39s-35 -76 -35 -158v-266c0 -144.667 -27 -253.167 -81 -325.5s-158 -108.5 -312 -108.5
c-49.333 0 -93.5 2 -132.5 6s-79.667 12.833 -122 26.5s-77.833 32.334 -106.5 56.001s-52.167 56.667 -70.5 99s-27.5 92.166 -27.5 149.499v363c0 83.333 -9.83301 136.166 -29.5 158.499s-62.5 35.166 -128.5 38.499c-5.33301 5.33301 -8 16.833 -8 34.5
s2.66699 29.167 8 34.5c117.333 -2.66699 214.333 -4 291 -4c79.333 0 176.333 1.33301 291 4c5.33301 -5.33301 8 -16.833 8 -34.5s-2.66699 -29.167 -8 -34.5c-65.333 -2.66699 -108 -15.334 -128 -38.001s-30 -75.667 -30 -159v-309c0 -203.333 76 -305 228 -305
c46.667 0 86 6.33301 118 19s56.833 29 74.5 49s31.334 45.667 41 77c9.66699 31.333 15.834 60.666 18.5 87.999c2.66699 27.333 4 60 4 98v283z" />
    <glyph glyph-name="q.sc_u.sc" unicode="&#xe061;&#xe065;" horiz-adv-x="2469" 
d="M2167 680c0 82 -11.666 134.504 -34.999 157.504s-68.333 36.167 -135 39.5c-6.66699 5.33301 -10 16.833 -10 34.5s3.33301 29.167 10 34.5c117.333 -2.66699 192.333 -4 225 -4c40.667 0 113 1.33301 217 4c6.66699 -5.33301 10 -16.833 10 -34.5
s-3.33301 -29.167 -10 -34.5c-66.667 -2.66699 -111.667 -15.667 -135 -39s-35 -76 -35 -158v-266c0 -144.667 -27 -253.167 -81 -325.5s-158 -108.5 -312 -108.5c-49.333 0 -93.333 2 -132 6s-79.167 12.833 -121.5 26.5s-77.833 32.334 -106.5 56.001
s-52.334 56.667 -71.001 99s-28 92.166 -28 149.499v363c0 83.333 -9.83301 136.166 -29.5 158.499s-62.167 35.166 -127.5 38.499c-6.66699 5.33301 -10.167 16.833 -10.5 34.5s3.16699 29.167 10.5 34.5c117.333 -2.66699 214 -4 290 -4c79.333 0 176.333 1.33301 291 4
c6.66699 -5.33301 10 -16.833 10 -34.5s-3.33301 -29.167 -10 -34.5c-65.333 -2.66699 -108 -15.334 -128 -38.001s-30 -75.667 -30 -159v-309c0 -203.333 76 -305 228 -305c46.667 0 86 6.33301 118 19s56.833 29 74.5 49s31.334 45.667 41 77
c9.66699 31.333 15.834 60.666 18.5 87.999c2.66699 27.333 4 60 4 98v283zM592.001 889.004c-79.333 0 -136.999 -30.667 -172.999 -92s-54 -167.333 -54 -318c0 -144.667 18.667 -250.5 56 -317.5s99.666 -100.5 186.999 -100.5c82 0 141.5 32.167 178.5 96.5
s55.5 162.833 55.5 295.5c0 158.667 -17.5 271 -52.5 337s-100.833 99 -197.5 99zM776.002 1.00391c-72 -40 -121.663 -79.335 -148.996 -118.002c117.333 1.33301 238.666 -24 363.999 -76c108 -35.333 227.667 -63 359 -83c202 -31.333 378 -1.33301 528 90l51 -50
c-83.333 -65.333 -165.5 -115.333 -246.5 -150s-179.833 -49.334 -296.5 -44.001c-216 9.33301 -394.667 44 -536 104c-8 2.66699 -35.333 16.334 -82 41.001s-90.834 44.5 -132.501 59.5s-78.834 22.5 -111.501 22.5c-13.333 0 -34 -11.167 -62 -33.5
s-50.333 -47.166 -67 -74.499c-4 2.66699 -11.833 10.167 -23.5 22.5s-22.834 23.5 -33.501 33.5s-19 16.333 -25 19c49.333 65.333 107.333 103.666 174 114.999c39.333 38.667 82 72.334 128 101.001h-17c-148.667 0 -272.5 39.833 -371.5 119.5
s-148.5 198.167 -148.5 355.5c0 158.667 49.167 284.334 147.5 377.001s221.833 139 370.5 139c160 0 288.667 -41.667 386 -125s146 -205 146 -365c0 -128.667 -31.5 -233.667 -94.5 -315s-148.833 -136.333 -257.5 -165z" />
    <glyph glyph-name="f_f" unicode="ff" horiz-adv-x="1466" 
d="M481 262c0 -83.333 9.99902 -136.167 29.999 -158.5s62.667 -34.833 128 -37.5c5.33301 -5.33301 8 -17 8 -35s-2.66699 -29.667 -8 -35c-117.333 2.66699 -214.333 4 -291 4c-79.333 0 -176.333 -1.33301 -291 -4c-5.33301 5.33301 -8 16.833 -8 34.5
s2.66699 29.5 8 35.5c65.333 2.66699 108 15.167 128 37.5s30 73.833 30 154.5v528h-115c-36.667 0 -55 7 -55 21v35c0 8 16 17.833 48 29.5s64.333 17.5 97 17.5h25v6c0 78 16 152.5 48 223.5s73.333 129.5 124 175.5c82 76.667 179.667 115 293 115
c78.667 0 144.834 -12.5 198.501 -37.5s91.167 -54.833 112.5 -89.5l25 29c74 79.333 170.333 119 289 119c96.667 0 167.5 -16.5 212.5 -49.5s67.5 -67.167 67.5 -102.5c0 -42 -10.5 -74.333 -31.5 -97s-49.333 -34 -85 -34s-66.5 10.833 -92.5 32.5
s-43.667 49.834 -53 84.501c-8 30 -15.5 50.667 -22.5 62s-18.5 17 -34.5 17c-10.667 0 -21.167 -2.33301 -31.5 -7s-21.666 -14.167 -33.999 -28.5s-23 -33.833 -32 -58.5s-16.5 -58.834 -22.5 -102.501s-9 -94.834 -9 -153.501v-104h206c27.333 0 41 -7 41 -21v-47
c0 -23.333 -23.667 -35 -71 -35h-176v-524c0 -83.333 9.83301 -136.166 29.5 -158.499s62.167 -34.833 127.5 -37.5c5.33301 -5.33301 8.16602 -17 8.49902 -35s-2.5 -29.667 -8.5 -35c-117.333 2.66699 -214 4 -290 4c-79.333 0 -176.333 -1.33301 -291 -4
c-5.33301 5.33301 -8 16.833 -8 34.5s2.66699 29.5 8 35.5c65.333 2.66699 107.833 15.167 127.5 37.5s29.5 73.833 29.5 154.5v528h-18h-84h-287v-524zM895.999 1114c-56 3.33301 -96 37.667 -120 103c-12 32.667 -29.333 58.5 -52 77.5s-43.334 28.5 -62.001 28.5
c-13.333 0 -29 -5.16699 -47 -15.5s-37.667 -27.333 -59 -51s-39.166 -61.5 -53.499 -113.5s-21.5 -113.667 -21.5 -185v-69h385h4v41c0 68.667 8.66699 130 26 184z" />
    <glyph glyph-name="f_i" unicode="fi" horiz-adv-x="1312" 
d="M481 262c0 -82 9.00098 -134.168 27.001 -156.501s54.667 -35.5 110 -39.5c5.33301 -5.33301 8.16602 -17 8.49902 -35s-2.5 -29.667 -8.5 -35c-117.333 2.66699 -207.333 4 -270 4c-79.333 0 -176.333 -1.33301 -291 -4c-5.33301 5.33301 -8 16.833 -8 34.5
s2.66699 29.5 8 35.5c65.333 2.66699 108 15.167 128 37.5s30 73.833 30 154.5v528h-115c-36.667 0 -55 7 -55 21v35c0 8 16 17.833 48 29.5s64.333 17.5 97 17.5h25v26c0 72.667 8.5 136.334 25.5 191.001s36.167 95.334 57.5 122.001s51 59 89 97
c70.667 69.333 175 104.333 313 105c110 0 204.333 -21.667 283 -65c30 -16.667 54.5 -38.5 73.5 -65.5s28.5 -50.5 28.5 -70.5c0 -44 -12.167 -77.833 -36.5 -101.5s-55.833 -35.5 -94.5 -35.5c-35.333 0 -66 12.833 -92 38.5s-45.667 57.167 -59 94.5
c-30 79.333 -77 118.666 -141 117.999c-13.333 0 -29 -5 -47 -15s-37.667 -27 -59 -51s-39.166 -62 -53.499 -114s-21.5 -113.333 -21.5 -184v-90h449c84.667 5.33301 138 12 160 20c31.333 0 47 -11.667 47 -35c-5.33301 -76.667 -8.33301 -148.667 -9 -216v-408
c0 -82 8.33301 -132.167 25 -150.5s57.667 -29.5 123 -33.5c6.66699 -5.33301 10 -17 10 -35s-3.33301 -29.667 -10 -35c-117.333 2.66699 -211 4 -281 4c-58.667 0 -145.334 -1.33301 -260.001 -4c-6.66699 5.33301 -10 16.833 -10 34.5s3.33301 29.5 10 35.5
c54.667 5.33301 89.5 17.166 104.5 35.499s22.5 67.833 22.5 148.5v393c0 54.667 -7 90.834 -21 108.501s-44.667 29.167 -92 34.5h-268v-524z" />
    <glyph glyph-name="f_l" unicode="fl" horiz-adv-x="1392" 
d="M481 262c0 -83.333 10.002 -136.167 30.002 -158.5s62.667 -34.833 128 -37.5c5.33301 -5.33301 8 -17 8 -35s-2.66699 -29.667 -8 -35c-117.333 2.66699 -214.333 4 -291 4c-79.333 0 -176.333 -1.33301 -291 -4c-5.33301 5.33301 -8 16.833 -8 34.5
s2.66699 29.5 8 35.5c65.333 2.66699 108 15.167 128 37.5s30 73.833 30 154.5v528h-104c-36.667 0 -55.334 7 -56.001 21v35c0 8 16.167 17.833 48.5 29.5s64.833 17.5 97.5 17.5h14v6c0 78 16 152.5 48 223.5s73.333 129.5 124 175.5c82 76.667 179.667 115 293 115
c103.333 0 187.333 -22.667 252 -68c38 10.667 85 27.334 141 50.001s88.667 35.667 98 39c22 0 33 -9 33 -27c-4 -50.667 -6 -120.334 -6 -209.001v-934c0 -82 9.83301 -134.167 29.5 -156.5s62.5 -34.833 128.5 -37.5c5.33301 -5.33301 8 -17 8 -35
s-2.66699 -29.667 -8 -35c-117.333 2.66699 -214.333 4 -291 4c-79.333 0 -176.333 -1.33301 -291 -4c-5.33301 5.33301 -8 16.833 -8 34.5s2.66699 29.5 8 35.5c65.333 2.66699 108 15.167 128 37.5s30 74.5 30 156.5v858c-8.66699 -2.66699 -18.334 -4 -29.001 -4
c-58.667 0 -101 34.333 -127 103c-12 32.667 -29.333 58.5 -52 77.5s-43.334 28.5 -62.001 28.5c-13.333 0 -29 -5.16699 -47 -15.5s-37.667 -27.333 -59 -51s-39.166 -61.5 -53.499 -113.5s-21.5 -113.667 -21.5 -185v-69h176c27.333 0 41 -7 41 -21v-47
c0 -23.333 -23.667 -35 -71 -35h-146v-524z" />
    <glyph glyph-name="f_f_i" unicode="ffi" horiz-adv-x="1939" 
d="M1116 262c0 -82 8.83105 -134.165 26.498 -156.498s54.5 -35.5 110.5 -39.5c5.33301 -5.33301 8.16602 -17 8.49902 -35s-2.5 -29.667 -8.5 -35c-117.333 2.66699 -207.333 4 -270 4c-65.333 0 -155.333 -1.33301 -270 -4c-5.33301 5.33301 -8 16.833 -8 34.5
s2.66699 29.5 8 35.5c56 2.66699 92.833 15.167 110.5 37.5s26.5 73.833 26.5 154.5v528h-94h-275v-524c0 -57.333 4.83301 -99 14.5 -125s22.334 -42.667 38.001 -50s43.834 -14.333 84.501 -21c5.33301 -5.33301 8.16602 -17 8.49902 -35s-2.5 -29.667 -8.5 -35
c-117.333 2.66699 -207.333 4 -270 4c-79.333 0 -176.333 -1.33301 -291 -4c-5.33301 5.33301 -8 16.833 -8 34.5s2.66699 29.5 8 35.5c65.333 2.66699 108 15.167 128 37.5s30 73.833 30 154.5v528h-115c-36.667 0 -55 7 -55 21v35c0 8 19.167 17.833 57.5 29.5
s74.5 17.5 108.5 17.5h4v6c0 78 16 152.5 48 223.5s73.333 129.5 124 175.5c82 76.667 179.667 115 293 115c78.667 0 144.834 -12.5 198.501 -37.5s91.167 -54.5 112.5 -88.5c10 11.333 20.333 22 31 32c82 76.667 179.667 115 293 115
c102.667 0 189.667 -19.833 261 -59.5s107 -80.167 107 -121.5c0 -45.333 -11.167 -81.166 -33.5 -107.499s-51.833 -39.5 -88.5 -39.5c-70.667 0 -121.334 41 -152.001 123c-15.333 39.333 -33.166 68.833 -53.499 88.5s-40.166 29.5 -59.499 29.5
c-13.333 0 -28.833 -5 -46.5 -15s-37.167 -27 -58.5 -51s-39.166 -62 -53.499 -114s-21.5 -113.333 -21.5 -184v-90h441c84.667 5.33301 137.667 12 159 20c31.333 0 47 -11.667 47 -35c-5.33301 -76.667 -8 -148.667 -8 -216v-408c0 -82 8.16699 -132.167 24.5 -150.5
s57.5 -29.5 123.5 -33.5c6.66699 -5.33301 10 -17 10 -35s-3.33301 -29.667 -10 -35c-117.333 2.66699 -211 4 -281 4c-58.667 0 -145.334 -1.33301 -260.001 -4c-6.66699 5.33301 -10 16.833 -10 34.5s3.33301 29.5 10 35.5c54.667 5.33301 89.5 17.166 104.5 35.499
s22.5 67.833 22.5 148.5v393c0 57.333 -7.83301 94.166 -23.5 110.499s-52.167 27.166 -109.5 32.499h-240v-524zM845.998 889.002h4v26c0 68 12.667 134.667 38 200c-52 6.66699 -89.333 40.667 -112 102c-12 32.667 -29.333 58.5 -52 77.5s-43.334 28.5 -62.001 28.5
c-13.333 0 -29 -5.16699 -47 -15.5s-37.667 -27.333 -59 -51s-39.166 -61.5 -53.499 -113.5s-21.5 -113.667 -21.5 -185v-69h365z" />
    <glyph glyph-name=".notdef" horiz-adv-x="1024" 
d="M102 1239v-1044l349 522zM164 102h696l-348 523zM573 717l349 -522v1044zM512 809l348 522h-696zM0 0v1434h1024v-1434h-1024z" />
    <glyph glyph-name="space" unicode=" " horiz-adv-x="512" 
 />
    <glyph glyph-name="exclam" unicode="!" horiz-adv-x="544" 
d="M272 1348c40.667 0 75.498 -13.332 104.498 -39.999s43.5 -64.667 43.5 -114c0 -39.333 -9.66699 -111.666 -29 -216.999c-38 -233.333 -58.333 -402 -61 -506c-1.33301 -57.333 -20.666 -86 -57.999 -86c-24.667 0 -40.667 8.5 -48 25.5s-11.666 45.5 -12.999 85.5
c-4 135.333 -23 297.666 -57 486.999c-19.333 95.333 -29 165.666 -29 210.999c0 52 15 90.667 45 116s64 38 102 38zM122.998 119.001c0 39.333 15 73.332 45 101.999s65.5 43 106.5 43s75.833 -13.667 104.5 -41s43 -60.666 43 -99.999c0 -38 -15 -71.333 -45 -100
s-65.5 -43 -106.5 -43s-75.833 13.667 -104.5 41s-43 60 -43 98z" />
    <glyph glyph-name="quotedbl" unicode="&#x22;" horiz-adv-x="770" 
d="M225 842l-29.999 7.99902c-44 232 -66 352 -66 360c0 27.333 12 52.666 36 75.999s56.333 35 97 35c27.333 0 48.166 -4.16699 62.499 -12.5s22.833 -17.166 25.5 -26.499s4 -21.666 4 -36.999l-75 -391zM514.001 841.999l-30.999 7.99902c-44 232 -65.667 352 -65 360
c0 27.333 11.833 52.666 35.5 75.999s56.167 35 97.5 35c27.333 0 48.166 -4.16699 62.499 -12.5s22.833 -17.166 25.5 -26.499s4 -21.666 4 -36.999l-76 -391z" />
    <glyph glyph-name="numbersign" unicode="#" horiz-adv-x="1052" 
d="M591 518l35 219h-193c-4 -25.333 -10.5 -61.833 -19.5 -109.5s-15.5 -84.167 -19.5 -109.5h197zM734 737l-35.001 -219h242l-16 -135h-244c-6 -34.667 -15.167 -91.5 -27.5 -170.5s-22.166 -140.167 -29.499 -183.5h-109l59 354h-196l-30 -173.5
c-13.333 -78.333 -24 -138.5 -32 -180.5h-112l57 354h-203l19 135h205c20.667 128.667 32 201.667 34 219h-204l18 135h205l29.5 177l29.5 178h115l-62 -355h199l28.5 177l28.5 178h107l-55 -355h239l-18 -135h-242z" />
    <glyph glyph-name="dollar" unicode="$" horiz-adv-x="1052" 
d="M505 803l20 368c-44.667 -4 -81.167 -21.167 -109.5 -51.5s-42.5 -69.833 -42.5 -118.5c0 -63.333 44 -129.333 132 -198zM568 443l-20.999 -379.001c50 6 90.833 23 122.5 51s47.5 62.667 47.5 104c-0.666992 74.667 -50.334 149.334 -149.001 224.001zM866.001 1198
c13.333 -122.667 20.333 -219.002 21 -289.002c-23.333 -19.333 -54.666 -22.666 -93.999 -9.99902c-9.33301 32.667 -18.166 60.5 -26.499 83.5s-19.666 48 -33.999 75s-32 49.333 -53 67s-44.833 30.5 -71.5 38.5l-23 -413l9 -5
c132.667 -69.333 220.667 -128.666 264 -177.999c65.333 -72.667 98 -145 98 -217c0 -101.333 -43 -190 -129 -266c-74 -66 -168.667 -100 -284 -102l-9 -173c-12 -6.66699 -40 -10 -84 -10l10 184c-70.667 2 -132.334 8.33301 -185.001 19s-92.334 16 -119.001 16
c-24.667 83.333 -37 188 -37 314c44 10.667 75.333 12.667 94 6c16.667 -73.333 48.334 -134.166 95.001 -182.499s98.667 -78.166 156 -89.499l24 430c-6.66699 4 -24.834 14.333 -54.501 31s-51.834 29.5 -66.501 38.5s-34 21.667 -58 38s-44.833 33 -62.5 50
s-33.5 34.833 -47.5 53.5c-42 56 -63.333 127.667 -64 215c0 92.667 41 171.667 123 237c70 55.333 160.333 85.333 271 90l9 163c18 6.66699 46 10 84 10l-9 -175c46 -2.66699 94.333 -10.834 145 -24.501s86.667 -21.834 108 -24.501z" />
    <glyph glyph-name="percent" unicode="%" horiz-adv-x="1304" 
d="M948 109c0 -45.333 13.668 -68 41.001 -68c42 0 79 27.333 111 82c34 58.667 51 125 51 199c0 78 -26.667 116.667 -80 116c-20.667 0 -39.834 -9.83301 -57.501 -29.5s-31.167 -45.167 -40.5 -76.5c-16.667 -50.667 -25 -125 -25 -223zM758.001 186
c0 87.333 26.667 163.5 80 228.5s123.666 97.5 210.999 97.5c125.333 0 188 -62 188 -186c0 -102.667 -25.667 -189.167 -77 -259.5s-116.333 -105.5 -195 -105.5c-75.333 0 -128.666 20.5 -159.999 61.5s-47 95.5 -47 163.5zM295.001 756c0 -45.333 13.668 -68 41.001 -68
c42 0 78.667 27.333 110 82c34 58.667 51.333 125 52 199c0 78 -26.667 116.667 -80 116c-20.667 0 -39.834 -9.83301 -57.501 -29.5s-31.5 -45.167 -41.5 -76.5c-16 -50.667 -24 -125 -24 -223zM104.002 834c0 87.333 26.666 163.332 79.999 227.999s123.666 97 210.999 97
c61.333 0 108 -15 140 -45c32.667 -1.33301 73.834 -10.166 123.501 -26.499s78.5 -24.5 86.5 -24.5c140.667 0 243.334 34 308.001 102l96 -43l-842 -1155l-110 25l749 1026c-76.667 -31.333 -150.334 -47 -221.001 -47c-46.667 0 -94.334 12.667 -143.001 38
c1.33301 -10.667 2 -22.667 2 -36c0 -102.667 -25.667 -189.167 -77 -259.5s-116.666 -105.5 -195.999 -105.5c-75.333 0 -128.666 20.667 -159.999 62s-47 96 -47 164z" />
    <glyph glyph-name="ampersand" unicode="&#x26;" horiz-adv-x="1492" 
d="M484 649c-57.333 -48 -95.333 -95.333 -114 -142s-28 -99.667 -28 -159c0 -79.333 18.833 -142.833 56.5 -190.5s79.5 -71.5 125.5 -71.5c53.333 0 100 8.33301 140 25s81.667 48.667 125 96c-91.333 122 -193 269.333 -305 442zM1232 664
c-70.667 -120 -150 -234.666 -238 -343.999c20 -32 36.167 -57 48.5 -75s29.333 -39.667 51 -65s44 -44.333 67 -57s46.5 -19 70.5 -19c56.667 0 111.334 31.667 164.001 95c9.33301 0 17.666 -8.16699 24.999 -24.5s11.333 -32.833 12 -49.5
c-72.667 -96.667 -163.667 -145 -273 -145c-65.333 0 -121.166 10 -167.499 30s-92.833 61.667 -139.5 125c-104.667 -104 -230.334 -155.667 -377.001 -155c-263.333 0 -395 105 -395 315c0 164.667 119.667 305 359 421c-48.667 68.667 -82.5 123 -101.5 163
s-28.5 82.333 -28.5 127c0 87.333 28 161.666 84 222.999c72.667 79.333 175 119 307 119c88.667 0 159.667 -24 213 -72s80 -100 80 -156c0 -151.333 -102.333 -268 -307 -350l8 -10c10 -16.667 34.5 -53.167 73.5 -109.5l109.5 -155.5l51 -71c10 -14 20 -15 30 -3
c60 70.667 112.333 153 157 247c45.333 96 21.666 147.667 -71.001 155c-5.33301 5.33301 -8 17 -8 35s2.66699 29.667 8 35c74 -2.66699 143 -4 207 -4c66.667 0 130.334 1.33301 191.001 4c5.33301 -5.33301 8 -17 8 -35s-2.66699 -29.667 -8 -35
c-49.333 -6 -89.333 -21.5 -120 -46.5s-60.667 -62.5 -90 -112.5zM528 1098c0 -61.333 33.667 -141.332 101 -239.999l10 -12c42 32.667 76.667 73.5 104 122.5s41 92.833 41 131.5c0 45.333 -11.5 83.666 -34.5 114.999s-51.5 47 -85.5 47
c-40.667 0 -73.5 -15.333 -98.5 -46s-37.5 -70 -37.5 -118z" />
    <glyph glyph-name="quotesingle" unicode="'" horiz-adv-x="440" 
d="M201 842l-30.999 7.99902c-44 232 -66 352 -66 360c0 27.333 12 52.666 36 75.999s56.667 35 98 35c27.333 0 48.166 -4.16699 62.499 -12.5s22.833 -17.166 25.5 -26.499s4 -21.666 4 -36.999l-76 -391z" />
    <glyph glyph-name="parenleft" unicode="(" horiz-adv-x="645" 
d="M74 518c0 178.667 44.333 352.001 133 520.001s204 313.667 346 437l57 -70c-200.667 -234.667 -301 -530.334 -301 -887.001c0 -367.333 100.333 -663.666 301 -888.999l-61 -65c-87.333 75.333 -163.166 157.333 -227.499 246s-111.5 167 -141.5 235
s-53.833 139.333 -71.5 214s-27.834 128.667 -30.501 162s-4 65.666 -4 96.999z" />
    <glyph glyph-name="parenright" unicode=")" horiz-adv-x="645" 
d="M571 514c0 -178.667 -44.333 -352.003 -133 -520.003s-204 -313.333 -346 -436l-57 69c200.667 234.667 301 530.334 301 887.001c0 367.333 -100.333 663.666 -301 888.999l61 65c87.333 -75.333 163.166 -157.166 227.499 -245.499s111.5 -166.666 141.5 -234.999
s53.833 -139.666 71.5 -213.999s27.834 -128.333 30.501 -162s4 -66.167 4 -97.5z" />
    <glyph glyph-name="asterisk" unicode="*" horiz-adv-x="886" 
d="M403 1159c-49.333 8 -77.333 11.332 -84 9.99902c-46.667 -12 -85.834 -12.833 -117.501 -2.5s-47.5 36.5 -47.5 78.5c0 16.667 5.66699 31.834 17 45.501s28 20.5 50 20.5c26 0 58.833 -15 98.5 -45s71.834 -50.667 96.501 -62
c-2.66699 28.667 -13.667 62.834 -33 102.501s-29 67.834 -29 84.501c0 20.667 8.16699 39 24.5 55s34.166 24 53.499 24c20.667 0 39.5 -6 56.5 -18s25.5 -29.667 25.5 -53c0 -19.333 -8.16699 -51.5 -24.5 -96.5s-25.166 -77.833 -26.499 -98.5
c27.333 12 58.333 33.5 93 64.5s64.334 46.5 89.001 46.5c27.333 0 47.5 -7.83301 60.5 -23.5s19.5 -31.167 19.5 -46.5c0 -54.667 -47 -82 -141 -82c-49.333 0 -86.333 -2 -111 -6c16.667 -18 41 -35.167 73 -51.5s56.833 -33 74.5 -50s26.5 -41.167 26.5 -72.5
c0 -18 -6.83301 -32.333 -20.5 -43s-28.5 -16 -44.5 -16c-30 0 -53 10.5 -69 31.5s-30 51 -42 90s-23.667 67.167 -35 84.5c-10.667 -20.667 -20.834 -50.667 -30.501 -90s-22 -68.5 -37 -87.5s-40.167 -28.5 -75.5 -28.5c-18 0 -32.5 5.66699 -43.5 17
s-16.5 24.666 -16.5 39.999c0 32.667 9 57.5 27 74.5s42.167 33.667 72.5 50s53.833 34.166 70.5 53.499z" />
    <glyph glyph-name="plus" unicode="+" horiz-adv-x="1099" 
d="M627 551h350v-152h-350v-333h-152v333h-350v152h350v336h152v-336z" />
    <glyph glyph-name="comma" unicode="," horiz-adv-x="499" 
d="M229 260c56 0 99.833 -21.5 131.5 -64.5s47.5 -105.5 47.5 -187.5c0 -34 -11 -73.167 -33 -117.5s-48 -81.5 -78 -111.5c-66.667 -66.667 -141 -107 -223 -121c-20.667 13.333 -25.667 34.333 -15 63c44 10.667 87.833 43.167 131.5 97.5s65.5 96.5 65.5 126.5
c0 32.667 -24.667 55 -74 67c-20.667 5.33301 -39.5 20.333 -56.5 45s-25.5 49.334 -25.5 74.001c0 23.333 15 50.666 45 81.999s58 47 84 47z" />
    <glyph glyph-name="hyphen" unicode="-" horiz-adv-x="733" 
d="M559 440h-404.998c-50.667 0 -76 14.333 -76 43c0 19.333 10.5 44 31.5 74s41.833 45 62.5 45h410c49.333 0 73.666 -14.333 72.999 -43c0 -16.667 -10.833 -40.667 -32.5 -72s-42.834 -47 -63.501 -47z" />
    <glyph glyph-name="period" unicode="." horiz-adv-x="499" 
d="M100 119c0 39.333 15 73.332 45 101.999s65.5 43 106.5 43s75.833 -13.667 104.5 -41s43 -60.666 43 -99.999c0 -38 -15 -71.333 -45 -100s-65.5 -43 -106.5 -43s-75.833 13.667 -104.5 41s-43 60 -43 98z" />
    <glyph glyph-name="slash" unicode="/" horiz-adv-x="647" 
d="M618 1397l-485 -1440h-129l485 1440h129z" />
    <glyph glyph-name="zero" unicode="0" horiz-adv-x="1052" 
d="M532 1163c-118.667 0 -177.999 -191.668 -177.999 -575.001c0 -40.667 0.333008 -74.5 1 -101.5s2.5 -63.667 5.5 -110s8.16699 -85.166 15.5 -116.499s16.833 -63.333 28.5 -96s27.667 -57.167 48 -73.5s44.166 -24.5 71.499 -24.5c117.333 0 176 201.333 176 604
c0 113.333 -8.83301 208.833 -26.5 286.5s-38.5 131.5 -62.5 161.5s-50.333 45 -79 45zM522.001 -20.001c-143.333 0 -256 60.6689 -338 182.002s-123 270.666 -123 447.999c0 199.333 44.5 355.666 133.5 468.999s201.5 170 337.5 170c56 0 109.333 -10.167 160 -30.5
s99.167 -52.666 145.5 -96.999s83.5 -108.833 111.5 -193.5s42 -184.334 42 -299.001c0 -116 -14.667 -218.167 -44 -306.5s-67.833 -156 -115.5 -203s-97.5 -82 -149.5 -105s-105.333 -34.5 -160 -34.5z" />
    <glyph glyph-name="one" unicode="1" horiz-adv-x="1052" 
d="M752 250c0 -40.667 5.00098 -73.667 15.001 -99s26.667 -43.833 50 -55.5s44.5 -19.167 63.5 -22.5s46.5 -5.66602 82.5 -6.99902c10.667 -6.66699 16 -18.667 16 -36s-5.33301 -28.666 -16 -33.999c-224 2.66699 -338 4 -342 4l-347 -4
c-10.667 6.66699 -16 18.167 -16 34.5s5.33301 28.166 16 35.499c35.333 1.33301 62.666 3.66602 81.999 6.99902s40.666 10.833 63.999 22.5s40 30 50 55s15 58.167 15 99.5v641c0 48 -2.66699 78.333 -8 91s-15.666 19 -30.999 19c-61.333 0 -132.333 -17 -213 -51
c-28.667 20.667 -43.667 50 -45 88c39.333 16.667 111 45.5 215 86.5s180 72.5 228 94.5c42 20.667 76 30.667 102 30c23.333 0 35 -11.667 35 -35c-10.667 -78 -16 -153 -16 -225v-739z" />
    <glyph glyph-name="two" unicode="2" horiz-adv-x="1052" 
d="M102 930c0 75.333 38.999 147.337 116.999 216.004s184 103 318 103c125.333 0 226.333 -36.333 303 -109c58.667 -56 88 -129.333 88 -220c0 -24.667 -1.66699 -47.334 -5 -68.001s-6.83301 -38.5 -10.5 -53.5s-12.334 -32.333 -26.001 -52s-23.5 -34.667 -29.5 -45
s-21.333 -27.833 -46 -52.5s-42.5 -42 -53.5 -52l-72.5 -66.5l-83 -75.5l-120 -111c-56.667 -52 -88.334 -112.667 -95.001 -182h266c46.667 0 85.667 15 117 45s58 79.667 80 149c31.333 0 62 -6.66699 92 -20c-18 -147.333 -39 -259.333 -63 -336h-791l-8 66
c2.66699 30 22.834 68.167 60.501 114.5s115.834 126.166 234.501 239.499l174 166c50.667 48 82.834 95.167 96.501 141.5s20.5 108.166 20.5 185.499c0 74.667 -18 135 -54 181c-37.333 48 -78.333 71.667 -123 71c-45.333 0 -85 -16.667 -119 -50
s-51 -63.666 -51 -90.999c0 -16.667 4.33301 -34.334 13 -53.001c6.66699 -20.667 10 -35 10 -43c0 -31.333 -12 -57.333 -36 -78s-51.667 -31 -83 -31c-35.333 0 -64.333 11.667 -87 35s-34 48.666 -34 75.999z" />
    <glyph glyph-name="three" unicode="3" horiz-adv-x="1052" 
d="M508 1163c-22 0 -40.502 -0.999023 -55.502 -2.99902s-31.667 -7 -50 -15s-33.666 -21.333 -45.999 -40s-21.166 -43 -26.499 -73c-6.66699 -36.667 -19 -64.5 -37 -83.5s-48 -28.5 -90 -28.5c-52 0 -78 25 -78 75c0 46.667 19 87.667 57 123
c28.667 26 54.334 46.833 77.001 62.5s60 31 112 46s110.667 22.5 176 22.5c125.333 0 212 -22.833 260 -68.5s72 -98.5 72 -158.5c0 -66.667 -29 -133 -87 -199c-28.667 -32.667 -63.334 -59.334 -104.001 -80.001c83.333 -5.33301 148.833 -35.666 196.5 -90.999
s71.5 -121 71.5 -197c0 -106.667 -34.667 -201.667 -104 -285c-49.333 -60 -111.5 -106.667 -186.5 -140s-148.833 -50 -221.5 -50c-104 0 -198 21 -282 63c-45.333 23.333 -68 55.333 -68 96c0 20.667 9.66699 40.5 29 59.5s43.333 28.5 72 28.5c52 0 96.333 -25 133 -75
c44 -57.333 93.667 -86 149 -86c52 0 100.833 21.833 146.5 65.5s68.5 117.167 68.5 220.5c0 184 -85.333 276.333 -256 277c-27.333 0 -60 -5.66699 -98 -17c-10.667 12 -16 32 -16 60c0 9.33301 0.666992 16.666 2 21.999c95.333 21.333 171.333 61.333 228 120
s85 126.667 85 204c0 96.667 -43 145 -129 145z" />
    <glyph glyph-name="four" unicode="4" horiz-adv-x="1052" 
d="M535 1026c-66.667 -91.333 -192.333 -290.667 -377 -598h377v598zM989.001 427.999c20.667 0 31 -11.001 31 -33.001c0 -12 -6.5 -25.5 -19.5 -40.5s-26.167 -22.5 -39.5 -22.5h-173v-82c0 -40.667 4.16699 -73.667 12.5 -99s22.333 -43.833 42 -55.5
s38.5 -19.167 56.5 -22.5s44.667 -5.66602 80 -6.99902c10.667 -6.66699 16 -18.667 16 -36s-5.33301 -28.666 -16 -33.999c-44 0 -88.5 0.333008 -133.5 1s-80.5 1.33398 -106.5 2.00098s-51 1 -75 1l-320 -4c-10.667 6.66699 -16 18.167 -16 34.5
s5.33301 28.166 16 35.499c35.333 1.33301 62 3.66602 80 6.99902s36.833 10.833 56.5 22.5s33.667 30 42 55s12.5 58.167 12.5 99.5v82h-363c-35.333 0 -58 4.66699 -68 14l-30 37c-2.66699 5.33301 -6.83398 11.833 -12.501 19.5s-9.83398 13.5 -12.501 17.5
s-4 7.33301 -4 10c0 4 4.66699 13 14 27l131.5 199.5l148.5 225.5c38.667 59.333 83.334 124.5 134.001 195.5s94.334 128.167 131.001 171.5h184v-821h201z" />
    <glyph glyph-name="five" unicode="5" horiz-adv-x="1052" 
d="M662 385c0 98 -15.833 173.666 -47.5 226.999s-72.5 80 -122.5 80c-48 0 -87.667 -4 -119 -12s-88 -27 -170 -57l-26 16l81 610c24.667 -1.33301 67 -5 127 -11s106.333 -9 139 -9c46.667 0 162.667 8.66699 348 26l48 -26l-39 -176c-125.333 -8 -204 -12.333 -236 -13
c-125.333 0 -224.333 3.66699 -297 11c-5.33301 -31.333 -18.333 -121.666 -39 -270.999c70.667 18 151.334 27 242.001 27c118.667 0 213.167 -33.5 283.5 -100.5s105.5 -152.833 105.5 -257.5c0 -126.667 -42 -236.5 -126 -329.5s-192.333 -139.5 -325 -139.5
c-128.667 0 -229 19 -301 57c-54.667 28.667 -82 64.667 -82 108c0 26 9 48.667 27 68s44 29 78 29c68 0 119.333 -26.667 154 -80c39.333 -61.333 76.666 -92 111.999 -92c57.333 0 102.5 27.5 135.5 82.5s49.5 132.5 49.5 232.5z" />
    <glyph glyph-name="six" unicode="6" horiz-adv-x="1052" 
d="M350 592c-1.33301 -15.333 -1.99902 -47.3311 -1.99902 -95.998c0 -290.667 71.667 -436.334 215 -437.001c39.333 0 72.333 27.333 99 82s40 134.667 40 240c0 65.333 -19.333 125.666 -58 180.999s-86 83 -142 83c-42.667 0 -93.334 -17.667 -152.001 -53z
M922.001 1165c-162.667 -8 -288.999 -49.002 -378.999 -123.002c-48 -39.333 -88.333 -91.666 -121 -156.999s-53 -134.666 -61 -207.999c73.333 38.667 143.333 62.334 210 71.001c78 -1.33301 145.667 -14.333 203 -39s99.666 -55.5 126.999 -92.5
s46.833 -71.833 58.5 -104.5s17.5 -64 17.5 -94c0 -48 -8.16699 -96.5 -24.5 -145.5s-41 -96.167 -74 -141.5s-78.833 -81.833 -137.5 -109.5s-126 -41.5 -202 -41.5c-299.333 0 -449 174.667 -449 524c0 105.333 18.5 206.666 55.5 303.999s92.167 178.333 165.5 243
c79.333 68 163.333 117 252 147s204 47 346 51c18 -20.667 22.333 -48.667 13 -84z" />
    <glyph glyph-name="seven" unicode="7" horiz-adv-x="1052" 
d="M377 1020c-27.333 0 -50.168 -3.16797 -68.501 -9.50098s-38.5 -23 -60.5 -50s-39.667 -66.5 -53 -118.5l-72 6c24.667 164 38.334 298.333 41.001 403c0 4 2.66699 6 8 6c2.66699 -1.33301 15 -6.33301 37 -15s46.667 -13 74 -13h686l12 -19l-137.5 -297l-120.5 -279
l-87 -210l-91.5 -230.5c-42.333 -108.333 -67.5 -174.166 -75.5 -197.499l-209 -21l-12 25c209.333 386 385.333 726 528 1020h-399z" />
    <glyph glyph-name="eight" unicode="8" horiz-adv-x="1052" 
d="M532 1178c-60 0 -99.499 -15.168 -118.499 -45.501s-28.5 -74.166 -28.5 -131.499c0 -84.667 39.667 -147.334 119 -188.001l102 -53c53.333 32.667 80 106.334 80 221.001c0 26 -1.33301 48.5 -4 67.5s-8.83398 39.5 -18.501 61.5s-25.5 38.833 -47.5 50.5
s-50 17.5 -84 17.5zM924.001 976.999c0 -62.667 -22.1699 -117.999 -66.5029 -165.999s-98.833 -81.333 -163.5 -100l115 -68c116 -68 174 -171 174 -309c0 -88.667 -41.667 -169.834 -125 -243.501s-198.666 -110.5 -345.999 -110.5c-134 0 -241.167 27.5 -321.5 82.5
s-120.5 134.5 -120.5 238.5c0 75.333 24.833 140.333 74.5 195s125.834 107 228.501 157l-43 23c-74 38 -125.333 76.833 -154 116.5s-43 89.5 -43 149.5c0 87.333 34.833 160.333 104.5 219s172.834 88 309.501 88c126.667 0 221.167 -25.167 283.5 -75.5
s93.5 -115.833 93.5 -196.5zM515.998 61c57.333 0 107.168 16.834 149.501 50.501s63.5 94.167 63.5 181.5c0 57.333 -10.167 105.166 -30.5 143.499s-64.166 75.166 -131.499 110.499l-110 59c-32.667 -23.333 -59.334 -49 -80.001 -77s-34.334 -59 -41.001 -93
s-10.667 -58.167 -12 -72.5s-2 -35.166 -2 -62.499c-0.666992 -160 64 -240 194 -240z" />
    <glyph glyph-name="nine" unicode="9" horiz-adv-x="1052" 
d="M719 637c1.33301 15.333 1.99902 47.3311 1.99902 95.998c0 290.667 -71.667 436 -215 436c-39.333 0 -72.333 -27.167 -99 -81.5s-40 -134.166 -40 -239.499c0 -65.333 19.333 -125.666 58 -180.999s86 -83 142 -83c42.667 0 93.334 17.667 152.001 53zM146.999 62.998
c162.667 8 288.999 49.002 378.999 123.002c48 39.333 88.333 91.666 121 156.999s53 135 61 209c-73.333 -38.667 -143.333 -62.334 -210 -71.001c-78 1.33301 -145.667 14.333 -203 39s-99.666 55.5 -126.999 92.5s-46.833 71.833 -58.5 104.5s-17.5 64 -17.5 94
c0 48 8.16699 96.5 24.5 145.5s41 96 74 141s78.833 81.5 137.5 109.5s126 42 202 42c299.333 0 449 -174.667 449 -524c0 -105.333 -18.5 -206.833 -55.5 -304.5s-92.167 -178.5 -165.5 -242.5c-79.333 -68 -163.333 -117 -252 -147s-204 -47 -346 -51
c-18 20 -22.333 47.667 -13 83z" />
    <glyph glyph-name="colon" unicode=":" horiz-adv-x="524" 
d="M123 743c0 39.333 15 73.499 45 102.499s65.5 43.5 106.5 43.5s75.833 -13.667 104.5 -41s43 -60.666 43 -99.999c0 -38 -15 -71.5 -45 -100.5s-65.5 -43.5 -106.5 -43.5s-75.833 13.667 -104.5 41s-43 60 -43 98zM123 138.999c0 39.333 15 73.5 45 102.5
s65.5 43.5 106.5 43.5s75.833 -13.667 104.5 -41s43 -61 43 -101c0 -38 -15 -71.333 -45 -100s-65.5 -43 -106.5 -43s-75.833 13.667 -104.5 41s-43 60 -43 98z" />
    <glyph glyph-name="semicolon" unicode=";" horiz-adv-x="524" 
d="M123 743c0 39.333 15 73.499 45 102.499s65.5 43.5 106.5 43.5s75.833 -13.667 104.5 -41s43 -60.666 43 -99.999c0 -38 -15 -71.5 -45 -100.5s-65.5 -43.5 -106.5 -43.5s-75.833 13.667 -104.5 41s-43 60 -43 98zM252 259.999c56 0 99.6689 -21.5 131.002 -64.5
s47 -105.5 47 -187.5c0 -34 -10.833 -73.167 -32.5 -117.5s-47.834 -81.5 -78.501 -111.5c-66.667 -66.667 -141 -107 -223 -121c-20.667 13.333 -25.334 34.333 -14.001 63c44 10.667 87.833 43.167 131.5 97.5s65.5 96.5 65.5 126.5c0 32.667 -24.667 55 -74 67
c-20.667 5.33301 -39.5 20.333 -56.5 45s-25.5 49.334 -25.5 74.001c0 23.333 15 50.666 45 81.999s58 47 84 47z" />
    <glyph glyph-name="less" unicode="&#x3c;" horiz-adv-x="1048" 
d="M313 492l652 -238v-127l-879 319v91l879 319v-127z" />
    <glyph glyph-name="equal" unicode="=" horiz-adv-x="1128" 
d="M1010 406v-115h-889v115h889zM1010 662v-117h-889v117h889z" />
    <glyph glyph-name="greater" unicode="&#x3e;" horiz-adv-x="1048" 
d="M735 487l-649 238v127l879 -322v-90l-879 -317v127z" />
    <glyph glyph-name="question" unicode="?" horiz-adv-x="880" 
d="M260 1167c0 -13.333 3.16406 -30.334 9.49707 -51.001s9.5 -40.334 9.5 -59.001c0 -24.667 -10.333 -44.834 -31 -60.501s-46.667 -23.5 -78 -23.5c-27.333 0 -53.666 10.833 -78.999 32.5s-38 50.5 -38 86.5c0 57.333 36.333 116 109 176c64 53.333 157.333 80 280 80
c116 0 208.167 -28.667 276.5 -86s102.5 -133.333 102.5 -228c0 -35.333 -6.5 -68.666 -19.5 -99.999s-33.167 -61.666 -60.5 -90.999s-50.5 -51.833 -69.5 -67.5s-46.167 -36.5 -81.5 -62.5c-26 -18 -46.5 -34.5 -61.5 -49.5s-30 -39.833 -45 -74.5
s-22.5 -74.667 -22.5 -120v-27c0 -27.333 -4.16699 -45.666 -12.5 -54.999s-26.833 -14 -55.5 -14c-26 0 -43.333 5.5 -52 16.5s-13 28.5 -13 52.5v31c0 39.333 1.66699 71.666 5 96.999s16.333 60.833 39 106.5s56.334 89.167 101.001 130.5
c75.333 66.667 113 147.334 113 242.001c0 64 -13.667 117.5 -41 160.5s-68.333 64.5 -123 64.5c-45.333 0 -83.666 -10.667 -114.999 -32s-47 -46.333 -47 -75zM247.997 118.999c0 39.333 15 73.332 45 101.999s65.5 43 106.5 43s75.833 -13.667 104.5 -41
s43 -60.666 43 -99.999c0 -38 -15 -71.333 -45 -100s-65.5 -43 -106.5 -43s-75.833 13.667 -104.5 41s-43 60 -43 98z" />
    <glyph glyph-name="at" unicode="@" horiz-adv-x="2023" 
d="M1200 655c0 83.333 -19.667 125 -59 125c-62.667 0 -118 -26 -166 -78c-84.667 -90 -127 -212 -127 -366c0 -125.333 38.333 -188.333 115 -189c66.667 0 126 82.667 178 248c39.333 131.333 59 218 59 260zM1311 164c0 -19.333 12.3359 -29.001 37.0029 -29.001
c22 0 48.667 8.5 80 25.5s64 41.667 98 74s63 77.5 87 135.5s36 121 36 189c0 86 -13.667 165.5 -41 238.5s-62.833 133.5 -106.5 181.5s-93.167 88.667 -148.5 122s-110 57.5 -164 72.5s-106.333 22.5 -157 22.5c-80.667 0 -159.167 -16 -235.5 -48
s-145.833 -77.667 -208.5 -137s-112.834 -136.5 -150.501 -231.5s-56.5 -199.167 -56.5 -312.5c0 -62.667 7.5 -126.167 22.5 -190.5s40.167 -128.166 75.5 -191.499s78.666 -119.666 129.999 -168.999s116.666 -89 195.999 -119s166.666 -45 261.999 -45
c162.667 0 306 51.333 430 154l43 -60c-76.667 -58.667 -152.167 -102.334 -226.5 -131.001s-169.5 -43 -285.5 -43c-244.667 0 -445.834 72 -603.501 216s-236.5 332.333 -236.5 565c0 142 35.167 275 105.5 399s172.5 225 306.5 303s284.333 117 451 117
c228 0 413.667 -64.833 557 -194.5s215 -292.834 215 -489.501c0 -143.333 -51.667 -269 -155 -377s-223.666 -162 -360.999 -162c-84.667 0 -138 10.333 -160 31c-27.333 24.667 -41 56.667 -41 96c-31.333 -39.333 -68.166 -69.666 -110.499 -90.999
s-77.833 -32 -106.5 -32c-90 0 -157 19.333 -201 58c-53.333 46.667 -80 117.667 -80 213c0 128.667 57.667 248.5 173 359.5s233.333 166.5 354 166.5c86 0 150 -26 192 -78l76 68l55 -23l-121 -518c-17.333 -76.667 -26 -121.667 -26 -135z" />
    <glyph glyph-name="A" unicode="A" horiz-adv-x="1515" 
d="M559 580l311 0.000976562l-167 485h-14l-182 -458c-4 -10.667 -2 -17.834 6 -21.501s23.333 -5.5 46 -5.5zM338 162.001c-1.33301 -13.333 -3.33105 -25.1641 -5.99805 -35.4971s1 -19 11 -26s18.167 -12.5 24.5 -16.5s17.666 -7.33301 33.999 -10
s29 -4.33398 38 -5.00098l39.5 -3c5.33301 -5.33301 8 -17 8 -35s-2.66699 -29.667 -8 -35c-101.333 2.66699 -192 4 -272 4c-27.333 0 -91.666 -1.33301 -192.999 -4c-6.66699 5.33301 -10 16.833 -10 34.5s3.33301 29.5 10 35.5c35.333 2.66699 63 6.66699 83 12
s41.333 18.166 64 38.499s42 51.166 58 92.499l444 1048c50.667 0 126 30.333 226 91l422 -1172c6.66699 -20.667 15.834 -37.834 27.501 -51.501s20.834 -23.834 27.501 -30.501s21 -12.334 43 -17.001s34.667 -7 38 -7s19.333 -1.33301 48 -4
c5.33301 -5.33301 8 -17 8 -35s-2.66699 -29.667 -8 -35c-101.333 2.66699 -192.666 4 -273.999 4c-132.667 0 -249.667 -1.33301 -351 -4c-6.66699 5.33301 -10 16.833 -10 34.5s3.33301 29.5 10 35.5c8 0 18.667 0.333008 32 1s23.666 1.33398 30.999 2.00098
s16.166 1.33398 26.499 2.00098s18.166 2 23.499 4s11.5 4 18.5 6s12.167 5 15.5 9s6 8.83301 8 14.5s2.66699 11.834 2 18.501s-2.33398 14.667 -5.00098 24l-115 334h-389c-24.667 0 -41.334 -2.33301 -50.001 -7s-16 -14 -22 -28z" />
    <glyph glyph-name="B" unicode="B" horiz-adv-x="1339" 
d="M496 1151v-381h114c158.667 0 238 77 238 231c0 158.667 -69.667 238 -209 238c-61.333 0 -100.5 -6.5 -117.5 -19.5s-25.5 -35.833 -25.5 -68.5zM496 684l-0.000976562 -511.997c0 -32.667 8.16699 -55.834 24.5 -69.501s53.166 -20.5 110.499 -20.5
c64 0 117.833 9.5 161.5 28.5s75.834 44.667 96.501 77s35 64.166 43 95.499s12 64.666 12 99.999c0 92.667 -25.167 166 -75.5 220s-126.166 81 -227.499 81h-145zM353.999 1321c19.333 0 63.501 0.667969 132.501 2.00098s121.833 2 158.5 2
c326 0 489.333 -106.333 490 -319c0 -52 -18.833 -103.333 -56.5 -154s-84.5 -88.334 -140.5 -113.001v-4c106.667 -28.667 184.5 -72 233.5 -130s73.5 -132.667 73.5 -224c0 -116 -43.333 -209.167 -130 -279.5s-228.334 -105.5 -425.001 -105.5
c-45.333 0 -106.833 0.666992 -184.5 2s-128.167 2 -151.5 2l-315 -4c-9.33301 6.66699 -14 18.5 -14 35.5s4.66699 28.5 14 34.5c34 1.33301 59.167 3.66602 75.5 6.99902s33 10.833 50 22.5s28.667 30 35 55s9.5 58.167 9.5 99.5v821c0 40.667 -3.16699 73.667 -9.5 99
s-18 43.833 -35 55.5s-33.667 19.167 -50 22.5s-41.5 5.66602 -75.5 6.99902c-9.33301 6.66699 -14 18.334 -14 35.001s4.66699 28.334 14 35.001c155.333 -2.66699 260.333 -4 315 -4z" />
    <glyph glyph-name="C" unicode="C" horiz-adv-x="1445" 
d="M813 -20c-206 0 -368.998 43 -488.998 129c-79.333 56 -140.5 133.833 -183.5 233.5s-64.5 200.5 -64.5 302.5c0 217.333 70.667 388.833 212 514.5s317 188.5 527 188.5c98 0 193.833 -15.167 287.5 -45.5s147.5 -46.166 161.5 -47.499
c23.333 -143.333 38.333 -249 45 -317c-30 -16.667 -59.333 -20 -88 -10c-31.333 105.333 -78.5 187.666 -141.5 246.999s-158.5 89 -286.5 89c-120 0 -218 -56 -294 -168s-114 -249.333 -114 -412c0 -161.333 41.667 -301.333 125 -420s183.666 -178 300.999 -178
c173.333 0 325 71 455 213c10.667 0 23.167 -4.83301 37.5 -14.5s24.166 -19.167 29.499 -28.5c-140.667 -184 -314 -276 -520 -276z" />
    <glyph glyph-name="D" unicode="D" horiz-adv-x="1503" 
d="M520 244c0 -65.333 14.001 -108.668 42.001 -130.001s79.667 -32 155 -32c42 0 83.833 8.83301 125.5 26.5s82 45 121 82s70.833 89.333 95.5 157s37 145.834 37 234.501c0 70.667 -2.5 133.334 -7.5 188.001s-16.667 112.667 -35 174s-42.833 112.166 -73.5 152.499
s-74.334 73.833 -131.001 100.5s-124 40 -202 40c-84.667 0 -127 -51.333 -127 -154v-839zM379.001 -0.00195312l-316.001 -3.99902c-9.33301 5.33301 -14 16.833 -14 34.5s4.66699 29.5 14 35.5c34 1.33301 59.333 3.66602 76 6.99902s33.5 10.833 50.5 22.5
s28.5 30 34.5 55s9 58.167 9 99.5v821c0 40.667 -3 73.667 -9 99s-17.5 43.833 -34.5 55.5s-33.667 19.167 -50 22.5s-41.833 5.66602 -76.5 6.99902c-9.33301 6.66699 -14 18.334 -14 35.001s4.66699 28.334 14 35.001c155.333 -2.66699 260.666 -4 315.999 -4
c24.667 0 67.334 0.333008 128.001 1s110 1 148 1c241.333 0 426.666 -64.833 555.999 -194.5s194 -294.834 194 -495.501c0 -102.667 -15 -195 -45 -277s-70.333 -144.667 -121 -188c-131.333 -114.667 -307.333 -172 -528 -172c-27.333 0 -82.666 0.666992 -165.999 2
s-138.666 2 -165.999 2z" />
    <glyph glyph-name="E" unicode="E" horiz-adv-x="1247" 
d="M662 748c70.667 0 118.672 8.16211 144.005 24.4951s39.333 51.833 42 106.5c5.33301 6.66699 19.666 10 42.999 10s38.333 -3.33301 45 -10c-2.66699 -82 -4 -141 -4 -177c0 -24.667 1.33301 -84.667 4 -180c-6.66699 -6.66699 -21.667 -10 -45 -10
s-37.666 3.33301 -42.999 10c-2.66699 48 -17.334 81.833 -44.001 101.5s-74 29.5 -142 29.5h-166v-469c0 -27.333 8.16699 -50.5 24.5 -69.5s36.166 -28.5 59.499 -28.5h206c143.333 0 239.666 87.333 288.999 262c34 8 64.667 4.66699 92 -10l-13 -105.5
c-6 -49.667 -12.5 -94 -19.5 -133s-14.5 -73.5 -22.5 -103.5c-122.667 2.66699 -217 4 -283 4h-481c-144.667 -1.33301 -250.334 -2.66602 -317.001 -3.99902c-6.66699 5.33301 -10.167 16.833 -10.5 34.5s3.16699 29.5 10.5 35.5c76.667 2.66699 125.5 13.834 146.5 33.501
s31.5 69.834 31.5 150.501v819c0 82 -10.667 132.833 -32 152.5s-70 30.834 -146 33.501c-6.66699 6.66699 -10.167 18.334 -10.5 35.001s3.16699 28.334 10.5 35.001l315 -4h604c35.333 0 69 2.66699 101 8c5.33301 0 8 -2 8 -6c1.33301 -4 3.33301 -24.833 6 -62.5l9 -128
c3.33301 -47.667 6.33301 -83.167 9 -106.5c-24.667 -12 -54 -15.333 -88 -10c-24.667 79.333 -53.334 135.666 -86.001 168.999s-84.334 50 -155.001 50h-174c-23.333 0 -43.166 -10.167 -59.499 -30.5s-24.5 -43.5 -24.5 -69.5v-387h166z" />
    <glyph glyph-name="F" unicode="F" horiz-adv-x="1116" 
d="M496 250c0 -40.667 4 -73.6709 12 -99.0039s22 -43.833 42 -55.5s38.833 -19.167 56.5 -22.5s44.167 -5.66602 79.5 -6.99902c9.33301 -5.33301 14 -17 14 -35s-4.66699 -29.667 -14 -35c-109.333 2.66699 -220 4 -332 4c-101.333 0 -206.333 -1.33301 -315 -4
c-9.33301 6.66699 -14 18.5 -14 35.5s4.66699 28.5 14 34.5c34 1.33301 59.167 3.66602 75.5 6.99902s33 10.833 50 22.5s28.667 30 35 55s9.5 58.167 9.5 99.5v819c0 82 -10.667 132.833 -32 152.5s-70 30.834 -146 33.501c-6.66699 6.66699 -10.167 18.334 -10.5 35.001
s3.16699 28.334 10.5 35.001l315 -4h608c35.333 0 69 2.66699 101 8c5.33301 0 8 -2 8 -6c6.66699 -39.333 14.667 -141.666 24 -306.999c-22 -10.667 -45.667 -14 -71 -10c-24.667 79.333 -55.167 137.333 -91.5 174s-89.833 55 -160.5 55h-184
c-23.333 0 -43.166 -10.167 -59.499 -30.5s-24.5 -43.5 -24.5 -69.5v-428h166c70.667 0 118.667 8.16699 144 24.5s39.333 51.833 42 106.5c5.33301 6.66699 19.666 10 42.999 10s38.333 -3.33301 45 -10c-2.66699 -53.333 -4 -112 -4 -176c0 -72.667 1.33301 -133 4 -181
c-6.66699 -6.66699 -21.667 -10 -45 -10s-37.666 3.33301 -42.999 10c-2.66699 48 -17.334 81.833 -44.001 101.5s-74 29.5 -142 29.5h-166v-362z" />
    <glyph glyph-name="G" unicode="G" horiz-adv-x="1499" 
d="M809 1348c96.667 0 193.499 -11.998 290.499 -35.998s157.167 -36 180.5 -36c16.667 -165.333 31 -277.333 43 -336c-24.667 -12 -54.667 -16 -90 -12c-28.667 98 -80.167 178.167 -154.5 240.5s-173.833 93.5 -298.5 93.5c-126.667 0 -227 -50.667 -301 -152
c-68 -94 -102 -240.667 -102 -440c0 -72.667 7.83301 -142.834 23.5 -210.501s40.167 -131.834 73.5 -192.501s81.166 -109.334 143.499 -146.001s134.5 -55 216.5 -55c52 0 93.333 6 124 18s62.334 34.667 95.001 68v305c0 38 -11.667 62.833 -35 74.5s-65 19.5 -125 23.5
c-5.33301 6.66699 -8 19.667 -8 39s2.66699 31.666 8 36.999c122.667 -2.66699 223.667 -4 303 -4c78 0 155 1.33301 231 4c6.66699 -5.33301 10.167 -17.666 10.5 -36.999s-3.16699 -32.333 -10.5 -39c-30 -2.66699 -52.167 -11.167 -66.5 -25.5s-21.5 -38.5 -21.5 -72.5
v-240c0 -19.333 10.333 -38.333 31 -57c-65.333 -56 -149.833 -100 -253.5 -132s-213.167 -48 -328.5 -48c-216 0 -384.333 51.667 -505 155c-68 57.333 -120.833 130.333 -158.5 219s-56.5 180.334 -56.5 275.001c0 222.667 72.333 398.667 217 528
c140.667 127.333 315.334 191 524.001 191z" />
    <glyph glyph-name="H" unicode="H" horiz-adv-x="1673" 
d="M1155 1071c0 40.667 -2.99805 73.6631 -8.99805 98.9961s-17.667 43.833 -35 55.5s-34.166 19.167 -50.499 22.5s-41.5 5.66602 -75.5 6.99902c-9.33301 6.66699 -14 18.334 -14 35.001s4.66699 28.334 14 35.001c109.333 -2.66699 214.333 -4 315 -4
c98 0 202 1.33301 312 4c9.33301 -6.66699 14 -18.167 14 -34.5s-4.66699 -28.166 -14 -35.499c-34 -1.33301 -59.333 -3.66602 -76 -6.99902s-33.5 -10.833 -50.5 -22.5s-28.5 -30 -34.5 -55s-9 -58.167 -9 -99.5v-821c0 -40.667 3 -73.667 9 -99s17.5 -43.833 34.5 -55.5
s33.833 -19.167 50.5 -22.5s42 -5.66602 76 -6.99902c9.33301 -6.66699 14 -18.334 14 -35.001s-4.66699 -28.334 -14 -35.001c-109.333 2.66699 -213.333 4 -312 4c-101.333 0 -206.333 -1.33301 -315 -4c-9.33301 5.33301 -14 16.833 -14 34.5s4.66699 29.5 14 35.5
c34 1.33301 59.167 3.66602 75.5 6.99902s33.166 10.833 50.499 22.5s29 30 35 55s9 58.167 9 99.5v403h-635v-403c0 -40.667 3.16699 -73.667 9.5 -99s18 -43.833 35 -55.5s33.667 -19.167 50 -22.5s41.5 -5.66602 75.5 -6.99902c9.33301 -5.33301 14.166 -17 14.499 -35
s-4.5 -29.667 -14.5 -35c-109.333 2.66699 -213 4 -311 4c-101.333 0 -206.666 -1.33301 -315.999 -4c-9.33301 5.33301 -14 16.833 -14 34.5s4.66699 29.5 14 35.5c34 1.33301 59.333 3.66602 76 6.99902s33.5 10.833 50.5 22.5s28.5 30 34.5 55s9 58.167 9 99.5v821
c0 40.667 -3 73.667 -9 99s-17.5 43.833 -34.5 55.5s-33.667 19.167 -50 22.5s-41.833 5.66602 -76.5 6.99902c-9.33301 6.66699 -14 18.334 -14 35.001s4.66699 28.334 14 35.001c109.333 -2.66699 214.666 -4 315.999 -4c98 0 201.667 1.33301 311 4
c9.33301 -6.66699 14.166 -18.167 14.499 -34.5s-4.5 -28.166 -14.5 -35.499c-34 -1.33301 -59.167 -3.66602 -75.5 -6.99902s-33 -10.833 -50 -22.5s-28.667 -30 -35 -55s-9.5 -58.167 -9.5 -99.5v-319h635v319z" />
    <glyph glyph-name="I" unicode="I" horiz-adv-x="751" 
d="M233 1071c0 40.667 -2.99805 73.6641 -8.99805 98.9971s-17.5 43.833 -34.5 55.5s-33.667 19.167 -50 22.5s-41.833 5.66602 -76.5 6.99902c-9.33301 6.66699 -14 18.334 -14 35.001s4.66699 28.334 14 35.001c109.333 -2.66699 214.666 -4 315.999 -4
c98 0 201.667 1.33301 311 4c9.33301 -6.66699 14.166 -18.167 14.499 -34.5s-4.5 -28.166 -14.5 -35.499c-34 -1.33301 -59.167 -3.66602 -75.5 -6.99902s-33 -10.833 -50 -22.5s-28.667 -30 -35 -55s-9.5 -58.167 -9.5 -99.5v-821c0 -40.667 3.16699 -73.667 9.5 -99
s18 -43.833 35 -55.5s33.667 -19.167 50 -22.5s41.5 -5.66602 75.5 -6.99902c9.33301 -5.33301 14.166 -17 14.499 -35s-4.5 -29.667 -14.5 -35c-109.333 2.66699 -213 4 -311 4c-101.333 0 -206.666 -1.33301 -315.999 -4c-9.33301 5.33301 -14 16.833 -14 34.5
s4.66699 29.5 14 35.5c34 1.33301 59.333 3.66602 76 6.99902s33.5 10.833 50.5 22.5s28.5 30 34.5 55s9 58.167 9 99.5v821z" />
    <glyph glyph-name="J" unicode="J" horiz-adv-x="763" 
d="M575 1069l0.00390625 -858.003c0 -69.333 -6 -131 -18 -185s-30 -99.5 -54 -136.5s-45.167 -65.667 -63.5 -86s-42.5 -42.833 -72.5 -67.5c-92.667 -79.333 -196 -119 -310 -119c-38 0 -80.833 13.667 -128.5 41s-71.5 62 -71.5 104c0 27.333 14.333 53.333 43 78
s53.667 37 75 37c19.333 0 36.166 -3.33301 50.499 -10s24.166 -13.834 29.499 -21.501s12.166 -18.334 20.499 -32.001s14.5 -23.167 18.5 -28.5c24.667 -31.333 56 -47 94 -47c23.333 0 41.166 4.33301 53.499 13s22.333 29.834 30 63.501s12.5 76 14.5 127
s3 125.833 3 224.5v903c0 82 -11.667 132.833 -35 152.5s-78 30.834 -164 33.501c-5.33301 6.66699 -8 18.334 -8 35.001s2.66699 28.334 8 35.001c136.667 -2.66699 250 -4 340 -4c68 0 169 1.33301 303 4c5.33301 -6.66699 8 -18.167 8 -34.5s-2.66699 -28.166 -8 -35.499
c-65.333 -2.66699 -108 -14.167 -128 -34.5s-30 -70.833 -30 -151.5z" />
    <glyph glyph-name="K" unicode="K" horiz-adv-x="1507" 
d="M221 1071c0 40.667 -3.00195 73.6602 -9.00195 98.9932s-17.5 43.833 -34.5 55.5s-33.833 19.167 -50.5 22.5s-42 5.66602 -76 6.99902c-9.33301 6.66699 -14 18.334 -14 35.001s4.66699 28.334 14 35.001c109.333 -2.66699 214.666 -4 315.999 -4
c98 0 201.667 1.33301 311 4c9.33301 -6.66699 14 -18.167 14 -34.5s-4.66699 -28.166 -14 -35.499c-34 -1.33301 -59.167 -3.66602 -75.5 -6.99902s-33.166 -10.833 -50.499 -22.5s-29 -30 -35 -55s-9 -58.167 -9 -99.5v-371c34 10.667 68.833 28.5 104.5 53.5
s86.834 67.5 153.501 127.5c104 86 177 150.667 219 194c106.667 109.333 103.334 169.333 -9.99902 180c-5.33301 6.66699 -8 18.334 -8 35.001s2.66699 28.334 8 35.001c102.667 -2.66699 186.667 -4 252 -4c61.333 0 126 1.33301 194 4
c5.33301 -6.66699 8.16602 -18.167 8.49902 -34.5s-2.5 -28.166 -8.5 -35.499c-38 -5.33301 -79 -20.166 -123 -44.499s-81.167 -48.833 -111.5 -73.5s-70.833 -59.667 -121.5 -105l-223 -198c-16.667 -15.333 -25 -35.333 -25 -60c0 -12 20.667 -42.667 62 -92l448 -530
c40.667 -49.333 94 -78 160 -86c5.33301 -5.33301 8 -17 8 -35s-2.66699 -29.667 -8 -35c-106.667 2.66699 -187.334 4 -242.001 4c-86 0 -156.333 -1.33301 -211 -4c-5.33301 0 -8.66602 4 -9.99902 12c-4 38 -28.667 86 -74 144l-309 403
c-22.667 29.333 -43.167 51 -61.5 65s-42.166 24.667 -71.499 32v-402c0 -40.667 3 -73.667 9 -99s17.667 -43.833 35 -55.5s34.166 -19.167 50.499 -22.5s41.5 -5.66602 75.5 -6.99902c9.33301 -5.33301 14 -17 14 -35s-4.66699 -29.667 -14 -35
c-109.333 2.66699 -213 4 -311 4c-101.333 0 -206.666 -1.33301 -315.999 -4c-9.33301 5.33301 -14 16.833 -14 34.5s4.66699 29.5 14 35.5c34 1.33301 59.333 3.66602 76 6.99902s33.5 10.833 50.5 22.5s28.5 30 34.5 55s9 58.167 9 99.5v821z" />
    <glyph glyph-name="L" unicode="L" horiz-adv-x="1181" 
d="M715 86c100 0 174.504 22.8301 223.504 68.4971s85.167 110.167 108.5 193.5c34 5.33301 63.333 2 88 -10c-13.333 -118.667 -31.333 -232.667 -54 -342c-124 2.66699 -205.667 4 -245 4h-458c-52.667 0 -157.667 -1.33301 -315 -4c-9.33301 5.33301 -14 16.833 -14 34.5
s4.66699 29.5 14 35.5c34 1.33301 59.333 3.66602 76 6.99902s33.5 10.833 50.5 22.5s28.5 30 34.5 55s9 58.167 9 99.5v821c0 40.667 -3 73.667 -9 99s-17.5 43.833 -34.5 55.5s-33.667 19.167 -50 22.5s-41.833 5.66602 -76.5 6.99902
c-9.33301 6.66699 -14 18.334 -14 35.001s4.66699 28.334 14 35.001c155.333 -2.66699 260.666 -4 315.999 -4c24.667 0 49.667 0.333008 75 1s60.166 1.33398 104.499 2.00098s88.166 1 131.499 1c9.33301 -6.66699 14.166 -18.167 14.499 -34.5
s-4.5 -28.166 -14.5 -35.499c-34 -1.33301 -59.167 -3.66602 -75.5 -6.99902s-33 -10.833 -50 -22.5s-28.667 -30 -35 -55s-9.5 -58.167 -9.5 -99.5v-823c0 -108 24 -162 72 -162h123z" />
    <glyph glyph-name="M" unicode="M" horiz-adv-x="1841" 
d="M1357 238l-52 855.997h-5l-460 -1084c-8 -18 -21 -26.667 -39 -26c-20.667 0 -34.334 8.66699 -41.001 26l-403 1010h-8l-54 -768c-5.33301 -64 0.166992 -109.667 16.5 -137s55.833 -43.666 118.5 -48.999c5.33301 -5.33301 8 -17 8 -35s-2.66699 -29.667 -8 -35
c-82 2.66699 -159.667 4 -233 4c-35.333 0 -94.333 -1.33301 -177 -4c-5.33301 5.33301 -8 16.833 -8 34.5s2.66699 29.5 8 35.5c56 4.66699 94 20 114 46s33.333 71.333 40 136l82 844c6.66699 75.333 3.16699 120.333 -10.5 135s-56.5 24 -128.5 28
c-6.66699 6.66699 -10.167 18.334 -10.5 35.001s3.16699 28.334 10.5 35.001l420 -4l366 -909h10l390 909l411 4c6.66699 -6.66699 10 -18.167 10 -34.5s-3.33301 -28.166 -10 -35.499c-67.333 -4 -108.666 -14.833 -123.999 -32.5s-21 -55.167 -17 -112.5l62 -862
c2 -32 3.66699 -56.167 5 -72.5s4.66602 -32.5 9.99902 -48.5s10.333 -26.667 15 -32s13.834 -10.833 27.501 -16.5s27 -9 40 -10s32.833 -1.83301 59.5 -2.5c6.66699 -5.33301 10 -17 10 -35s-3.33301 -29.667 -10 -35c-90 2.66699 -164.333 4 -223 4
c-100 0 -214 -1.33301 -342 -4c-6.66699 5.33301 -10 16.833 -10 34.5s3.33301 29.5 10 35.5c27.333 1.33301 46.333 2.16602 57 2.49902s23 3 37 8s22.5 10 25.5 15s6.33301 14.833 10 29.5s5.16699 30 4.5 46s-2 39.667 -4 71z" />
    <glyph glyph-name="N" unicode="N" horiz-adv-x="1515" 
d="M1292 0c-34 -16.667 -77 -25.0059 -129 -25.0059c-28 26 -55.333 56.333 -82 91l-686 815c-22.667 27.333 -39 41 -49 41c-10.667 0 -16 -13.667 -16 -41v-609c0 -62.667 5.83301 -107.667 17.5 -135s27.667 -44.666 48 -51.999s57.833 -13.666 112.5 -18.999
c5.33301 -5.33301 8 -17 8 -35s-2.66699 -29.667 -8 -35c-136.667 2.66699 -213 4 -229 4c-19.333 0 -96 -1.33301 -230 -4c-5.33301 5.33301 -8 16.833 -8 34.5s2.66699 29.5 8 35.5c54.667 5.33301 92.334 12 113.001 20s36.667 25.667 48 53s17 71.666 17 132.999v854
c-6.66699 30 -25 58.333 -55 85s-65.333 41.334 -106 44.001c-5.33301 6.66699 -8.16602 18.334 -8.49902 35.001s2.5 28.334 8.5 35.001l333 -4l183 -215l543 -640c15.333 -18 27.833 -27.333 37.5 -28s15.5 11 17.5 35v576c0 62.667 -5.83301 107.667 -17.5 135
s-27.834 44.666 -48.501 51.999s-58.334 13.666 -113.001 18.999c-6.66699 6.66699 -10 18.334 -10 35.001s3.33301 28.334 10 35.001c136.667 -2.66699 216 -4 238 -4c13.333 0 87 1.33301 221 4c6.66699 -6.66699 10 -18.167 10 -34.5s-3.33301 -28.166 -10 -35.499
c-54.667 -5.33301 -92.167 -12 -112.5 -20s-36.333 -25.667 -48 -53s-17.5 -71.666 -17.5 -132.999v-840z" />
    <glyph glyph-name="O" unicode="O" horiz-adv-x="1495" 
d="M719 1262c-98 0 -178.166 -48.5 -240.499 -145.5s-93.5 -244.5 -93.5 -442.5c0 -187.333 37.833 -335.5 113.5 -444.5s171.5 -163.5 287.5 -163.5c102.667 0 182.667 51.167 240 153.5s86 239.5 86 411.5c0 200.667 -36.833 356 -110.5 466s-167.834 165 -282.501 165z
M1421 674c0 -200.667 -58.667 -364.668 -176 -492.001c-125.333 -135.333 -292 -202.666 -500 -201.999c-181.333 0 -338.166 60 -470.499 180s-198.5 277.667 -198.5 473c0 192 55.333 353.667 166 485c60.667 72 134.167 128.333 220.5 169s179.833 61 280.5 61
c191.333 0 352.166 -62.5 482.499 -187.5s195.5 -287.167 195.5 -486.5z" />
    <glyph glyph-name="P" unicode="P" horiz-adv-x="1257" 
d="M709 1339c151.333 0 265.334 -22.332 342.001 -66.999c105.333 -62.667 157.666 -156.334 156.999 -281.001c0 -142 -45.667 -250.333 -137 -325c-79.333 -65.333 -209 -98.333 -389 -99c-19.333 0 -43.333 2 -72 6c-27.333 18 -41 46.667 -41 86c28.667 -4 63 -6 103 -6
c83.333 0 142 23.667 176 71s51 124.666 51 231.999c0 199.333 -85.333 299 -256 299c-52 0 -85.5 -12.167 -100.5 -36.5s-22.5 -72.833 -22.5 -145.5v-823c0 -40.667 3.16699 -73.667 9.5 -99s18 -43.833 35 -55.5s33.667 -19.167 50 -22.5s41.5 -5.66602 75.5 -6.99902
c9.33301 -5.33301 14.166 -17 14.499 -35s-4.5 -29.667 -14.5 -35c-109.333 2.66699 -213 4 -311 4c-101.333 0 -206.666 -1.33301 -315.999 -4c-9.33301 5.33301 -14 16.833 -14 34.5s4.66699 29.5 14 35.5c34 1.33301 59.333 3.66602 76 6.99902s33.5 10.833 50.5 22.5
s28.5 30 34.5 55s9 58.167 9 99.5v821c0 40.667 -3 73.667 -9 99s-17.5 43.833 -34.5 55.5s-33.667 19.167 -50 22.5s-41.833 5.66602 -76.5 6.99902c-9.33301 6.66699 -14 18.334 -14 35.001s4.66699 28.334 14 35.001c27.333 0 135 2.33301 323 7s295.667 7 323 7z" />
    <glyph glyph-name="Q" unicode="Q" horiz-adv-x="1495" 
d="M719 1262c-98 0 -178.166 -48.5 -240.499 -145.5s-93.5 -244.5 -93.5 -442.5c0 -187.333 37.833 -335.5 113.5 -444.5s171.5 -163.5 287.5 -163.5c102.667 0 182.667 51.167 240 153.5s86 239.5 86 411.5c0 200.667 -36.833 356 -110.5 466s-167.834 165 -282.501 165z
M1421 674c0 -200.667 -58.667 -364.669 -176 -492.002c-92.667 -100 -210.667 -163.333 -354 -190c-69.333 -18.667 -146.333 -57 -231 -115h12c62.667 0 127.5 -15.667 194.5 -47s130.833 -62.666 191.5 -93.999s115.667 -47 165 -47c78 0 137.333 25 178 75l35 -45
c-87.333 -125.333 -185.666 -188 -294.999 -188c-60 0 -119 11.333 -177 34s-106.167 47.167 -144.5 73.5s-81.5 50.833 -129.5 73.5s-93 34 -135 34c-23.333 0 -48.333 -9.33301 -75 -28c-26 -29.333 -50.667 -60.333 -74 -93l-80 62c10 16.667 21.667 32.334 35 47.001
c85.333 102 189 185 311 249c-80 8 -155.833 29 -227.5 63s-135 78.167 -190 132.5s-98.5 120.833 -130.5 199.5s-48 163.667 -48 255c0 192 55.333 353.667 166 485c60.667 72 134.167 128.333 220.5 169s179.833 61 280.5 61c191.333 0 352.166 -62.5 482.499 -187.5
s195.5 -287.167 195.5 -486.5z" />
    <glyph glyph-name="R" unicode="R" horiz-adv-x="1466" 
d="M932 956c0 199.333 -85.333 298.999 -256 298.999c-56 0 -96 -13.167 -120 -39.5s-36 -73.833 -36 -142.5v-407h88c48 0 89.333 3.33301 124 10s68.5 19.834 101.5 39.501s57.667 49.667 74 90s24.5 90.5 24.5 150.5zM741 1339c151.333 0 265.334 -22.333 342.001 -67
c105.333 -62.667 158 -156.334 158 -281.001c0 -92.667 -27 -168.667 -81 -228s-117 -103.333 -189 -132l278 -430c31.333 -48 61 -82.5 89 -103.5s64 -31.5 108 -31.5c4 -8 6.33301 -20 7 -36s-1 -27.333 -5 -34c-22 -10.667 -91.667 -16 -209 -16
c-96.667 0 -186.667 60.667 -270 182l-240 356c-15.333 24.667 -34.833 41.167 -58.5 49.5s-73.834 12.5 -150.501 12.5v-330c0 -40.667 3.16699 -73.667 9.5 -99s18 -43.833 35 -55.5s33.667 -19.167 50 -22.5s41.5 -5.66602 75.5 -6.99902
c9.33301 -5.33301 14.166 -17 14.499 -35s-4.5 -29.667 -14.5 -35c-109.333 2.66699 -213 4 -311 4c-101.333 0 -206.666 -1.33301 -315.999 -4c-9.33301 5.33301 -14 16.833 -14 34.5s4.66699 29.5 14 35.5c34 1.33301 59.333 3.66602 76 6.99902s33.5 10.833 50.5 22.5
s28.5 30 34.5 55s9 58.167 9 99.5v821c0 40.667 -3 73.667 -9 99s-17.5 43.833 -34.5 55.5s-33.667 19.167 -50 22.5s-41.833 5.66602 -76.5 6.99902c-9.33301 6.66699 -14 18.334 -14 35.001s4.66699 28.334 14 35.001c27.333 0 140.333 2.33301 339 7s311.667 7 339 7z
" />
    <glyph glyph-name="S" unicode="S" horiz-adv-x="1032" 
d="M862 1292c15.333 -124 22.998 -227.671 22.998 -311.004c-23.333 -19.333 -57.666 -22.666 -102.999 -9.99902c-10.667 40.667 -21.834 75.334 -33.501 104.001s-27.667 59 -48 91s-46.333 56.333 -78 73s-67.834 25 -108.501 25c-53.333 0 -95.666 -16.5 -126.999 -49.5
s-47 -78.167 -47 -135.5c0 -52 24.167 -102.167 72.5 -150.5s99.833 -86.166 154.5 -113.499c124 -64 215.667 -128 275 -192c70.667 -78 106 -160 106 -246c0 -107.333 -46.333 -202.666 -139 -285.999c-83.333 -74.667 -186.333 -111.667 -309 -111
c-108 0 -196.5 6.66699 -265.5 20s-115.833 20 -140.5 20c-26 87.333 -39 200 -39 338c46.667 12 81 14.333 103 7c20.667 -90 61.334 -162.333 122.001 -217s126.334 -82 197.001 -82c62.667 0 113.834 15.667 153.501 47s59.5 72.333 59.5 123c0 88.667 -62 176 -186 262
l-102.5 60c-53 30.667 -100.667 61.667 -143 93s-77.833 66.333 -106.5 105c-45.333 60 -68 139 -68 237c0 100 44.333 185.333 133 256c82 65.333 181.667 98.333 299 99c75.333 0 150.166 -9 224.499 -27s114.833 -27.667 121.5 -29z" />
    <glyph glyph-name="T" unicode="T" horiz-adv-x="1335" 
d="M829 252c0 -82 11.6709 -132.834 35.0039 -152.501s78 -30.834 164 -33.501c5.33301 -5.33301 8 -17 8 -35s-2.66699 -29.667 -8 -35c-136.667 2.66699 -252 4 -346 4c-91.333 0 -204 -1.33301 -338 -4c-5.33301 5.33301 -8 16.833 -8 34.5s2.66699 29.5 8 35.5
c86 2.66699 140.667 13.834 164 33.501s35 70.5 35 152.5v784c0 66.667 -7.16699 116.834 -21.5 150.501s-39.5 50.5 -75.5 50.5h-100c-70.667 0 -126.834 -16 -168.501 -48s-72.167 -87.667 -91.5 -167c-36.667 0 -63.334 3.33301 -80.001 10
c27.333 117.333 44.333 217 51 299c0 4 3 6 9 6c138 -10.667 297 -16 477 -16h288c181.333 0 334.333 5.33301 459 16c4 0 6 -2 6 -6c1.33301 -91.333 10.333 -189 27 -293c-15.333 -6.66699 -42 -10 -80 -10c-16.667 76.667 -46.834 130.667 -90.501 162
s-104.834 47 -183.501 47h-45c-35.333 0 -60 -17 -74 -51s-21 -86 -21 -156v-778z" />
    <glyph glyph-name="U" unicode="U" horiz-adv-x="1499" 
d="M465 1069l-0.000976562 -518.006c0 -57.333 1.33301 -104.166 4 -140.499s12.167 -78.333 28.5 -126s40.166 -86.5 71.499 -116.5c70.667 -68 152 -102 244 -102c66.667 0 124 10.5 172 31.5s85 46.833 111 77.5s46.5 70 61.5 118s24.167 92 27.5 132s5 87.333 5 142v502
c0 80.667 -10.667 130.167 -32 148.5s-73.666 30.833 -156.999 37.5c-6.66699 6.66699 -10 18.334 -10 35.001s3.33301 28.334 10 35.001c125.333 -2.66699 212.333 -4 261 -4c39.333 0 112.333 1.33301 219 4c6.66699 -6.66699 10 -18.167 10 -34.5
s-3.33301 -28.166 -10 -35.499c-36.667 -4 -62.667 -7.66699 -78 -11s-30.5 -11.166 -45.5 -23.499s-24.5 -30 -28.5 -53s-6 -55.833 -6 -98.5v-465c0 -196.667 -42.667 -349.834 -128 -459.501s-227 -164.5 -425 -164.5c-187.333 0 -325.333 28.667 -414 86
c-118.667 78 -178 217 -178 417v586c0 80.667 -9.83301 131.167 -29.5 151.5s-62.5 31.833 -128.5 34.5c-5.33301 6.66699 -8 18.334 -8 35.001s2.66699 28.334 8 35.001c136.667 -2.66699 236.334 -4 299.001 -4c88.667 0 200 1.33301 334 4
c6.66699 -6.66699 10.167 -18.167 10.5 -34.5s-3.16699 -28.166 -10.5 -35.499c-82 -2.66699 -133.833 -13.834 -155.5 -33.501s-32.5 -70.5 -32.5 -152.5z" />
    <glyph glyph-name="V" unicode="V" horiz-adv-x="1433" 
d="M1217 1112l-437.001 -1089.01c-12 -31.333 -35 -47.333 -69 -48c-32.667 0 -55.334 16 -68.001 48l-446 1122c-10.667 28.667 -26.667 51.167 -48 67.5s-41.333 26.833 -60 31.5s-44.334 8.33398 -77.001 11.001c-5.33301 6.66699 -8 18.334 -8 35.001
s2.66699 28.334 8 35.001c101.333 -2.66699 193 -4 275 -4c139.333 0 259.333 1.33301 360 4c5.33301 -6.66699 8 -18.167 8 -34.5s-2.66699 -28.166 -8 -35.499c-28.667 -1.33301 -51.5 -3.33301 -68.5 -6s-34 -6.66699 -51 -12s-28 -13.166 -33 -23.499
s-4.5 -23.5 1.5 -39.5l254 -732l31 -92l34 80l283 729c9.33301 24.667 6.5 44.167 -8.5 58.5s-32.667 23.5 -53 27.5s-47.166 7.33301 -80.499 10c-6.66699 6.66699 -10 18.334 -10 35.001s3.33301 28.334 10 35.001c101.333 -2.66699 192.333 -4 273 -4
c46.667 0 110.667 1.33301 192 4c5.33301 -6.66699 8.16602 -18.167 8.49902 -34.5s-2.5 -28.166 -8.5 -35.499c-35.333 -2.66699 -63.166 -6.66699 -83.499 -12s-41.666 -18.666 -63.999 -39.999s-41.166 -51.666 -56.499 -90.999z" />
    <glyph glyph-name="W" unicode="W" horiz-adv-x="2105" 
d="M1177 1255l286.999 -813.005l30 -86l26 74l231 687c12.667 38.667 8.5 69 -12.5 91s-60.5 37.667 -118.5 47c-6.66699 6.66699 -10 18.334 -10 35.001s3.33301 28.334 10 35.001c101.333 -2.66699 186.666 -4 255.999 -4c49.333 0 119 1.33301 209 4
c5.33301 -6.66699 8 -18.167 8 -34.5s-2.66699 -28.166 -8 -35.499c-46.667 -3.33301 -88.834 -20.333 -126.501 -51s-67.167 -75.334 -88.5 -134.001l-385 -1047c-10.667 -31.333 -34 -47.333 -70 -48c-32.667 0 -55 16 -67 48l-314 816l-307 -816
c-12 -31.333 -35.167 -47.166 -69.5 -47.499s-56.833 15.5 -67.5 47.5l-385 1122c-13.333 39.333 -35.166 66.166 -65.499 80.499s-70.166 24.166 -119.499 29.499c-5.33301 6.66699 -8 18.334 -8 35.001s2.66699 28.334 8 35.001c101.333 -2.66699 193 -4 275 -4
c139.333 0 259.333 1.33301 360 4c5.33301 -6.66699 8.16602 -18.167 8.49902 -34.5s-2.5 -28.166 -8.5 -35.499c-30 -1.33301 -53.167 -3.33301 -69.5 -6s-32.666 -6.66699 -48.999 -12s-27.166 -13.166 -32.499 -23.499s-5.33301 -23.5 0 -39.5l223 -732l19 -65l16 53
l292 825c34 -11.333 75 -11.333 123 0z" />
    <glyph glyph-name="X" unicode="X" horiz-adv-x="1470" 
d="M889 182l-188.996 322.001c-13.333 23.333 -24.5 36.666 -33.5 39.999s-18.167 -2 -27.5 -16c-100 -138 -177 -258 -231 -360c-32.667 -60 -2.66699 -93.333 90 -100c6.66699 -6.66699 10 -18.334 10 -35.001s-3.33301 -28.334 -10 -35.001
c-109.333 2.66699 -192.666 4 -249.999 4c-69.333 0 -145.333 -1.33301 -228 -4c-5.33301 6.66699 -8 18.167 -8 34.5s2.66699 28.166 8 35.499c52.667 5.33301 96.167 14.5 130.5 27.5s64.5 36.5 90.5 70.5l337 430c16.667 22 24.5 38.5 23.5 49.5
s-11.833 30.833 -32.5 59.5l-295 415c-38 52.667 -70.167 87.667 -96.5 105s-61.5 27.333 -105.5 30c-6.66699 6.66699 -10.167 18.334 -10.5 35.001s2.5 28.334 8.5 35.001c82 -2.66699 187.667 -4 317 -4c91.333 0 191.666 1.33301 300.999 4
c5.33301 -6.66699 8 -18.167 8 -34.5s-2.66699 -28.166 -8 -35.499c-54.667 -2.66699 -86.334 -12.834 -95.001 -30.501s-1 -45.5 23 -83.5l158 -263c12.667 -21.333 22.5 -34.166 29.5 -38.499s16.833 -1.16602 29.5 9.50098c63.333 72.667 131.666 174.667 204.999 306
c30 61.333 0 94.666 -90 99.999c-6.66699 6.66699 -10 18.334 -10 35.001s3.33301 28.334 10 35.001c109.333 -2.66699 188.666 -4 237.999 -4c57.333 0 127 1.33301 209 4c6.66699 -6.66699 10 -18.167 10 -34.5s-3.33301 -28.166 -10 -35.499
c-50.667 -4.66699 -91.834 -13.667 -123.501 -27s-60.834 -37 -87.501 -71l-277 -361c-17.333 -22 -25.5 -40.333 -24.5 -55s12.5 -38.334 34.5 -71.001l317 -467c35.333 -52 68 -86.667 98 -104s68.667 -27.666 116 -30.999c6.66699 -6.66699 10 -18.334 10 -35.001
s-2.66699 -28.334 -8 -35.001c-82 2.66699 -179 4 -291 4c-104 0 -210.333 -1.33301 -319 -4c-5.33301 6.66699 -8.16602 18.167 -8.49902 34.5s2.5 28.166 8.5 35.499c53.333 2.66699 82.333 13.5 87 32.5s-8 46.167 -38 81.5z" />
    <glyph glyph-name="Y" unicode="Y" horiz-adv-x="1277" 
d="M793 250c0 -82 11.5 -132.504 34.5 -151.504s77.5 -29.833 163.5 -32.5c5.33301 -5.33301 8 -17 8 -35s-2.66699 -29.667 -8 -35c-136.667 2.66699 -245 4 -325 4c-105.333 0 -225 -1.33301 -359 -4c-5.33301 5.33301 -8 16.833 -8 34.5s2.66699 29.5 8 35.5
c86 2.66699 140.667 13.5 164 32.5s35 69.5 35 151.5v280c0 36.667 -2.33301 63 -7 79s-16 39.667 -34 71l-261 440c-32 54.667 -60.5 90 -85.5 106s-60.5 25.667 -106.5 29c-6.66699 6.66699 -10 18.334 -10 35.001s2.66699 28.334 8 35.001c82 -2.66699 179 -4 291 -4
c60 0 144.667 1.33301 254 4c6.66699 -6.66699 10 -18.167 10 -34.5s-3.33301 -28.166 -10 -35.499c-54.667 -2.66699 -86.5 -12.834 -95.5 -30.501s-1.16699 -45.5 23.5 -83.5l214 -377c17.333 -30 32.666 -32 45.999 -6l211 397c16.667 30 15.5 53.5 -3.5 70.5
s-52.5 26.833 -100.5 29.5c-6.66699 6.66699 -10 18.334 -10 35.001s3.33301 28.334 10 35.001c109.333 -2.66699 185 -4 227 -4c45.333 0 109 1.33301 191 4c6.66699 -6.66699 10 -18.167 10 -34.5s-3.33301 -28.166 -10 -35.499
c-49.333 -4.66699 -85.833 -12.834 -109.5 -24.501s-46.5 -36.167 -68.5 -73.5l-263 -438c-23.333 -38.667 -34.666 -95.667 -33.999 -171v-298z" />
    <glyph glyph-name="Z" unicode="Z" horiz-adv-x="1277" 
d="M879 90c66.667 0 123.828 24.667 171.495 74s81.834 115.333 102.501 198c36.667 0 63.334 -3.33301 80.001 -10c-16.667 -166.667 -35 -287.334 -55 -362.001c0 -4 -3 -6 -9 -6c-138 10.667 -297 16 -477 16h-612c-26 0 -39 10.333 -39 31c0 15.333 5.33301 31 16 47
l766 1108c22 31.333 20.667 47 -4 47h-391c-132.667 0 -220 -86 -262 -258c-35.333 0 -62 3.33301 -80 10c24.667 106.667 42.334 222 53.001 346c0 4 2.66699 6 8 6c138 -10.667 297.333 -16 478 -16h411c22 0 48.333 0.666992 79 2s49.334 2 56.001 2
c23.333 0 35 -6.66699 35 -20c0 -19.333 -15 -51 -45 -95l-725 -1063c-15.333 -19.333 -21.166 -33.666 -17.499 -42.999s20.5 -14 50.5 -14h410z" />
    <glyph glyph-name="bracketleft" unicode="[" horiz-adv-x="813" 
d="M199 -395l0.00292969 1835h501c5.33301 -6.66699 8.16602 -16.834 8.49902 -30.501s-2.5 -24.167 -8.5 -31.5c-96.667 -6.66699 -164.834 -17.167 -204.501 -31.5s-65 -34.5 -76 -60.5s-16.5 -71.667 -16.5 -137v-1251c0 -50.667 2.16699 -87.334 6.5 -110.001
s17 -43.834 38 -63.501s50 -33 87 -40s92.167 -13.167 165.5 -18.5c5.33301 -6.66699 8.16602 -16.834 8.49902 -30.501s-2.5 -23.834 -8.5 -30.501h-501z" />
    <glyph glyph-name="backslash" unicode="\" horiz-adv-x="628" 
d="M156 1430l471 -1528h-133l-471 1528h133z" />
    <glyph glyph-name="bracketright" unicode="]" horiz-adv-x="813" 
d="M618 1436l-0.000976562 -1835h-501c-6.66699 6.66699 -10.167 16.834 -10.5 30.501s3.16699 23.834 10.5 30.501c96.667 6.66699 164.834 17.167 204.501 31.5s65 34.5 76 60.5s16.5 71.667 16.5 137v1252c0 50.667 -2.16699 87.167 -6.5 109.5s-17 43.5 -38 63.5
s-50 33.333 -87 40s-92.167 12.667 -165.5 18c-6.66699 6.66699 -10.167 16.834 -10.5 30.501s3.16699 24.167 10.5 31.5h501z" />
    <glyph glyph-name="asciicircum" unicode="^" horiz-adv-x="1060" 
d="M530 1165l-184 -456h-117l260 622h86l259 -622h-117z" />
    <glyph glyph-name="underscore" unicode="_" horiz-adv-x="995" 
d="M987 -211v-104h-977v104h977z" />
    <glyph glyph-name="grave" unicode="`" horiz-adv-x="802" 
d="M406 1380l141.001 -254.001c12 -22 18 -39.667 18 -53c0 -9.33301 -3.33301 -17.166 -10 -23.499s-15 -9.5 -25 -9.5c-16.667 0 -40.334 13.667 -71.001 41l-248 215l4 23c12 13.333 31.667 27.5 59 42.5s57.666 22.5 90.999 22.5c16.667 0 30.334 -1.33301 41.001 -4z
" />
    <glyph glyph-name="a" unicode="a" horiz-adv-x="1036" 
d="M605 99l-13 -1.00098c-36.667 -28.667 -80 -55.5 -130 -80.5s-88.667 -37.5 -116 -37.5c-170.667 0 -256 71.667 -256 215c0 74 29.333 130.667 88 170s151.667 78.666 279 117.999l137 43c0 118.667 -13.667 197.834 -41 237.501s-66.333 59.5 -117 59.5
c-53.333 0 -82 -15.333 -86 -46c-2 -13.333 -1 -31.333 3 -54s6 -37 6 -43c0 -25.333 -12.333 -47.5 -37 -66.5s-54.667 -28.5 -90 -28.5c-70.667 0 -106 34.667 -106 104c0 42 21.5 80.5 64.5 115.5s93.167 61.167 150.5 78.5s112.333 26 165 26
c233.333 0 350 -118 350 -354l-4 -295c0 -50.667 4.16699 -86.167 12.5 -106.5s23.166 -30.5 44.499 -30.5c32.667 0 61.334 9.66699 86.001 29c20.667 -15.333 33 -34.666 37 -57.999c-80.667 -76.667 -170 -114.667 -268 -114c-92.667 -0.666992 -145.667 39 -159 119z
M594 445.999l-106.999 -34c-34 -10.667 -61.833 -23 -83.5 -37s-37 -29.833 -46 -47.5s-14.833 -33.334 -17.5 -47.001s-4 -32.167 -4 -55.5c0 -35.333 9.5 -64.666 28.5 -87.999s49.167 -35 90.5 -35c31.333 0 77.666 24.667 138.999 74v270z" />
    <glyph glyph-name="b" unicode="b" horiz-adv-x="1110" 
d="M152 260l0.00195312 897.001c0 68 -6.83301 109.333 -20.5 124s-53.5 24.667 -119.5 30c-10.667 19.333 -12.667 41 -6 65c169.333 6.66699 297.666 24.667 384.999 54c22 0 33 -9 33 -27c-4 -50.667 -6 -120.334 -6 -209.001v-399
c105.333 76.667 182.333 114.667 231 114c125.333 0 219 -34.667 281 -104c74 -84.667 110.667 -187 110 -307c0 -142 -48.333 -263.833 -145 -365.5s-204 -152.5 -322 -152.5c-128.667 0 -228.334 27 -299.001 81c-18 -36.667 -39.667 -66 -65 -88c-18 0 -41.333 5 -70 15
c8.66699 77.333 13 168 13 272zM418.002 713.001v-576c39.333 -48 87.666 -71.667 144.999 -71c126.667 0 190.334 135 191.001 405c0 96.667 -16.167 169.667 -48.5 219s-74.833 74 -127.5 74c-54.667 0 -108 -17 -160 -51z" />
    <glyph glyph-name="c" unicode="c" horiz-adv-x="933" 
d="M864 178c-39.333 -57.333 -91.166 -104.665 -155.499 -141.998s-126.5 -56 -186.5 -56c-138 0 -244.333 35.333 -319 106c-84.667 79.333 -127 188 -127 326c0 147.333 44.333 267 133 359s195.667 138 321 138c104 0 185.667 -22.5 245 -67.5s89 -93.5 89 -145.5
c0 -32.667 -10.5 -59.834 -31.5 -81.501s-48 -32.5 -81 -32.5s-61.667 9.16699 -86 27.5s-37.833 41.166 -40.5 68.499c-4 39.333 -15.333 73.333 -34 102s-45 43 -79 43c-106.667 0 -160 -113.333 -160 -340c0 -117.333 25.333 -206 76 -266s117 -90 199 -90
c57.333 0 127.666 38.333 210.999 115c17.333 -0.666992 26 -22 26 -64z" />
    <glyph glyph-name="d" unicode="d" horiz-adv-x="1148" 
d="M720 194c-0.666992 17.333 -1 34.668 -1 52.001v504c-22.667 30.667 -45.834 50.5 -69.501 59.5s-51.834 13.5 -84.501 13.5c-65.333 0 -115.666 -29.333 -150.999 -88c-34 -56 -51.333 -144.667 -52 -266c0 -114.667 17.167 -202.334 51.5 -263.001
s78.166 -91 131.499 -91c12.667 0 39.834 9 81.501 27s72.834 35.333 93.501 52zM726 98.002h-16.999c-34 -23.333 -78 -48.833 -132 -76.5s-93.333 -41.5 -118 -41.5c-53.333 0 -96.333 6.33301 -129 19s-69.667 35 -111 67c-48 36.667 -83.833 86 -107.5 148
s-35.5 126 -35.5 192c0 135.333 49.5 253 148.5 353s214.5 150 346.5 150c54.667 0 104 -7.66699 148 -23v267c0 69.333 -6.83301 110.833 -20.5 124.5s-53.167 23.5 -118.5 29.5c-10.667 19.333 -13 42.333 -7 69c169.333 6.66699 297.666 24.667 384.999 54
c22 0 33 -9 33 -27c-4 -50.667 -6 -120.334 -6 -209.001v-922c0 -58.667 8.5 -98.5 25.5 -119.5s52.833 -34.167 107.5 -39.5c8 -26 9.33301 -48 4 -66c-116 -15.333 -229.333 -37.666 -340 -66.999c-30 0 -45.667 11.333 -47 34c-3.33301 24 -6.33301 52 -9 84z" />
    <glyph glyph-name="e" unicode="e" horiz-adv-x="1001" 
d="M362 563l279.001 -0.000976562c2.66699 2.66699 4 17 4 43c0 74 -13.333 128.667 -40 164s-57 53 -91 53c-15.333 0 -33.833 -6.16699 -55.5 -18.5s-40.167 -29.166 -55.5 -50.499c-24.667 -37.333 -38.334 -101 -41.001 -191zM883.001 263.999
c20.667 0 30.668 -20.999 30.001 -62.999c-101.333 -147.333 -229 -221 -383 -221c-140.667 0 -248.334 34 -323.001 102c-87.333 79.333 -131 187.333 -131 324c0 148.667 47.667 269.667 143 363s201.333 140 318 140c72.667 0 134.167 -10.5 184.5 -31.5s88 -50 113 -87
s43 -75.333 54 -115s16.5 -83.167 16.5 -130.5c0 -42 -19.667 -63.333 -59 -64h-492c0 -2.66699 -0.333008 -7.33398 -1 -14.001s-1 -12.667 -1 -18c0 -98 22.5 -171.333 67.5 -220s108.5 -73 190.5 -73c111.333 -0.666992 202.333 35.333 273 108z" />
    <glyph glyph-name="f" unicode="f" horiz-adv-x="800" 
d="M471 262c0 -83.333 9.83203 -136.166 29.499 -158.499s62.5 -34.833 128.5 -37.5c6.66699 -5.33301 10 -17 10 -35s-3.33301 -29.667 -10 -35c-117.333 2.66699 -214.333 4 -291 4c-79.333 0 -176.333 -1.33301 -291 -4c-6.66699 5.33301 -10 16.833 -10 34.5
s3.33301 29.5 10 35.5c65.333 2.66699 108 15.167 128 37.5s30 73.833 30 154.5v528h-103c-36.667 0 -55 7 -55 21v55c0 18 51.333 27 154 27h4v41c0 88.667 13 162 39 220s61.333 111.667 106 161c74 79.333 170.333 119 289 119c96.667 0 167.667 -16.5 213 -49.5
s68 -67.167 68 -102.5c0 -42 -10.667 -74.333 -32 -97s-49.666 -34 -84.999 -34s-66 10.833 -92 32.5s-44 49.834 -54 84.501c-8 30 -15.333 50.667 -22 62s-18.334 17 -35.001 17c-10.667 0 -21.167 -2.33301 -31.5 -7s-21.666 -14.167 -33.999 -28.5
s-23 -33.833 -32 -58.5s-16.5 -58.834 -22.5 -102.501s-9 -94.834 -9 -153.501v-104h207c27.333 0 41 -7 41 -21v-47c0 -23.333 -24 -35 -72 -35h-176v-524z" />
    <glyph glyph-name="g" unicode="g" horiz-adv-x="1067" 
d="M594 590c0 161.333 -45.667 241.667 -137 241c-40.667 0 -70.334 -15.667 -89.001 -47s-28 -84.333 -28 -159c0 -170.667 47.667 -256 143 -256c32.667 0 59.334 14.667 80.001 44s31 88.333 31 177zM358 -50.999c-39.333 0 -69.334 4.00195 -90.001 12.002
c-15.333 -27.333 -22.666 -80 -21.999 -158c0 -54.667 21.5 -102.334 64.5 -143.001s97.167 -61 162.5 -61c116.667 0 198.667 13.333 246 40c32 18 56.667 45.167 74 81.5s26 74.166 26 113.499c0 76.667 -153.667 115 -461 115zM955.999 807.003
c-23.333 0 -43.8359 7.49902 -61.5029 22.499s-29.167 30.833 -34.5 47.5c-8 16.667 -21 24.667 -39 24c-10.667 0 -28.667 -7.16699 -54 -21.5s-42 -26.166 -50 -35.499c84.667 -69.333 127 -152 127 -248c0 -86 -33.5 -158.333 -100.5 -217s-157.167 -88 -270.5 -88
c-68.667 0 -118.667 7.33301 -150 22l-11.5 -23c-6.33301 -12.667 -11 -23.834 -14 -33.501s-4.5 -19.5 -4.5 -29.5c0 -57.333 30.667 -86 92 -86c102.667 0 209.167 -5.33301 319.5 -16s183.5 -27.667 219.5 -51c68 -46.667 102 -109 102 -187
c0 -106.667 -63.833 -195.667 -191.5 -267s-267.167 -107 -418.5 -107c-144.667 0 -249.334 22.333 -314.001 67c-53.333 36.667 -79.666 104.334 -78.999 203.001c0 19.333 19.333 52.166 58 98.499s78.667 81.833 120 106.5c-39.333 12 -67.333 31 -84 57
c-18 26 -27 57.333 -27 94c0 19.333 17.833 50.333 53.5 93s71.834 79.667 108.501 111c-48 26.667 -86.333 64.334 -115 113.001s-43 98.667 -43 150c0 98 46.333 177.333 139 238c66.667 44 147.334 65.667 242.001 65c84.667 0 142 -8 172 -24
c34 30 76.667 57.667 128 83s98 38 140 38c36.667 0 67.834 -11 93.501 -33s38.5 -44 38.5 -66c-0.666992 -66.667 -31 -100 -91 -100z" />
    <glyph glyph-name="h" unicode="h" horiz-adv-x="1267" 
d="M1081 262c0 -83.333 10 -136.168 30 -158.501s62.667 -34.833 128 -37.5c6.66699 -5.33301 10 -17 10 -35s-3.33301 -29.667 -10 -35c-117.333 2.66699 -214.333 4 -291 4c-52 0 -135.333 -1.33301 -250 -4c-6.66699 5.33301 -10 16.833 -10 34.5s3.33301 29.5 10 35.5
c45.333 2.66699 76.166 15.834 92.499 39.501s24.5 75.834 24.5 156.501v342c0 102.667 -51 154 -153 154c-44.667 0 -108.334 -26.333 -191.001 -79v-419c0 -80.667 7.83301 -132.5 23.5 -155.5s46.834 -35.833 93.501 -38.5c6.66699 -5.33301 10 -17 10 -35
s-3.33301 -29.667 -10 -35c-117.333 2.66699 -200.666 4 -249.999 4c-79.333 0 -176.333 -1.33301 -291 -4c-6.66699 5.33301 -10 16.833 -10 34.5s3.33301 29.5 10 35.5c65.333 2.66699 108 15.167 128 37.5s30 74.5 30 156.5v897c0 68 -6.83301 109.333 -20.5 124
s-53.167 24.667 -118.5 30c-10.667 19.333 -13 41 -7 65c169.333 6.66699 297.666 24.667 384.999 54c22 0 33 -9 33 -27c-4 -50.667 -6 -120.334 -6 -209.001v-433c156.667 98.667 269.334 148 338.001 148c181.333 0 272 -109 272 -327v-320z" />
    <glyph glyph-name="i" unicode="i" horiz-adv-x="659" 
d="M475 250c0 -82 8.16895 -132.165 24.502 -150.498s57.5 -29.5 123.5 -33.5c5.33301 -5.33301 8 -17 8 -35s-2.66699 -29.667 -8 -35c-117.333 2.66699 -211 4 -281 4c-72.667 0 -166.334 -1.33301 -281.001 -4c-5.33301 5.33301 -8 16.833 -8 34.5s2.66699 29.5 8 35.5
c65.333 5.33301 106.333 16.833 123 34.5s25 67.5 25 149.5v393c0 57.333 -7.83301 94.166 -23.5 110.499s-52.167 27.166 -109.5 32.499c-8 26 -9.33301 48 -4 66c217.333 28.667 338.666 47.667 363.999 57c31.333 0 47 -11.667 47 -35
c-5.33301 -76.667 -8 -148.667 -8 -216v-408zM199.002 1221c0 34 12.5 63.667 37.5 89s60.167 38 105.5 38c39.333 0 71.333 -14 96 -42s37 -59.333 37 -94c0 -30 -13.667 -58.667 -41 -86s-62 -41 -104 -41c-39.333 0 -71 13.833 -95 41.5s-36 59.167 -36 94.5z" />
    <glyph glyph-name="j" unicode="j" horiz-adv-x="638" 
d="M209 643c0 57.333 -7.83398 94.168 -23.501 110.501s-52.167 27.166 -109.5 32.499c-8 26 -9.33301 48 -4 66c217.333 28.667 338.666 47.667 363.999 57c31.333 0 47 -11.667 47 -35c-5.33301 -76.667 -8 -149 -8 -217v-432c0 -178.667 -14 -310 -42 -394
s-69.333 -147.667 -124 -191c-45.333 -38 -90.5 -66.667 -135.5 -86s-103.5 -29 -175.5 -29c-38 0 -76.833 12.667 -116.5 38s-59.5 58.333 -59.5 99c0 27.333 12.333 54.666 37 81.999s46.334 41 65.001 41c10.667 0 21.5 -1.33301 32.5 -4s20.333 -5.66699 28 -9
s16 -8.83301 25 -16.5s15.5 -13.5 19.5 -17.5l20 -20.5c9.33301 -9.66699 15 -15.167 17 -16.5c24.667 -24.667 45 -37 61 -37c28.667 0 51.834 15.333 69.501 46s26.5 64.667 26.5 102c0 46.667 -2.33301 106.334 -7 179.001s-7 127.667 -7 165v487zM194.999 1221
c0 34 12.5 63.667 37.5 89s60.167 38 105.5 38c39.333 0 71.333 -14 96 -42s37 -59.333 37 -94c0 -30 -13.667 -58.667 -41 -86s-62 -41 -104 -41c-39.333 0 -71 13.833 -95 41.5s-36 59.167 -36 94.5z" />
    <glyph glyph-name="k" unicode="k" horiz-adv-x="1255" 
d="M205 260l0.00195312 896.998c0 68 -6.83301 109.333 -20.5 124s-53.167 24.667 -118.5 30c-10.667 19.333 -13 41 -7 65c169.333 6.66699 297.666 24.667 384.999 54c22 0 33 -9 33 -27c-4 -50.667 -6 -120.334 -6 -209.001v-684c29.333 0 63.5 6.5 102.5 19.5
s65.5 25.833 79.5 38.5c44 38 87.667 87 131 147c27.333 40.667 34.5 67.834 21.5 81.501s-48.167 22.5 -105.5 26.5c-5.33301 5.33301 -8 17 -8 35s2.66699 29.667 8 35c101.333 -2.66699 184 -4 248 -4c91.333 0 167.333 1.33301 228 4c5.33301 -5.33301 8 -17 8 -35
s-2.66699 -29.667 -8 -35c-37.333 -4 -69.833 -10.5 -97.5 -19.5s-53.667 -23.167 -78 -42.5s-41 -33.5 -50 -42.5s-26.5 -27.5 -52.5 -55.5l-101 -112c-8 -9.33301 -6 -23 6 -41l237 -350l19.5 -26.5c6.33301 -8.33301 13.333 -15.666 21 -21.999l18.5 -15.5
c4.66699 -4 11 -7.66699 19 -11s14.167 -5.66602 18.5 -6.99902s11.666 -3 21.999 -5s16.833 -3 19.5 -3s10.5 -0.666992 23.5 -2s21.5 -2 25.5 -2c6.66699 -5.33301 10 -17 10 -35s-3.33301 -29.667 -10 -35c-101.333 2.66699 -193 4 -275 4l-164 -4l-4 4v53
c0 24.667 -10.667 60.334 -32 107.001c-23.333 49.333 -70 125.666 -140 228.999c-18 26 -65 39 -141 39v-168c0 -79.333 7.16699 -130.5 21.5 -153.5s39.166 -36.5 74.499 -40.5c6.66699 -5.33301 10.167 -17 10.5 -35s-3.16699 -29.667 -10.5 -35
c-65.333 2.66699 -141.666 4 -228.999 4c-79.333 0 -176.333 -1.33301 -291 -4c-6.66699 5.33301 -10 16.833 -10 34.5s3.33301 29.5 10 35.5c65.333 2.66699 108 15.167 128 37.5s30 74.5 30 156.5z" />
    <glyph glyph-name="l" unicode="l" horiz-adv-x="665" 
d="M205 260l0.000976562 897.001c0 68 -6.83301 109.333 -20.5 124s-53.167 24.667 -118.5 30c-10.667 19.333 -13 41 -7 65c169.333 6.66699 297.666 24.667 384.999 54c22 0 33 -9 33 -27c-4 -50.667 -6 -120.334 -6 -209.001v-934c0 -82 9.83301 -134.167 29.5 -156.5
s62.5 -34.833 128.5 -37.5c6.66699 -5.33301 10 -17 10 -35s-3.33301 -29.667 -10 -35c-117.333 2.66699 -214.333 4 -291 4c-79.333 0 -176.333 -1.33301 -291 -4c-6.66699 5.33301 -10 16.833 -10 34.5s3.33301 29.5 10 35.5c65.333 2.66699 108 15.167 128 37.5
s30 74.5 30 156.5z" />
    <glyph glyph-name="m" unicode="m" horiz-adv-x="1853" 
d="M467 250c0 -80.667 6.16699 -130.5 18.5 -149.5s41.5 -30.5 87.5 -34.5c5.33301 -5.33301 8.16602 -17 8.49902 -35s-2.5 -29.667 -8.5 -35c-117.333 2.66699 -197 4 -239 4c-72.667 0 -166.334 -1.33301 -281.001 -4c-5.33301 5.33301 -8 16.833 -8 34.5
s2.66699 29.5 8 35.5c65.333 5.33301 106.333 16.833 123 34.5s25 67.5 25 149.5v383c0 57.333 -7.83301 94.166 -23.5 110.499s-52.167 27.166 -109.5 32.499c-8 26 -9.66699 48 -5 66c116 15.333 229.333 37.666 340 66.999c30 0 46 -11.667 48 -35
c4.66699 -31.333 8.33398 -67.333 11.001 -108c168.667 95.333 281.667 143 339 143c58.667 0 108.167 -13.333 148.5 -40s68.5 -62.667 84.5 -108c68.667 38.667 138.334 73 209.001 103s123.334 45 158.001 45c88.667 0 153.834 -26.5 195.501 -79.5
s62.5 -135.5 62.5 -247.5v-320c0 -83.333 9.83301 -136.166 29.5 -158.499s62.5 -34.833 128.5 -37.5c6.66699 -5.33301 10 -17 10 -35s-3.33301 -29.667 -10 -35c-117.333 2.66699 -214.333 4 -291 4c-52 0 -135.333 -1.33301 -250 -4
c-6.66699 5.33301 -10 16.833 -10 34.5s3.33301 29.5 10 35.5c45.333 2.66699 76.166 15.834 92.499 39.501s24.5 75.834 24.5 156.501v342c0 102.667 -46.667 154 -140 154c-18 0 -46.333 -6 -85 -18s-76 -27.333 -112 -46c4.66699 -24 7 -61.333 7 -112v-320
c0 -80.667 8.16699 -132.834 24.5 -156.501s47.166 -36.834 92.499 -39.501c5.33301 -5.33301 8 -17 8 -35s-2.66699 -29.667 -8 -35c-117.333 2.66699 -200.666 4 -249.999 4c-52 0 -135.333 -1.33301 -250 -4c-5.33301 5.33301 -8 16.833 -8 34.5s2.66699 29.5 8 35.5
c45.333 2.66699 76.166 15.834 92.499 39.501s24.5 75.834 24.5 156.501v342c0 102.667 -48 154 -144 154c-48 0 -110 -23.333 -186 -70v-30v-408z" />
    <glyph glyph-name="n" unicode="n" horiz-adv-x="1261" 
d="M467 250c0 -80.667 6.16895 -130.5 18.502 -149.5s41.5 -30.5 87.5 -34.5c5.33301 -5.33301 8.16602 -17 8.49902 -35s-2.5 -29.667 -8.5 -35c-117.333 2.66699 -197 4 -239 4c-72.667 0 -166.334 -1.33301 -281.001 -4c-5.33301 5.33301 -8 16.833 -8 34.5
s2.66699 29.5 8 35.5c65.333 5.33301 106.333 16.833 123 34.5s25 67.5 25 149.5v383c0 57.333 -7.83301 94.166 -23.5 110.499s-52.167 27.166 -109.5 32.499c-8 26 -9.66699 48 -5 66c116 15.333 229.333 37.666 340 66.999c30 0 46 -11.667 48 -35
c6 -40.667 10.333 -84.667 13 -132c162.667 112 276.334 167.667 341.001 167c181.333 0 272 -109 272 -327v-320c0 -83.333 10 -136.166 30 -158.499s62.667 -34.833 128 -37.5c6.66699 -5.33301 10 -17 10 -35s-3.33301 -29.667 -10 -35
c-117.333 2.66699 -214.333 4 -291 4c-52 0 -135.333 -1.33301 -250 -4c-6.66699 5.33301 -10 16.833 -10 34.5s3.33301 29.5 10 35.5c45.333 2.66699 76.166 15.834 92.499 39.501s24.5 75.834 24.5 156.501v342c0 102.667 -47.667 154 -143 154
c-40.667 0 -107.667 -32 -201 -96v-4v-408z" />
    <glyph glyph-name="o" unicode="o" horiz-adv-x="1128" 
d="M532 823c-113.333 0 -169.998 -118 -169.998 -354c0 -94 20.167 -184.667 60.5 -272s98.166 -131 173.499 -131c45.333 0 85 24.167 119 72.5s51 127.833 51 238.5c0 139.333 -21.333 248.5 -64 327.5s-99.334 118.5 -170.001 118.5zM76.002 424
c0 136.667 37.333 247.999 112 333.999c88 101.333 213.667 151.666 377 150.999c148.667 0 267.167 -43.667 355.5 -131s132.5 -199.333 132.5 -336c0 -147.333 -46.667 -262.666 -140 -345.999c-87.333 -78 -204 -116.667 -350 -116
c-139.333 0 -255.333 40.833 -348 122.5s-139 188.834 -139 321.501z" />
    <glyph glyph-name="p" unicode="p" horiz-adv-x="1189" 
d="M195 633c0 57.333 -7.99609 94.1689 -23.9961 110.502s-52.667 27.166 -110 32.499c-8 26 -9.33301 48 -4 66c116 15.333 229.333 37.666 340 66.999c30 0 45.667 -11.667 47 -35c4 -30 7.66699 -64 11 -102h12c39.333 35.333 82.666 67 129.999 95s84.666 42 111.999 42
c118.667 0 212 -34 280 -102c38 -38 68 -86.5 90 -145.5s33 -117.833 33 -176.5c0 -151.333 -46.833 -273.333 -140.5 -366s-218.167 -139 -373.5 -139c-46.667 0 -92.334 11.333 -137.001 34v-239c0 -82 8.16699 -132.167 24.5 -150.5s57.166 -29.833 122.499 -34.5
c6.66699 -5.33301 10 -16.833 10 -34.5s-3.33301 -29.167 -10 -34.5c-117.333 2.66699 -210.666 4 -279.999 4c-72.667 0 -166.334 -1.33301 -281.001 -4c-6.66699 5.33301 -10 16.833 -10 34.5s3.33301 29.167 10 34.5c65.333 5.33301 106.333 17 123 35s25 68 25 150v858z
M461.004 133.003c42 -45.333 83.667 -67.6689 125 -67.002c82 0 142.333 35.833 181 107.5s58 157.167 58 256.5c0 110.667 -18.333 195.334 -55 254.001s-79 88 -127 88c-26 0 -56 -7.16699 -90 -21.5s-65 -34.166 -93 -59.499c0.666992 -11.333 1 -22.333 1 -33v-525z" />
    <glyph glyph-name="q" unicode="q" horiz-adv-x="1173" 
d="M989 -225c0 -82 8.16699 -132.166 24.5 -150.499s57.5 -29.833 123.5 -34.5c6.66699 -5.33301 10 -16.833 10 -34.5s-3.33301 -29.167 -10 -34.5c-117.333 2.66699 -211 4 -281 4c-72.667 0 -166.334 -1.33301 -281.001 -4c-6.66699 5.33301 -10 16.833 -10 34.5
s3.33301 29.167 10 34.5c65.333 5.33301 106.333 17 123 35s25 68 25 150v282h-10c-110.667 -52 -183.667 -77.667 -219 -77c-98 0 -183.333 25.667 -256 77c-109.333 78 -164 201 -164 369c0 134 51.5 248 154.5 342s223.5 141 361.5 141c76.667 0 147.334 -25 212.001 -75
c22.667 19.333 49.5 36.666 80.5 51.999s53.5 23 67.5 23c31.333 0 47 -11.667 47 -35c-5.33301 -76.667 -8 -148.667 -8 -216v-883zM723 145.001v604.002c-40.667 50 -87 74.667 -139 74c-65.333 0 -119 -33 -161 -99s-63 -151 -63 -255
c0 -136.667 22.667 -233.334 68 -290.001s99.333 -85 162 -85c13.333 0 34.333 5.16699 63 15.5s52 22.166 70 35.499z" />
    <glyph glyph-name="r" unicode="r" horiz-adv-x="876" 
d="M467 549l0.00390625 -298.999c0 -82 8.16699 -132.167 24.5 -150.5s57.166 -29.5 122.499 -33.5c5.33301 -5.33301 8.16602 -17 8.49902 -35s-2.5 -29.667 -8.5 -35c-117.333 2.66699 -210.666 4 -279.999 4c-72.667 0 -166.334 -1.33301 -281.001 -4
c-5.33301 5.33301 -8 16.833 -8 34.5s2.66699 29.5 8 35.5c65.333 5.33301 106.333 16.833 123 34.5s25 67.5 25 149.5v383c0 57.333 -8.16699 94.5 -24.5 111.5s-52.5 28.167 -108.5 33.5c-8 26 -9.66699 47.333 -5 64c79.333 8 192.666 30.333 339.999 67
c28.667 0 44.667 -11.667 48 -35c6.66699 -66.667 11.334 -120.334 14.001 -161.001h8c91.333 131.333 172.666 196.666 243.999 195.999c35.333 0 66.666 -12.167 93.999 -36.5s41 -50.166 41 -77.499c0 -42 -12 -77.333 -36 -106s-51.333 -43 -82 -43
c-44.667 0 -76.334 11.333 -95.001 34c-21.333 26 -40.666 39 -57.999 39c-24 0 -45.667 -11.667 -65 -35c-11.333 -13.333 -19.833 -24.5 -25.5 -33.5s-11 -22.5 -16 -40.5s-7.5 -38.333 -7.5 -61z" />
    <glyph glyph-name="s" unicode="s" horiz-adv-x="874" 
d="M98 299c30 6.66699 57.334 8.00098 82.001 4.00098c20.667 -74 52.834 -133.167 96.501 -177.5s89.5 -66.5 137.5 -66.5c30 0 57.667 9 83 27s38 42.667 38 74c0 75.333 -35 128.333 -105 159c-92.667 42 -171.667 98.667 -237 170c-42 46.667 -63.333 98 -64 154
c0 58.667 23.333 112 70 160c69.333 70.667 161.333 106 276 106c78 0 154.667 -16.333 230 -49c18 -62.667 26.667 -135 26 -217c-18 -12 -44.667 -15.333 -80 -10c-52 126.667 -116 190 -192 190c-28.667 0 -52.334 -8.16699 -71.001 -24.5s-28 -36.833 -28 -61.5
c0 -75.333 37 -128.333 111 -159c106 -46 185.333 -98.667 238 -158c42 -46.667 63 -105.334 63 -176.001c0 -83.333 -36.833 -148.166 -110.5 -194.499s-154.834 -69.5 -243.501 -69.5c-104 0 -199 15 -285 45c-14 57.333 -25.667 148.666 -35 273.999z" />
    <glyph glyph-name="t" unicode="t" horiz-adv-x="733" 
d="M129 889l57.001 0.000976562c0 138 7.66699 217 23 237c4 5.33301 12.167 10.666 24.5 15.999s27.5 10.833 45.5 16.5s30.667 10.167 38 13.5c16 6.66699 38.833 14.334 68.5 23.001s48.167 13 55.5 13c10.667 0 16 -6 16 -18c-4 -64 -7.66699 -141.333 -11 -232l-2 -69
h240c10.667 0 16 -4 16 -12v-64c0 -18 -16.333 -27 -49 -27h-207c0 -76.667 0.333008 -177 1 -301s1 -199 1 -225c0 -48 8.66699 -82.833 26 -104.5s39 -32.5 65 -32.5c53.333 0 92 9.66699 116 29c24.667 -20.667 37 -40 37 -58c-22 -30 -60.167 -56.5 -114.5 -79.5
s-108.833 -34.5 -163.5 -34.5c-68 0 -124.667 19 -170 57c-40.667 35.333 -61.334 94.666 -62.001 177.999c0 202 2 392.333 6 571h-133c-6.66699 0 -10 4.33301 -10 13v59c23.333 20.667 52 31 86 31z" />
    <glyph glyph-name="u" unicode="u" horiz-adv-x="1224" 
d="M1044 272c0 -58.667 8.66602 -98.5049 25.999 -119.505s53.333 -34.167 108 -39.5c8 -26 9.33301 -48 4 -66c-116 -15.333 -229.333 -37.666 -340 -66.999c-30 0 -45.667 11.333 -47 34c-3.33301 26 -6.66602 56 -9.99902 90c-61.333 -34.667 -124.5 -64 -189.5 -88
s-115.5 -36 -151.5 -36c-174.667 0 -262 109 -262 327v320c0 80.667 -9.83301 132.834 -29.5 156.501s-55.5 36.834 -107.5 39.501c-5.33301 5.33301 -8 17 -8 35s2.66699 29.667 8 35c117.333 -2.66699 207.333 -4 270 -4c28.667 0 67.667 1.33301 117 4
c13.333 -13.333 20.333 -36.666 21 -69.999c0 -5.33301 -0.666992 -22.333 -2 -51s-2 -77 -2 -145v-342c0 -65.333 11.5 -107.333 34.5 -126s59.167 -28 108.5 -28c66 0 128.667 18.333 188 55c-1.33301 22 -2 42.333 -2 61v380c0 82 -8.83301 133.833 -26.5 155.5
s-54.5 35.167 -110.5 40.5c-6.66699 5.33301 -10 17 -10 35s3.33301 29.667 10 35c106.667 -2.66699 196.667 -4 270 -4c28.667 0 67.667 1.33301 117 4c13.333 -13.333 20.333 -36.666 21 -69.999c0 -5.33301 -0.833008 -22.333 -2.5 -51s-2.5 -77 -2.5 -145v-355z" />
    <glyph glyph-name="v" unicode="v" horiz-adv-x="1083" 
d="M700 823c-5.33301 5.33301 -8.00195 17.0029 -8.00195 35.0029s2.66699 29.667 8 35c74 -2.66699 143 -4 207 -4c44 0 96 1.33301 156 4c6.66699 -5.33301 10 -17 10 -35s-3.33301 -29.667 -10 -35c-26.667 -2.66699 -49 -7.66699 -67 -15s-33.667 -19 -47 -35
s-23.666 -31 -30.999 -45s-17.333 -35.333 -30 -64l-282 -641c-13.333 -31.333 -40 -47.333 -80 -48c-38 0 -62.333 14.333 -73 43l-268 648c-2.66699 6 -7 16.5 -13 31.5l-11.5 28.5c-1.66699 4 -5.16699 11.5 -10.5 22.5s-9.5 18 -12.5 21s-7.5 8.16699 -13.5 15.5
s-12 12.166 -18 14.499s-13.333 5.5 -22 9.5s-18.167 7 -28.5 9s-22.166 3.66699 -35.499 5c-5.33301 5.33301 -8 17 -8 35s2.66699 29.667 8 35c101.333 -2.66699 185.333 -4 252 -4c70.667 0 156.667 1.33301 258 4c6.66699 -5.33301 10.167 -17 10.5 -35
s-3.16699 -29.667 -10.5 -35c-16 -1.33301 -29.5 -3.33301 -40.5 -6s-20.333 -4.83398 -28 -6.50098s-13 -5.83398 -16 -12.501s-5.66699 -11.334 -8 -14.001s-2.16602 -9.5 0.500977 -20.5s4.5 -18.333 5.5 -22s4.5 -13.667 10.5 -30s10.333 -27.5 13 -33.5l129 -365
c3.33301 -9.33301 6.66602 -15.166 9.99902 -17.499s7.33301 0.166992 12 7.5l162 375c23.333 52 29.5 88.167 18.5 108.5s-43.833 32.5 -98.5 36.5z" />
    <glyph glyph-name="w" unicode="w" horiz-adv-x="1591" 
d="M987 678l134.997 -343.001c4 -10 8.83301 -15 14.5 -15s10.5 6 14.5 18l118 322c21.333 50.667 26.333 89.5 15 116.5s-43.333 42.5 -96 46.5c-5.33301 5.33301 -8 17 -8 35s2.66699 29.667 8 35c101.333 -2.66699 181 -4 239 -4c30 0 75.333 1.33301 136 4
c6.66699 -5.33301 10 -17 10 -35s-3.33301 -29.667 -10 -35c-27.333 -2.66699 -51.166 -8.66699 -71.499 -18s-37.666 -23.333 -51.999 -42s-25.333 -35.667 -33 -51s-17.5 -37.333 -29.5 -66l-251 -623c-12 -31.333 -35.667 -47.333 -71 -48c-42 0 -68.667 14.333 -80 43
l-197 510l-192 -505c-12 -31.333 -37.333 -47.333 -76 -48c-34 0 -56.667 14.333 -68 43l-249 648c-2 4.66699 -4.33301 11.334 -7 20.001c-19.333 50.667 -37.666 84.667 -54.999 102s-51.333 29 -102 35c-5.33301 5.33301 -8.16602 17 -8.49902 35s2.5 29.667 8.5 35
c101.333 -2.66699 185.333 -4 252 -4c78 0 167.333 1.33301 268 4c5.33301 -5.33301 8 -17 8 -35s-2.66699 -29.667 -8 -35c-56 -4.66699 -88 -16.667 -96 -36s-2.66699 -50.333 16 -93c2.66699 -6.66699 4.66699 -12 6 -16l117 -348c4 -9.33301 8 -14 12 -14
s7.33301 4 10 12l195 539c35.333 -3.33301 73.666 -3.66602 114.999 -0.999023c16.667 -60.667 37.667 -123.334 63 -188.001z" />
    <glyph glyph-name="x" unicode="x" horiz-adv-x="1148" 
d="M375 150c-8 -12 -12.834 -23.001 -14.501 -33.001s-0.666992 -17.667 3 -23s9.83398 -10 18.501 -14s16.167 -7 22.5 -9s14.833 -3.66699 25.5 -5c5.33301 -5.33301 8 -17 8 -35s-2.66699 -29.667 -8 -35c-54.667 2.66699 -129.667 4 -225 4
c-58.667 0 -115.334 -1.33301 -170.001 -4c-6.66699 5.33301 -10 16.833 -10 34.5s3.33301 29.5 10 35.5c94 12 161.667 44 203 96l188 233c9.33301 12 11.333 22.333 6 31l-182 260c-34 49.333 -63.667 84.5 -89 105.5s-59.333 31.5 -102 31.5
c-6.66699 5.33301 -10 17 -10 35s3.33301 29.667 10 35c54.667 -2.66699 140.667 -4 258 -4c136.667 0 232.334 1.33301 287.001 4c6.66699 -5.33301 10 -17 10 -35s-3.33301 -29.667 -10 -35c-42 -4 -67.167 -10 -75.5 -18s-3.5 -30.667 14.5 -68l91 -155
c8.66699 -14.667 17.334 -16 26.001 -4l110 157c20.667 28.667 26.834 49.834 18.501 63.501s-30.833 21.834 -67.5 24.501c-5.33301 5.33301 -8 17 -8 35s2.66699 29.667 8 35c54.667 -2.66699 123 -4 205 -4c60 0 117.333 1.33301 172 4c5.33301 -5.33301 8 -17 8 -35
s-2.66699 -29.667 -8 -35c-82 -9.33301 -147 -42.666 -195 -99.999l-182 -221c-5.33301 -8 -4 -18.333 4 -31l180 -268c53.333 -78 123.666 -123.667 210.999 -137c6.66699 -5.33301 10 -17 10 -35s-3.33301 -29.667 -10 -35c-54.667 2.66699 -146 4 -274 4
c-131.333 0 -224.333 -1.33301 -279 -4c-6.66699 5.33301 -10 16.833 -10 34.5s3.33301 29.5 10 35.5c38 5.33301 60.833 11.666 68.5 18.999s4.16699 28 -10.5 62l-99 186c-4.66699 9.33301 -11.334 7.66602 -20.001 -5.00098z" />
    <glyph glyph-name="y" unicode="y" horiz-adv-x="1142" 
d="M496 -344c-27.333 -48 -68.3359 -84.9961 -123.003 -110.996c-28.667 -13.333 -67.667 -20 -117 -20c-32.667 0 -59.334 12.333 -80.001 37c-16.667 19.333 -24.667 46.666 -24 81.999c0 23.333 11.167 44.833 33.5 64.5s51.833 29.5 88.5 29.5c8 0 19 -1.33301 33 -4
s27 -4 39 -4c26.667 0 47.834 7.83301 63.501 23.5s30.834 41.167 45.501 76.5l49 113c1.33301 10.667 2.66602 18 3.99902 22s-1 11.5 -7 22.5s-10.833 18.833 -14.5 23.5l-19.5 25.5c-9.33301 12.333 -16.333 22.166 -21 29.499l-264 606
c-28.667 64 -51.5 104.167 -68.5 120.5s-48.167 26.5 -93.5 30.5c-5.33301 5.33301 -8 17 -8 35s2.66699 29.667 8 35c54.667 -2.66699 130.667 -4 228 -4c80.667 0 171.334 1.33301 272.001 4c5.33301 -5.33301 8 -17 8 -35s-2.66699 -29.667 -8 -35
c-57.333 -4 -88.666 -16.5 -93.999 -37.5s3.66699 -52.167 27 -93.5l190 -428c2 -3.33301 3 -6 3 -8c0 1.33301 0.333008 2.66602 1 3.99902l211 473c9.33301 13.333 12.333 25.5 9 36.5s-6.66602 19.667 -9.99902 26s-11.5 11.5 -24.5 15.5s-24.333 6.66699 -34 8
s-22.5 2.66602 -38.5 3.99902c-6.66699 5.33301 -10 17 -10 35s3.33301 29.667 10 35c101.333 -2.66699 173.666 -4 216.999 -4c28.667 0 77 1.33301 145 4c5.33301 -5.33301 8 -17 8 -35s-2.66699 -29.667 -8 -35c-35.333 -2.66699 -67.666 -16.667 -96.999 -42
s-52.333 -54.333 -69 -87c-118.667 -251.333 -242.667 -533.333 -372 -846c-32.667 -82.667 -62 -146.667 -88 -192z" />
    <glyph glyph-name="z" unicode="z" horiz-adv-x="925" 
d="M125 913c6.66699 -1.33301 16.5029 -3.99902 29.5029 -7.99902s26.667 -7 41 -9s31.166 -3 50.499 -3h395c18 0 43.333 0.333008 76 1s62.667 1.33398 90 2.00098s41.666 1 42.999 1c16.667 0 24.834 -4.83301 24.501 -14.5s-12.5 -34.834 -36.5 -75.501
c-194.667 -320.667 -354.334 -561 -479.001 -721l1 -6h197c52 0 91.667 10.167 119 30.5s54.666 58.5 81.999 114.5l28 60c39.333 0 66.666 -4.33301 81.999 -13c-15.333 -102.667 -37 -195.334 -65 -278.001l-721 6c-31.333 -0 -47 8.33301 -47 25
c0 10.667 6 24.334 18 41.001c168 226 333 473.667 495 743l-3 4l-209 -6c-75.333 -2.66699 -130.666 -68.334 -165.999 -197.001c-31.333 -6.66699 -60.666 -4.66699 -87.999 6c19.333 114.667 29.666 209.667 30.999 285c0 8 4 12 12 12z" />
    <glyph glyph-name="braceleft" unicode="{" horiz-adv-x="628" 
d="M426 1130l16.0029 -339.001c4 -84.667 -11.667 -147.167 -47 -187.5s-91.333 -71.5 -168 -93.5v-8c75.333 -31.333 131.166 -70.666 167.499 -117.999s52.166 -110.333 47.499 -189l-16 -306c-4 -82 10.333 -148.167 43 -198.5s73 -75.5 121 -75.5
c5.33301 -5.33301 8 -13.5 8 -24.5s-2.66699 -19.167 -8 -24.5c-117.333 0 -209.833 24.833 -277.5 74.5s-99.5 136.167 -95.5 259.5l12 348c4 134 -62.667 209 -200 225c-8 8 -12.5 18.5 -13.5 31.5s3.5 24.5 13.5 34.5c69.333 6.66699 120 30.5 152 71.5
s48 90.167 48 147.5l-12 377c-4 106.667 30.833 185.5 104.5 236.5s163.167 76.5 268.5 76.5c5.33301 -6.66699 8 -14.834 8 -24.501s-2.66699 -17.834 -8 -24.501c-24.667 -6.66699 -44.834 -14.167 -60.501 -22.5s-33.5 -21.666 -53.5 -39.999s-34 -44.666 -42 -78.999
s-10.667 -76.833 -8 -127.5z" />
    <glyph glyph-name="bar" unicode="|" horiz-adv-x="450" 
d="M287 -477h-123v1907h123v-1907z" />
    <glyph glyph-name="braceright" unicode="}" horiz-adv-x="628" 
d="M203 -115l-17.0029 339.999c-4 84.667 11.833 147.167 47.5 187.5s91.5 71.5 167.5 93.5v8c-75.333 31.333 -131 70.5 -167 117.5s-52 110.167 -48 189.5l17 305c4 82 -10.333 148.333 -43 199s-73 76 -121 76c-6.66699 5.33301 -10 13.5 -10 24.5
s3.33301 19.167 10 24.5c117.333 0 209.833 -25 277.5 -75s99.5 -136.333 95.5 -259l-13 -348c-4 -134 63 -209 201 -225c8 -8 12.333 -18.5 13 -31.5s-3.66602 -24.5 -12.999 -34.5c-69.333 -6.66699 -120.166 -30.5 -152.499 -71.5s-48.5 -90.167 -48.5 -147.5l13 -377
c4 -106.667 -30.833 -185.5 -104.5 -236.5s-163.167 -76.5 -268.5 -76.5c-6.66699 6.66699 -10 14.834 -10 24.501s3.33301 17.834 10 24.501c24.667 6.66699 44.834 14.167 60.501 22.5s33.334 21.666 53.001 39.999s33.667 44.5 42 78.5s11.166 76.333 8.49902 127z" />
    <glyph glyph-name="asciitilde" unicode="~" horiz-adv-x="968" 
d="M311 549c-108 0 -180.333 -43.667 -217 -131l-20 6c-13.333 15.333 -24.333 35 -33 59c18 54.667 47 99.5 87 134.5s77.5 57.167 112.5 66.5s68.833 14 101.5 14c87.333 0 153 -21.667 197 -65c39.333 -39.333 76.666 -59.333 111.999 -60c108 0 180.333 44 217 132
l21 -7c13.333 -15.333 24.333 -35 33 -59c-26 -79.333 -68.667 -135 -128 -167s-117 -48 -173 -48c-27.333 0 -59.5 6.83301 -96.5 20.5s-67.833 32.167 -92.5 55.5c-35.333 32.667 -75.666 49 -120.999 49z" />
    <glyph glyph-name="uni00A0" unicode="&#xa0;" horiz-adv-x="512" 
 />
    <glyph glyph-name="exclamdown" unicode="&#xa1;" horiz-adv-x="544" 
d="M272 -459c-40.667 0 -75.334 13.332 -104.001 39.999s-43 64.667 -43 114c0 39.333 9.66699 111.666 29 216.999c38 233.333 58.333 402 61 506c1.33301 57.333 20.333 86 57 86c24.667 0 40.834 -8.5 48.501 -25.5s12.167 -45.5 13.5 -85.5
c4 -135.333 23 -297.666 57 -486.999c19.333 -95.333 29 -165.666 29 -210.999c0 -52 -15.167 -90.667 -45.5 -116s-64.5 -38 -102.5 -38zM422 769.999c0 -39.333 -15 -73.332 -45 -101.999s-65.5 -43 -106.5 -43s-75.833 13.667 -104.5 41s-43 60.666 -43 99.999
c0 38 15 71.333 45 100s65.5 43 106.5 43s75.833 -13.667 104.5 -41s43 -60 43 -98z" />
    <glyph glyph-name="cent" unicode="&#xa2;" horiz-adv-x="1105" 
d="M537 1196l69.0029 -0.00195312v-142c94.667 -4.66699 169.167 -28.834 223.5 -72.501s81.5 -90.167 81.5 -139.5c0 -32.667 -10.5 -60 -31.5 -82s-47.833 -33 -80.5 -33s-61.334 9.16699 -86.001 27.5s-38.334 41.166 -41.001 68.499c-6 66.667 -28 111 -66 133v-676
c22 -6 44.667 -9.33301 68 -10c56 0 126.333 39 211 117c18 0 26.667 -21 26 -63c-35.333 -51.333 -80.833 -95.166 -136.5 -131.499s-111.834 -58.166 -168.501 -65.499v-152h-69v151c-120.667 4 -216.334 39 -287.001 105c-84.667 79.333 -127 188 -127 326
c0 138.667 39.833 253.334 119.5 344.001s177.834 141.334 294.501 152.001v143zM537.003 310.998v656c-98 -15.333 -147.333 -128 -148 -338c0 -72.667 13.333 -136.5 40 -191.5s62.667 -97.167 108 -126.5z" />
    <glyph glyph-name="sterling" unicode="&#xa3;" horiz-adv-x="1105" 
d="M168 598c-38 0 -57.002 7.66895 -57.002 23.002v32c0 27.333 32 41 96 41h63v49c0 91.333 15 167.5 45 228.5s73.667 119.5 131 175.5c82 74 185.333 110.667 310 110c24.667 0 49.167 -1.66699 73.5 -5s50.166 -13.833 77.499 -31.5s41 -40.834 41 -69.501
c0 -35.333 -10.5 -63.666 -31.5 -84.999s-49.5 -32 -85.5 -32c-30 0 -62.667 17.667 -98 53c-8 8 -15.5 20.333 -22.5 37s-14.167 29.5 -21.5 38.5s-18 13.5 -32 13.5c-80.667 0 -120.667 -109.333 -120 -328v-154h184c42 0 63 -7.33301 63 -22v-33
c0 -13.333 -10.167 -23.5 -30.5 -30.5s-42.833 -10.5 -67.5 -10.5h-150c-2 -52.667 -8.83301 -100 -20.5 -142s-27.667 -77.833 -48 -107.5s-38.833 -53.334 -55.5 -71.001s-37 -35.834 -61 -54.501c95.333 0 179.333 -19.667 252 -59c40.667 -22 75.334 -33 104.001 -33
c32.667 0 68.334 10.667 107.001 32s71 49 97 83c20.667 -4 36.334 -14.333 47.001 -31c-23.333 -62.667 -59.833 -117.5 -109.5 -164.5s-109.167 -70.5 -178.5 -70.5s-146 26.667 -230 80c-48 30.667 -91.667 46 -131 46c-22 0 -39 -3 -51 -9s-19.5 -12.333 -22.5 -19
s-4.5 -15.667 -4.5 -27c0 -27.333 -12.5 -48.833 -37.5 -64.5s-54.167 -23.5 -87.5 -23.5c-22 0 -39 6.5 -51 19.5s-18 29.167 -18 48.5c0 27.333 14 56.666 42 87.999s59 56 93 74c8.66699 4.66699 17.667 8.33398 27 11.001c47.333 55.333 71 181.333 71 378v16h-102z" />
    <glyph glyph-name="currency" unicode="&#xa4;" horiz-adv-x="948" 
d="M233 614c0 -70.667 22.666 -130.334 67.999 -179.001s102 -73 170 -73s124.667 24.333 170 73s68 107.667 68 177c0 70.667 -23.667 130.334 -71 179.001s-101.666 73 -162.999 73c-66.667 0 -123.667 -24.333 -171 -73s-71 -107.667 -71 -177zM470.999 250
c-75.333 0 -143.67 16.998 -205.003 50.998l-51 -64c-23.333 -29.333 -37.666 -47.666 -42.999 -54.999l-125 121l109 88c-58.667 74 -88 147.667 -88 221c0 78 30 153.333 90 226c-48 35.333 -83.667 63.333 -107 84l113 116l102 -112c64 34 133.667 51 209 51
c70.667 0 138.334 -17.667 203.001 -53c62.667 74 97.334 115.667 104.001 125l119 -125l-113 -93c57.333 -69.333 86 -142.333 86 -219c0 -69.333 -27.667 -141.666 -83 -216.999c27.333 -22 62.666 -52 105.999 -90l-111 -119l-104 119
c-65.333 -36.667 -135.666 -55 -210.999 -55z" />
    <glyph glyph-name="yen" unicode="&#xa5;" horiz-adv-x="1105" 
d="M979 362l0.00292969 -86.002h-264v-26c0 -82 11.5 -132.5 34.5 -151.5s77.5 -29.833 163.5 -32.5c5.33301 -5.33301 8.16602 -17 8.49902 -35s-2.5 -29.667 -8.5 -35c-136.667 2.66699 -241.667 4 -315 4c-98 0 -214 -1.33301 -348 -4
c-5.33301 5.33301 -8 16.833 -8 34.5s2.66699 29.5 8 35.5c86 2.66699 140.667 13.5 164 32.5s35 69.5 35 151.5v26h-248v86h248v140h-248v86h242c-4.66699 16.667 -19.334 47.334 -44.001 92.001l-178 328c-27.333 52.667 -55.666 91 -84.999 115s-65 37.333 -107 40
c-6.66699 6.66699 -10.167 18.334 -10.5 35.001s2.5 28.334 8.5 35.001c82 -2.66699 175.333 -4 280 -4c53.333 0 134.666 1.33301 243.999 4c6.66699 -5.33301 10 -17 10 -35s-3.33301 -29.667 -10 -35c-54.667 -2.66699 -87.834 -9.83398 -99.501 -21.501
s-9.83398 -29.834 5.49902 -54.501l154 -323c12 -25.333 22.833 -38.5 32.5 -39.5s19.5 10.167 29.5 33.5l142 329c10.667 28.667 8.5 47.834 -6.5 57.501s-46.833 15.834 -95.5 18.501c-5.33301 5.33301 -8 17 -8 35s2.66699 29.667 8 35
c109.333 -2.66699 178.333 -4 207 -4c31.333 0 88 1.33301 170 4c5.33301 -5.33301 8 -17 8 -35s-2.66699 -29.667 -8 -35c-46.667 -4.66699 -83.5 -15.667 -110.5 -33s-49.5 -46 -67.5 -86l-160 -325c-23.333 -46.667 -35.666 -90.334 -36.999 -131.001h264v-86h-264v-140
h264z" />
    <glyph glyph-name="brokenbar" unicode="&#xa6;" horiz-adv-x="450" 
d="M287 1380v-741h-123v741h123zM287 330v-742h-123v742h123z" />
    <glyph glyph-name="section" unicode="&#xa7;" horiz-adv-x="954" 
d="M838 -53.5c0 -80.333 -31.168 -149.165 -93.501 -206.498s-158.166 -86 -287.499 -86c-84.667 0 -164.334 24.167 -239.001 72.5s-112 114.166 -112 197.499c0 26 12 49.333 36 70s48.333 31 73 31c38 0 69.333 -13.333 94 -40s37 -48.334 37 -65.001
c0 -20.667 -5.5 -40.5 -16.5 -59.5s-16.5 -31.833 -16.5 -38.5c0 -8 2.83301 -18.5 8.5 -31.5s20 -27 43 -42s52.5 -22.5 88.5 -22.5c48 0 86.5 17.667 115.5 53s43.5 86.333 43.5 153c0 24.667 -6.83301 48.667 -20.5 72s-34.834 45.5 -63.501 66.5s-53.167 38 -73.5 51
s-48.166 29.167 -83.499 48.5c-113.333 62.667 -193.333 124 -240 184s-70 130.333 -70 211c0 88 47 174.333 141 259c-47.333 60.667 -71 130 -71 208c0 35.333 9.5 73.833 28.5 115.5s45.167 77.5 78.5 107.5c68 61.333 155.333 92.333 262 93
c104 0 188.333 -23.333 253 -70s97 -112.334 97 -197.001c0 -27.333 -12.667 -51.166 -38 -71.499s-51 -30.5 -77 -30.5c-38 0 -68 13 -90 39s-33 47.667 -33 65c0 23.333 4.83301 43.5 14.5 60.5s14.5 29.833 14.5 38.5c0 62.667 -44.333 94 -133 94
c-54.667 0 -95.667 -19.167 -123 -57.5s-41 -86.833 -41 -145.5c0 -44 12.333 -78.167 37 -102.5s64.334 -49.5 119.001 -75.5c74 -35.333 128.333 -63.333 163 -84s73.5 -49 116.5 -85s73 -76.167 90 -120.5s25.5 -96.5 25.5 -156.5c0 -94 -50.333 -183.333 -151 -268
c62.667 -76 94 -154.167 94 -234.5zM241.999 780.001c-15.333 -29.333 -23.001 -68.001 -23.001 -116.001c0 -54.667 21.167 -106 63.5 -154s116.833 -98 223.5 -150c76 -36 141.333 -80.333 196 -133c23.333 31.333 35 72.333 35 123c0 79.333 -29.667 143.5 -89 192.5
s-165.333 108.5 -318 178.5c-31.333 14.667 -60.666 34.334 -87.999 59.001z" />
    <glyph glyph-name="dieresis" unicode="&#xa8;" horiz-adv-x="839" 
d="M498 1173.5c0 31.667 10.833 58.333 32.5 80s48.167 32.5 79.5 32.5s58 -10.833 80 -32.5s33 -48.167 33 -79.5c0 -30 -11 -56 -33 -78s-48.667 -33 -80 -33s-57.833 10.5 -79.5 31.5s-32.5 47.333 -32.5 79zM117 1174c0 31.333 10.833 57.834 32.5 79.501
s48.167 32.5 79.5 32.5s58 -10.833 80 -32.5s33 -48.334 33 -80.001s-11 -58 -33 -79s-48.667 -31.5 -80 -31.5s-57.833 11 -79.5 33s-32.5 48 -32.5 78z" />
    <glyph glyph-name="copyright" unicode="&#xa9;" horiz-adv-x="1312" 
d="M899 446c-20.667 -34 -50 -62.832 -88 -86.499s-80.333 -35.5 -127 -35.5c-92.667 0 -165.667 28.667 -219 86c-54.667 58.667 -82 131 -82 217c0 83.333 28 153.333 84 210s124.333 85 205 85c30 0 56.833 -1.83301 80.5 -5.5s41 -7.16699 52 -10.5s23.667 -8 38 -14
s23.5 -9.66699 27.5 -11c10.667 -65.333 17 -113.333 19 -144c-5.33301 -4 -17.666 -6 -36.999 -6c-24.667 49.333 -46.834 82.166 -66.501 98.499s-50.834 24.5 -93.501 24.5c-36.667 0 -67.667 -17.667 -93 -53s-38 -94 -38 -176c0 -146 50 -219 150 -219
c70.667 0 121.667 23.667 153 71c12.667 -4 24.334 -14.333 35.001 -31zM657 35.001c-164 0 -303.499 58 -418.499 174s-172.5 255.167 -172.5 417.5s58 301.333 174 417s255.167 173.5 417.5 173.5s301.166 -57.833 416.499 -173.5s173 -254.667 173 -417
s-57.667 -301.5 -173 -417.5s-254.333 -174 -417 -174zM657.001 1116c-134 0 -248.333 -48.167 -343 -144.5s-142 -211.333 -142 -345s47.5 -248.667 142.5 -345s209.167 -144.5 342.5 -144.5c132.667 0 246.5 48.167 341.5 144.5s142.5 211.333 142.5 345
s-47.5 248.667 -142.5 345s-208.833 144.5 -341.5 144.5z" />
    <glyph glyph-name="ordfeminine" unicode="&#xaa;" horiz-adv-x="608" 
d="M346 1063c1.33301 131.333 -22.0029 196.998 -70.0029 196.998c-30 0 -53.5 -5.16699 -70.5 -15.5s-25.5 -22.5 -25.5 -36.5c0 -8 1.66699 -16.167 5 -24.5s5 -17.166 5 -26.499c0 -15.333 -8.16699 -28.666 -24.5 -39.999s-34.5 -17 -54.5 -17
c-18 0 -34.167 5.5 -48.5 16.5s-21.5 27.167 -21.5 48.5c0 39.333 26.333 75.166 79 107.499s106.334 48.5 161.001 48.5c69.333 0 121 -13 155 -39c28.667 -22 47.167 -49 55.5 -81s11.833 -82 10.5 -150l-4 -164c-1.33301 -28.667 -0.666016 -50.167 2.00098 -64.5
s6 -23.166 10 -26.499s9.33301 -5 16 -5c9.33301 0 20.333 4 33 12l21 -33c-44 -38 -90.667 -57 -140 -57c-56 0 -86.667 22.333 -92 67c-45.333 -45.333 -98.666 -67.666 -159.999 -66.999c-48 0 -85.333 10 -112 30c-30 22 -45 59.667 -45 113
c0 39.333 21.5 76.166 64.5 110.499s98.5 59.5 166.5 75.5zM341.997 835.998l3.99902 172.001c-60 -19.333 -102.333 -42.333 -127 -69s-37 -52.334 -37 -77.001c0 -49.333 22.667 -74 68 -74c28.667 0.666992 59.334 16.667 92.001 48z" />
    <glyph glyph-name="guillemotleft" unicode="&#xab;" horiz-adv-x="1136" 
d="M152 424l0.000976562 33c141.333 127.333 245.666 228.666 312.999 303.999c20.667 22.667 41.667 47 63 73c28.667 -9.33301 48.667 -24.666 60 -45.999c-82 -157.333 -153 -273.333 -213 -348c60 -75.333 131 -191.333 213 -348
c-10.667 -20.667 -30.667 -35.667 -60 -45c-45.333 53.333 -91.5 103.833 -138.5 151.5l-104 103.5zM537.001 424l0.00195312 33c141.333 127.333 245.666 228.666 312.999 303.999c20.667 22.667 41.667 47 63 73c28.667 -9.33301 48.667 -24.666 60 -45.999
c-82 -157.333 -153 -273.333 -213 -348c60 -75.333 131 -191.333 213 -348c-10.667 -20.667 -30.667 -35.667 -60 -45c-45.333 53.333 -91.333 103.833 -138 151.5s-81.334 82.167 -104.001 103.5z" />
    <glyph glyph-name="logicalnot" unicode="&#xac;" horiz-adv-x="1146" 
d="M948 272v439h-899v110h1051v-549h-152z" />
    <glyph glyph-name="uni00AD" unicode="&#xad;" horiz-adv-x="716" 
d="M559 440h-404.998c-50.667 0 -76 14.333 -76 43c0 19.333 10.5 44 31.5 74s41.833 45 62.5 45h410c49.333 0 73.666 -14.333 72.999 -43c0 -16.667 -10.833 -40.667 -32.5 -72s-42.834 -47 -63.501 -47z" />
    <glyph glyph-name="registered" unicode="&#xae;" horiz-adv-x="1312" 
d="M866 762c0 -31.333 -9.83301 -60 -29.5 -86s-39.167 -44 -58.5 -54l-28 -16l98 -168c24.667 -42 52 -63 82 -63v-27c-18 -5.33301 -33.667 -8 -47 -8c-68 0 -114.667 26 -140 78l-98 160c-8 4 -26.333 6 -55 6v-187c0 -9.33301 4.66699 -14 14 -14h25
c15.333 0 22.666 -4 21.999 -12v-29c-74 2.66699 -120.333 4 -139 4l-115 -4v29c0 8 7.66699 12 23 12h24c10.667 0 16.334 5.33301 17.001 16v447c0 15.333 -2.66699 22.666 -8 21.999l-33 -2c-13.333 0 -20.333 4.33301 -21 13v26c48 6.66699 139 10 273 10
c68 0 117.333 -15.667 148 -47s46 -66.666 46 -105.999zM739 762c0 75.333 -30.667 112.667 -92 112c-27.333 0 -46.333 -2 -57 -6v-235c22 0 39.5 1 52.5 3s28 6.33301 45 13s29.833 19.667 38.5 39s13 44 13 74zM657 35.001c-164 0 -303.499 58 -418.499 174
s-172.5 255.167 -172.5 417.5s58 301.333 174 417s255.167 173.5 417.5 173.5s301.166 -57.833 416.499 -173.5s173 -254.667 173 -417s-57.667 -301.5 -173 -417.5s-254.333 -174 -417 -174zM657.001 1116c-134 0 -248.333 -48.167 -343 -144.5s-142 -211.333 -142 -345
s47.5 -248.667 142.5 -345s209.167 -144.5 342.5 -144.5c132.667 0 246.5 48.167 341.5 144.5s142.5 211.333 142.5 345s-47.5 248.667 -142.5 345s-208.833 144.5 -341.5 144.5z" />
    <glyph glyph-name="macron" unicode="&#xaf;" horiz-adv-x="813" 
d="M645 1063l-500 -0.000976562c-16.667 0 -24.667 13.667 -24 41c0 13.333 4.83301 28.333 14.5 45s19.834 25 30.501 25h500c19.333 0 28.666 -13 27.999 -39c0 -13.333 -5.16699 -28.666 -15.5 -45.999s-21.5 -26 -33.5 -26z" />
    <glyph glyph-name="degree" unicode="&#xb0;" horiz-adv-x="546" 
d="M401 1073c0 35.333 -11.167 67.668 -33.5 97.001s-53.333 44 -93 44s-71.167 -14.333 -94.5 -43s-35 -61.334 -35 -98.001c0 -35.333 12 -66.666 36 -93.999s55.167 -41 93.5 -41s69 13.667 92 41s34.5 58.666 34.5 93.999zM57 1075c0 60 21.167 111.167 63.5 153.5
s93.666 63.5 153.999 63.5s111.166 -21.167 152.499 -63.5s62 -93.5 62 -153.5c0 -58.667 -20.667 -109.167 -62 -151.5s-92.166 -63.5 -152.499 -63.5s-111.666 21.167 -153.999 63.5s-63.5 92.833 -63.5 151.5z" />
    <glyph glyph-name="plusminus" unicode="&#xb1;" horiz-adv-x="1079" 
d="M627 725h350v-152h-350v-333h-152v333h-350v152h350v336h152v-336zM969 158l-21 -123h-817l21 123h817z" />
    <glyph glyph-name="two.superior" unicode="&#xb2;" horiz-adv-x="696" 
d="M68 1282c0 34 26.167 70.833 78.5 110.5s115.5 59.5 189.5 59.5c81.333 0 139.666 -14 174.999 -42c40 -30.667 60 -76 60 -136c0 -48 -19.667 -93 -59 -135c-27.333 -28.667 -65.666 -65 -114.999 -109l-87 -77c-33.333 -26.667 -52 -57 -56 -91h168
c30 0 57 12.667 81 38s42 55 54 89c27.333 0 46.333 -4 57 -12c-4 -39.333 -23.667 -116.666 -59 -231.999h-483c0 78 40.333 156.333 121 235l120 111c50.667 46.667 76 98 76 154c0 49.333 -8 87.666 -24 114.999c-12 20.667 -31.333 31 -58 31c-42 0 -68 -12.333 -78 -37
c-2 -6 -3 -22 -3 -48c0 -3.33301 0.166992 -8.33301 0.5 -15s0.5 -11.667 0.5 -15c0 -10 -0.666992 -17.667 -2 -23c-3.33301 -16.667 -13.333 -30.667 -30 -42s-35.667 -17 -57 -17c-46.667 0 -70 29.333 -70 88z" />
    <glyph glyph-name="three.superior" unicode="&#xb3;" horiz-adv-x="696" 
d="M403 1300c0 28.667 -8.1709 50.999 -24.5039 66.999s-36.833 24 -61.5 24c-23.333 0 -44.833 -7.5 -64.5 -22.5s-30.167 -34.167 -31.5 -57.5c0 -18 -7.16699 -36.167 -21.5 -54.5s-34.5 -27.5 -60.5 -27.5c-45.333 0 -67.666 19 -66.999 57c0 10.667 5 24.667 15 42
s25 35.5 45 54.5s49.5 35.333 88.5 49s82.833 20.5 131.5 20.5c66.667 0 121.334 -13 164.001 -39s64 -60 64 -102c0 -52 -32.333 -99.333 -97 -142c-4 -4 -4 -6.66699 0 -8c100 -30 150 -88 150 -174c0 -75.333 -34.5 -136.166 -103.5 -182.499
s-151.167 -69.5 -246.5 -69.5c-135.333 0 -212 28 -230 84c-6.66699 23.333 -2.83398 44.5 11.499 63.5s34.5 28.5 60.5 28.5c13.333 0 25.5 -3.33301 36.5 -10s19.333 -13.5 25 -20.5s11.834 -15.833 18.501 -26.5s10.667 -16.667 12 -18c23.333 -26 52 -39 86 -39
c28.667 0 58.334 15 89.001 45s46 73 46 129c0 76.667 -51 114.667 -153 114c-23.333 0 -46.666 -2.66699 -69.999 -8v62c49.333 6.66699 93 25 131 55s57 65.333 57 106z" />
    <glyph glyph-name="acute" unicode="&#xb4;" horiz-adv-x="698" 
d="M383 1380c8 2.66699 19 4 33 4c52 0 90.667 -16.333 116 -49l21 -47l-246 -221c-26 -22 -52 -33 -78 -33c-8 0 -15.333 3.16699 -22 9.5s-10 12.833 -10 19.5c0 16.667 5.33301 33 16 49z" />
    <glyph glyph-name="uni00B5" unicode="&#xb5;" horiz-adv-x="1144" 
d="M703 99l-17.0029 -1c-69.333 -56 -119.666 -89.667 -150.999 -101c-30.667 -11.333 -64.334 -17 -101.001 -17c-40.667 0 -72 4.66699 -94 14c0 -6.66699 0.333008 -34.334 1 -83.001s3.66699 -84.667 9 -108c16.667 -70.667 25 -119.667 25 -147
c0 -40.667 -12.667 -72.667 -38 -96s-55.666 -35 -90.999 -35c-27.333 0 -59.166 13.667 -95.499 41s-54.5 60.666 -54.5 99.999c0 34 5 82.667 15 146c13.333 88.667 20 148.667 20 180c0 10.667 -1 28 -3 52s-3 40.667 -3 50c-1.33301 10.667 -6.5 39.334 -15.5 86.001
s-13.5 80.334 -13.5 101.001v381l-22 227l282 26c4 -98 6 -169 6 -213v-374c0 -146 29.667 -219 89 -219c45.333 0 90 8.16699 134 24.5s77 38.833 99 67.5v688l266 29v-658c0 -91.333 22 -137 66 -137c32.667 0 61.334 9.66699 86.001 29c24.667 -20.667 37 -40 37 -58
c-80.667 -76.667 -173 -114.667 -277 -114c-92.667 -0.666992 -145.667 39 -159 119z" />
    <glyph glyph-name="pilcrow" unicode="&#xb6;" horiz-adv-x="1232" 
d="M1020 -295c0 -54.667 5.16992 -89.167 15.5029 -103.5s32.5 -22.166 66.5 -23.499h59c8 0 12.333 -4.66699 13 -14v-43h-674v43c0 9.33301 4 14 12 14h59c34 1.33301 55.833 9.83301 65.5 25.5s14.5 50.167 14.5 103.5v758c-32.667 -16.667 -85 -25 -157 -25
c-36.667 0 -73.834 4.16699 -111.501 12.5s-76.334 23.333 -116.001 45s-74.834 49 -105.501 82s-56 77.167 -76 132.5s-30 117.666 -30 186.999c0 128.667 36.167 231.5 108.5 308.5s174.833 115.5 307.5 115.5c60 0 128.333 -1.66699 205 -5s119.667 -5 129 -5l141 6
l228 4v-43c0 -9.33301 -4.33301 -14 -13 -14h-59c-35.333 0 -57.833 -8.66699 -67.5 -26s-14.5 -51 -14.5 -101v-1434zM834.003 -424c27.333 0 44.999 9.16699 52.999 27.5s12 51.5 12 99.5v1436c0 36.667 -3 64.5 -9 83.5s-12.5 30 -19.5 33s-17.167 5.16699 -30.5 6.5
c-20.667 0 -36.167 -7.16699 -46.5 -21.5s-16.5 -29 -18.5 -44s-3 -36.167 -3 -63.5v-1426c0.666992 -87.333 21.334 -131 62.001 -131z" />
    <glyph glyph-name="periodcentered" unicode="&#xb7;" horiz-adv-x="512" 
d="M256 381c-40.667 0 -74 13.667 -100 41s-39 59.333 -39 96s14 68.667 42 96s60.333 41 97 41c35.333 0 67.333 -13.333 96 -40s43 -59 43 -97c0 -36.667 -13.667 -68.667 -41 -96s-60 -41 -98 -41z" />
    <glyph glyph-name="cedilla" unicode="&#xb8;" horiz-adv-x="1107" 
d="M483 -207l-12 11.999l104 209h70l-41 -98c126.667 -25.333 190 -82.666 190 -171.999c0 -51.333 -23.167 -94.833 -69.5 -130.5s-102.833 -53.5 -169.5 -53.5c-44 0 -87.667 11.333 -131 34c0 28.667 6.66699 46.667 20 54c52 -19.333 91.667 -29 119 -29
c68 0 102.333 28 103 84c-0.666992 53.333 -61.667 83.333 -183 90z" />
    <glyph glyph-name="one.superior" unicode="&#xb9;" horiz-adv-x="696" 
d="M276 1311c-20.667 0 -59.334 -10.334 -116.001 -31.001c-13.333 10.667 -20.333 33.334 -21 68.001c128.667 46.667 222.334 84.667 281.001 114c6.66699 4 17.5 6 32.5 6s25.833 -2 32.5 -6v-542c0 -26 2.5 -46.5 7.5 -61.5s13.333 -26.333 25 -34
s22.834 -12.5 33.501 -14.5s26.334 -3.66699 47.001 -5c10.667 -22 10.667 -42.667 0 -62c-40.667 1.33301 -108.334 2 -203.001 2c-116 0 -194.333 -0.666992 -235 -2c-4 6.66699 -6.33301 16.667 -7 30s1.66602 24 6.99902 32c34 1.33301 59.5 4 76.5 8
s32.667 14.5 47 31.5s21.5 42.167 21.5 75.5v307c0 34 -1.83301 56.5 -5.5 67.5s-11.5 16.5 -23.5 16.5z" />
    <glyph glyph-name="ordmasculine" unicode="&#xba;" horiz-adv-x="753" 
d="M80 879c0 84.667 29.334 152.5 88.001 203.5s129.667 76.5 213 76.5c62.667 0 114.667 -11.667 156 -35c42 -24.667 75.667 -58.5 101 -101.5s38 -86.833 38 -131.5c0 -75.333 -26.667 -139.166 -80 -191.499s-128.333 -78.5 -225 -78.5
c-88.667 0 -159.334 24.167 -212.001 72.5s-79 110.166 -79 185.499zM369.001 1100c-46.667 0 -76.502 -16.499 -89.502 -49.499s-19.5 -83.5 -19.5 -151.5c0 -30 1.33301 -55.5 4 -76.5s8.16699 -42.833 16.5 -65.5s22 -39.834 41 -51.501s42.833 -17.5 71.5 -17.5
c32.667 0 58.334 11.667 77.001 35s28 68.333 28 135c0 86 -9.16699 147.833 -27.5 185.5s-52.166 56.5 -101.499 56.5z" />
    <glyph glyph-name="guillemotright" unicode="&#xbb;" horiz-adv-x="1136" 
d="M985 457v-33.001c-141.333 -127.333 -246 -228.666 -314 -303.999c-20.667 -22.667 -41.667 -47 -63 -73c-28.667 9.33301 -48.334 24.333 -59.001 45c82 157.333 153 273.333 213 348c-60 75.333 -131 191.333 -213 348c10.667 20.667 30.334 36 59.001 46
c45.333 -53.333 91.5 -104 138.5 -152s81.833 -82.5 104.5 -103.5zM600 456.999v-33.001c-141.333 -127.333 -246 -228.666 -314 -303.999c-20.667 -22.667 -41.667 -47 -63 -73c-28.667 9.33301 -48.334 24.333 -59.001 45c82 157.333 153 273.333 213 348
c-60 75.333 -131 191.333 -213 348c10.667 20.667 30.334 36 59.001 46c45.333 -53.333 91.5 -104 138.5 -152s81.833 -82.5 104.5 -103.5z" />
    <glyph glyph-name="onequarter" unicode="&#xbc;" horiz-adv-x="1433" 
d="M1171 1231l86 -17l-940 -1341l-84 16zM1241 -102c0 -34 4.16992 -59.335 12.5029 -76.002s18.666 -27 30.999 -31s31.833 -6.66699 58.5 -8c10.667 -22 10.667 -42.667 0 -62c-40.667 1.33301 -114.334 2.33301 -221.001 3c-90 0 -155.333 -1 -196 -3
c-4 6.66699 -6.33301 16.667 -7 30s1.66602 24 6.99902 32c34 1.33301 59.5 4 76.5 8s32.667 14.5 47 31.5s21.5 42.167 21.5 75.5v43h-299l-24 24c34 50.667 98 136.334 192 257.001s152 196.334 174 227.001h103c16.667 0 24.667 -7 24 -21v-401h123l-6 -86h-117v-43z
M270.003 1210c-20.667 0 -59.333 -10 -116 -30c-13.333 10.667 -20.333 33 -21 67c128.667 46.667 222.334 85 281.001 115c6.66699 4 17.5 6 32.5 6s25.833 -2 32.5 -6v-543c0 -26 2.5 -46.5 7.5 -61.5s13.167 -26.167 24.5 -33.5s22.5 -12 33.5 -14
s26.833 -3.66699 47.5 -5c10.667 -22 10.667 -42.667 0 -62c-40.667 1.33301 -108.334 2 -203.001 2c-116 0 -194.333 -0.666992 -235 -2c-4 6.66699 -6.5 16.5 -7.5 29.5s1.5 23.833 7.5 32.5c34 1.33301 59.5 4 76.5 8s32.667 14.5 47 31.5s21.5 41.833 21.5 74.5v307
c0 34 -1.83301 56.5 -5.5 67.5s-11.5 16.5 -23.5 16.5zM1071 285.998l-194 -259h194v259z" />
    <glyph glyph-name="onehalf" unicode="&#xbd;" horiz-adv-x="1433" 
d="M1130 1231l87 -17l-941 -1341l-83 16zM801 375c0 34 26.168 70.832 78.501 110.499s115.5 59.5 189.5 59.5c81.333 0 139.666 -14 174.999 -42c40 -30.667 60.333 -76 61 -136c0 -48 -20 -93.333 -60 -136c-27.333 -28.667 -65.666 -64.667 -114.999 -108l-87 -77
c-33.333 -26.667 -52 -57 -56 -91h168c30 0 57 12.667 81 38s42 55 54 89c27.333 0 46.666 -4 57.999 -12c-4 -39.333 -24 -116.666 -60 -231.999h-483c0 78 40.333 156.333 121 235l120 110c50.667 46.667 76 98.334 76 155.001c0 49.333 -8 87.666 -24 114.999
c-12 20.667 -31.333 30.667 -58 30c-42 0 -67.667 -12.333 -77 -37c-2 -6 -3.33301 -21.667 -4 -47c0 -3.33301 0.166992 -8.5 0.5 -15.5s0.5 -11.833 0.5 -14.5c0 -10 -0.666992 -17.667 -2 -23c-3.33301 -16.667 -13.333 -30.667 -30 -42s-35.667 -17 -57 -17
c-46.667 0 -70 29.333 -70 88zM274.001 1210c-20.667 0 -59.332 -10 -115.999 -30c-13.333 10.667 -20.333 33 -21 67c128.667 46.667 222.334 85 281.001 115c6.66699 4 17.5 6 32.5 6s25.833 -2 32.5 -6v-543c0 -26 2.5 -46.5 7.5 -61.5s13.167 -26.167 24.5 -33.5
s22.5 -12 33.5 -14s26.833 -3.66699 47.5 -5c10.667 -22 10.667 -42.667 0 -62c-40.667 1.33301 -108.334 2 -203.001 2c-116 0 -194.333 -0.666992 -235 -2c-4 6.66699 -6.33301 16.5 -7 29.5s1.66602 23.833 6.99902 32.5c34 1.33301 59.5 4 76.5 8s32.667 14.5 47 31.5
s21.5 41.833 21.5 74.5v307c0 34 -1.83301 56.5 -5.5 67.5s-11.5 16.5 -23.5 16.5z" />
    <glyph glyph-name="threequarters" unicode="&#xbe;" horiz-adv-x="1433" 
d="M1192 1231l86 -17l-940 -1341l-84 16zM399 1196c0 28.667 -8.16895 50.832 -24.502 66.499s-36.833 23.5 -61.5 23.5c-23.333 0 -44.833 -7.5 -64.5 -22.5s-30.167 -34.167 -31.5 -57.5c0 -18 -7.16699 -36.167 -21.5 -54.5s-34.5 -27.5 -60.5 -27.5
c-45.333 0 -67.666 19.333 -66.999 58c0 10.667 5 24.5 15 41.5s25 35.167 45 54.5s49.333 35.833 88 49.5s82.667 20.5 132 20.5c66.667 0 121.167 -13 163.5 -39s63.5 -60.333 63.5 -103c0 -52 -32 -99 -96 -141c-4 -4 -4 -6.66699 0 -8c100 -30 150 -88 150 -174
c0 -75.333 -34.5 -136.166 -103.5 -182.499s-151.167 -69.5 -246.5 -69.5c-135.333 0 -212 28 -230 84c-6.66699 23.333 -2.83398 44.5 11.499 63.5s34.5 28.5 60.5 28.5c13.333 0 25.5 -3.5 36.5 -10.5s19.167 -13.833 24.5 -20.5s11.5 -15.5 18.5 -26.5
s11.167 -17.167 12.5 -18.5c23.333 -26 52 -39 86 -39c28.667 0 58.334 15 89.001 45s46 73 46 129c0 76.667 -51 115 -153 115c-23.333 0 -46.666 -2.66699 -69.999 -8v61c49.333 6.66699 93 25.167 131 55.5s57 65.833 57 106.5zM1249 -98.002
c0 -34 4.1709 -59.333 12.5039 -76s18.666 -27 30.999 -31s32.166 -6.66699 59.499 -8c10.667 -22 10.667 -42.333 0 -61c-40.667 1.33301 -114.667 2 -222 2c-90 0 -155.333 -0.666992 -196 -2c-4 6.66699 -6.33301 16.5 -7 29.5s1.66602 23.5 6.99902 31.5
c34 1.33301 59.5 4 76.5 8s32.667 14.667 47 32s21.5 42.333 21.5 75v43h-299l-24 24c34 50.667 98.167 136.5 192.5 257.5s152.166 196.5 173.499 226.5h103c16.667 0 24.667 -7 24 -21v-401h123l-6 -86h-117v-43zM1079 289.998l-194 -259h194v259z" />
    <glyph glyph-name="questiondown" unicode="&#xbf;" horiz-adv-x="880" 
d="M571 -287c0 13.333 -3.00098 30.335 -9.00098 51.002s-9 40.667 -9 60c0 24.667 10.167 44.834 30.5 60.501s46.5 23.5 78.5 23.5c27.333 0 53.5 -11 78.5 -33s37.5 -50.667 37.5 -86c0 -57.333 -36 -116 -108 -176c-64 -53.333 -157.667 -80 -281 -80
c-116 0 -208.167 28.667 -276.5 86s-102.5 133 -102.5 227c0 35.333 6.5 68.833 19.5 100.5s33.167 62.167 60.5 91.5s50.5 51.833 69.5 67.5s46.5 36.5 82.5 62.5c26 18 46.5 34.5 61.5 49.5s30 39.833 45 74.5s22.5 74.667 22.5 120v26c0 27.333 4 45.833 12 55.5
s26.333 14.5 55 14.5c26 0 43.5 -5.5 52.5 -16.5s13.5 -28.833 13.5 -53.5v-30c0 -39.333 -1.66699 -71.833 -5 -97.5s-16.333 -61.334 -39 -107.001s-56.667 -88.834 -102 -129.501c-75.333 -66.667 -112.666 -147.334 -111.999 -242.001c0 -64 13.667 -117.5 41 -160.5
s68.333 -64.5 123 -64.5c45.333 0 83.5 10.5 114.5 31.5s46.5 45.833 46.5 74.5zM583.999 762.002c0 -39.333 -15 -73.5 -45 -102.5s-65.5 -43.5 -106.5 -43.5s-75.833 13.667 -104.5 41s-43 61 -43 101c0 38 15 71.333 45 100s65.5 43 106.5 43s75.833 -13.667 104.5 -41
s43 -60 43 -98z" />
    <glyph glyph-name="Agrave" unicode="&#xc0;" horiz-adv-x="1515" 
d="M559 580l311 0.000976562l-167 485h-14l-182 -458c-4 -10.667 -2 -17.834 6 -21.501s23.333 -5.5 46 -5.5zM338 162.001c-1.33301 -13.333 -3.33105 -25.1641 -5.99805 -35.4971s1 -19 11 -26s18.167 -12.5 24.5 -16.5s17.666 -7.33301 33.999 -10
s29 -4.33398 38 -5.00098l39.5 -3c5.33301 -5.33301 8 -17 8 -35s-2.66699 -29.667 -8 -35c-101.333 2.66699 -192 4 -272 4c-27.333 0 -91.666 -1.33301 -192.999 -4c-6.66699 5.33301 -10 16.833 -10 34.5s3.33301 29.5 10 35.5c35.333 2.66699 63 6.66699 83 12
s41.333 18.166 64 38.499s42 51.166 58 92.499l444 1048c50.667 0 126 30.333 226 91l422 -1172c6.66699 -20.667 15.834 -37.834 27.501 -51.501s20.834 -23.834 27.501 -30.501s21 -12.334 43 -17.001s34.667 -7 38 -7s19.333 -1.33301 48 -4
c5.33301 -5.33301 8 -17 8 -35s-2.66699 -29.667 -8 -35c-101.333 2.66699 -192.666 4 -273.999 4c-132.667 0 -249.667 -1.33301 -351 -4c-6.66699 5.33301 -10 16.833 -10 34.5s3.33301 29.5 10 35.5c8 0 18.667 0.333008 32 1s23.666 1.33398 30.999 2.00098
s16.166 1.33398 26.499 2.00098s18.166 2 23.499 4s11.5 4 18.5 6s12.167 5 15.5 9s6 8.83301 8 14.5s2.66699 11.834 2 18.501s-2.33398 14.667 -5.00098 24l-115 334h-389c-24.667 0 -41.334 -2.33301 -50.001 -7s-16 -14 -22 -28zM557.002 1700
c-60 -28.667 -104.333 -66.333 -133 -113l6 -24l295 -119c22 -9.33301 46 -14 72 -14c9.33301 0 18.5 3 27.5 9s13.5 13 13.5 21c0 18 -7 32.333 -21 43c-61.333 53.333 -148 119 -260 197z" />
    <glyph glyph-name="Aacute" unicode="&#xc1;" horiz-adv-x="1515" 
d="M559 580l311 0.000976562l-167 485h-14l-182 -458c-4 -10.667 -2 -17.834 6 -21.501s23.333 -5.5 46 -5.5zM338 162.001c-1.33301 -13.333 -3.33105 -25.1641 -5.99805 -35.4971s1 -19 11 -26s18.167 -12.5 24.5 -16.5s17.666 -7.33301 33.999 -10
s29 -4.33398 38 -5.00098l39.5 -3c5.33301 -5.33301 8 -17 8 -35s-2.66699 -29.667 -8 -35c-101.333 2.66699 -192 4 -272 4c-27.333 0 -91.666 -1.33301 -192.999 -4c-6.66699 5.33301 -10 16.833 -10 34.5s3.33301 29.5 10 35.5c35.333 2.66699 63 6.66699 83 12
s41.333 18.166 64 38.499s42 51.166 58 92.499l444 1048c50.667 0 126 30.333 226 91l422 -1172c6.66699 -20.667 15.834 -37.834 27.501 -51.501s20.834 -23.834 27.501 -30.501s21 -12.334 43 -17.001s34.667 -7 38 -7s19.333 -1.33301 48 -4
c5.33301 -5.33301 8 -17 8 -35s-2.66699 -29.667 -8 -35c-101.333 2.66699 -192.666 4 -273.999 4c-132.667 0 -249.667 -1.33301 -351 -4c-6.66699 5.33301 -10 16.833 -10 34.5s3.33301 29.5 10 35.5c8 0 18.667 0.333008 32 1s23.666 1.33398 30.999 2.00098
s16.166 1.33398 26.499 2.00098s18.166 2 23.499 4s11.5 4 18.5 6s12.167 5 15.5 9s6 8.83301 8 14.5s2.66699 11.834 2 18.501s-2.33398 14.667 -5.00098 24l-115 334h-389c-24.667 0 -41.334 -2.33301 -50.001 -7s-16 -14 -22 -28zM854.002 1706
c58.667 -27.333 103 -65 133 -113l-6 -24l-295 -119c-23.333 -9.33301 -47.333 -14 -72 -14c-9.33301 0 -18.5 3 -27.5 9s-13.5 13 -13.5 21c0 16.667 7 31 21 43c61.333 53.333 148 119 260 197z" />
    <glyph glyph-name="Acircumflex" unicode="&#xc2;" horiz-adv-x="1515" 
d="M1061 1483c0 -26 -11.001 -43.667 -33.001 -53c-117.333 35.333 -202 73.333 -254 114c-61.333 -45.333 -145.333 -83.333 -252 -114c-19.333 8 -28.666 26.333 -27.999 55c87.333 56 174 127 260 213l28 10c84.667 -84.667 177.667 -159.667 279 -225zM558.999 580
l311 0.000976562l-167 485h-14l-182 -458c-4 -10.667 -2 -17.834 6 -21.501s23.333 -5.5 46 -5.5zM337.999 162.001c-1.33301 -13.333 -3.33105 -25.1641 -5.99805 -35.4971s1 -19 11 -26s18.167 -12.5 24.5 -16.5s17.666 -7.33301 33.999 -10s29 -4.33398 38 -5.00098
l39.5 -3c5.33301 -5.33301 8 -17 8 -35s-2.66699 -29.667 -8 -35c-101.333 2.66699 -192 4 -272 4c-27.333 0 -91.666 -1.33301 -192.999 -4c-6.66699 5.33301 -10 16.833 -10 34.5s3.33301 29.5 10 35.5c35.333 2.66699 63 6.66699 83 12s41.333 18.166 64 38.499
s42 51.166 58 92.499l444 1048c50.667 0 126 30.333 226 91l422 -1172c6.66699 -20.667 15.834 -37.834 27.501 -51.501s20.834 -23.834 27.501 -30.501s21 -12.334 43 -17.001s34.667 -7 38 -7s19.333 -1.33301 48 -4c5.33301 -5.33301 8 -17 8 -35
s-2.66699 -29.667 -8 -35c-101.333 2.66699 -192.666 4 -273.999 4c-132.667 0 -249.667 -1.33301 -351 -4c-6.66699 5.33301 -10 16.833 -10 34.5s3.33301 29.5 10 35.5c8 0 18.667 0.333008 32 1s23.666 1.33398 30.999 2.00098s16.166 1.33398 26.499 2.00098
s18.166 2 23.499 4s11.5 4 18.5 6s12.167 5 15.5 9s6 8.83301 8 14.5s2.66699 11.834 2 18.501s-2.33398 14.667 -5.00098 24l-115 334h-389c-24.667 0 -41.334 -2.33301 -50.001 -7s-16 -14 -22 -28z" />
    <glyph glyph-name="Atilde" unicode="&#xc3;" horiz-adv-x="1515" 
d="M559 580l311 0.000976562l-167 485h-14l-182 -458c-4 -10.667 -2 -17.834 6 -21.501s23.333 -5.5 46 -5.5zM338 162.001c-1.33301 -13.333 -3.33105 -25.1641 -5.99805 -35.4971s1 -19 11 -26s18.167 -12.5 24.5 -16.5s17.666 -7.33301 33.999 -10
s29 -4.33398 38 -5.00098l39.5 -3c5.33301 -5.33301 8 -17 8 -35s-2.66699 -29.667 -8 -35c-101.333 2.66699 -192 4 -272 4c-27.333 0 -91.666 -1.33301 -192.999 -4c-6.66699 5.33301 -10 16.833 -10 34.5s3.33301 29.5 10 35.5c35.333 2.66699 63 6.66699 83 12
s41.333 18.166 64 38.499s42 51.166 58 92.499l444 1048c50.667 0 126 30.333 226 91l422 -1172c6.66699 -20.667 15.834 -37.834 27.501 -51.501s20.834 -23.834 27.501 -30.501s21 -12.334 43 -17.001s34.667 -7 38 -7s19.333 -1.33301 48 -4
c5.33301 -5.33301 8 -17 8 -35s-2.66699 -29.667 -8 -35c-101.333 2.66699 -192.666 4 -273.999 4c-132.667 0 -249.667 -1.33301 -351 -4c-6.66699 5.33301 -10 16.833 -10 34.5s3.33301 29.5 10 35.5c8 0 18.667 0.333008 32 1s23.666 1.33398 30.999 2.00098
s16.166 1.33398 26.499 2.00098s18.166 2 23.499 4s11.5 4 18.5 6s12.167 5 15.5 9s6 8.83301 8 14.5s2.66699 11.834 2 18.501s-2.33398 14.667 -5.00098 24l-115 334h-389c-24.667 0 -41.334 -2.33301 -50.001 -7s-16 -14 -22 -28zM895.002 1561
c44 0 77.332 29.333 99.999 88c15.333 0 28.833 -3.83301 40.5 -11.5s17.5 -17.5 17.5 -29.5c-18 -58.667 -44 -105.167 -78 -139.5s-70.333 -51.5 -109 -51.5c-50.667 0 -95 14.333 -133 43c-35.333 23.333 -75 35 -119 35c-18 0 -32 -1.33301 -42 -4
s-20.5 -10.167 -31.5 -22.5s-19.833 -30.833 -26.5 -55.5c-35.333 0 -53 12.333 -53 37c18 54.667 42.333 100 73 136s63 54 97 54c58.667 0 109 -17 151 -51c24.667 -18.667 62.334 -28 113.001 -28z" />
    <glyph glyph-name="Adieresis" unicode="&#xc4;" horiz-adv-x="1515" 
d="M342 1427.5c0 33 11 60.667 33 83s49.333 33.5 82 33.5s59.834 -11.167 81.501 -33.5s32.5 -50 32.5 -83s-10.833 -60.333 -32.5 -82s-48.834 -32.5 -81.501 -32.5s-60 10.833 -82 32.5s-33 49 -33 82zM991 1427.5c0 33 11.333 60.667 34 83s50.334 33.5 83.001 33.5
s59.667 -11.167 81 -33.5s32 -50 32 -83s-10.667 -60.333 -32 -82s-48.333 -32.5 -81 -32.5s-60.334 10.833 -83.001 32.5s-34 49 -34 82zM559 580l311 0.000976562l-167 485h-14l-182 -458c-4 -10.667 -2 -17.834 6 -21.501s23.333 -5.5 46 -5.5zM338 162.001
c-1.33301 -13.333 -3.33105 -25.1641 -5.99805 -35.4971s1 -19 11 -26s18.167 -12.5 24.5 -16.5s17.666 -7.33301 33.999 -10s29 -4.33398 38 -5.00098l39.5 -3c5.33301 -5.33301 8 -17 8 -35s-2.66699 -29.667 -8 -35c-101.333 2.66699 -192 4 -272 4
c-27.333 0 -91.666 -1.33301 -192.999 -4c-6.66699 5.33301 -10 16.833 -10 34.5s3.33301 29.5 10 35.5c35.333 2.66699 63 6.66699 83 12s41.333 18.166 64 38.499s42 51.166 58 92.499l444 1048c50.667 0 126 30.333 226 91l422 -1172
c6.66699 -20.667 15.834 -37.834 27.501 -51.501s20.834 -23.834 27.501 -30.501s21 -12.334 43 -17.001s34.667 -7 38 -7s19.333 -1.33301 48 -4c5.33301 -5.33301 8 -17 8 -35s-2.66699 -29.667 -8 -35c-101.333 2.66699 -192.666 4 -273.999 4
c-132.667 0 -249.667 -1.33301 -351 -4c-6.66699 5.33301 -10 16.833 -10 34.5s3.33301 29.5 10 35.5c8 0 18.667 0.333008 32 1s23.666 1.33398 30.999 2.00098s16.166 1.33398 26.499 2.00098s18.166 2 23.499 4s11.5 4 18.5 6s12.167 5 15.5 9s6 8.83301 8 14.5
s2.66699 11.834 2 18.501s-2.33398 14.667 -5.00098 24l-115 334h-389c-24.667 0 -41.334 -2.33301 -50.001 -7s-16 -14 -22 -28z" />
    <glyph glyph-name="Aring" unicode="&#xc5;" horiz-adv-x="1515" 
d="M754 1632c-28.667 0 -52 -9.5 -70 -28.5s-27 -42.833 -27 -71.5c0 -27.333 9 -50.833 27 -70.5s41.333 -29.5 70 -29.5s52.167 9.83301 70.5 29.5s27.5 43.167 27.5 70.5c0 30 -9.5 54.167 -28.5 72.5s-42.167 27.5 -69.5 27.5zM580 1532c0 46.667 17 86.667 51 120
s75 50 123 50c46.667 0 87.667 -16.333 123 -49s53 -73 53 -121c0 -46.667 -17.5 -86.667 -52.5 -120s-76.333 -50 -124 -50s-88.5 16.667 -122.5 50s-51 73.333 -51 120zM559 580l311 0.000976562l-167 485h-14l-182 -458c-4 -10.667 -2 -17.834 6 -21.501
s23.333 -5.5 46 -5.5zM338 162.001c-1.33301 -13.333 -3.33105 -25.1641 -5.99805 -35.4971s1 -19 11 -26s18.167 -12.5 24.5 -16.5s17.666 -7.33301 33.999 -10s29 -4.33398 38 -5.00098l39.5 -3c5.33301 -5.33301 8 -17 8 -35s-2.66699 -29.667 -8 -35
c-101.333 2.66699 -192 4 -272 4c-27.333 0 -91.666 -1.33301 -192.999 -4c-6.66699 5.33301 -10 16.833 -10 34.5s3.33301 29.5 10 35.5c35.333 2.66699 63 6.66699 83 12s41.333 18.166 64 38.499s42 51.166 58 92.499l444 1048c50.667 0 126 30.333 226 91l422 -1172
c6.66699 -20.667 15.834 -37.834 27.501 -51.501s20.834 -23.834 27.501 -30.501s21 -12.334 43 -17.001s34.667 -7 38 -7s19.333 -1.33301 48 -4c5.33301 -5.33301 8 -17 8 -35s-2.66699 -29.667 -8 -35c-101.333 2.66699 -192.666 4 -273.999 4
c-132.667 0 -249.667 -1.33301 -351 -4c-6.66699 5.33301 -10 16.833 -10 34.5s3.33301 29.5 10 35.5c8 0 18.667 0.333008 32 1s23.666 1.33398 30.999 2.00098s16.166 1.33398 26.499 2.00098s18.166 2 23.499 4s11.5 4 18.5 6s12.167 5 15.5 9s6 8.83301 8 14.5
s2.66699 11.834 2 18.501s-2.33398 14.667 -5.00098 24l-115 334h-389c-24.667 0 -41.334 -2.33301 -50.001 -7s-16 -14 -22 -28z" />
    <glyph glyph-name="AE" unicode="&#xc6;" horiz-adv-x="1957" 
d="M229 209l516.005 941.998c19.333 35.333 19.166 61.5 -0.500977 78.5s-54.834 25.5 -105.501 25.5c-10.667 0 -16 5 -16 15v51l4 4l424 -4h610c35.333 0 68.666 2.66699 99.999 8c5.33301 0 8 -2 8 -6c1.33301 -4 3.5 -24.833 6.5 -62.5s6.16699 -80.334 9.5 -128.001
s6.33301 -83.167 9 -106.5c-24.667 -12 -54 -15.333 -88 -10c-24.667 79.333 -53.334 135.666 -86.001 168.999s-84.667 50 -156 50h-174c-23.333 0 -43.166 -10.167 -59.499 -30.5s-24.5 -43.5 -24.5 -69.5v-383h166c72.667 0 121.167 7.5 145.5 22.5
s38.166 49.833 41.499 104.5c6.66699 6.66699 21.5 10 44.5 10s37.5 -3.33301 43.5 -10c-2.66699 -82 -4.33398 -141 -5.00098 -177c0 -24.667 1.66699 -84.667 5 -180c-5.33301 -6.66699 -19.666 -10 -42.999 -10s-38.333 3.33301 -45 10c-2.66699 48 -17 81.167 -43 99.5
s-74 27.5 -144 27.5h-166v-465c0 -27.333 8.16699 -50.5 24.5 -69.5s36.166 -28.5 59.499 -28.5h207c143.333 0 239.666 87.333 288.999 262c34 8 64.667 4.66699 92 -10l-13.5 -105.5c-6.33301 -49.667 -12.833 -94 -19.5 -133s-14 -73.5 -22 -103.5
c-122.667 2.66699 -217 4 -283 4h-483c-143.333 -1.33301 -248.666 -2.66602 -315.999 -3.99902c-5.33301 5.33301 -8 16.833 -8 34.5s2.66699 29.5 8 35.5c76.667 2.66699 125.667 13.834 147 33.501s32 69.834 32 150.501v295h-365l-207 -383
c-4 -13.333 -7.33301 -24.833 -10 -34.5s0.666016 -18 9.99902 -25s17.833 -12.5 25.5 -16.5s19.334 -7.33301 35.001 -10s29 -4.66699 40 -6s24.5 -2.66602 40.5 -3.99902c6.66699 -5.33301 10.167 -17 10.5 -35s-3.16699 -29.667 -10.5 -35
c-101.333 2.66699 -192 4 -272 4c-27.333 0 -91.333 -1.33301 -192 -4c-5.33301 5.33301 -8.16602 16.833 -8.49902 34.5s2.5 29.5 8.5 35.5c49.333 2.66699 88.166 13.167 116.499 31.5s57.5 55.5 87.5 111.5zM608.005 646.998h311.999v469c0 18 -2.5 31 -7.5 39
s-12.167 9 -21.5 3s-19.666 -19.333 -30.999 -40z" />
    <glyph glyph-name="Ccedilla" unicode="&#xc7;" horiz-adv-x="1445" 
d="M616 -215l-11.998 11.998l94 187c-151.333 12.667 -276 54.334 -374 125.001c-79.333 56 -140.5 133.833 -183.5 233.5s-64.5 200.5 -64.5 302.5c0 217.333 70.667 388.833 212 514.5s317 188.5 527 188.5c98 0 193.833 -15.167 287.5 -45.5s147.5 -46.166 161.5 -47.499
c23.333 -143.333 38.333 -249 45 -317c-30 -16.667 -59.333 -20 -88 -10c-31.333 105.333 -78.5 187.666 -141.5 246.999s-158.5 89 -286.5 89c-120 0 -218 -56 -294 -168s-114 -249.333 -114 -412c0 -161.333 41.667 -301.333 125 -420s183.666 -178 300.999 -178
c173.333 0 325 71 455 213c10.667 0 23.167 -4.83301 37.5 -14.5s24.166 -19.167 29.499 -28.5c-140.667 -184 -314 -276 -520 -276h-46l-30 -72c126.667 -25.333 190.334 -82.666 191.001 -171.999c0 -51.333 -23.333 -95 -70 -131s-103.334 -54 -170.001 -54
c-44 0 -87.667 11.667 -131 35c0 28.667 7 46.667 21 54c52 -19.333 91.333 -29 118 -29c68 0 102.333 28 103 84c-0.666992 53.333 -61.667 83.333 -183 90z" />
    <glyph glyph-name="Egrave" unicode="&#xc8;" horiz-adv-x="1247" 
d="M662 748c70.667 0 118.672 8.16211 144.005 24.4951s39.333 51.833 42 106.5c5.33301 6.66699 19.666 10 42.999 10s38.333 -3.33301 45 -10c-2.66699 -82 -4 -141 -4 -177c0 -24.667 1.33301 -84.667 4 -180c-6.66699 -6.66699 -21.667 -10 -45 -10
s-37.666 3.33301 -42.999 10c-2.66699 48 -17.334 81.833 -44.001 101.5s-74 29.5 -142 29.5h-166v-469c0 -27.333 8.16699 -50.5 24.5 -69.5s36.166 -28.5 59.499 -28.5h206c143.333 0 239.666 87.333 288.999 262c35.333 8 66 4.66699 92 -10l-13 -105.5
c-6 -49.667 -12.5 -94 -19.5 -133s-14.5 -73.5 -22.5 -103.5c-122.667 2.66699 -217 4 -283 4h-481c-144.667 -1.33301 -250.334 -2.66602 -317.001 -3.99902c-6.66699 5.33301 -10.167 16.833 -10.5 34.5s3.16699 29.5 10.5 35.5c76.667 2.66699 125.5 13.834 146.5 33.501
s31.5 69.834 31.5 150.501v819c0 82 -10.667 132.833 -32 152.5s-70 30.834 -146 33.501c-6.66699 6.66699 -10.167 18.334 -10.5 35.001s3.16699 28.334 10.5 35.001l315 -4h604c35.333 0 69 2.66699 101 8c5.33301 0 8 -2 8 -6c1.33301 -4 3.33301 -24.833 6 -62.5l9 -128
c3.33301 -47.667 6.33301 -83.167 9 -106.5c-24.667 -12 -54 -15.333 -88 -10c-24.667 79.333 -53.334 135.666 -86.001 168.999s-84.334 50 -155.001 50h-174c-23.333 0 -43.166 -10.167 -59.499 -30.5s-24.5 -43.5 -24.5 -69.5v-387h166zM453.005 1700
c-60 -28.667 -104.667 -66.333 -134 -113l7 -24l295 -119c22 -9.33301 45.667 -14 71 -14c9.33301 0 18.5 3 27.5 9s13.5 13 13.5 21c0 18 -6.66699 32.333 -20 43c-61.333 53.333 -148 119 -260 197z" />
    <glyph glyph-name="Eacute" unicode="&#xc9;" horiz-adv-x="1247" 
d="M662 748c70.667 0 118.672 8.16211 144.005 24.4951s39.333 51.833 42 106.5c5.33301 6.66699 19.666 10 42.999 10s38.333 -3.33301 45 -10c-2.66699 -82 -4 -141 -4 -177c0 -24.667 1.33301 -84.667 4 -180c-6.66699 -6.66699 -21.667 -10 -45 -10
s-37.666 3.33301 -42.999 10c-2.66699 48 -17.334 81.833 -44.001 101.5s-74 29.5 -142 29.5h-166v-469c0 -27.333 8.16699 -50.5 24.5 -69.5s36.166 -28.5 59.499 -28.5h206c143.333 0 239.666 87.333 288.999 262c35.333 8 66 4.66699 92 -10l-13 -105.5
c-6 -49.667 -12.5 -94 -19.5 -133s-14.5 -73.5 -22.5 -103.5c-122.667 2.66699 -217 4 -283 4h-481c-144.667 -1.33301 -250.334 -2.66602 -317.001 -3.99902c-6.66699 5.33301 -10.167 16.833 -10.5 34.5s3.16699 29.5 10.5 35.5c76.667 2.66699 125.5 13.834 146.5 33.501
s31.5 69.834 31.5 150.501v819c0 82 -10.667 132.833 -32 152.5s-70 30.834 -146 33.501c-6.66699 6.66699 -10.167 18.334 -10.5 35.001s3.16699 28.334 10.5 35.001l315 -4h604c35.333 0 69 2.66699 101 8c5.33301 0 8 -2 8 -6c1.33301 -4 3.33301 -24.833 6 -62.5l9 -128
c3.33301 -47.667 6.33301 -83.167 9 -106.5c-24.667 -12 -54 -15.333 -88 -10c-24.667 79.333 -53.334 135.666 -86.001 168.999s-84.334 50 -155.001 50h-174c-23.333 0 -43.166 -10.167 -59.499 -30.5s-24.5 -43.5 -24.5 -69.5v-387h166zM702.005 1706
c58.667 -27.333 103.333 -65 134 -113l-7 -24l-294 -119c-24.667 -9.33301 -48.667 -14 -72 -14c-9.33301 0 -18.5 3 -27.5 9s-13.5 13 -13.5 21c0 16.667 6.66699 31 20 43c61.333 53.333 148 119 260 197z" />
    <glyph glyph-name="Ecircumflex" unicode="&#xca;" horiz-adv-x="1247" 
d="M662 748c70.667 0 118.672 8.16211 144.005 24.4951s39.333 51.833 42 106.5c5.33301 6.66699 19.666 10 42.999 10s38.333 -3.33301 45 -10c-2.66699 -82 -4 -141 -4 -177c0 -24.667 1.33301 -84.667 4 -180c-6.66699 -6.66699 -21.667 -10 -45 -10
s-37.666 3.33301 -42.999 10c-2.66699 48 -17.334 81.833 -44.001 101.5s-74 29.5 -142 29.5h-166v-469c0 -27.333 8.16699 -50.5 24.5 -69.5s36.166 -28.5 59.499 -28.5h206c143.333 0 239.666 87.333 288.999 262c35.333 8 66 4.66699 92 -10l-13 -105.5
c-6 -49.667 -12.5 -94 -19.5 -133s-14.5 -73.5 -22.5 -103.5c-122.667 2.66699 -217 4 -283 4h-481c-144.667 -1.33301 -250.334 -2.66602 -317.001 -3.99902c-6.66699 5.33301 -10.167 16.833 -10.5 34.5s3.16699 29.5 10.5 35.5c76.667 2.66699 125.5 13.834 146.5 33.501
s31.5 69.834 31.5 150.501v819c0 82 -10.667 132.833 -32 152.5s-70 30.834 -146 33.501c-6.66699 6.66699 -10.167 18.334 -10.5 35.001s3.16699 28.334 10.5 35.001l315 -4h604c35.333 0 69 2.66699 101 8c5.33301 0 8 -2 8 -6c1.33301 -4 3.33301 -24.833 6 -62.5l9 -128
c3.33301 -47.667 6.33301 -83.167 9 -106.5c-24.667 -12 -54 -15.333 -88 -10c-24.667 79.333 -53.334 135.666 -86.001 168.999s-84.334 50 -155.001 50h-174c-23.333 0 -43.166 -10.167 -59.499 -30.5s-24.5 -43.5 -24.5 -69.5v-387h166zM930.005 1483
c0 -26 -11 -43.667 -33 -53c-117.333 35.333 -202 73.333 -254 114c-61.333 -45.333 -145.333 -83.333 -252 -114c-19.333 8 -29 26.333 -29 55c87.333 56 174.333 127 261 213l28 10c84.667 -84.667 177.667 -159.667 279 -225z" />
    <glyph glyph-name="Edieresis" unicode="&#xcb;" horiz-adv-x="1247" 
d="M662 748c70.667 0 118.672 8.16211 144.005 24.4951s39.333 51.833 42 106.5c5.33301 6.66699 19.666 10 42.999 10s38.333 -3.33301 45 -10c-2.66699 -82 -4 -141 -4 -177c0 -24.667 1.33301 -84.667 4 -180c-6.66699 -6.66699 -21.667 -10 -45 -10
s-37.666 3.33301 -42.999 10c-2.66699 48 -17.334 81.833 -44.001 101.5s-74 29.5 -142 29.5h-166v-469c0 -27.333 8.16699 -50.5 24.5 -69.5s36.166 -28.5 59.499 -28.5h206c143.333 0 239.666 87.333 288.999 262c35.333 8 66 4.66699 92 -10l-13 -105.5
c-6 -49.667 -12.5 -94 -19.5 -133s-14.5 -73.5 -22.5 -103.5c-122.667 2.66699 -217 4 -283 4h-481c-144.667 -1.33301 -250.334 -2.66602 -317.001 -3.99902c-6.66699 5.33301 -10.167 16.833 -10.5 34.5s3.16699 29.5 10.5 35.5c76.667 2.66699 125.5 13.834 146.5 33.501
s31.5 69.834 31.5 150.501v819c0 82 -10.667 132.833 -32 152.5s-70 30.834 -146 33.501c-6.66699 6.66699 -10.167 18.334 -10.5 35.001s3.16699 28.334 10.5 35.001l315 -4h604c35.333 0 69 2.66699 101 8c5.33301 0 8 -2 8 -6c1.33301 -4 3.33301 -24.833 6 -62.5l9 -128
c3.33301 -47.667 6.33301 -83.167 9 -106.5c-24.667 -12 -54 -15.333 -88 -10c-24.667 79.333 -53.334 135.666 -86.001 168.999s-84.334 50 -155.001 50h-174c-23.333 0 -43.166 -10.167 -59.499 -30.5s-24.5 -43.5 -24.5 -69.5v-387h166zM307.005 1603.5
c0 33 11 60.667 33 83s49.333 33.5 82 33.5s60 -11.167 82 -33.5s33 -50 33 -83s-11 -60.333 -33 -82s-49.333 -32.5 -82 -32.5s-60 10.833 -82 32.5s-33 49 -33 82zM690.005 1603.5c0 33 11.333 60.667 34 83s50.334 33.5 83.001 33.5s59.667 -11.167 81 -33.5
s32 -50 32 -83s-10.667 -60.333 -32 -82s-48.333 -32.5 -81 -32.5s-60.334 10.833 -83.001 32.5s-34 49 -34 82z" />
    <glyph glyph-name="Igrave" unicode="&#xcc;" horiz-adv-x="751" 
d="M233 1071c0 40.667 -2.99805 73.6641 -8.99805 98.9971s-17.5 43.833 -34.5 55.5s-33.667 19.167 -50 22.5s-41.833 5.66602 -76.5 6.99902c-9.33301 6.66699 -14 18.334 -14 35.001s4.66699 28.334 14 35.001c109.333 -2.66699 214.666 -4 315.999 -4
c98 0 201.667 1.33301 311 4c9.33301 -6.66699 14.166 -18.167 14.499 -34.5s-4.5 -28.166 -14.5 -35.499c-34 -1.33301 -59.167 -3.66602 -75.5 -6.99902s-33 -10.833 -50 -22.5s-28.667 -30 -35 -55s-9.5 -58.167 -9.5 -99.5v-821c0 -40.667 3.16699 -73.667 9.5 -99
s18 -43.833 35 -55.5s33.667 -19.167 50 -22.5s41.5 -5.66602 75.5 -6.99902c9.33301 -5.33301 14.166 -17 14.499 -35s-4.5 -29.667 -14.5 -35c-109.333 2.66699 -213 4 -311 4c-101.333 0 -206.666 -1.33301 -315.999 -4c-9.33301 5.33301 -14 16.833 -14 34.5
s4.66699 29.5 14 35.5c34 1.33301 59.333 3.66602 76 6.99902s33.5 10.833 50.5 22.5s28.5 30 34.5 55s9 58.167 9 99.5v821zM268.002 1700c-60 -28.667 -104.333 -66.333 -133 -113l6 -24l295 -119c22 -9.33301 46 -14 72 -14c9.33301 0 18.5 3 27.5 9s13.5 13 13.5 21
c0 18 -7 32.333 -21 43c-61.333 53.333 -148 119 -260 197z" />
    <glyph glyph-name="Iacute" unicode="&#xcd;" horiz-adv-x="751" 
d="M233 1071c0 40.667 -2.99805 73.6641 -8.99805 98.9971s-17.5 43.833 -34.5 55.5s-33.667 19.167 -50 22.5s-41.833 5.66602 -76.5 6.99902c-9.33301 6.66699 -14 18.334 -14 35.001s4.66699 28.334 14 35.001c109.333 -2.66699 214.666 -4 315.999 -4
c98 0 201.667 1.33301 311 4c9.33301 -6.66699 14.166 -18.167 14.499 -34.5s-4.5 -28.166 -14.5 -35.499c-34 -1.33301 -59.167 -3.66602 -75.5 -6.99902s-33 -10.833 -50 -22.5s-28.667 -30 -35 -55s-9.5 -58.167 -9.5 -99.5v-821c0 -40.667 3.16699 -73.667 9.5 -99
s18 -43.833 35 -55.5s33.667 -19.167 50 -22.5s41.5 -5.66602 75.5 -6.99902c9.33301 -5.33301 14.166 -17 14.499 -35s-4.5 -29.667 -14.5 -35c-109.333 2.66699 -213 4 -311 4c-101.333 0 -206.666 -1.33301 -315.999 -4c-9.33301 5.33301 -14 16.833 -14 34.5
s4.66699 29.5 14 35.5c34 1.33301 59.333 3.66602 76 6.99902s33.5 10.833 50.5 22.5s28.5 30 34.5 55s9 58.167 9 99.5v821zM457.002 1706c58.667 -27.333 103 -65 133 -113l-6 -24l-295 -119c-23.333 -9.33301 -47.333 -14 -72 -14c-9.33301 0 -18.5 3 -27.5 9
s-13.5 13 -13.5 21c0 16.667 7 31 21 43c61.333 53.333 148 119 260 197z" />
    <glyph glyph-name="Icircumflex" unicode="&#xce;" horiz-adv-x="751" 
d="M233 1071c0 40.667 -2.99805 73.6641 -8.99805 98.9971s-17.5 43.833 -34.5 55.5s-33.667 19.167 -50 22.5s-41.833 5.66602 -76.5 6.99902c-9.33301 6.66699 -14 18.334 -14 35.001s4.66699 28.334 14 35.001c109.333 -2.66699 214.666 -4 315.999 -4
c98 0 201.667 1.33301 311 4c9.33301 -6.66699 14.166 -18.167 14.499 -34.5s-4.5 -28.166 -14.5 -35.499c-34 -1.33301 -59.167 -3.66602 -75.5 -6.99902s-33 -10.833 -50 -22.5s-28.667 -30 -35 -55s-9.5 -58.167 -9.5 -99.5v-821c0 -40.667 3.16699 -73.667 9.5 -99
s18 -43.833 35 -55.5s33.667 -19.167 50 -22.5s41.5 -5.66602 75.5 -6.99902c9.33301 -5.33301 14.166 -17 14.499 -35s-4.5 -29.667 -14.5 -35c-109.333 2.66699 -213 4 -311 4c-101.333 0 -206.666 -1.33301 -315.999 -4c-9.33301 5.33301 -14 16.833 -14 34.5
s4.66699 29.5 14 35.5c34 1.33301 59.333 3.66602 76 6.99902s33.5 10.833 50.5 22.5s28.5 30 34.5 55s9 58.167 9 99.5v821zM649.002 1483c0 -26 -11 -43.667 -33 -53c-117.333 35.333 -202 73.333 -254 114c-61.333 -45.333 -145 -83.333 -251 -114
c-19.333 8 -29 26.333 -29 55c87.333 56 174 127 260 213l29 10c84 -84.667 176.667 -159.667 278 -225z" />
    <glyph glyph-name="Idieresis" unicode="&#xcf;" horiz-adv-x="751" 
d="M233 1071c0 40.667 -2.99805 73.6641 -8.99805 98.9971s-17.5 43.833 -34.5 55.5s-33.667 19.167 -50 22.5s-41.833 5.66602 -76.5 6.99902c-9.33301 6.66699 -14 18.334 -14 35.001s4.66699 28.334 14 35.001c109.333 -2.66699 214.666 -4 315.999 -4
c98 0 201.667 1.33301 311 4c9.33301 -6.66699 14.166 -18.167 14.499 -34.5s-4.5 -28.166 -14.5 -35.499c-34 -1.33301 -59.167 -3.66602 -75.5 -6.99902s-33 -10.833 -50 -22.5s-28.667 -30 -35 -55s-9.5 -58.167 -9.5 -99.5v-821c0 -40.667 3.16699 -73.667 9.5 -99
s18 -43.833 35 -55.5s33.667 -19.167 50 -22.5s41.5 -5.66602 75.5 -6.99902c9.33301 -5.33301 14.166 -17 14.499 -35s-4.5 -29.667 -14.5 -35c-109.333 2.66699 -213 4 -311 4c-101.333 0 -206.666 -1.33301 -315.999 -4c-9.33301 5.33301 -14 16.833 -14 34.5
s4.66699 29.5 14 35.5c34 1.33301 59.333 3.66602 76 6.99902s33.5 10.833 50.5 22.5s28.5 30 34.5 55s9 58.167 9 99.5v821zM72.002 1569c0 32.667 10.833 60.334 32.5 83.001s49 34 82 34s60.333 -11.333 82 -34s32.5 -50.334 32.5 -83.001s-10.833 -60 -32.5 -82
s-49 -33 -82 -33s-60.333 11 -82 33s-32.5 49.333 -32.5 82zM455.002 1569c0 32.667 11.167 60.334 33.5 83.001s50 34 83 34s60 -11.333 81 -34s31.5 -50.334 31.5 -83.001s-10.5 -60 -31.5 -82s-48 -33 -81 -33s-60.667 11 -83 33s-33.5 49.333 -33.5 82z" />
    <glyph glyph-name="Eth" unicode="&#xd0;" horiz-adv-x="1503" 
d="M520 244c0 -65.333 14.001 -108.666 42.001 -129.999s79.667 -32 155 -32c42 0 83.833 8.83301 125.5 26.5s82 45 121 82s70.833 89.333 95.5 157s37 145.834 37 234.501c0 70.667 -2.5 133.334 -7.5 188.001s-16.667 112.667 -35 174s-42.833 112.166 -73.5 152.499
s-74.334 73.833 -131.001 100.5s-124 40 -202 40c-84.667 0 -127 -51.333 -127 -154v-414c75.333 1.33301 146.333 3.66602 213 6.99902l-20 -103c-58.667 3.33301 -123 5.66602 -193 6.99902v-336zM379.001 0l-316 -4c-9.33301 5.33301 -14 16.833 -14 34.5
s4.66699 29.5 14 35.5c34 1.33301 59.333 3.66602 76 6.99902s33.5 10.833 50.5 22.5s28.5 30 34.5 55s9 58.167 9 99.5v330c-67.333 -1.33301 -133.333 -3.66602 -198 -6.99902l20 103c57.333 -2.66699 116.666 -5 177.999 -7v402c0 40.667 -3 73.667 -9 99
s-17.5 43.833 -34.5 55.5s-33.667 19.167 -50 22.5s-41.833 5.66602 -76.5 6.99902c-9.33301 6.66699 -14 18.334 -14 35.001s4.66699 28.334 14 35.001c155.333 -2.66699 260.666 -4 315.999 -4c24.667 0 67.334 0.333008 128.001 1s110 1 148 1
c241.333 0 426.666 -64.833 555.999 -194.5s194 -294.834 194 -495.501c0 -102.667 -15 -195 -45 -277s-70.333 -144.667 -121 -188c-131.333 -114.667 -307.333 -172 -528 -172c-27.333 0 -82.666 0.666992 -165.999 2s-138.666 2 -165.999 2z" />
    <glyph glyph-name="Ntilde" unicode="&#xd1;" horiz-adv-x="1515" 
d="M1292 0c-34 -16.667 -77 -25.0059 -129 -25.0059c-28 26 -55.333 56.333 -82 91l-686 815c-22.667 27.333 -39 41 -49 41c-10.667 0 -16 -13.667 -16 -41v-609c0 -62.667 5.83301 -107.667 17.5 -135s27.667 -44.666 48 -51.999s57.833 -13.666 112.5 -18.999
c5.33301 -5.33301 8 -17 8 -35s-2.66699 -29.667 -8 -35c-136.667 2.66699 -213 4 -229 4c-19.333 0 -96 -1.33301 -230 -4c-5.33301 5.33301 -8 16.833 -8 34.5s2.66699 29.5 8 35.5c54.667 5.33301 92.334 12 113.001 20s36.667 25.667 48 53s17 71.666 17 132.999v854
c-6.66699 30 -25 58.333 -55 85s-65.333 41.334 -106 44.001c-5.33301 6.66699 -8.16602 18.334 -8.49902 35.001s2.5 28.334 8.5 35.001l333 -4l183 -215l543 -640c15.333 -18 27.833 -27.333 37.5 -28s15.5 11 17.5 35v576c0 62.667 -5.83301 107.667 -17.5 135
s-27.834 44.666 -48.501 51.999s-58.334 13.666 -113.001 18.999c-6.66699 6.66699 -10 18.334 -10 35.001s3.33301 28.334 10 35.001c136.667 -2.66699 216 -4 238 -4c13.333 0 87 1.33301 221 4c6.66699 -6.66699 10 -18.167 10 -34.5s-3.33301 -28.166 -10 -35.499
c-54.667 -5.33301 -92.167 -12 -112.5 -20s-36.333 -25.667 -48 -53s-17.5 -71.666 -17.5 -132.999v-840zM885 1603.99c44 0 77.333 29.333 100 88c15.333 0 28.666 -3.83301 39.999 -11.5s17 -17.5 17 -29.5c-18 -58.667 -44 -105.167 -78 -139.5s-70 -51.5 -108 -51.5
c-50.667 0 -95 14.333 -133 43c-35.333 23.333 -75 35 -119 35c-18 0 -32 -1.33301 -42 -4s-20.5 -10.167 -31.5 -22.5s-19.833 -30.833 -26.5 -55.5c-35.333 0 -53 12.333 -53 37c18 54.667 42.167 100 72.5 136s62.833 54 97.5 54c58.667 0 109 -17 151 -51
c24.667 -18.667 62.334 -28 113.001 -28z" />
    <glyph glyph-name="Ograve" unicode="&#xd2;" horiz-adv-x="1495" 
d="M719 1262c-98 0 -178.166 -48.5 -240.499 -145.5s-93.5 -244.5 -93.5 -442.5c0 -187.333 37.833 -335.5 113.5 -444.5s171.5 -163.5 287.5 -163.5c102.667 0 182.667 51.167 240 153.5s86 239.5 86 411.5c0 200.667 -36.833 356 -110.5 466s-167.834 165 -282.501 165z
M1421 674c0 -200.667 -58.667 -364.668 -176 -492.001c-125.333 -135.333 -292 -202.666 -500 -201.999c-181.333 0 -338.166 60 -470.499 180s-198.5 277.667 -198.5 473c0 192 55.333 353.667 166 485c60.667 72 134.167 128.333 220.5 169s179.833 61 280.5 61
c191.333 0 352.166 -62.5 482.499 -187.5s195.5 -287.167 195.5 -486.5zM637.001 1700c-60 -28.667 -104.333 -66.333 -133 -113l6 -24l295 -119c22 -9.33301 46 -14 72 -14c9.33301 0 18.5 3 27.5 9s13.5 13 13.5 21c0 18 -7 32.333 -21 43
c-61.333 53.333 -148 119 -260 197z" />
    <glyph glyph-name="Oacute" unicode="&#xd3;" horiz-adv-x="1495" 
d="M719 1262c-98 0 -178.166 -48.5 -240.499 -145.5s-93.5 -244.5 -93.5 -442.5c0 -187.333 37.833 -335.5 113.5 -444.5s171.5 -163.5 287.5 -163.5c102.667 0 182.667 51.167 240 153.5s86 239.5 86 411.5c0 200.667 -36.833 356 -110.5 466s-167.834 165 -282.501 165z
M1421 674c0 -200.667 -58.667 -364.668 -176 -492.001c-125.333 -135.333 -292 -202.666 -500 -201.999c-181.333 0 -338.166 60 -470.499 180s-198.5 277.667 -198.5 473c0 192 55.333 353.667 166 485c60.667 72 134.167 128.333 220.5 169s179.833 61 280.5 61
c191.333 0 352.166 -62.5 482.499 -187.5s195.5 -287.167 195.5 -486.5zM825.001 1706c58.667 -27.333 103.001 -65 133.001 -113l-6 -24l-295 -119c-24.667 -9.33301 -48.334 -14 -71.001 -14c-9.33301 0 -18.5 3 -27.5 9s-13.5 13 -13.5 21c0 16.667 6.66699 31 20 43
c61.333 53.333 148 119 260 197z" />
    <glyph glyph-name="Ocircumflex" unicode="&#xd4;" horiz-adv-x="1495" 
d="M719 1262c-98 0 -178.166 -48.5 -240.499 -145.5s-93.5 -244.5 -93.5 -442.5c0 -187.333 37.833 -335.5 113.5 -444.5s171.5 -163.5 287.5 -163.5c102.667 0 182.667 51.167 240 153.5s86 239.5 86 411.5c0 200.667 -36.833 356 -110.5 466s-167.834 165 -282.501 165z
M1421 674c0 -200.667 -58.667 -364.668 -176 -492.001c-125.333 -135.333 -292 -202.666 -500 -201.999c-181.333 0 -338.166 60 -470.499 180s-198.5 277.667 -198.5 473c0 192 55.333 353.667 166 485c60.667 72 134.167 128.333 220.5 169s179.833 61 280.5 61
c191.333 0 352.166 -62.5 482.499 -187.5s195.5 -287.167 195.5 -486.5zM1032 1483c0 -26 -11 -43.667 -33 -53c-117.333 35.333 -202 73.333 -254 114c-61.333 -45.333 -145 -83.333 -251 -114c-19.333 8 -29 26.333 -29 55c87.333 56 174 127 260 213l29 10
c84 -84.667 176.667 -159.667 278 -225z" />
    <glyph glyph-name="Otilde" unicode="&#xd5;" horiz-adv-x="1495" 
d="M870 1561c44 0 77.667 29.333 101 88c15.333 0 28.666 -3.83301 39.999 -11.5s17 -17.5 17 -29.5c-18 -58.667 -44 -105.167 -78 -139.5s-70 -51.5 -108 -51.5c-50.667 0 -95 14.333 -133 43c-35.333 23.333 -75 35 -119 35c-18 0 -32.167 -1.33301 -42.5 -4
s-20.833 -10.167 -31.5 -22.5s-19.667 -30.833 -27 -55.5c-35.333 0 -53 12.333 -53 37c18 54.667 42.333 100 73 136s63 54 97 54c58.667 0 109.334 -17 152.001 -51c24 -18.667 61.333 -28 112 -28zM719 1262c-98 0 -178.166 -48.5 -240.499 -145.5
s-93.5 -244.5 -93.5 -442.5c0 -187.333 37.833 -335.5 113.5 -444.5s171.5 -163.5 287.5 -163.5c102.667 0 182.667 51.167 240 153.5s86 239.5 86 411.5c0 200.667 -36.833 356 -110.5 466s-167.834 165 -282.501 165zM1421 674c0 -200.667 -58.667 -364.668 -176 -492.001
c-125.333 -135.333 -292 -202.666 -500 -201.999c-181.333 0 -338.166 60 -470.499 180s-198.5 277.667 -198.5 473c0 192 55.333 353.667 166 485c60.667 72 134.167 128.333 220.5 169s179.833 61 280.5 61c191.333 0 352.166 -62.5 482.499 -187.5
s195.5 -287.167 195.5 -486.5z" />
    <glyph glyph-name="Odieresis" unicode="&#xd6;" horiz-adv-x="1495" 
d="M164 1468.5c0 33 10.833 60.667 32.5 83s49 33.5 82 33.5s60.333 -11.167 82 -33.5s32.5 -50 32.5 -83s-10.833 -60.333 -32.5 -82s-49 -32.5 -82 -32.5s-60.333 10.833 -82 32.5s-32.5 49 -32.5 82zM1104 1468.5c0 33 11.167 60.667 33.5 83s50 33.5 83 33.5
s60 -11.167 81 -33.5s31.5 -50 31.5 -83s-10.5 -60.333 -31.5 -82s-48 -32.5 -81 -32.5s-60.667 10.833 -83 32.5s-33.5 49 -33.5 82zM719 1262c-98 0 -178.166 -48.5 -240.499 -145.5s-93.5 -244.5 -93.5 -442.5c0 -187.333 37.833 -335.5 113.5 -444.5
s171.5 -163.5 287.5 -163.5c102.667 0 182.667 51.167 240 153.5s86 239.5 86 411.5c0 200.667 -36.833 356 -110.5 466s-167.834 165 -282.501 165zM1421 674c0 -200.667 -58.667 -364.668 -176 -492.001c-125.333 -135.333 -292 -202.666 -500 -201.999
c-181.333 0 -338.166 60 -470.499 180s-198.5 277.667 -198.5 473c0 192 55.333 353.667 166 485c60.667 72 134.167 128.333 220.5 169s179.833 61 280.5 61c191.333 0 352.166 -62.5 482.499 -187.5s195.5 -287.167 195.5 -486.5z" />
    <glyph glyph-name="multiply" unicode="&#xd7;" horiz-adv-x="1079" 
d="M627 475l245 -248l-88 -86l-247 242l-242 -242l-84 86l242 238l-242 244l90 96l244 -246l237 246l90 -86z" />
    <glyph glyph-name="Oslash" unicode="&#xd8;" horiz-adv-x="1495" 
d="M180 -92l-73.999 62.999l160 196c-126.667 122.667 -190 278 -190 466c0 192 55.333 353.667 166 485c60.667 72 134.167 128.333 220.5 169s179.833 61 280.5 61c146 0 276.333 -37.667 391 -113l111 137l76 -59l-111 -137c141.333 -128 211.666 -295.333 210.999 -502
c0 -200.667 -58.667 -364.667 -176 -492c-125.333 -135.333 -292 -202.666 -500 -201.999c-151.333 0 -286 41.667 -404 125zM719.001 1262c-98 0 -178.167 -48.5 -240.5 -145.5s-93.5 -244.5 -93.5 -442.5c0 -113.333 15 -215 45 -305l580 714
c-72 119.333 -169 179 -291 179zM1056 986.999l-582 -717.001c36 -66 81 -116.5 135 -151.5s113 -52.5 177 -52.5c102.667 0 182.667 51.167 240 153.5s86 239.5 86 411.5c0 138.667 -18.667 257.334 -56 356.001z" />
    <glyph glyph-name="Ugrave" unicode="&#xd9;" horiz-adv-x="1499" 
d="M465 1069l-0.000976562 -518.006c0 -57.333 1.33301 -104.166 4 -140.499s12.167 -78.333 28.5 -126s40.166 -86.5 71.499 -116.5c70.667 -68 152 -102 244 -102c66.667 0 124 10.5 172 31.5s85 46.833 111 77.5s46.5 70 61.5 118s24.167 92 27.5 132s5 87.333 5 142v502
c0 80.667 -10.667 130.167 -32 148.5s-73.666 30.833 -156.999 37.5c-6.66699 6.66699 -10 18.334 -10 35.001s3.33301 28.334 10 35.001c125.333 -2.66699 212.333 -4 261 -4c39.333 0 112.333 1.33301 219 4c6.66699 -6.66699 10 -18.167 10 -34.5
s-3.33301 -28.166 -10 -35.499c-36.667 -4 -62.667 -7.66699 -78 -11s-30.5 -11.166 -45.5 -23.499s-24.5 -30 -28.5 -53s-6 -55.833 -6 -98.5v-465c0 -196.667 -42.667 -349.834 -128 -459.501s-227 -164.5 -425 -164.5c-187.333 0 -325.333 28.667 -414 86
c-118.667 78 -178 217 -178 417v586c0 80.667 -9.83301 131.167 -29.5 151.5s-62.5 31.833 -128.5 34.5c-5.33301 6.66699 -8 18.334 -8 35.001s2.66699 28.334 8 35.001c136.667 -2.66699 236.334 -4 299.001 -4c88.667 0 200 1.33301 334 4
c6.66699 -6.66699 10.167 -18.167 10.5 -34.5s-3.16699 -28.166 -10.5 -35.499c-82 -2.66699 -133.833 -13.834 -155.5 -33.501s-32.5 -70.5 -32.5 -152.5zM636.999 1699.99c-60 -28.667 -104.333 -66.333 -133 -113l6 -24l295 -119c22 -9.33301 46 -14 72 -14
c9.33301 0 18.5 3 27.5 9s13.5 13 13.5 21c0 18 -7 32.333 -21 43c-61.333 53.333 -148 119 -260 197z" />
    <glyph glyph-name="Uacute" unicode="&#xda;" horiz-adv-x="1499" 
d="M465 1069l-0.000976562 -518.006c0 -57.333 1.33301 -104.166 4 -140.499s12.167 -78.333 28.5 -126s40.166 -86.5 71.499 -116.5c70.667 -68 152 -102 244 -102c66.667 0 124 10.5 172 31.5s85 46.833 111 77.5s46.5 70 61.5 118s24.167 92 27.5 132s5 87.333 5 142v502
c0 80.667 -10.667 130.167 -32 148.5s-73.666 30.833 -156.999 37.5c-6.66699 6.66699 -10 18.334 -10 35.001s3.33301 28.334 10 35.001c125.333 -2.66699 212.333 -4 261 -4c39.333 0 112.333 1.33301 219 4c6.66699 -6.66699 10 -18.167 10 -34.5
s-3.33301 -28.166 -10 -35.499c-36.667 -4 -62.667 -7.66699 -78 -11s-30.5 -11.166 -45.5 -23.499s-24.5 -30 -28.5 -53s-6 -55.833 -6 -98.5v-465c0 -196.667 -42.667 -349.834 -128 -459.501s-227 -164.5 -425 -164.5c-187.333 0 -325.333 28.667 -414 86
c-118.667 78 -178 217 -178 417v586c0 80.667 -9.83301 131.167 -29.5 151.5s-62.5 31.833 -128.5 34.5c-5.33301 6.66699 -8 18.334 -8 35.001s2.66699 28.334 8 35.001c136.667 -2.66699 236.334 -4 299.001 -4c88.667 0 200 1.33301 334 4
c6.66699 -6.66699 10.167 -18.167 10.5 -34.5s-3.16699 -28.166 -10.5 -35.499c-82 -2.66699 -133.833 -13.834 -155.5 -33.501s-32.5 -70.5 -32.5 -152.5zM906.999 1705.99c58.667 -27.333 103 -65 133 -113l-6 -24l-295 -119c-23.333 -9.33301 -47 -14 -71 -14
c-9.33301 0 -18.5 3 -27.5 9s-13.5 13 -13.5 21c0 16.667 6.66699 31 20 43c61.333 53.333 148 119 260 197z" />
    <glyph glyph-name="Ucircumflex" unicode="&#xdb;" horiz-adv-x="1499" 
d="M465 1069l-0.000976562 -518.006c0 -57.333 1.33301 -104.166 4 -140.499s12.167 -78.333 28.5 -126s40.166 -86.5 71.499 -116.5c70.667 -68 152 -102 244 -102c66.667 0 124 10.5 172 31.5s85 46.833 111 77.5s46.5 70 61.5 118s24.167 92 27.5 132s5 87.333 5 142v502
c0 80.667 -10.667 130.167 -32 148.5s-73.666 30.833 -156.999 37.5c-6.66699 6.66699 -10 18.334 -10 35.001s3.33301 28.334 10 35.001c125.333 -2.66699 212.333 -4 261 -4c39.333 0 112.333 1.33301 219 4c6.66699 -6.66699 10 -18.167 10 -34.5
s-3.33301 -28.166 -10 -35.499c-36.667 -4 -62.667 -7.66699 -78 -11s-30.5 -11.166 -45.5 -23.499s-24.5 -30 -28.5 -53s-6 -55.833 -6 -98.5v-465c0 -196.667 -42.667 -349.834 -128 -459.501s-227 -164.5 -425 -164.5c-187.333 0 -325.333 28.667 -414 86
c-118.667 78 -178 217 -178 417v586c0 80.667 -9.83301 131.167 -29.5 151.5s-62.5 31.833 -128.5 34.5c-5.33301 6.66699 -8 18.334 -8 35.001s2.66699 28.334 8 35.001c136.667 -2.66699 236.334 -4 299.001 -4c88.667 0 200 1.33301 334 4
c6.66699 -6.66699 10.167 -18.167 10.5 -34.5s-3.16699 -28.166 -10.5 -35.499c-82 -2.66699 -133.833 -13.834 -155.5 -33.501s-32.5 -70.5 -32.5 -152.5zM1073 1482.99c0 -26 -11 -43.667 -33 -53c-117.333 35.333 -202 73.333 -254 114
c-61.333 -45.333 -145 -83.333 -251 -114c-19.333 8 -29 26.333 -29 55c87.333 56 174 127 260 213l29 10c84 -84.667 176.667 -159.667 278 -225z" />
    <glyph glyph-name="Udieresis" unicode="&#xdc;" horiz-adv-x="1499" 
d="M539 1427.5c0 33 10.833 60.667 32.5 83s48.834 33.5 81.501 33.5s60 -11.167 82 -33.5s33 -50 33 -83s-11 -60.333 -33 -82s-49.333 -32.5 -82 -32.5s-59.834 10.833 -81.501 32.5s-32.5 49 -32.5 82zM881 1427.5c0 33 11.167 60.667 33.5 83s50 33.5 83 33.5
s60 -11.167 81 -33.5s31.5 -50 31.5 -83s-10.5 -60.333 -31.5 -82s-48 -32.5 -81 -32.5s-60.667 10.833 -83 32.5s-33.5 49 -33.5 82zM465 1069l-0.000976562 -518.006c0 -57.333 1.33301 -104.166 4 -140.499s12.167 -78.333 28.5 -126s40.166 -86.5 71.499 -116.5
c70.667 -68 152 -102 244 -102c66.667 0 124 10.5 172 31.5s85 46.833 111 77.5s46.5 70 61.5 118s24.167 92 27.5 132s5 87.333 5 142v502c0 54.667 -2 95 -6 121s-8.5 42 -13.5 48s-13.5 11.667 -25.5 17c-6.66699 6.66699 -10 18.334 -10 35.001
s3.33301 28.334 10 35.001c52 -2.66699 91 -4 117 -4c12 0 85 1.33301 219 4c6.66699 -6.66699 10 -18.167 10 -34.5s-3.33301 -28.166 -10 -35.499c-49.333 -5.33301 -82.5 -11 -99.5 -17s-31 -21.667 -42 -47s-16.5 -66 -16.5 -122v-465
c0 -196.667 -42.667 -349.834 -128 -459.501s-227 -164.5 -425 -164.5c-187.333 0 -325.333 28.667 -414 86c-118.667 78 -178 217 -178 417v586c0 80.667 -9.83301 131.167 -29.5 151.5s-62.5 31.833 -128.5 34.5c-5.33301 6.66699 -8 18.334 -8 35.001
s2.66699 28.334 8 35.001c136.667 -2.66699 236.334 -4 299.001 -4c75.333 0 139 1.33301 191 4c6.66699 -6.66699 10 -18.167 10 -34.5s-3.33301 -28.166 -10 -35.499c-19.333 -2.66699 -31.666 -14.167 -36.999 -34.5s-8 -70.833 -8 -151.5z" />
    <glyph glyph-name="Yacute" unicode="&#xdd;" horiz-adv-x="1337" 
d="M793 250c0 -82 11.5 -132.504 34.5 -151.504s77.5 -29.833 163.5 -32.5c5.33301 -5.33301 8 -17 8 -35s-2.66699 -29.667 -8 -35c-136.667 2.66699 -245 4 -325 4c-105.333 0 -225 -1.33301 -359 -4c-5.33301 5.33301 -8 16.833 -8 34.5s2.66699 29.5 8 35.5
c86 2.66699 140.667 13.5 164 32.5s35 69.5 35 151.5v280c0 36.667 -2.33301 63 -7 79s-16 39.667 -34 71l-261 440c-32 54.667 -60.5 90 -85.5 106s-60.5 25.667 -106.5 29c-6.66699 6.66699 -10 18.334 -10 35.001s2.66699 28.334 8 35.001c82 -2.66699 179 -4 291 -4
c60 0 144.667 1.33301 254 4c6.66699 -6.66699 10 -18.167 10 -34.5s-3.33301 -28.166 -10 -35.499c-54.667 -2.66699 -86.5 -12.834 -95.5 -30.501s-1.16699 -45.5 23.5 -83.5l214 -377c17.333 -30 32.666 -32 45.999 -6l211 397c16.667 30 15.5 53.5 -3.5 70.5
s-52.5 26.833 -100.5 29.5c-6.66699 6.66699 -10 18.334 -10 35.001s3.33301 28.334 10 35.001c109.333 -2.66699 185 -4 227 -4c45.333 0 109 1.33301 191 4c6.66699 -6.66699 10 -18.167 10 -34.5s-3.33301 -28.166 -10 -35.499
c-49.333 -4.66699 -85.833 -12.834 -109.5 -24.501s-46.5 -36.167 -68.5 -73.5l-263 -438c-23.333 -38.667 -34.666 -95.667 -33.999 -171v-298zM846 1706c58.667 -27.333 103 -65 133 -113l-6 -24l-295 -119c-24.667 -9.33301 -48.667 -14 -72 -14
c-9.33301 0 -18.5 3 -27.5 9s-13.5 13 -13.5 21c0 16.667 7 31 21 43c61.333 53.333 148 119 260 197z" />
    <glyph glyph-name="Thorn" unicode="&#xde;" horiz-adv-x="1261" 
d="M233 1071c0 40.667 -2.99805 73.6641 -8.99805 98.9971s-17.5 43.833 -34.5 55.5s-33.667 19.167 -50 22.5s-41.833 5.66602 -76.5 6.99902c-9.33301 6.66699 -14 18.334 -14 35.001s4.66699 28.334 14 35.001c109.333 -2.66699 214.666 -4 315.999 -4
c98 0 201.667 1.33301 311 4c9.33301 -6.66699 14.166 -18.167 14.499 -34.5s-4.5 -28.166 -14.5 -35.499c-34 -1.33301 -59.167 -3.66602 -75.5 -6.99902s-33 -10.833 -50 -22.5s-28.667 -30 -35 -55s-9.5 -58.167 -9.5 -99.5v-4c50 2.66699 117 4 201 4
c90 0 167.5 -12 232.5 -36s113.833 -55.667 146.5 -95s56.167 -78.5 70.5 -117.5s21.5 -79 21.5 -120s-9.16699 -83.333 -27.5 -127s-46.333 -86 -84 -127s-90 -74.833 -157 -101.5s-143.5 -40 -229.5 -40c-88.667 0 -146.667 4 -174 12v-69
c0 -40.667 3.16699 -73.667 9.5 -99s18 -43.833 35 -55.5s33.667 -19.167 50 -22.5s41.5 -5.66602 75.5 -6.99902c9.33301 -5.33301 14.166 -17 14.499 -35s-4.5 -29.667 -14.5 -35c-109.333 2.66699 -213 4 -311 4c-101.333 0 -206.666 -1.33301 -315.999 -4
c-9.33301 5.33301 -14 16.833 -14 34.5s4.66699 29.5 14 35.5c34 1.33301 59.333 3.66602 76 6.99902s33.5 10.833 50.5 22.5s28.5 30 34.5 55s9 58.167 9 99.5v821zM520.002 397.997c27.333 -4.66699 73.668 -6.99902 139.001 -6.99902c75.333 0 131.5 24.667 168.5 74
s55.5 128.333 55.5 237c0 91.333 -15.833 161.666 -47.5 210.999s-78.167 74 -139.5 74c-11.333 0 -39.333 -1.5 -84 -4.5s-75.334 -4.5 -92.001 -4.5v-580z" />
    <glyph glyph-name="germandbls" unicode="&#xdf;" horiz-adv-x="1259" 
d="M205 258l-0.000976562 495.998c0 12 -1.66699 20 -5 24s-12 6.66699 -26 8l-90 11c-15.333 1.33301 -23 4.66602 -23 9.99902v41c0 9.33301 5.5 18.5 16.5 27.5s24.833 13.5 41.5 13.5c57.333 0 86 32.667 86 98c0 64 12.333 122.333 37 175s55.667 95 93 127
s79.166 59 125.499 81s90.333 37.5 132 46.5s79.834 13.5 114.501 13.5c100 0 175.667 -13.667 227 -41c40.667 -22 73 -53.5 97 -94.5s36 -78.5 36 -112.5c0 -87.333 -30.667 -162.666 -92 -225.999c-31.333 -31.333 -97 -69.333 -197 -114v-4
c108 -36.667 201.333 -98.5 280 -185.5s118 -186.5 118 -298.5c0 -106.667 -34.5 -195.667 -103.5 -267s-151.5 -107 -247.5 -107c-79.333 0 -139 21.833 -179 65.5s-60 95.5 -60 155.5c0 22 8.5 43.833 25.5 65.5s38.5 32.5 64.5 32.5s49.167 -7.83301 69.5 -23.5
s30.5 -35.167 30.5 -58.5c0 -13.333 -5.16699 -31 -15.5 -53s-15.5 -40.333 -15.5 -55c0 -12 8.66699 -22.167 26 -30.5s35.333 -12.5 54 -12.5c39.333 0 59.333 84.333 60 253c0 100 -17.833 187.833 -53.5 263.5s-95.167 145.167 -178.5 208.5v47
c62.667 49.333 101.334 93.333 116.001 132s22 100.334 22 185.001c0 125.333 -41 188 -123 188c-68 0 -117.833 -40.167 -149.5 -120.5s-47.5 -182.833 -47.5 -307.5v-653c0 -117.333 18.333 -182.666 55 -195.999c6.66699 -5.33301 10.167 -17 10.5 -35
s-3.16699 -29.667 -10.5 -35c-31.333 2.66699 -94 4 -188 4c-79.333 0 -176.333 -1.33301 -291 -4c-6.66699 5.33301 -10 16.833 -10 34.5s3.33301 29.5 10 35.5c65.333 2.66699 108 15.167 128 37.5s30 73.833 30 154.5z" />
    <glyph glyph-name="agrave" unicode="&#xe0;" horiz-adv-x="1036" 
d="M605 99l-13 -1.00098c-36.667 -28.667 -80 -55.5 -130 -80.5s-88.667 -37.5 -116 -37.5c-170.667 0 -256 71.667 -256 215c0 74 29.333 130.667 88 170s151.667 78.666 279 117.999l137 43c0 118.667 -13.667 197.834 -41 237.501s-66.333 59.5 -117 59.5
c-53.333 0 -82 -15.333 -86 -46c-2 -13.333 -1 -31.333 3 -54s6 -37 6 -43c0 -25.333 -12.333 -47.5 -37 -66.5s-54.667 -28.5 -90 -28.5c-70.667 0 -106 34.667 -106 104c0 42 21.5 80.5 64.5 115.5s93.167 61.167 150.5 78.5s112.333 26 165 26
c233.333 0 350 -118 350 -354l-4 -295c0 -50.667 4.16699 -86.167 12.5 -106.5s23.166 -30.5 44.499 -30.5c32.667 0 61.334 9.66699 86.001 29c20.667 -15.333 33 -34.666 37 -57.999c-80.667 -76.667 -170 -114.667 -268 -114c-92.667 -0.666992 -145.667 39 -159 119z
M594 445.999l-106.999 -34c-34 -10.667 -61.833 -23 -83.5 -37s-37 -29.833 -46 -47.5s-14.833 -33.334 -17.5 -47.001s-4 -32.167 -4 -55.5c0 -35.333 9.5 -64.666 28.5 -87.999s49.167 -35 90.5 -35c31.333 0 77.666 24.667 138.999 74v270zM442.001 1380l142 -254.001
c12 -22 18 -39.667 18 -53c0 -9.33301 -3.33301 -17.166 -10 -23.499s-15 -9.5 -25 -9.5c-16.667 0 -40.334 13.667 -71.001 41l-248 215l4 23c12 13.333 31.667 27.5 59 42.5s57.333 22.5 90 22.5c16.667 0 30.334 -1.33301 41.001 -4z" />
    <glyph glyph-name="aacute" unicode="&#xe1;" horiz-adv-x="1036" 
d="M524 1380c8 2.66699 19 4 33 4c52 0 91 -16.333 117 -49l20 -47l-245 -221c-26 -22 -52 -33 -78 -33c-8 0 -15.5 3.16699 -22.5 9.5s-10.5 12.833 -10.5 19.5c0 16.667 5.33301 33 16 49zM605 99l-13 -1.00098c-36.667 -28.667 -80 -55.5 -130 -80.5
s-88.667 -37.5 -116 -37.5c-170.667 0 -256 71.667 -256 215c0 74 29.333 130.667 88 170s151.667 78.666 279 117.999l137 43c0 118.667 -13.667 197.834 -41 237.501s-66.333 59.5 -117 59.5c-53.333 0 -82 -15.333 -86 -46c-2 -13.333 -1 -31.333 3 -54s6 -37 6 -43
c0 -25.333 -12.333 -47.5 -37 -66.5s-54.667 -28.5 -90 -28.5c-70.667 0 -106 34.667 -106 104c0 42 21.5 80.5 64.5 115.5s93.167 61.167 150.5 78.5s112.333 26 165 26c233.333 0 350 -118 350 -354l-4 -295c0 -50.667 4.16699 -86.167 12.5 -106.5
s23.166 -30.5 44.499 -30.5c32.667 0 61.334 9.66699 86.001 29c20.667 -15.333 33 -34.666 37 -57.999c-80.667 -76.667 -170 -114.667 -268 -114c-92.667 -0.666992 -145.667 39 -159 119zM594 445.999l-106.999 -34c-34 -10.667 -61.833 -23 -83.5 -37
s-37 -29.833 -46 -47.5s-14.833 -33.334 -17.5 -47.001s-4 -32.167 -4 -55.5c0 -35.333 9.5 -64.666 28.5 -87.999s49.167 -35 90.5 -35c31.333 0 77.666 24.667 138.999 74v270z" />
    <glyph glyph-name="acircumflex" unicode="&#xe2;" horiz-adv-x="1036" 
d="M551 1358c46.667 -75.333 118.334 -167.001 215.001 -275.001l-51 -39c-91.333 54.667 -164.333 111.334 -219 170.001c-50.667 -52 -123 -108.667 -217 -170l-52 39c105.333 120 177.666 211.667 216.999 275h107zM605 98.999l-13 -1.00098
c-36.667 -28.667 -80 -55.5 -130 -80.5s-88.667 -37.5 -116 -37.5c-170.667 0 -256 71.667 -256 215c0 74 29.333 130.667 88 170s151.667 78.666 279 117.999l137 43c0 118.667 -13.667 197.834 -41 237.501s-66.333 59.5 -117 59.5c-53.333 0 -82 -15.333 -86 -46
c-2 -13.333 -1 -31.333 3 -54s6 -37 6 -43c0 -25.333 -12.333 -47.5 -37 -66.5s-54.667 -28.5 -90 -28.5c-70.667 0 -106 34.667 -106 104c0 42 21.5 80.5 64.5 115.5s93.167 61.167 150.5 78.5s112.333 26 165 26c233.333 0 350 -118 350 -354l-4 -295
c0 -50.667 4.16699 -86.167 12.5 -106.5s23.166 -30.5 44.499 -30.5c32.667 0 61.334 9.66699 86.001 29c20.667 -15.333 33 -34.666 37 -57.999c-80.667 -76.667 -170 -114.667 -268 -114c-92.667 -0.666992 -145.667 39 -159 119zM594 445.998l-106.999 -34
c-34 -10.667 -61.833 -23 -83.5 -37s-37 -29.833 -46 -47.5s-14.833 -33.334 -17.5 -47.001s-4 -32.167 -4 -55.5c0 -35.333 9.5 -64.666 28.5 -87.999s49.167 -35 90.5 -35c31.333 0 77.666 24.667 138.999 74v270z" />
    <glyph glyph-name="atilde" unicode="&#xe3;" horiz-adv-x="1036" 
d="M610 1206c44 0 77.667 29.333 101 88c15.333 0 28.666 -3.66699 39.999 -11s17 -17.333 17 -30c-18 -58.667 -44 -105 -78 -139s-70 -51 -108 -51c-50.667 0 -95 14.333 -133 43c-35.333 23.333 -75 35 -119 35c-18 0 -32.167 -1.33301 -42.5 -4
s-20.833 -10.167 -31.5 -22.5s-19.667 -30.833 -27 -55.5c-35.333 0 -53 12.333 -53 37c18 54.667 42.333 100 73 136s63 54 97 54c58.667 0 109.334 -17 152.001 -51c24 -19.333 61.333 -29 112 -29zM605 99l-13 -1.00098c-36.667 -28.667 -80 -55.5 -130 -80.5
s-88.667 -37.5 -116 -37.5c-170.667 0 -256 71.667 -256 215c0 74 29.333 130.667 88 170s151.667 78.666 279 117.999l137 43c0 118.667 -13.667 197.834 -41 237.501s-66.333 59.5 -117 59.5c-53.333 0 -82 -15.333 -86 -46c-2 -13.333 -1 -31.333 3 -54s6 -37 6 -43
c0 -25.333 -12.333 -47.5 -37 -66.5s-54.667 -28.5 -90 -28.5c-70.667 0 -106 34.667 -106 104c0 42 21.5 80.5 64.5 115.5s93.167 61.167 150.5 78.5s112.333 26 165 26c233.333 0 350 -118 350 -354l-4 -295c0 -50.667 4.16699 -86.167 12.5 -106.5
s23.166 -30.5 44.499 -30.5c32.667 0 61.334 9.66699 86.001 29c20.667 -15.333 33 -34.666 37 -57.999c-80.667 -76.667 -170 -114.667 -268 -114c-92.667 -0.666992 -145.667 39 -159 119zM594 445.999l-106.999 -34c-34 -10.667 -61.833 -23 -83.5 -37
s-37 -29.833 -46 -47.5s-14.833 -33.334 -17.5 -47.001s-4 -32.167 -4 -55.5c0 -35.333 9.5 -64.666 28.5 -87.999s49.167 -35 90.5 -35c31.333 0 77.666 24.667 138.999 74v270z" />
    <glyph glyph-name="adieresis" unicode="&#xe4;" horiz-adv-x="1036" 
d="M565 1173.5c0 31.667 11 58.333 33 80s48.667 32.5 80 32.5s58 -10.833 80 -32.5s33 -48.167 33 -79.5c0 -30 -11 -56 -33 -78s-48.667 -33 -80 -33s-58 10.5 -80 31.5s-33 47.333 -33 79zM184 1174c0 31.333 11 57.834 33 79.501s48.667 32.5 80 32.5
s58 -10.833 80 -32.5s33 -48.334 33 -80.001s-11 -58 -33 -79s-48.667 -31.5 -80 -31.5s-58 11 -80 33s-33 48 -33 78zM605 99l-13 -1.00098c-36.667 -28.667 -80 -55.5 -130 -80.5s-88.667 -37.5 -116 -37.5c-170.667 0 -256 71.667 -256 215c0 74 29.333 130.667 88 170
s151.667 78.666 279 117.999l137 43c0 118.667 -13.667 197.834 -41 237.501s-66.333 59.5 -117 59.5c-53.333 0 -82 -15.333 -86 -46c-2 -13.333 -1 -31.333 3 -54s6 -37 6 -43c0 -25.333 -12.333 -47.5 -37 -66.5s-54.667 -28.5 -90 -28.5c-70.667 0 -106 34.667 -106 104
c0 42 21.5 80.5 64.5 115.5s93.167 61.167 150.5 78.5s112.333 26 165 26c233.333 0 350 -118 350 -354l-4 -295c0 -50.667 4.16699 -86.167 12.5 -106.5s23.166 -30.5 44.499 -30.5c32.667 0 61.334 9.66699 86.001 29c20.667 -15.333 33 -34.666 37 -57.999
c-80.667 -76.667 -170 -114.667 -268 -114c-92.667 -0.666992 -145.667 39 -159 119zM594 445.999l-106.999 -34c-34 -10.667 -61.833 -23 -83.5 -37s-37 -29.833 -46 -47.5s-14.833 -33.334 -17.5 -47.001s-4 -32.167 -4 -55.5c0 -35.333 9.5 -64.666 28.5 -87.999
s49.167 -35 90.5 -35c31.333 0 77.666 24.667 138.999 74v270z" />
    <glyph glyph-name="aring" unicode="&#xe5;" horiz-adv-x="1036" 
d="M455 1292c-28.667 0 -52 -9.5 -70 -28.5s-27 -42.833 -27 -71.5c0 -27.333 9 -50.833 27 -70.5s41.333 -29.5 70 -29.5s52.167 9.83301 70.5 29.5s27.5 43.167 27.5 70.5c0 30 -9.5 54.167 -28.5 72.5s-42.167 27.5 -69.5 27.5zM281 1192c0 46.667 17 86.667 51 120
s75 50 123 50c46.667 0 87.667 -16.333 123 -49s53 -73 53 -121c0 -46.667 -17.5 -86.667 -52.5 -120s-76.333 -50 -124 -50s-88.5 16.667 -122.5 50s-51 73.333 -51 120zM605 99l-13 -1.00098c-36.667 -28.667 -80 -55.5 -130 -80.5s-88.667 -37.5 -116 -37.5
c-170.667 0 -256 71.667 -256 215c0 74 29.333 130.667 88 170s151.667 78.666 279 117.999l137 43c0 118.667 -13.667 197.834 -41 237.501s-66.333 59.5 -117 59.5c-53.333 0 -82 -15.333 -86 -46c-2 -13.333 -1 -31.333 3 -54s6 -37 6 -43
c0 -25.333 -12.333 -47.5 -37 -66.5s-54.667 -28.5 -90 -28.5c-70.667 0 -106 34.667 -106 104c0 42 21.5 80.5 64.5 115.5s93.167 61.167 150.5 78.5s112.333 26 165 26c233.333 0 350 -118 350 -354l-4 -295c0 -50.667 4.16699 -86.167 12.5 -106.5
s23.166 -30.5 44.499 -30.5c32.667 0 61.334 9.66699 86.001 29c20.667 -15.333 33 -34.666 37 -57.999c-80.667 -76.667 -170 -114.667 -268 -114c-92.667 -0.666992 -145.667 39 -159 119zM594 445.999l-106.999 -34c-34 -10.667 -61.833 -23 -83.5 -37
s-37 -29.833 -46 -47.5s-14.833 -33.334 -17.5 -47.001s-4 -32.167 -4 -55.5c0 -35.333 9.5 -64.666 28.5 -87.999s49.167 -35 90.5 -35c31.333 0 77.666 24.667 138.999 74v270z" />
    <glyph glyph-name="ae" unicode="&#xe6;" horiz-adv-x="1464" 
d="M1028 823c-91.333 0 -148.668 -100.331 -172.001 -300.998c12 1.33301 32 2.66602 60 3.99902l62.5 3c13.667 0.666992 31.834 2.16699 54.501 4.5s40.167 4.83301 52.5 7.5l41 9c15 3.33301 27.333 7.33301 37 12s17.167 10.667 22.5 18
c0 69.333 -13 127.166 -39 173.499s-65.667 69.5 -119 69.5zM581.998 190.002c6.66699 13.333 11.333 92.666 14 237.999c-92.667 -12 -163.667 -36.167 -213 -72.5s-74 -79.166 -74 -128.499c0 -34 3.33301 -60.667 10 -80c15.333 -44 43.333 -65.667 84 -65
c31.333 0 64.5 8.5 99.5 25.5s61.5 44.5 79.5 82.5zM1073 145.002c46.667 0 98.3359 9.99805 155.003 29.998s104 49.667 142 89c20.667 0 31 -21 31 -63c-101.333 -147.333 -222.333 -221 -363 -221c-110.667 0 -193 19 -247 57
c-1.33301 1.33301 -6.16602 4.66602 -14.499 9.99902l-15.5 10c-2 1.33301 -6.5 4.83301 -13.5 10.5s-11.833 9.83398 -14.5 12.501l-11 11c-4.66699 4.66699 -8.66699 9.16699 -12 13.5s-6.83301 9.5 -10.5 15.5s-6.83398 11.667 -9.50098 17
c-39.333 -50.667 -92.5 -89.5 -159.5 -116.5s-119.5 -40.5 -157.5 -40.5c-90 0 -157 14.667 -201 44c-28 19.333 -51 45 -69 77s-27 66 -27 102c0 84.667 44 153.167 132 205.5s217.333 85.5 388 99.5c0 210 -50 315 -150 315c-86 0 -129 -21 -129 -63
c0 -15.333 2.5 -32.166 7.5 -50.499s7.5 -30.833 7.5 -37.5c0 -19.333 -9.33301 -38.166 -28 -56.499s-48.334 -27.5 -89.001 -27.5c-34 0 -60.167 10.5 -78.5 31.5s-27.5 45.833 -27.5 74.5c0 58.667 37.167 109.167 111.5 151.5s151.166 63.5 230.499 63.5
c64 0 124.333 -11.167 181 -33.5s97.334 -58.833 122.001 -109.5c66.667 95.333 165.667 143 297 143c233.333 0 350 -101.667 350 -305c0 -16.667 -1.33301 -36.167 -4 -58.5s-4 -36.166 -4 -41.499c-50.667 -34 -213 -53.333 -487 -58
c-23.333 -0.666992 -41.333 -1.33398 -54 -2.00098c1.33301 -100 22.166 -174.833 62.499 -224.5s93.166 -74.5 158.499 -74.5z" />
    <glyph glyph-name="ccedilla" unicode="&#xe7;" horiz-adv-x="933" 
d="M354 -207l-12 12l90 179c-92 10.667 -168.333 44.667 -229 102c-84.667 79.333 -127 188 -127 326c0 147.333 44.333 267 133 359s195.667 138 321 138c104 0 185.667 -22.5 245 -67.5s89 -93.5 89 -145.5c0 -32.667 -10.5 -59.834 -31.5 -81.501s-48 -32.5 -81 -32.5
s-61.667 9.16699 -86 27.5s-37.833 41.166 -40.5 68.499c-4 39.333 -15.333 73.333 -34 102s-45 43 -79 43c-106.667 0 -160 -113.333 -160 -340c0 -117.333 25.333 -206 76 -266s117 -90 199 -90c57.333 0 127.666 38.333 210.999 115c18 0 26.667 -21.333 26 -64
c-39.333 -57.333 -91.166 -104.666 -155.499 -141.999s-126.5 -56 -186.5 -56h-20l-27 -64c126.667 -25.333 190 -82.666 190 -171.999c0 -51.333 -23.167 -94.833 -69.5 -130.5s-102.833 -53.5 -169.5 -53.5c-44 0 -87.667 11.333 -131 34c0 28.667 6.66699 46.667 20 54
c52 -19.333 91.667 -29 119 -29c68 0 102.333 28 103 84c-0.666992 53.333 -61.667 83.333 -183 90z" />
    <glyph glyph-name="egrave" unicode="&#xe8;" horiz-adv-x="1001" 
d="M471 1380l140.999 -254.001c12 -22 18.333 -39.667 19 -53c0 -9.33301 -3.5 -17.166 -10.5 -23.499s-15.167 -9.5 -24.5 -9.5c-16.667 0 -40.667 13.667 -72 41l-248 215l5 23c12 13.333 31.667 27.5 59 42.5s57.333 22.5 90 22.5c16.667 0 30.334 -1.33301 41.001 -4z
M361.999 562.999l279.001 -0.000976562c2.66699 2.66699 4 17 4 43c0 74 -13.333 128.667 -40 164s-57 53 -91 53c-15.333 0 -33.833 -6.16699 -55.5 -18.5s-40.167 -29.166 -55.5 -50.499c-24.667 -37.333 -38.334 -101 -41.001 -191zM883 263.998
c20.667 0 30.668 -20.999 30.001 -62.999c-101.333 -147.333 -229 -221 -383 -221c-140.667 0 -248.334 34 -323.001 102c-87.333 79.333 -131 187.333 -131 324c0 148.667 47.667 269.667 143 363s201.333 140 318 140c72.667 0 134.167 -10.5 184.5 -31.5s88 -50 113 -87
s43 -75.333 54 -115s16.5 -83.167 16.5 -130.5c0 -42 -19.667 -63.333 -59 -64h-492c0 -2.66699 -0.333008 -7.33398 -1 -14.001s-1 -12.667 -1 -18c0 -98 22.5 -171.333 67.5 -220s108.5 -73 190.5 -73c111.333 -0.666992 202.333 35.333 273 108z" />
    <glyph glyph-name="eacute" unicode="&#xe9;" horiz-adv-x="1001" 
d="M578 1380c8 2.66699 18.667 4 32 4c52 0 91 -16.333 117 -49l21 -47l-246 -221c-26 -22 -52 -33 -78 -33c-8 0 -15.5 3.16699 -22.5 9.5s-10.5 12.833 -10.5 19.5c0 16.667 5.66699 33 17 49zM362 563l279.001 -0.000976562c2.66699 2.66699 4 17 4 43
c0 74 -13.333 128.667 -40 164s-57 53 -91 53c-15.333 0 -33.833 -6.16699 -55.5 -18.5s-40.167 -29.166 -55.5 -50.499c-24.667 -37.333 -38.334 -101 -41.001 -191zM883.001 263.999c20.667 0 30.668 -20.999 30.001 -62.999c-101.333 -147.333 -229 -221 -383 -221
c-140.667 0 -248.334 34 -323.001 102c-87.333 79.333 -131 187.333 -131 324c0 148.667 47.667 269.667 143 363s201.333 140 318 140c72.667 0 134.167 -10.5 184.5 -31.5s88 -50 113 -87s43 -75.333 54 -115s16.5 -83.167 16.5 -130.5c0 -42 -19.667 -63.333 -59 -64
h-492c0 -2.66699 -0.333008 -7.33398 -1 -14.001s-1 -12.667 -1 -18c0 -98 22.5 -171.333 67.5 -220s108.5 -73 190.5 -73c111.333 -0.666992 202.333 35.333 273 108z" />
    <glyph glyph-name="ecircumflex" unicode="&#xea;" horiz-adv-x="1001" 
d="M551 1358c46.667 -75.333 118.334 -167.001 215.001 -275.001l-51 -39c-91.333 54.667 -164.333 111.334 -219 170.001c-50.667 -52 -123 -108.667 -217 -170l-52 39c105.333 120 177.666 211.667 216.999 275h107zM362 562.999l279.001 -0.000976562
c2.66699 2.66699 4 17 4 43c0 74 -13.333 128.667 -40 164s-57 53 -91 53c-15.333 0 -33.833 -6.16699 -55.5 -18.5s-40.167 -29.166 -55.5 -50.499c-24.667 -37.333 -38.334 -101 -41.001 -191zM883.001 263.998c20.667 0 30.668 -20.999 30.001 -62.999
c-101.333 -147.333 -229 -221 -383 -221c-140.667 0 -248.334 34 -323.001 102c-87.333 79.333 -131 187.333 -131 324c0 148.667 47.667 269.667 143 363s201.333 140 318 140c72.667 0 134.167 -10.5 184.5 -31.5s88 -50 113 -87s43 -75.333 54 -115
s16.5 -83.167 16.5 -130.5c0 -42 -19.667 -63.333 -59 -64h-492c0 -2.66699 -0.333008 -7.33398 -1 -14.001s-1 -12.667 -1 -18c0 -98 22.5 -171.333 67.5 -220s108.5 -73 190.5 -73c111.333 -0.666992 202.333 35.333 273 108z" />
    <glyph glyph-name="edieresis" unicode="&#xeb;" horiz-adv-x="1001" 
d="M578 1173.5c0 31.667 10.833 58.333 32.5 80s48.167 32.5 79.5 32.5s58 -10.833 80 -32.5s33 -48.167 33 -79.5c0 -30 -11 -56 -33 -78s-48.667 -33 -80 -33s-57.833 10.5 -79.5 31.5s-32.5 47.333 -32.5 79zM197 1174c0 31.333 10.833 57.834 32.5 79.501
s48.167 32.5 79.5 32.5s58 -10.833 80 -32.5s33 -48.334 33 -80.001s-11 -58 -33 -79s-48.667 -31.5 -80 -31.5s-57.833 11 -79.5 33s-32.5 48 -32.5 78zM362 571h279.001c2.66699 2.66699 4 17 4 43c0 74 -13.333 128.667 -40 164s-57 53 -91 53
c-15.333 0 -33.833 -6 -55.5 -18s-40.167 -29 -55.5 -51c-24.667 -37.333 -38.334 -101 -41.001 -191zM883.001 272c20.667 0 30.668 -21 30.001 -63c-101.333 -147.333 -229 -221 -383 -221c-140.667 0 -248.334 34 -323.001 102c-87.333 79.333 -131 187.333 -131 324
c0 148.667 47.667 269.834 143 363.501s201.333 140.5 318 140.5c72.667 0 134.167 -10.667 184.5 -32s88 -50.5 113 -87.5s43 -75.167 54 -114.5s16.5 -83 16.5 -131c0 -42 -19.667 -63.333 -59 -64h-492c0 -2.66699 -0.333008 -7.33398 -1 -14.001s-1 -12.667 -1 -18
c0 -98 22.5 -171.333 67.5 -220s108.5 -73 190.5 -73c111.333 -0.666992 202.333 35.333 273 108z" />
    <glyph glyph-name="igrave" unicode="&#xec;" horiz-adv-x="659" 
d="M244 1380l140.998 -254.001c12 -22 18 -39.667 18 -53c0 -9.33301 -3.33301 -17.166 -10 -23.499s-14.667 -9.5 -24 -9.5c-16.667 0 -40.667 13.667 -72 41l-248 215l4 23c12 13.333 31.833 27.5 59.5 42.5s57.834 22.5 90.501 22.5c16.667 0 30.334 -1.33301 41.001 -4z
M474.998 249.999c0 -82 8.16895 -132.165 24.502 -150.498s57.5 -29.5 123.5 -33.5c5.33301 -5.33301 8 -17 8 -35s-2.66699 -29.667 -8 -35c-117.333 2.66699 -211 4 -281 4c-72.667 0 -166.334 -1.33301 -281.001 -4c-5.33301 5.33301 -8 16.833 -8 34.5
s2.66699 29.5 8 35.5c65.333 5.33301 106.333 16.833 123 34.5s25 67.5 25 149.5v393c0 57.333 -7.83301 94.166 -23.5 110.499s-52.167 27.166 -109.5 32.499c-8 26 -9.33301 48 -4 66c217.333 28.667 338.666 47.667 363.999 57c31.333 0 47 -11.667 47 -35
c-5.33301 -76.667 -8 -148.667 -8 -216v-408z" />
    <glyph glyph-name="iacute" unicode="&#xed;" horiz-adv-x="659" 
d="M358 1380c8 2.66699 19 4 33 4c52 0 91 -16.333 117 -49l20 -47l-245 -221c-26 -22 -52 -33 -78 -33c-8 0 -15.5 3.16699 -22.5 9.5s-10.5 12.833 -10.5 19.5c0 16.667 5.33301 33 16 49zM475 250c0 -82 8.16895 -132.165 24.502 -150.498s57.5 -29.5 123.5 -33.5
c5.33301 -5.33301 8 -17 8 -35s-2.66699 -29.667 -8 -35c-117.333 2.66699 -211 4 -281 4c-72.667 0 -166.334 -1.33301 -281.001 -4c-5.33301 5.33301 -8 16.833 -8 34.5s2.66699 29.5 8 35.5c65.333 5.33301 106.333 16.833 123 34.5s25 67.5 25 149.5v393
c0 57.333 -7.83301 94.166 -23.5 110.499s-52.167 27.166 -109.5 32.499c-8 26 -9.33301 48 -4 66c217.333 28.667 338.666 47.667 363.999 57c31.333 0 47 -11.667 47 -35c-5.33301 -76.667 -8 -148.667 -8 -216v-408z" />
    <glyph glyph-name="icircumflex" unicode="&#xee;" horiz-adv-x="659" 
d="M367 1358c46.667 -75.333 118.334 -167.001 215.001 -275.001l-52 -39c-91.333 54.667 -164.333 111.334 -219 170.001c-50.667 -52 -123 -108.667 -217 -170l-51 39c105.333 120 177.666 211.667 216.999 275h107zM475 249.999c0 -82 8.16895 -132.165 24.502 -150.498
s57.5 -29.5 123.5 -33.5c5.33301 -5.33301 8 -17 8 -35s-2.66699 -29.667 -8 -35c-117.333 2.66699 -211 4 -281 4c-72.667 0 -166.334 -1.33301 -281.001 -4c-5.33301 5.33301 -8 16.833 -8 34.5s2.66699 29.5 8 35.5c65.333 5.33301 106.333 16.833 123 34.5
s25 67.5 25 149.5v393c0 57.333 -7.83301 94.166 -23.5 110.499s-52.167 27.166 -109.5 32.499c-8 26 -9.33301 48 -4 66c217.333 28.667 338.666 47.667 363.999 57c31.333 0 47 -11.667 47 -35c-5.33301 -76.667 -8 -148.667 -8 -216v-408z" />
    <glyph glyph-name="idieresis" unicode="&#xef;" horiz-adv-x="659" 
d="M387 1173.5c0 31.667 11 58.333 33 80s48.667 32.5 80 32.5s57.833 -10.833 79.5 -32.5s32.5 -48.167 32.5 -79.5c0 -30 -10.833 -56 -32.5 -78s-48.167 -33 -79.5 -33s-58 10.5 -80 31.5s-33 47.333 -33 79zM6 1174c0 31.333 11 57.834 33 79.501s48.667 32.5 80 32.5
s57.833 -10.833 79.5 -32.5s32.5 -48.334 32.5 -80.001s-10.833 -58 -32.5 -79s-48.167 -31.5 -79.5 -31.5s-58 11 -80 33s-33 48 -33 78zM475 250c0 -82 8.16895 -132.165 24.502 -150.498s57.5 -29.5 123.5 -33.5c5.33301 -5.33301 8 -17 8 -35s-2.66699 -29.667 -8 -35
c-117.333 2.66699 -211 4 -281 4c-72.667 0 -166.334 -1.33301 -281.001 -4c-5.33301 5.33301 -8 16.833 -8 34.5s2.66699 29.5 8 35.5c65.333 5.33301 106.333 16.833 123 34.5s25 67.5 25 149.5v393c0 57.333 -7.83301 94.166 -23.5 110.499s-52.167 27.166 -109.5 32.499
c-8 26 -9.33301 48 -4 66c217.333 28.667 338.666 47.667 363.999 57c31.333 0 47 -11.667 47 -35c-5.33301 -76.667 -8 -148.667 -8 -216v-408z" />
    <glyph glyph-name="eth" unicode="&#xf0;" horiz-adv-x="1144" 
d="M72 428c0 147.333 54.668 265.333 164.001 354c104 84.667 220.667 127 350 127c31.333 0 66 -3.33301 104 -10c-40.667 94 -94.667 174.667 -162 242l-225 -152l-49 74l215 143c-74 74 -131.333 125.333 -172 154l51 70
c109.333 -58.667 188.666 -107.334 237.999 -146.001l127 86l102 68l49 -74l-202 -135c130 -117.333 218.667 -211.666 266 -282.999c86 -128.667 129 -281 129 -457c0 -170.667 -45.833 -298.167 -137.5 -382.5s-214.5 -126.5 -368.5 -126.5
c-135.333 0 -249 46.667 -341 140s-138 196 -138 308zM584.001 66c49.333 0 92.667 29.667 130 89s56 161.333 56 306c0 83.333 -7.33301 176 -22 278c-52 56 -107.333 84 -166 84c-76.667 0 -133.167 -36.833 -169.5 -110.5s-54.5 -156.167 -54.5 -247.5
c0 -112 22.667 -206.5 68 -283.5s98 -115.5 158 -115.5z" />
    <glyph glyph-name="ntilde" unicode="&#xf1;" horiz-adv-x="1261" 
d="M739 1206c44 0 77.667 29.333 101 88c15.333 0 28.666 -3.66699 39.999 -11s17 -17.333 17 -30c-18 -58.667 -44 -105 -78 -139s-70 -51 -108 -51c-50.667 0 -95 14.333 -133 43c-35.333 23.333 -75 35 -119 35c-18 0 -32.167 -1.33301 -42.5 -4
s-20.833 -10.167 -31.5 -22.5s-19.667 -30.833 -27 -55.5c-35.333 0 -53 12.333 -53 37c18 54.667 42.333 100 73 136s63 54 97 54c58.667 0 109.334 -17 152.001 -51c24 -19.333 61.333 -29 112 -29zM467 250c0 -80.667 6.16895 -130.5 18.502 -149.5
s41.5 -30.5 87.5 -34.5c5.33301 -5.33301 8.16602 -17 8.49902 -35s-2.5 -29.667 -8.5 -35c-117.333 2.66699 -197 4 -239 4c-72.667 0 -166.334 -1.33301 -281.001 -4c-5.33301 5.33301 -8 16.833 -8 34.5s2.66699 29.5 8 35.5c65.333 5.33301 106.333 16.833 123 34.5
s25 67.5 25 149.5v383c0 57.333 -7.83301 94.166 -23.5 110.499s-52.167 27.166 -109.5 32.499c-8 26 -9.66699 48 -5 66c116 15.333 229.333 37.666 340 66.999c30 0 46 -11.667 48 -35c6 -40.667 10.333 -84.667 13 -132c162.667 112 276.334 167.667 341.001 167
c181.333 0 272 -109 272 -327v-320c0 -83.333 10 -136.166 30 -158.499s62.667 -34.833 128 -37.5c6.66699 -5.33301 10 -17 10 -35s-3.33301 -29.667 -10 -35c-117.333 2.66699 -214.333 4 -291 4c-52 0 -135.333 -1.33301 -250 -4c-6.66699 5.33301 -10 16.833 -10 34.5
s3.33301 29.5 10 35.5c45.333 2.66699 76.166 15.834 92.499 39.501s24.5 75.834 24.5 156.501v342c0 102.667 -47.667 154 -143 154c-40.667 0 -107.667 -32 -201 -96v-4v-408z" />
    <glyph glyph-name="ograve" unicode="&#xf2;" horiz-adv-x="1128" 
d="M500 1380l140.998 -254.001c12 -22 18 -39.667 18 -53c0 -9.33301 -3.33301 -17.166 -10 -23.499s-14.667 -9.5 -24 -9.5c-16.667 0 -40.667 13.667 -72 41l-248 215l4 23c12 13.333 31.833 27.5 59.5 42.5s57.834 22.5 90.501 22.5c16.667 0 30.334 -1.33301 41.001 -4z
M531.998 822.999c-113.333 0 -169.998 -118 -169.998 -354c0 -94 20.167 -184.667 60.5 -272s98.166 -131 173.499 -131c45.333 0 85 24.167 119 72.5s51 127.833 51 238.5c0 139.333 -21.333 248.5 -64 327.5s-99.334 118.5 -170.001 118.5zM76 423.999
c0 136.667 37.333 247.999 112 333.999c88 101.333 213.667 151.666 377 150.999c148.667 0 267.167 -43.667 355.5 -131s132.5 -199.333 132.5 -336c0 -147.333 -46.667 -262.666 -140 -345.999c-87.333 -78 -204 -116.667 -350 -116
c-139.333 0 -255.333 40.833 -348 122.5s-139 188.834 -139 321.501z" />
    <glyph glyph-name="oacute" unicode="&#xf3;" horiz-adv-x="1128" 
d="M578 1380c8 2.66699 18.667 4 32 4c52 0 91 -16.333 117 -49l21 -47l-246 -221c-26 -22 -52 -33 -78 -33c-8 0 -15.5 3.16699 -22.5 9.5s-10.5 12.833 -10.5 19.5c0 16.667 5.66699 33 17 49zM532 823c-113.333 0 -169.998 -118 -169.998 -354
c0 -94 20.167 -184.667 60.5 -272s98.166 -131 173.499 -131c45.333 0 85 24.167 119 72.5s51 127.833 51 238.5c0 139.333 -21.333 248.5 -64 327.5s-99.334 118.5 -170.001 118.5zM76.002 424c0 136.667 37.333 247.999 112 333.999
c88 101.333 213.667 151.666 377 150.999c148.667 0 267.167 -43.667 355.5 -131s132.5 -199.333 132.5 -336c0 -147.333 -46.667 -262.666 -140 -345.999c-87.333 -78 -204 -116.667 -350 -116c-139.333 0 -255.333 40.833 -348 122.5s-139 188.834 -139 321.501z" />
    <glyph glyph-name="ocircumflex" unicode="&#xf4;" horiz-adv-x="1128" 
d="M621 1358c46.667 -75.333 118.334 -167.001 215.001 -275.001l-52 -39c-91.333 54.667 -164.333 111.334 -219 170.001c-50.667 -52 -123 -108.667 -217 -170l-51 39c105.333 120 177.666 211.667 216.999 275h107zM532 822.999c-113.333 0 -169.998 -118 -169.998 -354
c0 -94 20.167 -184.667 60.5 -272s98.166 -131 173.499 -131c45.333 0 85 24.167 119 72.5s51 127.833 51 238.5c0 139.333 -21.333 248.5 -64 327.5s-99.334 118.5 -170.001 118.5zM76.002 423.999c0 136.667 37.333 247.999 112 333.999
c88 101.333 213.667 151.666 377 150.999c148.667 0 267.167 -43.667 355.5 -131s132.5 -199.333 132.5 -336c0 -147.333 -46.667 -262.666 -140 -345.999c-87.333 -78 -204 -116.667 -350 -116c-139.333 0 -255.333 40.833 -348 122.5s-139 188.834 -139 321.501z" />
    <glyph glyph-name="otilde" unicode="&#xf5;" horiz-adv-x="1128" 
d="M666 1206c44 0 77.332 29.333 99.999 88c15.333 0 28.666 -3.66699 39.999 -11s17 -17.333 17 -30c-18 -58.667 -44 -105 -78 -139s-70 -51 -108 -51c-50.667 0 -95 14.333 -133 43c-35.333 23.333 -75 35 -119 35c-18 0 -32 -1.33301 -42 -4s-20.5 -10.167 -31.5 -22.5
s-19.833 -30.833 -26.5 -55.5c-35.333 0 -53.333 12.333 -54 37c18 54.667 42.333 100 73 136s63 54 97 54c58.667 0 109.334 -17 152.001 -51c24.667 -19.333 62.334 -29 113.001 -29zM531.999 823c-113.333 0 -169.998 -118 -169.998 -354
c0 -94 20.167 -184.667 60.5 -272s98.166 -131 173.499 -131c45.333 0 85 24.167 119 72.5s51 127.833 51 238.5c0 139.333 -21.333 248.5 -64 327.5s-99.334 118.5 -170.001 118.5zM76.001 424c0 136.667 37.333 247.999 112 333.999
c88 101.333 213.667 151.666 377 150.999c148.667 0 267.167 -43.667 355.5 -131s132.5 -199.333 132.5 -336c0 -147.333 -46.667 -262.666 -140 -345.999c-87.333 -78 -204 -116.667 -350 -116c-139.333 0 -255.333 40.833 -348 122.5s-139 188.834 -139 321.501z" />
    <glyph glyph-name="odieresis" unicode="&#xf6;" horiz-adv-x="1128" 
d="M635 1173.5c0 31.667 10.833 58.333 32.5 80s48.334 32.5 80.001 32.5s58.334 -10.833 80.001 -32.5s32.5 -48.167 32.5 -79.5c0 -30 -10.833 -56 -32.5 -78s-48.334 -33 -80.001 -33s-58.334 10.5 -80.001 31.5s-32.5 47.333 -32.5 79zM254 1174
c0 31.333 10.833 57.834 32.5 79.501s48.334 32.5 80.001 32.5s58.334 -10.833 80.001 -32.5s32.5 -48.334 32.5 -80.001s-10.833 -58 -32.5 -79s-48.334 -31.5 -80.001 -31.5s-58.334 11 -80.001 33s-32.5 48 -32.5 78zM532 823c-113.333 0 -169.998 -118 -169.998 -354
c0 -94 20.167 -184.667 60.5 -272s98.166 -131 173.499 -131c45.333 0 85 24.167 119 72.5s51 127.833 51 238.5c0 139.333 -21.333 248.5 -64 327.5s-99.334 118.5 -170.001 118.5zM76.002 424c0 136.667 37.333 247.999 112 333.999
c88 101.333 213.667 151.666 377 150.999c148.667 0 267.167 -43.667 355.5 -131s132.5 -199.333 132.5 -336c0 -147.333 -46.667 -262.666 -140 -345.999c-87.333 -78 -204 -116.667 -350 -116c-139.333 0 -255.333 40.833 -348 122.5s-139 188.834 -139 321.501z" />
    <glyph glyph-name="divide" unicode="&#xf7;" horiz-adv-x="1105" 
d="M424 788c0 33.333 12.499 62 37.499 86s54.833 36 89.5 36s64 -11.5 88 -34.5s36 -51.167 36 -84.5c0 -32.667 -12.667 -60.834 -38 -84.501s-55.166 -35.5 -89.499 -35.5s-63.5 11.333 -87.5 34s-36 50.334 -36 83.001zM423.999 173
c0 33.333 12.499 62.001 37.499 86.001s54.833 36 89.5 36s64 -11.333 88 -34s36 -50.667 36 -84c0 -32.667 -12.667 -60.834 -38 -84.501s-55.166 -35.5 -89.499 -35.5s-63.5 11.167 -87.5 33.5s-36 49.833 -36 82.5zM968.998 545.001l-21 -123h-817l21 123h817z" />
    <glyph glyph-name="oslash" unicode="&#xf8;" horiz-adv-x="1161" 
d="M922 973l75 -59.999l-91 -112c104.667 -86.667 157 -206.334 157 -359.001c0 -147.333 -46.333 -262.666 -139 -345.999c-87.333 -78 -204.333 -116.667 -351 -116c-106 0 -199.333 24.333 -280 73l-100 -123l-74 66l96 116c-86 82 -129 186 -129 312
c0 136.667 37.333 248 112 334c88 101.333 213.667 151.666 377 150.999c93.333 0 176.333 -18.333 249 -55zM543 823.001c-113.333 0 -170 -118 -170 -354c0 -46.667 5.33301 -94.667 16 -144l319 387c-42 74 -97 111 -165 111zM749 610.001l-324 -396.002
c44 -99.333 104.333 -148.666 181 -147.999c45.333 0 85 24.167 119 72.5s51 127.833 51 238.5c0 88.667 -9 166.334 -27 233.001z" />
    <glyph glyph-name="ugrave" unicode="&#xf9;" horiz-adv-x="1224" 
d="M530 1380l142 -254.001c12 -22 18 -39.667 18 -53c0 -9.33301 -3.33301 -17.166 -10 -23.499s-15 -9.5 -25 -9.5c-16.667 0 -40.334 13.667 -71.001 41l-248 215l4 23c12 13.333 31.667 27.5 59 42.5s57.333 22.5 90 22.5c16.667 0 30.334 -1.33301 41.001 -4z
M1044 271.999c0 -58.667 8.66602 -98.5049 25.999 -119.505s53.333 -34.167 108 -39.5c8 -26 9.33301 -48 4 -66c-116 -15.333 -229.333 -37.666 -340 -66.999c-30 0 -45.667 11.333 -47 34c-3.33301 26 -6.66602 56 -9.99902 90c-61.333 -34.667 -124.5 -64 -189.5 -88
s-115.5 -36 -151.5 -36c-174.667 0 -262 109 -262 327v320c0 80.667 -9.83301 132.834 -29.5 156.501s-55.5 36.834 -107.5 39.501c-5.33301 5.33301 -8 17 -8 35s2.66699 29.667 8 35c117.333 -2.66699 207.333 -4 270 -4c28.667 0 67.667 1.33301 117 4
c13.333 -13.333 20.333 -36.666 21 -69.999c0 -5.33301 -0.666992 -22.333 -2 -51s-2 -77 -2 -145v-342c0 -65.333 11.5 -107.333 34.5 -126s59.167 -28 108.5 -28c66 0 128.667 18.333 188 55c-1.33301 22 -2 42.333 -2 61v380c0 82 -8.83301 133.833 -26.5 155.5
s-54.5 35.167 -110.5 40.5c-6.66699 5.33301 -10 17 -10 35s3.33301 29.667 10 35c106.667 -2.66699 196.667 -4 270 -4c28.667 0 67.667 1.33301 117 4c13.333 -13.333 20.333 -36.666 21 -69.999c0 -5.33301 -0.833008 -22.333 -2.5 -51s-2.5 -77 -2.5 -145v-355z" />
    </font>
</defs>
</svg>
